<?xml version="1.0" encoding="UTF-8" standalone="no"?>
<!DOCTYPE svg PUBLIC "-//W3C//DTD SVG 1.1//EN" "http://www.w3.org/Graphics/SVG/1.1/DTD/svg11.dtd">
<svg width="100%" height="100%" viewBox="0 0 940 877" version="1.1" xmlns="http://www.w3.org/2000/svg" xmlns:xlink="http://www.w3.org/1999/xlink" xml:space="preserve" xmlns:serif="http://www.serif.com/" style="fill-rule:evenodd;clip-rule:evenodd;stroke-linejoin:round;stroke-miterlimit:2;">
    <g transform="matrix(1,0,0,1,293,0)">
        <path d="M0,0C6.667,-0.167 29.833,-1 38,0C42.146,0.508 45.549,3.647 49,6C52.667,8.5 56.667,12 60,15C63.154,17.838 66.162,20.846 69,24C72,27.333 75.833,32.833 78,35C79.054,36.054 80.533,36.733 82,37C83.833,37.333 87,36.833 89,37C90.694,37.141 93.167,38.833 94,38C94.833,37.167 93.172,33.821 94,32C94.833,30.167 97.167,28 99,27C100.78,26.029 103.167,25.667 105,26C106.833,26.333 108.667,27.667 110,29C111.333,30.333 111.428,32.857 113,34C114.833,35.333 119.333,36 121,37C122.031,37.618 122.785,38.818 123,40C123.333,41.833 123.5,46 123,48C122.596,49.617 119.521,50.404 120,52C120.5,53.667 124.5,56.833 126,58C126.832,58.647 128.167,59.5 129,59C129.833,58.5 129.901,56.007 131,55C133,53.167 137.428,49.948 141,48C144.667,46 149,44.167 153,43C156.893,41.865 160.948,41.15 165,41C169.5,40.833 175.333,41.167 180,42C184.463,42.797 189,44.167 193,46C196.951,47.811 200.667,50.5 204,53C207.211,55.408 211.333,59.333 213,61C213.527,61.527 213.578,63.614 214,63C215.833,60.333 220.833,50 224,45C226.675,40.776 229.799,36.841 233,33C236.333,29 240.167,24.5 244,21C247.692,17.629 252,14.5 256,12C259.792,9.63 264.5,7.333 268,6C270.872,4.906 273.941,4.291 277,4C280.5,3.667 285.167,3.5 289,4C292.769,4.492 296.5,5.667 300,7C303.483,8.327 306.947,9.863 310,12C313.333,14.333 317,18 320,21C322.838,23.838 325.667,26.734 328,30C330.5,33.5 332.991,37.828 335,42C337.167,46.5 339.465,51.838 341,57C342.833,63.167 344.833,73.333 346,79C346.818,82.972 345.716,87.65 348,91C350.5,94.667 357.833,98.5 361,101C363.043,102.613 365.667,105 367,106C367.596,106.447 368.473,107.527 369,107C369.667,106.333 369.807,103.342 371,102C372.333,100.5 374.668,98.583 377,98C379.667,97.333 384.333,97.167 387,98C389.485,98.777 391.667,101.167 393,103C394.24,104.705 393.246,107.831 395,109C397,110.333 402.5,109.667 405,111C407.297,112.225 409,115 410,117C410.907,118.814 411.308,120.996 411,123C410.667,125.167 409,128.333 408,130C407.272,131.213 405.333,131.833 405,133C404.667,134.167 405.886,135.63 406,137C406.167,139 406.833,142.833 406,145C405.167,147.167 402.5,149.167 401,150C399.834,150.648 396.404,148.807 397,150C397.667,151.333 403.333,155.5 405,158C406.346,160.019 405.204,163.368 407,165C408.833,166.667 413.833,166.667 416,168C417.818,169.119 419.179,171.03 420,173C420.833,175 421.333,177.833 421,180C420.667,182.167 419.315,184.192 418,186C416.667,187.833 413,188.833 413,191C413,193.167 416.594,196.187 418,199C419.833,202.667 422.667,208.833 424,213C425.136,216.549 425.838,220.277 426,224C426.167,227.833 425.841,232.075 425,236C424,240.667 421.5,248 420,252C418.953,254.792 416.333,257.833 416,260C415.727,261.774 417.076,263.461 418,265C419.5,267.5 423.012,271.45 425,275C427.333,279.167 430.333,285.5 432,290C433.432,293.866 434.333,298.833 435,302C435.486,304.306 435.853,306.648 436,309C436.167,311.667 436.372,315.023 436,318C435.5,322 434.333,328.5 433,333C431.769,337.155 430.132,341.228 428,345C425.833,348.833 421.5,353.667 420,356C419.43,356.887 418.577,358.034 419,359C420.167,361.667 424.667,367.5 427,372C429.333,376.5 431.541,381.137 433,386C434.5,391 435.667,396.833 436,402C436.323,407.001 435.833,412.167 435,417C434.175,421.783 432.667,426.667 431,431C429.395,435.174 426.5,440.333 425,443C424.183,444.453 422.333,445.5 422,447C421.667,448.5 422.369,450.422 423,452C424.333,455.333 428.167,462.333 430,467C431.658,471.22 433.016,475.574 434,480C435,484.5 435.667,489.833 436,494C436.292,497.655 436.292,501.345 436,505C435.667,509.167 435,514.5 434,519C433.016,523.426 431.667,527.833 430,532C428.339,536.152 426.5,540.333 424,544C421.5,547.667 415.149,549.518 415,554C414.833,559 421.167,568.5 423,574C424.406,578.219 425.631,582.568 426,587C426.5,593 426.5,604.167 426,610C425.648,614.108 424.448,618.139 423,622C421.5,626 418.833,631.167 417,634C415.72,635.979 412.5,637.5 412,639C411.529,640.414 413.046,641.855 414,643C415.667,645 419.714,648 422,651C424.667,654.5 428,660.167 430,664C431.661,667.183 433,670.833 434,674C434.925,676.931 435.773,679.935 436,683C436.333,687.5 436.667,695.5 436,701C435.377,706.137 433.5,711.667 432,716C430.683,719.806 427.5,724.333 427,727C426.669,728.764 428.155,730.416 429,732C430.333,734.5 433.196,738.557 435,742C436.833,745.5 438.772,749.164 440,753C441.333,757.167 442.5,762.833 443,767C443.437,770.641 443.333,774.667 443,778C442.694,781.058 440.167,785.333 441,787C441.833,788.667 445.805,787.141 448,788C451.833,789.5 459.5,793.333 464,796C467.9,798.311 471.5,801.167 475,804C478.486,806.822 482,810.167 485,813C487.742,815.589 490.627,818.069 493,821C495.833,824.5 499.335,829.453 502,834C504.833,838.833 508,845.333 510,850C511.661,853.875 513.167,859.167 514,862C514.48,863.631 514.887,865.304 515,867C515.167,869.5 518.333,876.942 515,877C419,878.667 35.167,877.167 -61,877C-61.471,876.999 -61.972,876.471 -62,876C-62.167,873.167 -62.333,864.667 -62,860C-61.711,855.955 -61.152,851.888 -60,848C-58.667,843.5 -56.167,837.333 -54,833C-52.056,829.113 -49.634,825.457 -47,822C-44.333,818.5 -40,814 -38,812C-37.15,811.15 -36,810.333 -35,810C-34.051,809.684 -32.333,810.833 -32,810C-31.667,809.167 -32.941,806.699 -33,805C-33.167,800.167 -33.5,787.667 -33,781C-32.594,775.589 -31.333,769.833 -30,765C-28.765,760.524 -26.833,755.667 -25,752C-23.388,748.775 -20,745 -19,743C-18.553,742.106 -18.641,740.933 -19,740C-19.833,737.833 -22.833,733.333 -24,730C-25.123,726.791 -25.692,723.385 -26,720C-26.333,716.333 -26.458,711.974 -26,708C-25.5,703.667 -24.5,698.333 -23,694C-21.537,689.774 -18.333,684.5 -17,682C-16.434,680.94 -14.503,680.094 -15,679C-15.833,677.167 -20.158,674.027 -22,671C-24.333,667.167 -27.333,660.667 -29,656C-30.496,651.812 -31.557,647.425 -32,643C-32.5,638 -32.5,631 -32,626C-31.557,621.575 -28.667,616 -29,613C-29.26,610.657 -32.544,609.853 -34,608C-35.833,605.667 -38.262,602.159 -40,599C-41.833,595.667 -43.677,591.804 -45,588C-46.333,584.167 -47.603,580.104 -48,576C-48.5,570.833 -48.5,562.167 -48,557C-47.603,552.896 -46.333,548.333 -45,545C-43.832,542.08 -41.167,538.833 -40,537C-39.355,535.986 -37,534.667 -38,534C-39,533.333 -43.426,533.772 -46,533C-49.333,532 -54.167,530 -58,528C-61.833,526 -65.667,523.5 -69,521C-72.211,518.592 -76,515 -78,513C-79.179,511.821 -79.36,509.298 -81,509C-82.833,508.667 -86.264,510.739 -89,511C-92.5,511.333 -98,511.5 -102,511C-105.771,510.529 -109.507,509.497 -113,508C-116.5,506.5 -120,504.333 -123,502C-125.977,499.685 -128.685,496.977 -131,494C-133.333,491 -135.434,487.558 -137,484C-138.833,479.833 -140.833,473.5 -142,469C-143.018,465.075 -143.762,461.048 -144,457C-144.333,451.333 -144.667,442 -144,435C-143.355,428.232 -141.833,421.5 -140,415C-138.168,408.504 -135.5,401.833 -133,396C-130.651,390.519 -127.975,385.168 -125,380C-121.833,374.5 -117.5,368 -114,363C-110.865,358.521 -107.47,354.225 -104,350C-100.167,345.333 -94.5,338.833 -91,335C-88.457,332.215 -84.5,328.667 -83,327C-82.501,326.446 -81.473,325.527 -82,325C-82.667,324.333 -85.524,324.022 -87,323C-89.167,321.5 -92.747,318.735 -95,316C-97.333,313.167 -99.667,308.667 -101,306C-101.943,304.114 -102.667,301.667 -103,300C-103.261,298.693 -101.869,296.707 -103,296C-104.333,295.167 -108.474,295.918 -111,295C-114.667,293.667 -121,290.667 -125,288C-128.731,285.512 -132,282.167 -135,279C-137.936,275.901 -140.78,272.646 -143,269C-145.333,265.167 -147.5,260.167 -149,256C-150.397,252.121 -151.561,248.1 -152,244C-152.5,239.333 -152.5,232.833 -152,228C-151.542,223.576 -150.5,219.167 -149,215C-147.5,210.833 -145.5,206.667 -143,203C-140.5,199.333 -137.167,195.833 -134,193C-130.968,190.287 -126.833,187.667 -124,186C-121.812,184.713 -119.453,183.654 -117,183C-114.5,182.333 -110.167,182.5 -109,182C-108.315,181.706 -109.943,180.743 -110,180C-110.167,177.833 -110.42,172.642 -110,169C-109.5,164.667 -108.333,158.667 -107,154C-105.725,149.536 -103.833,145 -102,141C-100.26,137.203 -98.428,133.399 -96,130C-93.5,126.5 -89.833,122.833 -87,120C-84.494,117.494 -82.013,114.865 -79,113C-75.5,110.833 -69.333,108.333 -66,107C-63.747,106.099 -60.833,105.333 -59,105C-57.688,104.761 -55.672,106.152 -55,105C-53.833,103 -51.5,95.167 -52,93C-52.456,91.024 -56.289,93.089 -58,92C-59.833,90.833 -62.177,88.47 -63,86C-63.833,83.5 -63.667,79.333 -63,77C-62.414,74.948 -60.167,73.167 -59,72C-58.15,71.15 -56.497,71.094 -56,70C-55.167,68.167 -55.333,63.333 -54,61C-52.708,58.74 -50.333,56.833 -48,56C-45.667,55.167 -42.333,55.333 -40,56C-37.689,56.66 -35.667,58.333 -34,60C-32.333,61.667 -31.5,65.5 -30,66C-28.5,66.5 -25.505,64.877 -25,63C-23.833,58.667 -24,46.333 -23,40C-22.193,34.889 -20.333,29 -19,25C-17.962,21.886 -16.594,18.87 -15,16C-13.333,13 -11.167,9.5 -9,7C-6.987,4.678 -3.5,2.167 -2,1C-1.412,0.542 -0.745,0.019 0,0ZM-25,68C-25.833,69 -28.833,72.5 -29,74C-29.156,75.406 -26.833,76 -26,77C-25.231,77.923 -24.667,80.167 -24,80C-23.333,79.833 -22,77.491 -22,76C-22,74 -23.5,69.333 -24,68C-24.117,67.688 -24.787,67.744 -25,68ZM-45,98C-46.333,98.667 -47,103.833 -46,105C-45,106.167 -40.333,105.667 -39,105C-37.771,104.385 -37.106,102.043 -38,101C-39,99.833 -43.667,97.333 -45,98ZM350,105C349.667,105.667 348.833,109 350,110C351.167,111 356.667,111.667 357,111C357.333,110.333 353.167,107 352,106C351.434,105.515 350.333,104.333 350,105Z" style="fill:rgb(191,191,191);fill-rule:nonzero;"/>
    </g>
    <g transform="matrix(1,0,0,1,293,0)">
        <path d="M0,0L38,0L49,6L60,15L69,24L78,35L82,37L89,37L94,38L94,32L99,27L105,26L110,29L113,34L121,37L123,40L123,48L120,52L126,58L129,59L131,55L141,48L153,43L165,41L180,42L193,46L204,53L213,61L214,63L224,45L233,33L244,21L256,12L268,6L277,4L289,4L300,7L310,12L320,21L328,30L335,42L341,57L346,79L348,91L361,101L367,106L369,107L371,102L377,98L387,98L393,103L395,109L405,111L410,117L411,123L408,130L405,133L406,137L406,145L401,150L396.865,150.575L405,158L407,165L416,168L420,173L421,180L418,186L413,191L418,199L424,213L426,224L425,236L420,252L416,260L418,265L425,275L432,290L435,302L436,309L436,318L433,333L428,345L420,356L419,359L427,372L433,386L436,402L435,417L431,431L425,443L422,447L423,452L430,467L434,480L436,494L436,505L434,519L430,532L424,544L415,554L423,574L426,587L426,610L423,622L417,634L412,639L414,643L422,651L430,664L434,674L436,683L436,701L432,716L427,727L429,732L435,742L440,753L443,767L443,778L441,787L448,788L464,796L475,804L485,813L493,821L502,834L510,850L514,862L515,867L515,877L505,877L497,856L489,841L481,830L473,821L462,812L448,802L437,796L435,801L429,808L420,813L415,815L408,815L407,812L414,804L422,795L426,787L428,781L428,762L424,751L418,740L413,733L412,726L419,709L421,702L421,683L418,673L411,660L400,646L396,641L397,636L405,626L410,614L411,610L411,587L406,570L399,556L400,549L405,544L413,533L418,521L420,512L420,487L416,472L407,453L406,447L418,423L420,415L420,397L416,384L410,372L404,363L403,361L403,354L407,348L413,341L418,330L420,322L420,305L416,292L409,278L402,268L401,265L401,257L408,240L410,231L410,223L408,215L398,213L392,208L389,201L388,206L379,216L376,220L380,222L384,227L385,229L385,240L379,247L374,249L365,248L365,257L361,263L358,265L349,265L343,260L341,255L341,247L337,249L328,249L325,247L314,248L316,254L315,263L311,269L307,272L304,273L297,273L291,271L290,276L285,280L277,281L271,277L268,273L267,267L265,268L256,267L251,264L248,258L244,259L223,259L221,255L226,250L228,244L227,235L223,229L214,225L207,224L201,216L193,212L184,213L178,218L174,229L165,231L160,236L159,238L159,246L163,254L152,253L135,250L129,258L125,260L115,260L112,258L108,259L105,262L102,263L93,263L87,259L84,255L84,241L79,236L79,234L68,231L52,224L49,230L45,233L38,233L33,230L30,227L28,228L21,228L15,223L14,216L14,212L9,206L7,201L-5,192L-16,191L-20,194L-27,194L-33,189L-36,182L-41,178L-43,173L-42,165L-39,162L-41,157L-44,153L-42,149L-38,145L-31,144L-29,141L-29,132L-24,127L-23,125L-23,116L-27,110L-30,109L-45,109L-49,107L-55,108L-60,113L-62,119L-72,124L-82,133L-88,141L-95,157L-99,173L-100,186L-101,190L-110,194L-124,201L-131,208L-137,219L-139,227L-139,245L-135,257L-129,267L-122,275L-108,284L-96,290L-91,298L-86,307L-81,312L-77,315L-71,317L-56,317L-48,315L-42,315L-41,320L-39,325L-33,333L-24,339L-15,342L-5,342L7,338L15,332L23,323L31,309L33,307L39,307L47,314L57,320L65,322L77,321L86,317L93,312L99,303L103,293L105,291L110,292L114,297L120,306L128,312L134,314L147,314L157,310L166,302L174,289L179,283L183,285L187,304L193,316L198,322L213,333L216,337L216,343L209,355L206,365L206,376L209,387L217,403L221,409L221,417L216,422L207,428L202,432L195,442L189,455L186,467L184,480L180,486L167,491L161,496L157,505L156,510L156,526L157,542L156,544L149,546L145,552L143,561L142,570L138,574L132,574L121,568L112,566L103,566L90,570L79,577L72,582L68,582L68,576L72,570L75,566L69,564L55,559L45,557L21,557L5,561L-12,569L-17,568L-16,563L-13,559L-15,554L-22,543L-25,539L-25,536L-31,536L-33,535L-37,553L-38,568L-35,583L-29,597L-19,612L-20,616L-22,616L-22,639L-18,655L-7,677L-7,682L-9,682L-13,698L-15,708L-15,719L-10,740L-11,744L-17,759L-21,774L-23,792L-24,816L-28,817L-31,817L-40,830L-48,846L-52,863L-54,877L-61,877L-62,876L-62,860L-60,848L-54,833L-47,822L-38,812L-35,810L-32,810L-33,805L-33,781L-30,765L-25,752L-19,743L-19,740L-24,730L-26,720L-26,708L-23,694L-17,682L-15,679L-22,671L-29,656L-32,643L-32,626L-29,613L-34,608L-40,599L-45,588L-48,576L-48,557L-45,545L-40,537L-38,534L-46,533L-58,528L-69,521L-78,513L-81,509L-89,511L-102,511L-113,508L-123,502L-131,494L-137,484L-142,469L-144,457L-144,435L-140,415L-133,396L-125,380L-114,363L-104,350L-91,335L-83,327L-82,325L-87,323L-95,316L-101,306L-103,300L-103,296L-111,295L-125,288L-135,279L-143,269L-149,256L-152,244L-152,228L-149,215L-143,203L-134,193L-124,186L-117,183L-109,182L-110,180L-110,169L-107,154L-102,141L-96,130L-87,120L-79,113L-66,107L-59,105L-55,105L-52,93L-58,92L-63,86L-63,77L-59,72L-56,70L-54,61L-48,56L-40,56L-34,60L-30,66L-25,63L-23,40L-19,25L-15,16L-9,7L-2,1L0,0ZM-25,68L-29,74L-26,77L-24,80L-22,76L-24,68L-25,68ZM-45,98L-46,105L-39,105L-38,101L-45,98ZM350,105L350,110L357,111L352,106L350,105Z" style="fill:rgb(192,192,192);fill-rule:nonzero;"/>
    </g>
    <g transform="matrix(1,0,0,1,469,305)">
        <path d="M0,0L2,2L6,12L14,23L27,33L30,36L24,46L21,54L20,59L20,72L23,85L31,101L35,108L22,117L13,127L7,137L1,155L-2,172L-11,176L-19,181L-25,188L-29,198L-30,203L-30,222L-28,232L-36,237L-40,243L-44,257L-57,252L-63,251L-74,251L-87,254L-94,257L-102,251L-113,246L-124,243L-130,242L-156,242L-170,245L-181,249L-188,235L-191,231L-190,230L-175,227L-162,222L-150,215L-139,205L-134,198L-135,192L-140,192L-147,200L-160,210L-172,216L-187,220L-200,221L-215,219L-229,214L-240,207L-250,197L-257,183L-260,170L-259,165L-252,159L-241,153L-235,148L-233,145L-233,137L-238,133L-248,132L-258,135L-262,127L-265,124L-272,123L-277,128L-278,136L-275,149L-269,160L-265,165L-266,168L-266,181L-262,194L-262,196L-274,196L-286,193L-295,187L-302,178L-308,162L-310,150L-310,132L-307,116L-301,98L-293,82L-284,67L-272,51L-263,40L-252,26L-251,24L-233,23L-224,21L-218,31L-210,39L-198,45L-194,46L-178,46L-168,43L-159,38L-149,29L-142,18L-140,14L-136,16L-128,22L-118,26L-106,27L-94,25L-82,19L-74,12L-68,3L-63,8L-56,14L-47,18L-43,19L-27,19L-16,15L-7,8L0,0Z" style="fill:rgb(243,224,188);fill-rule:nonzero;"/>
    </g>
    <g transform="matrix(1,0,0,1,293,0)">
        <path d="M0,0L38,0L49,6L60,15L69,24L78,35L82,37L89,37L94,38L94,32L99,27L105,26L110,29L113,34L121,37L123,40L123,48L120,52L126,58L129,59L131,55L141,48L153,43L165,41L180,42L193,46L204,53L213,61L214,63L224,45L233,33L244,21L256,12L268,6L277,4L289,4L300,7L310,12L320,21L328,30L335,42L341,57L346,79L348,91L361,101L367,106L368,109L368,118L370,122L373.764,137.169C373.764,137.169 366.866,128.379 364.04,126.1C360.684,123.395 352,119 352,119L358,147L359,152L359,166L356,168L351,163L346,147L338,108L332,72L327,55L319,39L311,29L302,22L290,17L276,17L266,21L264,22L278,28L288,36L296,45L304,59L310,77L314,102L316,128L316,137L315,143L322,144L327,148L328,153L327,154L310,154L298,158L289,155L279,150L275,149L253,149L237,139L227,136L208,134L205,130L204,127L204,106L207,87L210,75L202,68L193,61L183,56L172,54L163,54L151,57L139,63L132,68L129,73L124,72L114,64L106,60L102,59L86,59L75,63L67,69L59,77L52,88L46,87L33,79L24,76L15,75L3,77L-11,84L-18,91L-26,105L-28,109L-45,109L-49,107L-55,108L-60,113L-62,119L-72,124L-82,133L-88,141L-95,157L-99,173L-100,186L-101,190L-110,194L-124,201L-131,208L-137,219L-139,227L-139,245L-135,257L-129,267L-122,275L-108,284L-96,290L-91,298L-86,307L-81,312L-77,315L-71,317L-56,317L-48,315L-42,315L-41,320L-39,325L-33,333L-24,339L-15,342L-5,342L7,338L15,332L23,323L31,309L33,307L39,307L47,314L57,320L65,322L77,321L86,317L93,312L99,303L103,293L105,291L110,292L114,297L120,306L128,312L134,314L147,314L157,310L166,302L174,289L179,283L183,285L187,304L193,316L198,322L213,333L216,337L216,343L209,355L206,365L206,376L209,387L217,403L221,409L221,417L216,422L207,428L202,432L195,442L189,455L186,467L184,480L180,486L167,491L161,496L157,505L156,510L156,526L157,542L156,544L149,546L145,552L143,561L142,570L138,574L132,574L121,568L112,566L103,566L90,570L79,577L72,582L68,582L68,576L72,570L75,566L69,564L55,559L45,557L21,557L5,561L-12,569L-17,568L-16,563L-13,559L-15,554L-22,543L-25,539L-25,536L-31,536L-33,535L-37,553L-38,568L-35,583L-29,597L-19,612L-20,616L-22,616L-22,639L-18,655L-7,677L-7,682L-9,682L-13,698L-15,708L-15,719L-10,740L-11,744L-17,759L-21,774L-23,792L-24,816L-28,817L-31,817L-40,830L-48,846L-52,863L-54,877L-61,877L-62,876L-62,860L-60,848L-54,833L-47,822L-38,812L-35,810L-32,810L-33,805L-33,781L-30,765L-25,752L-19,743L-19,740L-24,730L-26,720L-26,708L-23,694L-17,682L-15,679L-22,671L-29,656L-32,643L-32,626L-29,613L-34,608L-40,599L-45,588L-48,576L-48,557L-45,545L-40,537L-38,534L-46,533L-58,528L-69,521L-78,513L-81,509L-89,511L-102,511L-113,508L-123,502L-131,494L-137,484L-142,469L-144,457L-144,435L-140,415L-133,396L-125,380L-114,363L-104,350L-91,335L-83,327L-82,325L-87,323L-95,316L-101,306L-103,300L-103,296L-111,295L-125,288L-135,279L-143,269L-149,256L-152,244L-152,228L-149,215L-143,203L-134,193L-124,186L-117,183L-109,182L-110,180L-110,169L-107,154L-102,141L-96,130L-87,120L-79,113L-66,107L-59,105L-55,105L-52,93L-58,92L-63,86L-63,77L-59,72L-56,70L-54,61L-48,56L-40,56L-34,60L-30,66L-25,63L-23,40L-19,25L-15,16L-9,7L-2,1L0,0ZM-25,68L-29,74L-26,77L-24,80L-22,76L-24,68L-25,68ZM-45,98L-46,105L-39,105L-38,101L-45,98ZM350,105L350,110L357,111L352,106L350,105ZM176,305L169,313L160,320L149,324L133,324L122,320L114,314L109,308L106,311L99,320L91,326L82,330L70,332L58,331L46,326L38,319L36,319L30,330L21,340L12,346L3,350L-2,351L-18,351L-29,347L-37,341L-45,332L-48,326L-57,328L-75,329L-83,340L-94,353L-108,372L-117,387L-125,403L-131,421L-134,437L-134,455L-131,470L-126,483L-119,492L-110,498L-98,501L-86,501L-89,491L-90,486L-90,473L-89,469L-95,462L-100,451L-102,438L-100,431L-96,428L-89,429L-84,435L-82,440L-72,437L-62,438L-57,442L-57,450L-62,456L-79,466L-84,471L-83,481L-79,493L-73,503L-63,513L-51,520L-39,524L-21,526L-6,524L9,519L19,513L29,505L36,497L41,497L42,503L34,513L26,520L12,528L-2,533L-14,535L-14,538L-10,543L-5,554L13,548L20,547L46,547L60,550L72,555L81,561L83,562L92,558L102,556L113,556L125,559L132,562L137,546L142,540L148,537L146,527L146,508L149,497L154,489L161,483L173,478L175,473L178,456L184,440L193,427L203,418L211,413L205,402L199,390L196,377L196,364L199,353L205,342L205,339L194,331L189,327L182,317L177,305L176,305Z" style="fill:rgb(1,2,1);fill-rule:nonzero;"/>
    </g>
    <g transform="matrix(1,0,0,1,240,106)">
        <path d="M0,0L12,2L23,2L28,5L31,10L31,19L27,25L24,26L25,35L20,40L14,40L10,45L12,50L15,54L11,62L12,70L17,75L23,85L26,87L33,87L37,84L48,85L60,94L62,96L65,103L69,107L68,114L71,119L74,121L81,121L84,120L89,125L91,126L98,126L103,121L105,117L124,125L132,128L135,133L138,135L138,149L142,154L146,156L155,156L160,153L162,151L166,152L168,153L178,153L183,150L187,143L211,147L215,147L211,140L211,132L215,126L220,123L227,123L229,114L235,107L240,105L249,106L255,110L259,115L260,117L270,119L277,123L281,129L282,138L279,145L276,149L274,149L278,156L278,166L274,173L269,176L257,176L251,172L247,169L242,174L236,177L231,179L219,197L210,205L200,209L187,209L178,205L170,198L164,188L161,186L157,187L152,199L145,208L136,214L130,216L118,217L108,214L99,208L92,202L86,202L81,210L74,221L65,230L55,235L48,237L38,237L27,233L19,227L11,216L11,210L1,211L-3,212L-18,212L-27,208L-32,204L-38,194L-43,185L-62,175L-72,167L-79,158L-85,146L-87,139L-87,121L-84,111L-78,101L-71,94L-57,87L-48,83L-48,74L-44,54L-38,39L-32,29L-22,19L-14,14L-9,12L-7,5L-2,1L0,0Z" style="fill:rgb(192,192,192);fill-rule:nonzero;"/>
    </g>
    <g transform="matrix(1,0,0,1,234,105)">
        <path d="M0,0C1.312,-0.239 3.333,-0.5 4,0C4.667,0.5 4.53,2.152 4,3C3.167,4.333 0.167,6.167 -1,8C-2.132,9.779 -1.446,12.575 -3,14C-5,15.833 -9.947,16.863 -13,19C-16.333,21.333 -20.333,25.167 -23,28C-25.285,30.427 -27.412,33.069 -29,36C-31.167,40 -34.167,46.667 -36,52C-37.787,57.199 -39.167,63.167 -40,68C-40.738,72.283 -40.667,78.167 -41,81C-41.161,82.365 -40.927,84.141 -42,85C-43.667,86.333 -48.038,87.584 -51,89C-54.833,90.833 -61.5,93.667 -65,96C-67.746,97.83 -70.068,100.325 -72,103C-74.167,106 -76.667,110.833 -78,114C-79.067,116.533 -79.789,119.259 -80,122C-80.333,126.333 -80.667,135 -80,140C-79.443,144.179 -77.667,148.333 -76,152C-74.391,155.539 -72.167,159 -70,162C-67.925,164.873 -65.754,167.771 -63,170C-59.5,172.833 -53.333,176.5 -49,179C-45.126,181.235 -39.833,182.667 -37,185C-34.573,186.999 -33.594,190.29 -32,193C-30.333,195.833 -28.667,199.667 -27,202C-25.63,203.918 -23.5,205.667 -22,207C-20.754,208.107 -19.491,209.255 -18,210C-16.333,210.833 -14.099,211.8 -12,212C-8.5,212.333 -0.833,212.333 3,212C5.738,211.762 8.667,210.333 11,210C12.98,209.717 15.833,209.167 17,210C18.167,210.833 17.512,213.372 18,215C18.5,216.667 19.059,218.471 20,220C21.333,222.167 23.563,225.726 26,228C28.5,230.333 32,232.5 35,234C37.828,235.414 40.876,236.507 44,237C47.167,237.5 50.72,237.596 54,237C57.667,236.333 62.667,234.667 66,233C68.981,231.509 71.568,229.28 74,227C76.667,224.5 79.708,221.295 82,218C84.667,214.167 88.333,206.667 90,204C90.5,203.2 91.085,202.229 92,202C93.333,201.667 96.211,201.106 98,202C100.333,203.167 103.127,206.925 106,209C109,211.167 113,213.667 116,215C118.512,216.116 121.255,216.863 124,217C127.333,217.167 132.5,216.833 136,216C139.194,215.24 142.333,213.5 145,212C147.499,210.594 150.049,209.101 152,207C154.167,204.667 156.333,201.167 158,198C159.667,194.833 161,190 162,188C162.422,187.157 163.067,186.133 164,186C165.167,185.833 167.586,186.057 169,187C170.5,188 171.759,190.263 173,192C174.667,194.333 176.667,198.5 179,201C181.274,203.437 184.667,205.667 187,207C188.83,208.046 190.903,208.779 193,209C196.167,209.333 202.167,209.667 206,209C209.537,208.385 212.965,206.917 216,205C219.167,203 222.474,200.12 225,197C227.833,193.5 230.833,187.167 233,184C234.47,181.851 236.5,178.667 238,178C239.362,177.395 241.469,178.607 242,180C243.333,183.5 244.333,193.833 246,199C247.373,203.256 250.167,208 252,211C253.358,213.221 255.016,215.314 257,217C260.333,219.833 269,225.5 272,228C273.28,229.067 274.521,230.404 275,232C275.5,233.667 275.725,236.136 275,238C273.833,241 269.667,246.333 268,250C266.56,253.168 265.492,256.555 265,260C264.5,263.5 264.505,267.367 265,271C265.5,274.667 266.566,278.48 268,282C269.833,286.5 274,294.333 276,298C277.151,300.11 279.34,301.689 280,304C280.667,306.333 280.833,309.833 280,312C279.167,314.167 276.853,315.544 275,317C272.667,318.833 268.333,321.333 266,323C264.263,324.241 262.389,325.379 261,327C259,329.333 256.002,333.458 254,337C251.833,340.833 249.5,345.833 248,350C246.603,353.879 245.809,357.957 245,362C244.167,366.167 244,371.833 243,375C242.276,377.292 241.018,379.694 239,381C236.167,382.833 229.167,384.333 226,386C223.696,387.213 221.513,388.882 220,391C218.333,393.333 216.833,397.667 216,400C215.428,401.601 215.081,403.302 215,405C214.833,408.5 214.833,415.669 215,421C215.167,426.333 216,434 216,437C216,437.745 215.667,438.667 215,439C213.667,439.667 209.833,439.667 208,441C206.167,442.333 204.893,444.768 204,447C203,449.5 202.5,453 202,456C201.504,458.977 201.833,462.833 201,465C200.323,466.76 198.667,468.333 197,469C195.333,469.667 192.886,469.666 191,469C188.167,468 183.333,464.333 180,463C177.147,461.859 174,461.333 171,461C168.018,460.669 164.952,460.463 162,461C158.333,461.667 153,463.167 149,465C145.049,466.811 141,470 138,472C135.614,473.591 132.833,476.167 131,477C129.786,477.552 127.667,478 127,477C126.333,476 126.368,472.897 127,471C127.667,469 129.833,466.667 131,465C131.956,463.635 134.5,462 134,461C133.5,460 129.99,459.696 128,459C124.667,457.833 118,455.167 114,454C110.737,453.048 107.393,452.2 104,452C98.333,451.667 86.667,451.333 80,452C74.53,452.547 69.166,454.121 64,456C58.5,458 50.667,462.833 47,464C45.38,464.515 42.667,464 42,463C41.333,462 42.333,459.5 43,458C43.667,456.5 45.833,455.5 46,454C46.167,452.5 44.88,450.565 44,449C42.5,446.333 38.667,440.5 37,438C36.075,436.613 34.5,435.167 34,434C33.606,433.081 34.894,431.447 34,431C33,430.5 29.333,431.167 28,431C27.26,430.908 26.248,429.297 26,430C25,432.833 22.833,442.5 22,448C21.249,452.955 20.667,458 21,463C21.333,468 22.5,473.167 24,478C25.5,482.833 27.547,487.555 30,492C32.667,496.833 38.5,503.833 40,507C40.588,508.242 39.5,510.333 39,511C38.6,511.533 37.058,510.336 37,511C36.667,514.833 36.333,527.5 37,534C37.561,539.469 38.982,544.886 41,550C43.5,556.333 50.167,567.5 52,572C52.629,573.543 52.333,576.167 52,577C51.752,577.619 50.234,576.376 50,577C49,579.667 47,588.667 46,593C45.236,596.312 44.322,599.616 44,603C43.667,606.5 43.434,610.377 44,614C44.833,619.333 48.333,630.833 49,635C49.217,636.357 48.475,637.71 48,639C46.833,642.167 43.667,649 42,654C40.364,658.909 38.926,663.909 38,669C37,674.5 36.43,680.978 36,687C35.5,694 35.833,706.833 35,711C34.73,712.348 32.167,711.833 31,712C30.01,712.141 28.678,711.265 28,712C26,714.167 21.665,720.453 19,725C16.167,729.833 13,735.5 11,741C9.011,746.471 8,752.833 7,758C6.104,762.628 5,772 5,772L-2,772L-3,771C-3,771 -3.333,759.667 -3,755C-2.711,750.955 -2.152,746.888 -1,743C0.333,738.5 2.833,732.333 5,728C6.944,724.113 9.366,720.457 12,717C14.667,713.5 19,709 21,707C21.85,706.15 23,705.333 24,705C24.949,704.684 26.667,705.833 27,705C27.333,704.167 26.059,701.699 26,700C25.833,695.167 25.5,682.667 26,676C26.406,670.589 27.667,664.833 29,660C30.235,655.524 32.167,650.667 34,647C35.612,643.775 39,640 40,638C40.447,637.106 40.359,635.933 40,635C39.167,632.833 36.167,628.333 35,625C33.877,621.791 33.308,618.385 33,615C32.667,611.333 32.542,606.974 33,603C33.5,598.667 34.5,593.333 36,589C37.463,584.774 40.667,579.5 42,577C42.566,575.94 44.497,575.094 44,574C43.167,572.167 38.842,569.027 37,566C34.667,562.167 31.667,555.667 30,551C28.504,546.812 27.443,542.425 27,538C26.5,533 26.5,526 27,521C27.443,516.575 30.333,511 30,508C29.74,505.657 26.456,504.853 25,503C23.167,500.667 20.738,497.159 19,494C17.167,490.667 15.323,486.804 14,483C12.667,479.167 11.397,475.104 11,471C10.5,465.833 10.5,457.167 11,452C11.397,447.896 12.667,443.333 14,440C15.168,437.08 17.833,433.833 19,432C19.645,430.986 22,429.667 21,429C20,428.333 15.574,428.772 13,428C9.667,427 4.833,425 1,423C-2.833,421 -6.667,418.5 -10,416C-13.211,413.592 -17,410 -19,408C-20.179,406.821 -20.36,404.298 -22,404C-23.833,403.667 -27.264,405.739 -30,406C-33.5,406.333 -39,406.5 -43,406C-46.771,405.529 -50.507,404.497 -54,403C-57.5,401.5 -61,399.333 -64,397C-66.977,394.685 -69.685,391.977 -72,389C-74.333,386 -76.434,382.558 -78,379C-79.833,374.833 -81.833,368.5 -83,364C-84.018,360.075 -84.762,356.048 -85,352C-85.333,346.333 -85.667,337 -85,330C-84.355,323.232 -82.833,316.5 -81,310C-79.168,303.504 -76.5,296.833 -74,291C-71.651,285.519 -68.975,280.168 -66,275C-62.833,269.5 -58.5,263 -55,258C-51.865,253.521 -48.47,249.225 -45,245C-41.167,240.333 -35.5,233.833 -32,230C-29.457,227.215 -25.5,223.667 -24,222C-23.501,221.446 -22.473,220.527 -23,220C-23.667,219.333 -26.524,219.022 -28,218C-30.167,216.5 -33.747,213.735 -36,211C-38.333,208.167 -40.667,203.667 -42,201C-42.943,199.114 -43.667,196.667 -44,195C-44.261,193.693 -42.869,191.707 -44,191C-45.333,190.167 -49.474,190.918 -52,190C-55.667,188.667 -62,185.667 -66,183C-69.731,180.512 -73,177.167 -76,174C-78.936,170.901 -81.78,167.646 -84,164C-86.333,160.167 -88.5,155.167 -90,151C-91.397,147.121 -92.561,143.1 -93,139C-93.5,134.333 -93.5,127.833 -93,123C-92.542,118.576 -91.5,114.167 -90,110C-88.5,105.833 -86.5,101.667 -84,98C-81.5,94.333 -78.167,90.833 -75,88C-71.968,85.287 -67.833,82.667 -65,81C-62.812,79.713 -60.453,78.654 -58,78C-55.5,77.333 -51.167,77.5 -50,77C-49.315,76.706 -50.943,75.743 -51,75C-51.167,72.833 -51.42,67.642 -51,64C-50.5,59.667 -49.333,53.667 -48,49C-46.725,44.536 -44.833,40 -43,36C-41.26,32.203 -39.428,28.399 -37,25C-34.5,21.5 -30.833,17.833 -28,15C-25.494,12.494 -23.013,9.865 -20,8C-16.5,5.833 -10.333,3.333 -7,2C-4.747,1.099 -1.833,0.333 0,0ZM235,200C233.667,201.333 230.585,205.577 228,208C225.333,210.5 222.33,213.168 219,215C215.667,216.833 211.859,218.428 208,219C203.5,219.667 196.5,219.667 192,219C188.141,218.428 184.167,216.667 181,215C178.05,213.448 175.167,211 173,209C171.087,207.234 169.333,203.5 168,203C166.676,202.503 165.905,204.914 165,206C163.333,208 160.5,212.5 158,215C155.643,217.357 152.833,219.333 150,221C147.17,222.665 144.157,224.098 141,225C137.5,226 133,226.833 129,227C125,227.167 120.894,226.974 117,226C113,225 108.333,223 105,221C101.962,219.177 98.667,215.167 97,214C96.454,213.618 95.392,213.461 95,214C93.667,215.833 91.428,221.601 89,225C86.5,228.5 83,232.333 80,235C77.305,237.395 74,239.333 71,241C68.13,242.594 64.333,244.167 62,245C60.399,245.572 58.698,245.919 57,246C53.5,246.167 45.5,246.667 41,246C37.141,245.428 33.167,243.667 30,242C27.05,240.448 24.432,238.28 22,236C19.333,233.5 15.833,229.5 14,227C12.678,225.197 13,221.667 11,221C9,220.333 5.054,222.661 2,223C-2.5,223.5 -11.667,222 -16,224C-20.117,225.9 -21.186,231.445 -24,235C-27.167,239 -31.505,243.527 -35,248C-39.167,253.333 -45.167,261.333 -49,267C-52.267,271.83 -55.196,276.887 -58,282C-60.833,287.167 -63.73,292.486 -66,298C-68.333,303.667 -70.5,310.333 -72,316C-73.389,321.246 -74.523,326.595 -75,332C-75.5,337.667 -75.5,344.5 -75,350C-74.538,355.078 -73.333,360.333 -72,365C-70.725,369.464 -69,374.333 -67,378C-65.18,381.337 -62.667,384.5 -60,387C-57.37,389.466 -54.314,391.58 -51,393C-47.5,394.5 -43,395.5 -39,396C-35.031,396.496 -28.5,397.667 -27,396C-25.5,394.333 -29.333,388.5 -30,386C-30.438,384.358 -30.906,382.697 -31,381C-31.167,378 -31.167,370.833 -31,368C-30.919,366.628 -29.431,365.251 -30,364C-30.833,362.167 -34.397,359.622 -36,357C-37.833,354 -39.872,349.867 -41,346C-42.167,342 -43,336.333 -43,333C-43,330.573 -42,327.667 -41,326C-40.143,324.571 -38.64,323.298 -37,323C-35.167,322.667 -32,322.833 -30,324C-28,325.167 -26.167,328.167 -25,330C-24.036,331.514 -24.771,334.705 -23,335C-21,335.333 -16.333,332.333 -13,332C-9.667,331.667 -5.5,332.167 -3,333C-0.975,333.675 1.179,335.03 2,337C2.833,339 2.833,342.667 2,345C1.167,347.333 -0.895,349.469 -3,351C-6.667,353.667 -16.333,358.5 -20,361C-21.947,362.328 -24.393,363.723 -25,366C-25.667,368.5 -24.742,372.733 -24,376C-23.167,379.667 -21.667,384.333 -20,388C-18.391,391.539 -16.428,394.965 -14,398C-11.333,401.333 -7.667,405.167 -4,408C-0.336,410.832 4,413.167 8,415C11.833,416.757 15.866,418.173 20,419C25,420 32.5,421 38,421C43.044,421 48.088,420.146 53,419C58,417.833 63.833,415.833 68,414C71.558,412.434 74.815,410.229 78,408C81.333,405.667 85.167,402.667 88,400C90.58,397.571 93,393.333 95,392C96.387,391.075 99,391 100,392C101,393 101.813,396.142 101,398C99.833,400.667 95.667,405.167 93,408C90.571,410.58 87.928,413.004 85,415C81.333,417.5 75.667,420.833 71,423C66.505,425.087 61.333,426.833 57,428C53.084,429.054 47,429.167 45,430C44.077,430.385 44.553,432.106 45,433C45.667,434.333 47.954,436.14 49,438C50.5,440.667 50.167,448.167 54,449C57.833,449.833 67.833,444.167 72,443C74.27,442.364 76.644,442.071 79,442C84.5,441.833 98.333,441.5 105,442C109.759,442.357 114.667,443.667 119,445C123.142,446.274 127.5,448.167 131,450C134.194,451.673 138.167,454.833 140,456C140.629,456.4 141.281,457.196 142,457C143.833,456.5 147.869,453.989 151,453C154.167,452 157.616,451.322 161,451C164.5,450.667 168.364,450.526 172,451C175.833,451.5 180.833,453 184,454C186.421,454.764 189.278,458.865 191,457C193,454.833 194.333,444.667 196,441C197.077,438.63 199.167,436.5 201,435C202.731,433.584 206.342,434.137 207,432C207.667,429.833 205.234,425.391 205,422C204.667,417.167 204.5,408 205,403C205.378,399.218 206.667,395.167 208,392C209.22,389.102 211,386.333 213,384C215,381.667 217.34,379.54 220,378C223.167,376.167 229.667,374.667 232,373C233.461,371.957 233.602,369.75 234,368C234.833,364.333 235.5,356.5 237,351C238.499,345.505 240.5,339.833 243,335C245.421,330.319 248.833,325.667 252,322C254.931,318.606 259,315.333 262,313C264.482,311.069 269.667,310.667 270,308C270.333,305.333 265.932,300.703 264,297C262,293.167 259.5,289.167 258,285C256.5,280.833 255.5,276.333 255,272C254.503,267.695 254.5,263 255,259C255.471,255.229 256.561,251.518 258,248C259.5,244.333 263,239.333 264,237C264.394,236.081 264.707,234.707 264,234C262.167,232.167 255.667,228 253,226C251.293,224.719 249.389,223.621 248,222C246,219.667 242.948,215.572 241,212C239,208.333 237,202 236,200C235.851,199.702 235.236,199.764 235,200Z" style="fill:rgb(2,3,1);fill-rule:nonzero;"/>
    </g>
    <g transform="matrix(1,0,0,1,710,200)">
        <path d="M0.031,-2.698L3,3C5.016,7.265 6.848,11.741 8,17C9.142,21.119 9.453,25.116 9,29L6,44L1,56L-0.644,61.077L6,72C9.001,76.155 11.537,81.948 14,88L17,97L19,109L19,118L16,133L11,145L3,156L2,159L10,172L16,186L19,202L18,217L14,231L8,243L5,247L6,252L13,267L17,280L19,294L19,305L17,319L13,332L7,344L-2,354L6,374L9,387L9,410L6,422L0,434L-5,439L-3,443L5,451L13,464L17,474L19,483L19,501L15,516L10,527L12,532L18,542L23,553L26,567L26,578L24,587L31,588L47,596L58,604L68,613L76,621L85,634L93,650L97,662L98,667L98,677L88,677L80,656L72,641L64,630L56,621L45,612L31,602L20,596L18,601L12,608L3,613L-2,615L-9,615L-10,612L-3,604L5,595L9,587L11,581L11,562L7,551L1,540L-4,533L-5,526L2,509L4,502L4,483L1,473L-6,460L-17,446L-21,441L-20,436L-12,426L-7,414L-6,410L-6,387L-11,370L-18,356L-17,349L-12,344L-4,333L1,321L3,312L3,287L-1,272L-10,253L-11,247L1,223L3,215L3,197L-1,184L-7,172L-13,163L-14,161L-14,154L-10,148L-4,141L1,130L3,122L3,105L-1,92L-8,78L-15,68L-16,65L-16,57L-9,40L-7,31L-7,23L-9,13L-3,9L0.031,-2.698Z" style="fill:rgb(2,3,1);fill-rule:nonzero;"/>
    </g>
    <g transform="matrix(1,0,0,1,543,32)">
        <path d="M0,0C2.298,-1.352 5.391,-0.549 8,0C11.167,0.667 15.667,2.333 19,4C22.225,5.612 25.217,7.708 28,10C30.833,12.333 33.714,15 36,18C38.667,21.5 41.946,26.345 44,31C46.5,36.667 49.319,44.815 51,52C52.833,59.833 55,78 55,78L57,101L57,112L49,116L44,114L36,109L30,107L16,106L6,107L-3,100L-14,95L-19,94L-37,94L-36,80L-32,58C-32,58 -27.5,43.167 -25,37C-22.76,31.474 -19.667,25.5 -17,21C-14.689,17.1 -11.833,13.5 -9,10C-6.178,6.514 -2.833,1.667 0,0Z" style="fill:rgb(230,125,165);fill-rule:nonzero;"/>
    </g>
    <g transform="matrix(1,0,0,1,322,176)">
        <path d="M0,0L8,1L13,6L15,9L23,11L27,16L27,26L32,32L32,41L40,45L49.461,49.821C49.461,49.821 49.721,49.825 50.476,48.173C51.36,46.238 53.156,44.528 54.743,43.499C55.302,43.137 60,42 60,42C60,42 59.167,35.833 60,33C60.833,30.167 63.167,26.833 65,25C66.581,23.419 68.807,22.439 71,22C73.5,21.5 77.333,21.333 80,22C82.607,22.652 85.333,24.5 87,26C88.445,27.3 90.061,33.529 90.061,33.529C90.061,33.529 96.677,33.921 99,35C101.138,35.993 102.833,38.333 104,40C105.029,41.471 105.872,43.21 106,45C106.167,47.333 106.446,52.254 105,54C102.911,56.522 100.519,57.221 100.519,57.221C100.519,57.221 104.253,64.037 105,67C105.652,69.586 105.667,72.667 105,75C104.34,77.311 102.5,79.5 101,81C99.626,82.374 97.906,83.619 96,84C93.5,84.5 88.167,84.333 86,84C84.812,83.817 80.268,81.189 80.268,81.189C80.268,81.189 78.86,83.047 78.149,83.848C77.476,84.607 76.926,85.587 76,86C74.671,86.593 72.167,87.238 70.178,87.404C68.178,87.571 65.941,87.702 64,87C61.97,86.266 59.581,84.81 58,83C55.232,79.831 53.62,79.225 53.386,76.607C52.953,71.769 55.58,66.419 55.58,66.419C55.58,66.419 47.216,60.179 48.457,56.865C48.743,56.099 48.457,56.865 48.457,56.865L39,55L23,48L20,54L16,57L9,57L4,54L1,51L-1,52L-8,52L-14,47L-15,40L-15,36L-20,30L-22,25L-34,16L-29,11L-27,10L-18,16L-9,15L-9,9L-5,3L0,0Z" style="fill:rgb(218,136,253);fill-rule:nonzero;"/>
    </g>
    <g transform="matrix(1,0,0,1,402,347)">
        <path d="M0,0C2.5,0 6.833,0 10,1C13.167,2 16.336,3.836 19,6C21.667,8.167 24.167,11 26,14C27.833,17 29.055,20.536 30,24C31,27.667 31.677,31.958 32,36C32.333,40.167 32.446,44.69 32,49C31.5,53.833 30.5,60.667 29,65C27.728,68.673 25.333,72.167 23,75C20.747,77.735 17.5,80.333 15,82C12.888,83.408 10.504,84.583 8,85C5,85.5 0.5,85.833 -3,85C-6.5,84.167 -10.167,82.167 -13,80C-15.815,77.848 -18.108,74.996 -20,72C-22,68.833 -23.833,64.167 -25,61C-25.95,58.421 -26.817,55.743 -27,53C-27.333,48 -27.667,36.833 -27,31C-26.485,26.495 -25,22 -23,18C-21,14 -18,9.833 -15,7C-12.174,4.331 -7.5,2.167 -5,1C-3.46,0.281 -1.7,0 0,0Z" style="fill-rule:nonzero;"/>
    </g>
    <g transform="matrix(1,0,0,1,480,211)">
        <path d="M0,0C2.333,-0.167 6.5,0.167 9,1C11.28,1.76 13.375,2.916 15.041,4.416C16.628,5.844 17.605,7.641 18.438,8.807C18.871,9.414 19.522,13.871 19.522,13.871C19.522,13.871 27.849,12.656 30.683,13.656C33.217,14.551 35.633,15.948 37.467,17.615C39.245,19.232 40.24,21.72 41,24C41.833,26.5 42.333,30.333 42,33C41.685,35.519 40,38.167 39,40C38.202,41.463 36.691,41.484 35.858,42.151C35.337,42.568 34,44 34,44C34,44 37.384,48.384 38,51C38.667,53.833 38.667,58.167 38,61C37.384,63.616 36.18,66.069 34.68,67.736C33.38,69.181 30.914,70.662 29,71C26.167,71.5 22.318,72.251 19.318,71.584C16.971,71.063 12.667,68.167 11,67C9.635,66.044 7,64 7,64C7,64 3.833,67.667 2,69C0.192,70.315 -1.814,71.531 -4,72C-6.333,72.5 -9.455,72.795 -12,72C-14.667,71.167 -17.447,69.13 -19.28,67.63C-20.57,66.574 -22.333,64.167 -23,63C-23.523,62.085 -24.647,59.482 -24.735,58.432C-24.902,56.432 -25.234,53.545 -24.901,50.878C-24.6,48.47 -22,44 -22,44C-22,44 -25.833,40.5 -27,39C-27.915,37.823 -28.755,36.47 -29,35C-29.333,33 -29.667,29.333 -29,27C-28.34,24.689 -26.5,22.5 -25,21C-23.626,19.626 -21.886,18.471 -20,18C-18,17.5 -13,18 -13,18C-13,18 -12.333,11.667 -11,9C-9.667,6.333 -6.833,3.5 -5,2C-3.611,0.863 -1.79,0.128 0,0Z" style="fill:rgb(253,223,140);fill-rule:nonzero;"/>
    </g>
    <g transform="matrix(1,0,0,1,628,193)">
        <path d="M0,0C2.833,-0.5 6.5,0.167 9,1C11.28,1.76 13.5,3.833 15,5C16.116,5.868 18,8 18,8C18,8 21.305,7.13 23,7C25.167,6.833 28.667,6.333 31,7C33.311,7.66 35.833,9.833 37,11C37.745,11.745 39.165,14.283 39.165,14.283L41,12L51,11L54,10L52,14L45,22L40.273,26.627C40.273,26.627 44.643,27.683 45.764,28.664C47.098,29.831 48.378,31.211 49.081,32.46C49.983,34.065 50.644,35.717 50.701,36.461C50.868,38.627 51,44 50,47C49.028,49.915 45.833,52.5 44,54C42.611,55.137 40.79,55.872 39,56C36.667,56.167 30,55 30,55C30,55 30.667,61.5 30,64C29.381,66.323 27.167,68.667 26,70C25.209,70.904 24.185,71.802 23,72C21,72.333 16.5,72.833 14,72C11.53,71.177 9.333,68.667 8,67C6.879,65.598 6.273,63.774 6,62C5.667,59.833 6,54 6,54C6,54 3.47,55.75 2,56C0.099,56.323 -3.406,56.271 -5.406,55.938C-7.046,55.664 -10,54 -10,54L-17,55L-22,56L-29,50L-28,48L-14,44C-14,44 -13.433,40.644 -12.193,38.939C-10.86,37.105 -6,33 -6,33C-6,33 -7.173,30.24 -8,29C-9,27.5 -11.167,25.333 -12,24C-12.559,23.106 -12.912,22.05 -13,21C-13.167,19 -13.833,14.833 -13,12C-12.167,9.167 -10.167,6 -8,4C-5.833,2 -2.833,0.5 0,0Z" style="fill:rgb(253,136,169);fill-rule:nonzero;"/>
    </g>
    <g transform="matrix(1,0,0,1,559,211)">
        <path d="M0,0C2.333,-0.333 7.333,-0.667 10,0C12.332,0.583 14.667,2.833 16,4C16.904,4.791 19.237,9.449 19.237,9.449C19.237,9.449 26.826,6.121 30.159,6.787C32.516,7.259 36.5,9.667 38,11C39.246,12.107 40.333,13.833 41,15C41.523,15.915 41.905,16.95 42,18C42.167,19.833 42.333,23.833 42,26C41.727,27.774 40.235,32.626 40.235,32.626C40.235,32.626 46.333,36 48,38C49.149,39.379 49.872,41.21 50,43C50.167,45.333 49.833,49.5 49,52C48.24,54.28 46.333,56.5 45,58C43.893,59.246 42.167,60.333 41,61C40.085,61.523 39.049,61.895 38,62C36.333,62.167 33.167,62.333 31,62C28.916,61.679 25.164,59.521 25.164,59.521C25.164,59.521 24.943,63.586 24,65C23,66.5 20.992,68.234 19,69C16.833,69.833 13.333,70.5 11,70C8.667,69.5 6.5,67.333 5,66C3.754,64.893 2.619,63.547 2,62C1.333,60.333 1,56 1,56C1,56 -1.773,57.118 -2.519,57.118C-4.352,57.118 -7.667,56.667 -10,56C-11.869,55.466 -13.834,54.555 -15,53C-16.5,51 -18.5,46.833 -19,44C-19.467,41.353 -19,38.333 -18,36C-17,33.667 -15,31.333 -13,30C-11,28.667 -6,28 -6,28C-6,28 -9.5,21.167 -10,18C-10.471,15.018 -10,11.667 -9,9C-8,6.333 -5.5,3.5 -4,2C-2.946,0.946 -1.476,0.211 0,0Z" style="fill:rgb(218,137,253);fill-rule:nonzero;"/>
    </g>
    <g transform="matrix(1,0,0,1,322,176)">
        <path d="M0,0C2.167,-0.333 5.833,0 8,1C10.14,1.988 11.833,4.667 13,6C13.791,6.904 15,9 15,9C15,9 21,9.833 23,11C24.844,12.075 26.45,13.938 27,16C27.667,18.5 27,26 27,26C27,26 31.636,29.963 33.06,32.142C34.488,34.327 34.47,39.74 32.796,41.656C31.483,43.16 40,45 40,45L50,49L49,58L34,53L23,48C23,48 21.167,52.5 20,54C18.977,55.316 17.608,56.561 16,57C14.167,57.5 11,57.5 9,57C7.114,56.529 5.333,55 4,54C2.869,53.151 1,51 1,51C1,51 -0.553,51.923 -1.294,52.005C-2.794,52.172 -6.127,52.839 -8.294,52.005C-10.46,51.172 -13.127,49.005 -14.294,47.005C-15.46,45.005 -15.338,41.869 -15.294,40.005C-15.263,38.672 -15,36 -15,36C-15,36 -19.317,31.328 -20.313,29.462C-21.158,27.879 -21.303,26.215 -22.313,24.462C-23.96,21.603 -34,16 -34,16L-29,11L-27,10L-18,16L-9,15C-9,15 -9.632,10.897 -9,9C-8.333,7 -6.5,4.5 -5,3C-3.626,1.626 -1.921,0.296 0,0Z" style="fill:rgb(253,136,169);fill-rule:nonzero;"/>
    </g>
    <g transform="matrix(1,0,0,1,690,152)">
        <path d="M0.193,0.06C2.27,0.481 4.967,2.021 6.467,3.521C7.841,4.895 8.54,6.878 9.206,8.378C9.765,9.634 10.066,12.925 10.066,12.925C10.066,12.925 16.833,14.667 19,16C20.818,17.119 22.179,19.03 23,21C23.833,23 24.333,25.833 24,28C23.667,30.167 22.315,32.192 21,34C19.667,35.833 16,39 16,39C16,39 20.5,44.333 21,47C21.5,49.667 20.167,52.833 19,55C17.883,57.075 15.333,58.833 14,60C13.096,60.791 12.179,61.764 11,62C9.333,62.333 6.167,62.5 4,62C1.833,61.5 -0.333,60.333 -2,59C-3.667,57.667 -5,55.667 -6,54C-6.924,52.461 -8,49 -8,49C-8,49 -8.073,50.47 -8.473,51.003C-8.973,51.67 -9.815,52.802 -11,53C-13,53.333 -17.667,53.5 -20,53C-21.901,52.593 -23.833,51.167 -25,50C-26.054,48.946 -26.733,47.467 -27,46C-27.333,44.167 -27.333,41 -27,39C-26.705,37.229 -25,34 -25,34C-25,34 -29.167,30.167 -30,28C-30.833,25.833 -30.667,23 -30,21C-29.333,19 -27.5,17.167 -26,16C-24.583,14.898 -22.667,14.167 -21,14C-19.333,13.833 -16,15 -16,15C-16,15 -14.667,8.333 -13,6C-11.333,3.667 -8.167,2 -6,1C-4.159,0.15 -1.854,-0.353 0.193,0.06Z" style="fill:rgb(218,137,252);fill-rule:nonzero;"/>
    </g>
    <g transform="matrix(1,0,0,1,302,6)">
        <path d="M0,0L3,1L3,10L6,23L14,39L22,50L32,60L41,66L39,68L27,61L18,58L12,57L2,57L-12,60L-26,67L-25,45L-21,25L-16,13L-7,3L0,0Z" style="fill:rgb(230,125,165);fill-rule:nonzero;"/>
    </g>
    <g transform="matrix(1,0,0,1,311,5)">
        <path d="M0,0L9,1L20,5L31,12L47,28L56,39L59,44L48,50L38,59L37,61L33,59L20,47L11,35L4,21L0,6L0,0Z" style="fill:rgb(192,192,192);fill-rule:nonzero;"/>
    </g>
    <g transform="matrix(1,0,0,1,240,106)">
        <path d="M0,0L10.233,1.986C10.233,1.986 16.605,-0.141 19.566,0.361C21.482,0.686 25.995,2.136 27.901,3.742C29.387,4.995 30.593,8.099 31,10C31.5,12.333 31.616,16.496 30.621,18.884C29.309,22.034 24.742,24.292 24.742,24.292L24,26C24,26 25.842,28.113 26.5,30.074C27.12,31.924 26.567,33.593 26.244,34.726C25.596,36.992 22.41,40.182 20.513,40.978C18.668,41.751 14,40 14,40C14,40 9.966,44.523 8.8,45.69C8.272,46.217 7.542,46.623 6.8,46.69C4.966,46.857 0.133,47.357 -2.2,46.69C-4.253,46.104 -6.189,44.57 -7.2,42.69C-8.438,40.391 -9.424,33.202 -9.424,33.202C-9.424,33.202 -14.167,31 -15,30C-15.477,29.427 -15.918,28.741 -16,28C-16.167,26.5 -16.833,23.167 -16,21C-15.167,18.833 -11.036,15.858 -11.036,15.858L-9,14L-7,5L-2,1L0,0Z" style="fill:rgb(252,222,140);fill-rule:nonzero;"/>
    </g>
    <g transform="matrix(1,0,0,1,670,98)">
        <path d="M0,0C2.667,-0.667 7.333,-0.833 10,0C12.485,0.777 14.667,3.167 16,5C17.24,6.705 18,11 18,11C18,11 25.5,11.667 28,13C30.297,14.225 32,17 33,19C33.907,20.814 34.308,22.996 34,25C33.667,27.167 32,30.333 31,32C30.272,33.213 28,35 28,35C28,35 28.886,37.63 29,39C29.167,41 29.833,44.833 29,47C28.167,49.167 25.833,51 24,52C22.22,52.971 20,53.333 18,53C16,52.667 13.367,51.038 12,50C10.962,49.212 10.443,47.901 9.797,46.77C9.13,45.603 8,43 8,43C8,43 4.952,42.22 3.048,41.048C0.881,39.715 -2.452,37.715 -3.952,36.048C-5.153,34.714 -8.062,30.917 -8.516,29.18C-9.08,27.027 -9.029,22.031 -9.029,22.031C-9.029,22.031 -9.696,20.604 -9.998,19.779C-10.365,18.775 -10.503,17.383 -10.588,16.057C-10.716,14.045 -10.955,10.491 -10.017,8.631C-9.103,6.82 -7.52,5.343 -6,4C-4.357,2.549 -2.332,0.583 0,0Z" style="fill:rgb(252,222,140);fill-rule:nonzero;"/>
    </g>
    <g transform="matrix(1,0,0,1,271,148)">
        <path d="M0,0C2.167,-0.667 5,-0.667 7,0C9,0.667 10.833,2.667 12,4C12.982,5.122 14,8 14,8C14,8 20,8.833 22,10C23.844,11.075 25.333,13 26,15C26.667,17 26.333,20.167 26,22C25.733,23.467 23.212,26.796 23.212,26.796C23.212,26.796 24.798,32.893 24.131,35.56C23.613,37.63 21.333,40.833 20,42C18.878,42.982 17.487,43.894 16,44C13.667,44.167 6,43 6,43C6,43 3.608,45.561 2,46C0.167,46.5 -2.833,46.833 -5,46C-7.167,45.167 -9.5,43 -11,41C-12.5,39 -12.579,33.111 -12.579,33.111C-12.579,33.111 -17.833,31.5 -19,30C-20.102,28.583 -20.862,26.79 -21,25C-21.167,22.833 -21,19.167 -20,17C-19.012,14.86 -17.14,12.988 -15,12C-12.833,11 -7,11 -7,11C-7,11 -7.167,5.833 -6,4C-4.833,2.167 -2.167,0.667 0,0Z" style="fill:rgb(218,136,252);fill-rule:nonzero;"/>
    </g>
    <g transform="matrix(1,0,0,1,245,56)">
        <path d="M-0.139,-0.378C2.351,-1.192 5.666,-0.651 8,0C10.315,0.645 12.5,2.5 14,4C15.374,5.374 17.154,7.286 17.591,9.18C18.091,11.346 17,17 17,17C17,17 21.226,16.658 22.35,18.058C23.524,19.521 23.769,23.437 24.044,25.778C24.377,28.611 24.5,33.167 24,36C23.533,38.647 21.333,41.5 20,43C19.01,44.114 17.472,44.767 16,45C13.89,45.333 9.671,45.667 7.337,45C5.026,44.34 2,41 2,41L0,37L-4,38C-4,38 -9.279,36.935 -11.112,35.601C-12.838,34.346 -14.414,32.052 -15,30C-15.667,27.667 -15.667,23.333 -15,21C-14.414,18.948 -12.167,17.167 -11,16C-10.15,15.15 -8,14 -8,14C-8,14 -7.836,8.791 -7.081,6.211C-6.874,5.502 -2.629,0.436 -0.139,-0.378Z" style="fill:rgb(253,136,169);fill-rule:nonzero;"/>
    </g>
    <g transform="matrix(1,0,0,1,197,433)">
        <path d="M0,0C1.167,-0.667 3.613,-0.925 5,0C6.5,1 7.833,4 9,6C10.127,7.931 12,12 12,12C12,12 15.848,11.079 17.34,10.555C18.997,9.974 22.15,8.863 23.628,8.666C26.128,8.333 29.958,8.652 32.291,8.985C33.481,9.155 34.999,9.819 35.291,10.985C35.624,12.319 35.272,15.392 34,17C32.285,19.169 25,24 25,24L14,30L9,34L2,23C2,23 -0.349,17.094 -1,14C-1.667,10.833 -2.167,6.333 -2,4C-1.894,2.513 -1.167,0.667 0,0Z" style="fill:rgb(230,125,165);fill-rule:nonzero;"/>
    </g>
    <g transform="matrix(1,0,0,1,395,26)">
        <path d="M-0.086,-0.507C1.292,-0.581 3.844,-0.524 5.51,0.309C7.177,1.143 9.832,5.239 9.832,5.239L11,8C11,8 17.333,10 19,11C20.031,11.618 20.785,12.818 21,14C21.333,15.833 21.833,19.833 21,22C20.167,24.167 17.572,26.588 17.572,26.588L10,25L8,24L7,17L5,15L-1,15L-3,17L-4,22L-15,22L-14,17L-11,15L-8,15C-8,15 -9.039,13.053 -9,12C-8.928,10.072 -8.566,5.605 -7.372,3.965C-6.392,2.617 -4.302,1.285 -3.073,0.624C-2.145,0.125 -1.13,-0.45 -0.086,-0.507Z" style="fill:rgb(218,138,250);fill-rule:nonzero;"/>
    </g>
    <g transform="matrix(1,0,0,1,401,398)">
        <path d="M0,0C2.333,-0.833 5.667,-0.833 8,0C10.333,0.833 12.833,3.833 14,5C14.527,5.527 14.918,6.259 15,7C15.167,8.5 15.833,11.833 15,14C14.167,16.167 11.167,18.833 10,20C9.473,20.527 8.741,20.918 8,21C6.5,21.167 3,21.5 1,21C-0.886,20.529 -2.667,19.333 -4,18C-5.333,16.667 -6.704,14.921 -7,13C-7.333,10.833 -7.167,7.167 -6,5C-4.833,2.833 -2.333,0.833 0,0Z" style="fill:rgb(251,251,251);fill-rule:nonzero;"/>
    </g>
    <g transform="matrix(1,0,0,1,642,215)">
        <path d="M0,0C2,-0.333 4.22,0.029 6,1C7.833,2 10,4.167 11,6C11.971,7.78 12.333,10.167 12,12C11.667,13.833 10.167,15.667 9,17C7.902,18.254 6.647,19.747 5,20C2.833,20.333 -1.833,20 -4,19C-5.938,18.106 -7.333,16 -8,14C-8.667,12 -8.333,8.833 -8,7C-7.733,5.533 -7.122,3.982 -6,3C-4.667,1.833 -2,0.333 0,0Z" style="fill:rgb(230,125,165);fill-rule:nonzero;"/>
    </g>
    <g transform="matrix(1,0,0,1,481,237)">
        <path d="M0,0C2,-0.833 5,-0.5 7,0C8.886,0.471 10.833,1.833 12,3C13.054,4.054 13.876,5.514 14,7C14.167,9 13.833,13 13,15C12.275,16.741 10.667,18.167 9,19C7.333,19.833 4.833,20.333 3,20C1.167,19.667 -0.667,18.167 -2,17C-3.254,15.902 -4.596,14.617 -5,13C-5.5,11 -5.833,7.167 -5,5C-4.167,2.833 -2,0.833 0,0Z" style="fill:white;fill-rule:nonzero;"/>
    </g>
    <g transform="matrix(1,0,0,1,396,222)">
        <path d="M0,0C2,-0.167 6.167,0.333 8,1C9.329,1.483 10.553,2.658 11,4C11.667,6 12.5,10.667 12,13C11.553,15.087 9,17 8,18C7.473,18.527 6.741,18.918 6,19C4.5,19.167 1,19.667 -1,19C-3,18.333 -5.045,16.909 -6,15C-7,13 -7.333,9.167 -7,7C-6.704,5.079 -5.167,3.167 -4,2C-2.946,0.946 -1.486,0.124 0,0Z" style="fill-rule:nonzero;"/>
    </g>
    <g transform="matrix(1,0,0,1,573,236)">
        <path d="M0,0C1.5,0 4.333,0.167 6,1C7.667,1.833 9.167,3.333 10,5C10.833,6.667 11.333,9.167 11,11C10.667,12.833 9,14.833 8,16C7.218,16.913 6.196,17.88 5,18C3.333,18.167 -0.167,17.833 -2,17C-3.717,16.22 -5.167,14 -6,13C-6.477,12.427 -6.918,11.741 -7,11C-7.167,9.5 -7.667,5.667 -7,4C-6.381,2.453 -4.167,1.667 -3,1C-2.085,0.477 -1.054,0 0,0Z" style="fill-rule:nonzero;"/>
    </g>
    <g transform="matrix(1,0,0,1,640,91)">
        <path d="M0.925,-0.085L9,6L20.967,14.8C20.967,14.8 19.833,16.408 19.711,16.899C19.446,17.973 19.371,19.498 19.372,21.246C19.374,23.085 20.019,27.005 20.019,27.005L18.135,26.201L10.252,20.237L6.975,17.11L3.037,13.972L0.925,-0.085Z" style="fill:rgb(49,79,41);fill-rule:nonzero;"/>
    </g>
    <g transform="matrix(1,0,0,1,682,172)">
        <path d="M0,0C2,-0.5 6,-0.667 8,0C9.789,0.596 11.167,2.333 12,4C12.833,5.667 13.333,8.167 13,10C12.667,11.833 11.5,13.833 10,15C8.5,16.167 6,17.167 4,17C2,16.833 -0.5,15.167 -2,14C-3.316,12.977 -4.702,11.64 -5,10C-5.333,8.167 -4.833,4.667 -4,3C-3.255,1.509 -1.617,0.404 0,0Z" style="fill-rule:nonzero;"/>
    </g>
    <g transform="matrix(1,0,0,1,427,241)">
        <path d="M0,0L10,1L24,4C24,4 25.385,8.091 26.435,9.565C27.544,11.123 31.32,13.943 31.32,13.943L18,12L1,9L0,8L0,0Z" style="fill:rgb(47,78,39);fill-rule:nonzero;"/>
    </g>
    <g transform="matrix(1,0,0,1,271,162)">
        <path d="M0,0C1.667,-0.333 5.167,-0.667 7,0C8.772,0.644 10.167,2.333 11,4C11.833,5.667 12.333,8.167 12,10C11.667,11.833 9.833,14 9,15C8.523,15.573 7.74,15.908 7,16C5.667,16.167 2.833,16.667 1,16C-0.833,15.333 -3,13.667 -4,12C-5,10.333 -5.167,7.667 -5,6C-4.852,4.517 -3.833,3 -3,2C-2.231,1.077 -1.179,0.236 0,0Z" style="fill-rule:nonzero;"/>
    </g>
    <g transform="matrix(1,0,0,1,665,133)">
        <path d="M-0.605,-0.604C-0.605,-0.604 2.306,2.337 3.595,3.14C5.363,4.241 9.593,5.651 9.593,5.651L14,8L17,14C17,14 18.201,16.051 19.411,16.656C20.744,17.322 25,18 25,18L24.859,19.02C22.659,18.79 18.089,19.817 15.948,21.752C14.566,23.002 12.946,23.593 12.026,25.151C11.113,26.697 9.898,30.736 9.898,30.736L9.365,32.364C9.365,32.364 8.602,22.087 7.5,17.607C6.509,13.578 4.25,8.601 3,6C2.278,4.498 0,2 0,2L-0.605,-0.604Z" style="fill:rgb(4,7,3);fill-rule:nonzero;"/>
    </g>
    <g transform="matrix(1,0,0,1,531,250)">
        <path d="M0,0L9.38,-1.102C9.38,-1.102 8.873,0.494 8.956,3.624C9.032,6.459 10.238,8.692 10.238,8.692L6,9L-14.371,8.852L-17.053,4.963C-17.053,4.963 -15.936,3.691 -15.136,3.148C-14.314,2.59 -12.118,1.612 -12.118,1.612L0,0Z" style="fill:rgb(47,78,39);fill-rule:nonzero;"/>
    </g>
    <g transform="matrix(1,0,0,1,353,218)">
        <path d="M2.262,-0.847L8.988,2.767L19,7C19,7 18.874,9.913 18.712,11.367C18.545,12.867 18,16 18,16L3,11L-8,6C-8,6 -3.592,4.772 -1.998,3.55C-0.411,2.332 2.262,-0.847 2.262,-0.847Z" style="fill:rgb(47,78,39);fill-rule:nonzero;"/>
    </g>
    <g transform="matrix(1,0,0,1,250,69)">
        <path d="M0,0C2,-0.5 5.333,0.167 7,1C8.491,1.745 9.702,3.36 10,5C10.333,6.833 9.667,10.333 9,12C8.475,13.313 7.355,14.594 6,15C4.333,15.5 0.833,15.667 -1,15C-2.772,14.356 -4.356,12.772 -5,11C-5.667,9.167 -5.833,5.833 -5,4C-4.167,2.167 -2,0.5 0,0Z" style="fill:rgb(230,125,165);fill-rule:nonzero;"/>
    </g>
    <g transform="matrix(1,0,0,1,677,116)">
        <path d="M0,0C1.5,-0.167 5.167,-0.667 7,0C8.772,0.644 10.356,2.228 11,4C11.667,5.833 11.5,9.333 11,11C10.594,12.355 9.292,13.426 8,14C6.5,14.667 3.833,15.5 2,15C0.167,14.5 -2,12.667 -3,11C-4,9.333 -4.167,6.667 -4,5C-3.852,3.517 -2.667,1.833 -2,1C-1.534,0.418 -0.741,0.082 0,0Z" style="fill:white;fill-rule:nonzero;"/>
    </g>
    <g transform="matrix(1,0,0,1,323,198)">
        <path d="M0,0C1.667,-0.667 4.333,-0.5 6,0C7.596,0.479 9.191,1.543 10,3C10.833,4.5 11.333,7.167 11,9C10.667,10.833 9.667,13 8,14C6.333,15 3,15.667 1,15C-1,14.333 -3.167,11.833 -4,10C-4.828,8.179 -4.667,5.667 -4,4C-3.333,2.333 -1.667,0.667 0,0Z" style="fill:rgb(230,125,165);fill-rule:nonzero;"/>
    </g>
    <g transform="matrix(1,0,0,1,242,122)">
        <path d="M0,0C1.667,-0.333 4.667,0.333 6,1C7.075,1.537 7.764,2.821 8,4C8.333,5.667 8.667,9.333 8,11C7.381,12.547 5.634,13.673 4,14C2.333,14.333 -0.5,13.833 -2,13C-3.457,12.191 -4.673,10.634 -5,9C-5.333,7.333 -4.833,4.5 -4,3C-3.191,1.543 -1.634,0.327 0,0Z" style="fill:white;fill-rule:nonzero;"/>
    </g>
    <g transform="matrix(1,0,0,1,388,376)">
        <path d="M1.142,-0.279C4.7,-1.317 4.293,-0.234 5.793,0.433C6.891,0.921 8.739,2.827 9,4C9.333,5.5 9.5,8.5 9,10C8.553,11.342 7.324,12.503 6,13C4.667,13.5 2.5,13.667 1,13C-0.5,12.333 -2.333,10.667 -3,9C-3.667,7.333 -3.5,4.5 -3,3C-2.553,1.658 -0.216,0.117 1.142,-0.279Z" style="fill:rgb(250,250,250);fill-rule:nonzero;"/>
    </g>
    <g transform="matrix(1,0,0,1,294,186)">
        <path d="M0.323,-0.735L4.945,2.182L10.16,6.018C10.16,6.018 7.059,6.783 6.06,10.6C5.347,13.326 6.068,15.149 6.068,15.149L-4,8L-6.458,5.935C-3.389,5.195 -0.691,1.787 0.323,-0.735Z" style="fill:rgb(47,78,39);fill-rule:nonzero;"/>
    </g>
    <g transform="matrix(1,0,0,1,254,145)">
        <path d="M0,0L4,4L8.708,11.087L10,13.996C10,13.996 6.048,13.938 4.556,14.287C3.287,14.584 0.718,15.608 0.718,15.608L-5.813,7.246C-5.813,7.246 -3.984,5.674 -3.234,4.739C-2.265,3.531 0,0 0,0Z" style="fill:rgb(47,78,39);fill-rule:nonzero;"/>
    </g>
    <g transform="matrix(1,0,0,1,680,203)">
        <path d="M1.744,-0.49C1.922,-0.919 2.022,-1.95 2.022,-1.95C2.408,-0.383 1.969,1.509 0,4L-7,12L-11.596,16.65L-13.126,16.528C-13.126,16.528 -11.399,11.674 -11.378,9.586C-11.36,7.77 -13,4 -13,4L-10.808,1.763C-10.397,1.836 -10.245,1.956 -9.844,2.011C-7.42,2.348 -5.052,2.41 -3.007,2.083C-0.687,1.71 0.246,1.163 0.956,0.626C1.351,0.326 1.578,-0.088 1.744,-0.49Z" style="fill:rgb(46,77,38);fill-rule:nonzero;"/>
    </g>
    <g transform="matrix(1,0,0,1,611,238)">
        <path d="M2.928,-1.023C2.928,-1.023 2.31,1.841 3.04,4.776C3.785,7.771 7.096,9.029 7.096,9.029L-4.037,10.906C-4.037,10.906 -6.415,8.962 -7.689,8.099C-8.994,7.215 -11.865,5.607 -11.865,5.607L-11,3L2.928,-1.023Z" style="fill:rgb(46,77,38);fill-rule:nonzero;"/>
    </g>
    <g transform="matrix(1,0,0,1,243,92)">
        <path d="M0.044,1.55L1.941,0.916L5.06,6.134L4,13L3,15L-5,15L-4.983,12.253L-3.488,6.885C-2.989,5.462 -3.175,5.458 -2.794,4.457C-2.469,3.602 -2.577,2.289 -2.067,1.789L0.044,1.55Z" style="fill:rgb(48,79,40);fill-rule:nonzero;"/>
    </g>
    <g transform="matrix(1,0,0,1,375,37)">
        <path d="M0,0L7,0L10.886,0.697C10.886,0.697 11.068,1.565 11.249,2.103C11.435,2.654 12,4 12,4L7,6L5.169,10.039L1.522,7.235L-2,3L-3.153,-1.519L0,0Z" style="fill:rgb(53,82,46);fill-rule:nonzero;"/>
    </g>
    <g transform="matrix(1,0,0,1,675,140)">
        <path d="M-0.667,-1.413L4,1L7,7C7,7 8.271,8.993 9.434,9.575C10.663,10.189 14.395,10.926 14.395,10.926L16.133,10.954L18.345,13.298C18.345,13.298 16.337,12.225 15.25,12.08C14.073,11.923 12.186,12.069 11.286,12.357C10.003,12.766 8.851,13.032 7.621,13.678C7.028,13.99 6.491,14.289 5.84,14.847L1,3L-0.667,-1.413Z" style="fill:rgb(47,78,39);fill-rule:nonzero;"/>
    </g>
    <g transform="matrix(1,0,0,1,268,63)">
        <path d="M0,0L1.062,4.827L-3,10L-6.171,10.232L-5.354,2.388L0,0Z" style="fill:rgb(57,85,49);fill-rule:nonzero;"/>
    </g>
</svg>
