<?xml version="1.0" encoding="UTF-8" standalone="no"?>
<!DOCTYPE svg PUBLIC "-//W3C//DTD SVG 1.1//EN" "http://www.w3.org/Graphics/SVG/1.1/DTD/svg11.dtd">
<svg width="100%" height="100%" viewBox="0 0 940 877" version="1.1" xmlns="http://www.w3.org/2000/svg" xmlns:xlink="http://www.w3.org/1999/xlink" xml:space="preserve" xmlns:serif="http://www.serif.com/" style="fill-rule:evenodd;clip-rule:evenodd;stroke-linejoin:round;stroke-miterlimit:2;">
    <g transform="matrix(1,0,0,1,293,0)">
        <path d="M0,0L38,0L49,6L60,15L69,24L78,35L85,44L85,46L103,46L113,49L122,54L126,58L129,59L131,55L141,48L153,43L165,41L180,42L193,46L204,53L213,61L214,63L224,45L233,33L244,21L256,12L268,6L277,4L289,4L300,7L310,12L320,21L328,30L335,42L341,57L346,79L350,105L350,110L357,111L367,116L377,124L385,135L390,147L391,152L391,165L389,174L395,176L405,184L413,192L421,205L425,217L426,229L423,244L418,256L416,262L423,272L431,288L434,297L436,309L436,318L433,333L428,345L420,356L419,359L427,372L433,386L436,402L435,417L431,431L425,443L422,447L423,452L430,467L434,480L436,494L436,505L434,519L430,532L424,544L415,554L423,574L426,587L426,610L423,622L417,634L412,639L414,643L422,651L430,664L434,674L436,683L436,701L432,716L431,720L447,725L459,730L478,740L493,750L506,760L519,771L534,785L547,799L558,813L570,831L580,849L588,870L589,877L-164,877L-161,867L-149,842L-139,826L-127,810L-118,799L-106,786L-94,774L-83,765L-68,754L-51,744L-36,737L-25,734L-22,734L-25,726L-26,720L-26,708L-23,694L-17,682L-15,679L-22,671L-29,656L-32,643L-32,626L-29,613L-34,608L-40,599L-45,588L-48,576L-48,557L-45,545L-40,537L-38,534L-46,533L-58,528L-69,521L-78,513L-81,509L-89,511L-102,511L-113,508L-123,502L-131,494L-137,484L-142,469L-144,457L-144,435L-140,415L-133,396L-125,380L-114,363L-104,350L-91,335L-83,327L-82,325L-87,323L-95,316L-101,306L-103,300L-103,296L-111,295L-125,288L-135,279L-143,269L-149,256L-152,244L-152,228L-149,215L-143,203L-134,193L-124,186L-117,183L-109,182L-110,180L-110,169L-107,154L-102,141L-96,130L-87,120L-79,113L-66,107L-59,105L-39,105L-36,96L-29,85L-23,78L-24,72L-24,47L-21,31L-16,17L-8,6L0,0Z" style="fill:rgb(96,82,73);fill-rule:nonzero;"/>
    </g>
    <g transform="matrix(1,0,0,1,293,0)">
        <path d="M0,0C7.667,-1 29.833,-1 38,0C42.146,0.508 45.549,3.647 49,6C52.667,8.5 56.667,12 60,15C63.154,17.838 66.162,20.846 69,24C72,27.333 75.333,31.667 78,35C80.374,37.968 86.71,46 86.71,46L85,46C85,46 98.333,45.5 103,46C106.46,46.371 109.833,47.667 113,49C116.163,50.332 119.484,52.111 121.651,53.611C123.201,54.685 126,58 126,58C126,58 129.583,55.518 130.794,54.407C132.794,52.574 137.427,49.835 141,48C144.701,46.099 149,44.167 153,43C156.893,41.865 160.948,41.15 165,41C169.5,40.833 175.333,41.167 180,42C184.463,42.797 189,44.167 193,46C196.951,47.811 200.667,50.5 204,53C207.211,55.408 215.005,61.191 215.005,61.191L214,63C214,63 220.833,50 224,45C226.675,40.776 229.799,36.841 233,33C236.333,29 240.167,24.5 244,21C247.692,17.629 252,14.5 256,12C259.792,9.63 268,6 268,6C268,6 273.941,4.291 277,4C280.5,3.667 285.167,3.5 289,4C292.769,4.492 296.5,5.667 300,7C303.483,8.327 306.947,9.863 310,12C313.333,14.333 317,18 320,21C322.838,23.838 325.667,26.734 328,30C330.5,33.5 332.991,37.828 335,42C337.167,46.5 339.465,51.838 341,57C342.833,63.167 344.614,71.608 346,79C347.5,87 349.333,99.833 350,105C350.213,106.653 350,110 350,110C350,110 354.777,110.216 357,111C359.833,112 363.875,113.969 367,116C370.333,118.167 374.064,120.901 377,124C380,127.167 382.833,131.167 385,135C387.132,138.772 389,144.167 390,147C390.566,148.603 390.906,150.303 391,152C391.167,155 391.333,161.333 391,165C390.722,168.061 389,174 389,174C389,174 393.212,174.883 395,176C397.667,177.667 402,181.333 405,184C407.819,186.505 410.714,189 413,192C415.667,195.5 419,200.833 421,205C422.825,208.801 424.167,213 425,217C425.819,220.929 426.297,224.997 426,229C425.667,233.5 424.333,239.5 423,244C421.769,248.155 419.167,253 418,256C417.236,257.965 416,262 416,262C416,262 421.337,268.241 423.37,271.766C425.87,276.099 429.537,283.599 431.37,287.766C432.644,290.66 433.638,293.69 434.37,296.766C435.204,300.266 436.037,305.266 436.37,308.766C436.655,311.752 436.743,314.789 436.37,317.766C435.87,321.766 434.704,328.266 433.37,332.766C432.139,336.921 430.503,340.993 428.37,344.766C426.204,348.599 420.728,355.632 420.728,355.632L419.013,358.537C419.013,358.537 424.669,367.423 427,372C429.304,376.524 431.541,381.137 433,386C434.5,391 435.667,396.833 436,402C436.323,407.001 435.833,412.167 435,417C434.175,421.783 432.667,426.667 431,431C429.395,435.174 426.5,440.333 425,443C424.183,444.453 422,447 422,447C422,447 422.369,450.422 423,452C424.333,455.333 428.167,462.333 430,467C431.658,471.22 433.016,475.574 434,480C435,484.5 435.667,489.833 436,494C436.292,497.655 436.292,501.345 436,505C435.667,509.167 435,514.5 434,519C433.016,523.426 431.667,527.833 430,532C428.339,536.152 426.5,540.333 424,544C421.5,547.667 415,554 415,554C415,554 421.167,568.5 423,574C424.406,578.219 425.631,582.568 426,587C426.5,593 426.5,604.167 426,610C425.648,614.108 424.448,618.139 423,622C421.5,626 418.833,631.167 417,634C415.72,635.979 412,639 412,639L414,643C414,643 419.714,648 422,651C424.667,654.5 428,660.167 430,664C431.661,667.183 433,670.833 434,674C434.925,676.931 435.773,679.935 436,683C436.333,687.5 436.667,695.5 436,701C435.377,706.137 432.833,712.833 432,716C431.65,717.329 431,720 431,720L447,725L459,730L478,740L493,750L506,760L519,771L534,785L547,799L558,813L570,831L580,849L588,870L589,877L-164,877L-161,867L-149,842L-139,826L-127,810L-118,799L-106,786L-94,774L-83,765L-68,754L-51,744L-36,737L-25,734L-22,734C-22,734 -24.333,728.333 -25,726C-25.557,724.05 -25.888,722.024 -26,720C-26.167,717 -26.458,711.974 -26,708C-25.5,703.667 -24.5,698.333 -23,694C-21.537,689.774 -18.333,684.5 -17,682C-16.434,680.94 -15,679 -15,679C-15,679 -20.158,674.027 -22,671C-24.333,667.167 -27.333,660.667 -29,656C-30.496,651.812 -31.557,647.425 -32,643C-32.5,638 -32.5,631 -32,626C-31.557,621.575 -29,613 -29,613C-29,613 -32.544,609.853 -34,608C-35.833,605.667 -38.262,602.159 -40,599C-41.833,595.667 -43.677,591.804 -45,588C-46.333,584.167 -47.603,580.104 -48,576C-48.5,570.833 -48.5,562.167 -48,557C-47.603,552.896 -46.333,548.333 -45,545C-43.832,542.08 -40,537 -40,537L-38,534C-38,534 -43.426,533.772 -46,533C-49.333,532 -54.167,530 -58,528C-61.833,526 -65.667,523.5 -69,521C-72.211,518.592 -76,515 -78,513C-79.179,511.821 -81,509 -81,509C-81,509 -86.264,510.739 -89,511C-92.5,511.333 -98,511.5 -102,511C-105.771,510.529 -109.507,509.497 -113,508C-116.5,506.5 -120,504.333 -123,502C-125.977,499.685 -128.685,496.977 -131,494C-133.333,491 -135.434,487.558 -137,484C-138.833,479.833 -140.833,473.5 -142,469C-143.018,465.075 -143.762,461.048 -144,457C-144.333,451.333 -144.667,442 -144,435C-143.355,428.232 -141.833,421.5 -140,415C-138.168,408.504 -135.5,401.833 -133,396C-130.651,390.519 -127.975,385.168 -125,380C-121.833,374.5 -117.5,368 -114,363C-110.865,358.521 -107.47,354.225 -104,350C-100.167,345.333 -94.5,338.833 -91,335C-88.457,332.215 -83,327 -83,327L-82,325C-82,325 -85.524,324.022 -87,323C-89.167,321.5 -92.747,318.735 -95,316C-97.333,313.167 -99.667,308.667 -101,306C-101.943,304.114 -102.667,301.667 -103,300C-103.261,298.693 -103,296 -103,296C-103,296 -110.212,295.813 -112.737,294.894C-116.404,293.561 -121,290.667 -125,288C-128.731,285.512 -132,282.167 -135,279C-137.936,275.901 -140.78,272.646 -143,269C-145.333,265.167 -147.5,260.167 -149,256C-150.397,252.121 -151.561,248.1 -152,244C-152.5,239.333 -152.5,232.833 -152,228C-151.542,223.576 -150.5,219.167 -149,215C-147.5,210.833 -145.5,206.667 -143,203C-140.5,199.333 -137.167,195.833 -134,193C-130.968,190.287 -126.833,187.667 -124,186C-121.812,184.713 -119.453,183.654 -117,183C-114.5,182.333 -109,182 -109,182L-110,180C-110,180 -110.42,172.642 -110,169C-109.5,164.667 -108.333,158.667 -107,154C-105.725,149.536 -103.833,145 -102,141C-100.26,137.203 -98.428,133.399 -96,130C-93.5,126.5 -89.833,122.833 -87,120C-84.494,117.494 -82.013,114.865 -79,113C-75.5,110.833 -69.333,108.333 -66,107C-63.747,106.099 -61.42,105.179 -59,105C-54.5,104.667 -39,105 -39,105L-36,96C-36,96 -31.167,88 -29,85C-27.201,82.509 -23.833,80.167 -23,78C-22.272,76.108 -24,72 -24,72C-24,72 -24.5,53.833 -24,47C-23.604,41.588 -22.333,36 -21,31C-19.723,26.212 -18.167,21.167 -16,17C-13.908,12.978 -10.667,8.833 -8,6C-5.715,3.573 -3.305,0.431 0,0ZM276,16C272.147,16.616 265,20 265,20L262,23C262,23 271.833,25.833 276,28C280.022,30.092 283.833,33.167 287,36C289.991,38.676 292.667,41.734 295,45C297.5,48.5 300.05,52.8 302,57C304.167,61.667 306.514,67.501 308,73C309.667,79.167 311.131,86.927 312,94C313.167,103.5 315,130 315,130L315,143C315,143 320.891,145.002 322.891,146.168C324.509,147.112 327,150 327,150L328.326,153.286C328.326,153.286 315.248,152.179 310,153C304.96,153.788 295.51,157.923 295.51,157.923C295.51,157.923 291.209,154.917 288.511,153.252C285.588,151.447 283.654,150.376 280.873,149.343C278.75,148.555 274.576,147.89 272.313,147.803C267.98,147.636 253,148 253,148C253,148 241.802,139.498 237.635,137.332C234.829,135.873 231.751,134.869 228.635,134.332C223.802,133.498 205.186,133.712 205.186,133.712L205,127C205,127 204.501,113.648 205,107C205.5,100.333 207,92.333 208,87C208.76,82.948 211,75 211,75C211,75 204.486,68.822 201,66C197.5,63.167 193.667,60 190,58C186.575,56.132 181.833,54.833 179,54C177.055,53.428 175.024,53.126 173,53C170.333,52.833 166.303,52.55 163,53C159.333,53.5 154.861,54.552 151,56C147,57.5 142.333,60 139,62C136.142,63.715 131,68 131,68L128.216,70.578L126,72C126,72 121.208,67.631 119.269,66.21C116.769,64.376 114.449,62.087 111.616,60.421C109.161,58.977 105.828,58.339 103,58C98.833,57.5 90.667,57.333 86,58C82.138,58.552 78.167,60.333 75,62C72.05,63.552 69.499,65.795 67,68C64.167,70.5 60.5,73.833 58,77C55.591,80.051 52,87 52,87C52,87 47.835,86.863 46,86C43.167,84.667 38.667,80.833 35,79C31.51,77.255 27.667,75.833 24,75C20.41,74.184 16.5,73.833 13,74C9.605,74.162 6.183,74.806 3,76C-1,77.5 -7.333,80.5 -11,83C-14.116,85.124 -16.663,88.04 -19,91C-21.5,94.167 -23.861,98.216 -26,102C-28.167,105.833 -32,114 -32,114C-32,114 -34.519,115.829 -36,116C-40.333,116.5 -52.5,116.167 -58,117C-61.858,117.584 -65.575,119.132 -69,121C-72.667,123 -76.833,126 -80,129C-83.099,131.936 -85.804,135.34 -88,139C-90.5,143.167 -93.164,148.797 -95,154C-97,159.667 -99,167.667 -100,173C-100.801,177.272 -101,186 -101,186L-102,190C-102,190 -114,194 -118,196C-120.981,197.491 -123.5,199.833 -126,202C-128.494,204.161 -131.202,206.233 -133,209C-135.167,212.333 -137.833,219 -139,222C-139.616,223.584 -139.926,225.302 -140,227C-140.167,230.833 -140.667,240 -140,245C-139.443,249.179 -137.667,253.333 -136,257C-134.391,260.539 -132.332,263.89 -130,267C-127.5,270.333 -124.471,274.16 -121,277C-117.333,280 -112.167,282.667 -108,285C-104.098,287.185 -94.882,289.987 -94.882,289.987C-94.882,289.987 -89.965,305.209 -86,309C-83.779,311.124 -81.333,313.5 -79,315C-76.865,316.373 -74.471,317.419 -72,318C-69.167,318.667 -65.339,319.267 -62,319C-57.833,318.667 -49.152,316.63 -49.152,316.63L-42.292,314.168C-42.292,314.168 -42.111,320.509 -40.803,323.303C-39.254,326.608 -36,331 -33,334C-30.45,336.55 -26.833,338.5 -24,340C-21.483,341.333 -18.813,342.556 -16,343C-12.833,343.5 -8.612,343.628 -5,343C-1.167,342.333 3.667,340.667 7,339C9.981,337.509 12.5,335.167 15,333C17.494,330.839 20.082,328.685 22,326C24.5,322.5 29.68,315.36 29.68,315.36L32.822,304.947C32.822,304.947 36.273,307.95 38.077,309.353C40.345,311.115 43.608,313.747 46.428,315.521C49.157,317.238 52.071,318.754 55,320C57.91,321.238 60.851,322.714 64,323C67.667,323.333 73.333,322.833 77,322C80.201,321.272 83.17,319.665 86,318C88.833,316.333 91.726,314.437 94,312C96.333,309.5 98.333,306.167 100,303C101.667,299.833 102.783,297.335 103.818,294.756C104.763,292.399 106.207,287.523 106.207,287.523C106.207,287.523 109.971,294.954 112.103,298.034C114.103,300.921 116.684,303.672 119,306C121.168,308.178 123.5,310.5 126,312C128.442,313.465 131.178,314.615 134,315C137.667,315.5 143.667,316 148,315C152.333,314 156.667,311.333 160,309C163.09,306.837 165.758,304.033 168,301C170.833,297.167 176.23,289.796 176.23,289.796L180.843,281.943L182.724,290.328C182.724,290.328 184.454,299.721 186,304C187.52,308.206 189.833,312.667 192,316C193.931,318.971 196.318,321.684 199,324C202.667,327.167 208.751,331.903 211.798,333.808C213.197,334.683 217.281,335.43 217.281,335.43C217.281,335.43 213.591,340.981 212.807,342.941C211.473,346.275 208.667,353.333 207,357C205.863,359.502 205.274,362.265 205,365C204.667,368.333 204.368,373.05 205,377C205.667,381.167 207.346,385.779 209,390C210.775,394.53 213.691,400.264 215.651,404.18C217.237,407.347 220.762,413.496 220.762,413.496C220.762,413.496 221.599,415.236 221.108,415.865C220.161,417.081 215.079,420.788 215.079,420.788C215.079,420.788 208.167,425.333 205,428C201.93,430.585 199.333,433.833 197,437C194.694,440.129 192.566,443.442 191,447C189.167,451.167 187.242,456.878 186,462C184.667,467.5 183,480 183,480C183,480 178.456,482.058 176.824,483.114C174.088,484.884 168.378,487.158 164.712,489.491C161.722,491.393 159.65,495.864 158,499C156.333,502.167 155.405,506.221 155,510C154.5,514.667 154.833,521.336 155,527C155.167,532.667 156,544 156,544C156,544 150.961,543.693 149,545C147,546.333 145.167,549.5 144,552C142.838,554.491 142.478,557.293 142,560C141.5,562.833 141.093,566.428 141,569C140.922,571.149 141.441,575.435 141.441,575.435C141.441,575.435 134.541,573.809 132,573C128.333,571.833 121.167,567.333 118,566C116.434,565.34 114.696,565.113 113,565C110.5,564.833 106.284,564.429 103,565C99.167,565.667 93.833,567.333 90,569C86.435,570.55 82.923,573.173 80,575C77.45,576.594 74.463,578.793 72.463,579.96C71.05,580.784 68,582 68,582C68,582 69.65,576.45 70.816,574.116C71.771,572.207 76.034,567.452 76.034,567.452L74,565C74,565 63.667,560.5 59,559C54.766,557.639 50.433,556.35 46,556C39.667,555.5 27.833,555.333 21,556C15.529,556.534 10.184,558.17 5,560C-0.667,562 -13,568 -13,568L-16.534,569.683C-16.534,569.683 -15.667,564.5 -15,563C-14.333,561.5 -12,559 -12,559L-14,554L-20,544L-25,536L-33,535C-33,535 -36,543.833 -37,548C-37.946,551.943 -38.667,556.5 -39,560C-39.284,562.986 -39.388,566.025 -39,569C-38.5,572.833 -37.333,578.667 -36,583C-34.726,587.142 -33,591.167 -31,595C-29,598.833 -25.833,603.167 -24,606C-22.694,608.018 -20,612 -20,612L-17.823,615.584L-22,616L-23,620C-23,620 -23.667,634.167 -23,640C-22.412,645.141 -20.944,650.204 -19,655C-16.5,661.167 -10,672.5 -8,677C-7.31,678.553 -5.042,681.953 -5.042,681.953L-9,682C-9,682 -12.833,692.667 -14,697C-14.969,700.599 -15.677,704.287 -16,708C-16.333,711.833 -16.618,716.048 -16,720C-15.167,725.333 -11,740 -11,740C-11,740 -12.652,745.393 -12,748C-11.167,751.333 -8.37,756.208 -6,760C-3.5,764 -0.167,768.167 3,772C6.156,775.82 9.347,779.652 13,783C17,786.667 22.167,790.667 27,794C31.8,797.31 36.887,800.196 42,803C47.167,805.833 52.833,808.5 58,811C62.967,813.403 67.824,816.089 73,818C83.833,822 112.167,830.833 123,835C128.289,837.034 133.519,839.531 138,843C143.167,847 154,859 154,859L168,875L194,876C194,876 197.797,868.549 200,865C203,860.167 208.667,851.333 212,847C214.299,844.011 217.167,841 220,839C222.682,837.107 225.848,835.919 229,835C233,833.833 238.974,832.862 244,832C249.833,831 257.416,830.448 264,829C272.333,827.167 285.667,823.5 294,821C300.765,818.97 307.442,816.623 314,814C320.667,811.333 327.461,808.269 334,805C340.667,801.667 347.595,798.106 354,794C360.5,789.833 367.5,784.333 373,780C377.828,776.196 382.52,772.208 387,768C392.5,762.833 401.333,754.167 406,749C409.351,745.289 413.833,740.833 415,737C416.085,733.435 413,726 413,726C413,726 418.5,714 420,710C420.965,707.426 421.804,704.742 422,702C422.333,697.333 422.833,687.667 422,682C421.279,677.097 419.277,672.401 417,668C414.5,663.167 410.167,657.167 407,653C404.286,649.43 398,643 398,643L393.506,639.238C393.506,639.238 402.069,631.971 404,629C406.167,625.667 408.667,620.167 410,617C410.942,614.763 411.839,612.421 412,610C412.333,605 412.667,593.167 412,587C411.478,582.175 411.358,574.792 409.852,570.178C408.266,565.322 401,549 401,549C401,549 405.974,544.605 408,542C410.333,539 413.056,534.887 415,531C417,527 419,521 420,518C420.537,516.388 420.945,514.699 421,513C421.167,507.833 421.667,493.833 421,487C420.498,481.85 420.2,474.516 418.352,469.683C416.185,464.016 412.385,457.564 410.885,452.898C409.967,450.042 408,444 408,444C408,444 414,435 416,431C417.745,427.51 419.167,422.667 420,420C420.507,418.378 420.929,416.698 421,415C421.167,411 421.833,401.667 421,396C420.233,390.786 418.244,385.769 416,381C413.228,375.11 406.038,360.686 406.038,360.686L403.067,355.193C403.067,355.193 408.448,348.489 410.37,345.766C412.37,342.932 414.704,339.932 416.37,336.766C418.037,333.599 419.537,329.099 420.37,326.766C420.833,325.472 421.087,323.958 421.37,322.766C422.198,319.288 422.038,310.693 421.37,304.766C420.827,299.943 419.202,295.261 417.37,290.766C415.537,286.266 412.704,281.599 410.37,277.766C408.255,274.29 403,268 403,268L399.539,263.581C399.539,263.581 403.048,257.432 403.795,254.872C404.961,250.872 407.6,245.622 409.1,241.456C410.141,238.564 411.054,234.834 411.376,231.778C411.709,228.611 411.596,225.28 411,222C410.333,218.333 408.819,213.804 407,210C405.167,206.167 402.5,202.167 400,199C397.663,196.04 394.873,193.442 392,191C388.667,188.167 382.534,183.866 380,182C378.957,181.232 376.795,179.804 376.795,179.804L379,173C379,173 381.667,164.667 382,161C382.303,157.664 381.881,154.232 381,151C380,147.333 378,142.5 376,139C374.114,135.7 371.5,132.667 369,130C366.577,127.415 363.5,124.833 361,123C358.833,121.411 354,119 354,119L352,119L354,132C354,132 356.821,147.371 357.497,152.64C357.947,156.15 358.125,160.986 358.052,163.615C358.004,165.341 357.563,168.772 357.563,168.772C357.563,168.772 353.166,165.404 352,163C350.24,159.371 348.304,152.433 347,147C345,138.667 340,113 340,113C340,113 335.833,85.333 334,76C332.738,69.574 331.167,62.833 329,57C326.924,51.41 323.667,45.5 321,41C318.689,37.1 315.833,33.167 313,30C310.324,27.009 307.167,24.167 304,22C300.924,19.896 296.333,18 294,17C292.737,16.459 291.372,16.076 290,16C287,15.833 280.167,15.333 276,16Z" style="fill:rgb(2,2,2);fill-rule:nonzero;"/>
    </g>
    <g transform="matrix(1,0,0,1,469,305)">
        <path d="M1.477,-3.361C1.477,-3.361 1.739,0.339 2.259,2.104C3.013,4.664 4.132,8.575 6,12C8,15.667 11,19.833 14,23C16.936,26.099 21.5,29.167 24,31C25.567,32.149 29,34 29,34C29,34 28.551,36.741 28,38C26.833,40.667 23.333,46.833 22,50C21.058,52.237 20.202,54.582 20,57C19.667,61 19.333,68.833 20,74C20.621,78.814 22.144,83.515 24,88C26,92.833 30.167,99.667 32,103C32.937,104.703 35,108 35,108C35,108 26.333,113.333 23,116C20.055,118.356 17.286,121 15,124C12.333,127.5 9.167,132.667 7,137C4.924,141.153 3.156,145.503 2,150C0.5,155.833 -2,172 -2,172C-2,172 -11.341,176.247 -14.674,178.08C-17.595,179.687 -22.329,183.314 -24.162,185.314C-25.673,186.962 -28.171,191.108 -29.514,195.45C-31.503,201.88 -30.674,202.08 -30.674,202.08C-30.825,203.764 -30.062,197.79 -30.674,202.08C-31.508,207.914 -30.841,219.747 -30.674,225.08C-30.58,228.097 -29,233 -29,233C-29,233 -32.598,233.879 -34,235C-35.667,236.333 -37.667,238.833 -39,241C-40.33,243.162 -41.243,245.577 -42,248C-42.833,250.667 -44,257 -44,257C-44,257 -49.314,254.948 -52,254C-54.833,253 -57.862,251.392 -61,251C-65,250.5 -71.667,250.5 -76,251C-79.776,251.436 -84.667,253.167 -87,254C-88.132,254.404 -95,256 -95,256C-95,256 -101.361,250.82 -105,249C-109,247 -111.777,245.542 -115.611,244.375C-118.551,243.48 -124.931,242.157 -128,242C-134.5,241.667 -150.333,241.333 -158,242C-163.477,242.476 -170.283,244.741 -174,246C-176.285,246.774 -180.304,249.553 -180.304,249.553L-182,247L-190,231C-190,231 -178.167,228.333 -174,227C-170.873,225.999 -167.167,224 -165,223C-163.646,222.375 -161,221 -161,221C-159.333,220.167 -154.014,218.192 -151,216C-147.333,213.333 -141.833,208 -139,205C-137.031,202.915 -135.397,200.064 -134.563,198.064C-133.922,196.525 -135,192 -135,192C-135,192 -139.219,192.765 -140.516,193.771C-141.86,194.814 -143.307,196.688 -144.329,197.615C-146.576,199.653 -150.229,203.172 -154,206C-158,209 -164.5,212.167 -168,214C-170.249,215.178 -172.568,216.271 -175,217C-178.333,218 -183.57,219.609 -188,220C-193.667,220.5 -202.333,220.833 -209,220C-215.498,219.188 -224.167,216.167 -228,215C-229.426,214.566 -231.333,213.333 -232,213C-232.833,212.333 -235.387,210.398 -237,209C-239.5,206.833 -244.167,203.167 -247,200C-249.713,196.968 -252.167,193.167 -254,190C-255.645,187.159 -257.204,184.185 -258,181C-259,177 -260.833,169.5 -260,166C-259.288,163.01 -255.539,161.731 -253,160C-249.333,157.5 -241.333,153.5 -238,151C-235.917,149.438 -233.833,147.333 -233,145C-232.167,142.667 -232.5,138.833 -233,137C-233.372,135.636 -234.801,134.75 -236,134C-237.333,133.167 -239.226,132.273 -241,132C-243.167,131.667 -246.374,131.537 -249,132C-251.833,132.5 -258,135 -258,135C-258,135 -260.5,129 -262,127C-263.281,125.293 -264.913,123.447 -267,123C-269.333,122.5 -273.08,122.327 -274.913,123.66C-276.747,124.993 -277.872,128.577 -278,131C-278.167,134.167 -277.833,139.167 -277,143C-276.171,146.813 -274.667,150.833 -273,154C-271.448,156.95 -267,162 -267,162L-266,167C-266,167 -266.667,177.333 -266,182C-265.359,186.488 -262,195 -262,195C-262,195 -274.667,195.5 -279,195C-282.141,194.638 -285.236,193.536 -288,192C-291,190.333 -294.5,187.833 -297,185C-299.5,182.167 -301.333,178.333 -303,175C-304.606,171.789 -306.099,168.475 -307,165C-308.167,160.5 -309.5,153.167 -310,148C-310.45,143.355 -310.45,138.645 -310,134C-309.5,128.833 -308.36,122.591 -307,117C-305.5,110.833 -303.742,103.397 -301,97C-298,90 -292.833,81.333 -289,75C-285.649,69.463 -281.667,64 -278,59C-274.49,54.214 -267,45 -267,45L-254,29L-249.291,22.907C-249.291,22.907 -239.138,24.184 -234.805,23.684C-232.074,23.369 -224,21 -224,21C-224,21 -219.667,28.5 -218,31C-216.816,32.776 -215.629,34.621 -214,36C-211.833,37.833 -208.167,40.333 -205,42C-201.833,43.667 -198.556,45.509 -195,46C-190.167,46.667 -180.333,46.5 -176,46C-173.478,45.709 -177.833,46.833 -176,46C-174.643,45.383 -168.218,43.685 -167.552,43.352L-162.023,40.581C-160.69,39.914 -158.284,37.108 -155.915,35.297C-153.082,33.13 -150.167,30.5 -148,28C-146.426,26.184 -144.833,23.5 -144,22C-143.488,21.079 -142.166,18.858 -142.166,18.858L-140,15L-135.989,17.351C-135.989,17.351 -130.833,20.333 -128,22C-125.17,23.665 -121.333,25.167 -119,26C-117.399,26.572 -115.697,26.9 -114,27C-111.167,27.167 -105.5,27.333 -102,27C-98.941,26.709 -95.884,26.062 -93,25C-89.833,23.833 -86.076,22.104 -83,20C-79.833,17.833 -76.5,14.667 -74,12C-71.72,9.568 -68,4 -68,4C-68,4 -63,8.333 -61,10C-59.36,11.366 -57.818,12.881 -56,14C-53.833,15.333 -50,17.167 -48,18C-46.731,18.529 -45.373,18.938 -44,19C-40.333,19.167 -31,19.833 -26,19C-21.726,18.288 -17.656,16.326 -14,14C-10.333,11.667 -6.333,7.333 -4,5C-2.491,3.491 1.477,-3.361 1.477,-3.361Z" style="fill:rgb(248,210,190);fill-rule:nonzero;"/>
    </g>
    <g transform="matrix(1,0,0,1,721,726)">
        <path d="M0,0L9,3L16,6L16,8L23,9L43,19L43,21L47,22L68,36L79,46L87,53L99,64L113,79L122,91L124,94L123,98L114,111L100,126L87,139L72,150L70,151L-224,151L-222,146L-214,132L-208,123L-201,117L-192,115L-164,112L-140,107L-120,102L-111,99L-96,92L-77,82L-72,79L-55,67L-46,60L-44,60L-43,57L-32,48L-19,35L-8,21L-2,11L-1,9L0,0Z" style="fill:rgb(220,141,56);fill-rule:nonzero;"/>
    </g>
    <g transform="matrix(1,0,0,1,271,737)">
        <path d="M0,0L1,0L3,14L7,24L14,35L30,52L38,59L50,68L64,77L81,86L107,96L131,103L151,107L159,114L166,122L178,136L181,140L-67,140L-77,131L-86,120L-99,102L-106,90L-105,85L-94,71L-84,60L-77,52L-67,42L-63,41L-61,37L-48,27L-40,21L-31,15L-9,4L0,0Z" style="fill:rgb(220,141,56);fill-rule:nonzero;"/>
    </g>
    <g transform="matrix(1,0,0,1,790,764)">
        <path d="M0.444,-0.699L8,6L20,17L28,24L36,32L43,40L53,53L55,56C55,56 54.697,58.815 54,60C52.333,62.833 48.345,68.927 45,73C41.167,77.667 35.5,83.333 31,88C26.746,92.411 22.653,97.012 18,101C13.333,105 5.833,110 3,112C2.391,112.43 1.745,112.994 1,113C-19,113.167 -117,113 -117,113L-115,111L-99,103L-82,91L-71,82L-59,71L-39,51L-30,40L-20.061,28.288L-7,10L0.444,-0.699Z" style="fill:rgb(254,231,208);fill-rule:nonzero;"/>
    </g>
    <g transform="matrix(1,0,0,1,543,31)">
        <path d="M0,0C3,-0.333 9.833,0.667 14,2C17.978,3.273 21.601,5.572 25,8C28.5,10.5 32.144,13.543 35,17C38.167,20.833 41.667,26.5 44,31C46.137,35.122 47.666,39.553 49,44C50.5,49 52.115,55.246 53,61C54.333,69.667 56.167,87.333 57,96C57.543,101.65 58,113 58,113C58,113 52.753,115.125 50.879,115.936C49.486,116.539 46.755,117.866 46.755,117.866C46.755,117.866 40,112.5 37,111C34.172,109.586 31.141,108.362 28,108C23.667,107.5 14.667,107.833 11,108C9.302,108.077 6,109 6,109C6,109 0.667,103.833 -2,102C-4.457,100.311 -7.202,99.031 -10,98C-13.167,96.833 -17.221,95.405 -21,95C-25.667,94.5 -38,95 -38,95C-38,95 -36.167,77.833 -35,71C-34.02,65.262 -32.659,59.58 -31,54C-29.167,47.833 -26.667,40 -24,34C-21.515,28.408 -18.333,23 -15,18C-11.708,13.062 -7.871,7.74 -5.371,4.74C-4.163,3.292 -1.874,0.208 0,0Z" style="fill:rgb(210,130,122);fill-rule:nonzero;"/>
    </g>
    <g transform="matrix(1,0,0,1,202,781)">
        <path d="M0,0L3,0L11,14L20,26L29,37L43,52L56,64L73,77L87,86L104,95L104,96L2,96L-8,87L-17,76L-30,58L-37,46L-36,41L-25,27L-15,16L-8,8L0,0Z" style="fill:rgb(254,231,208);fill-rule:nonzero;"/>
    </g>
    <g transform="matrix(1,0,0,1,762,745)">
        <path d="M0,0L2,0L2,2L6,3L27,17L28,20L17,36L4.571,51.631L-7,66L-18,78L-39,99L-50,108L-65,119L-80,128L-89,132L-163,132L-160,130L-134,120L-107,107L-87,95L-70,83L-54,70L-42,59L-31,48L-22,37L-11,22L0,3L0,0Z" style="fill:rgb(216,91,35);fill-rule:nonzero;"/>
    </g>
    <g transform="matrix(1,0,0,1,225,763)">
        <path d="M0,0L4,4L12,16C12,16 17.88,23.435 21,27C24.5,31 28.83,35.83 33,40C37.667,44.667 44,50.667 49,55C53.485,58.887 58.5,62.5 63,66C67.315,69.356 71.534,72.847 76,76C81.667,80 90.333,85.833 97,90C103.206,93.879 110.167,97.833 116,101C121.24,103.845 127.833,107 132,109C134.96,110.421 141,113 141,113L141,114C141,114 95,116.167 81,114C72.009,112.609 64.167,105.5 57,101C50.338,96.817 42.833,90.833 38,87C34.486,84.213 31,80.667 28,78C25.352,75.646 22.576,73.433 20,71C17,68.167 12.833,64 10,61C7.567,58.424 5.244,55.742 3,53C0,49.333 -4.519,43.807 -8,39C-11.5,34.167 -18,24 -18,24L-20,18L-22,17L-18.953,14.889L-15,11L-2,1L0,0Z" style="fill:rgb(216,91,35);fill-rule:nonzero;"/>
    </g>
    <g transform="matrix(1,0,0,1,721,726)">
        <path d="M0,0L9,3L16,6L13,16L5,32L-5,47L-18,62L-32,75L-47,86L-65,97L-81,105L-97,112L-130,123L-156,129L-185,134L-210,137L-216,137L-210,125L-203,118L-199,116L-164,112L-140,107L-120,102L-111,99L-96,92L-77,82L-72,79L-55,67L-46,60L-44,60L-43,57L-32,48L-19,35L-8,21L-2.371,11.472L-1,9L0,0Z" style="fill:rgb(165,176,187);fill-rule:nonzero;"/>
    </g>
    <g transform="matrix(1,0,0,1,400,347)">
        <path d="M0,0C2.667,-0.5 6.115,-0.824 9,0C12.5,1 17.833,3.667 21,6C23.853,8.102 26.167,11.167 28,14C29.783,16.756 31,20 32,23C32.972,25.915 33.796,28.934 34,32C34.333,37 34.5,47.5 34,53C33.627,57.106 32.333,61.5 31,65C29.778,68.207 28,71.333 26,74C24.02,76.64 21.77,79.207 19,81C16.167,82.833 12.5,84.333 9,85C5.5,85.667 1.167,85.667 -2,85C-4.917,84.386 -7.686,82.88 -10,81C-12.667,78.833 -15.833,75.333 -18,72C-20.167,68.667 -21.833,64 -23,61C-23.88,58.738 -24.868,54.477 -25.024,52.055C-25.357,46.888 -25.667,36 -25,30C-24.534,25.809 -22.667,21.5 -21,18C-19.45,14.745 -17.333,11.5 -15,9C-12.726,6.563 -9.5,4.5 -7,3C-4.823,1.694 -2.495,0.468 0,0Z" style="fill:rgb(3,2,2);fill-rule:nonzero;"/>
    </g>
    <g transform="matrix(1,0,0,1,271,737)">
        <path d="M0,0L1,0L3,14L7,24L14,35L30,52L38,59L50,68L64,77L81,86L107,96L131,103L151,107L159,114L166,122L166,124L151,123L126,118L106,113L80,104L51,90L33,79L21,70L8,59L-5,46L-15,33L-19,27L-18,21L-11,5L0,0Z" style="fill:rgb(101,134,170);fill-rule:nonzero;"/>
    </g>
    <g transform="matrix(1,0,0,1,845,822)">
        <path d="M-1.323,-3.664L3,1L16,22L26,43L29,52L29,55L-54,55L-49,51L-35,40L-16,21L-5,7L-1.323,-3.664Z" style="fill:rgb(146,28,27);fill-rule:nonzero;"/>
    </g>
    <g transform="matrix(1,0,0,1,301,6)">
        <path d="M0,0L4,0C4,0 4.167,9.5 5,14C5.826,18.458 7.233,22.824 9,27C10.833,31.333 13.307,35.881 16,40C18.833,44.333 22.833,49.5 26,53C28.693,55.976 35,61 35,61L42,66L41,69C41,69 31,62.833 27,61C23.836,59.55 20.46,58.371 17,58C12.333,57.5 4.167,57.333 -1,58C-5.497,58.58 -10.5,60.667 -14,62C-16.786,63.061 -22,66 -22,66L-25,67C-25,67 -25.498,54.979 -25,49C-24.5,43 -23.333,36.5 -22,31C-20.758,25.878 -19,20.167 -17,16C-15.239,12.332 -12.333,8.5 -10,6C-8.043,3.904 -4.667,2 -3,1C-2.096,0.458 0,0 0,0Z" style="fill:rgb(206,128,121);fill-rule:nonzero;"/>
    </g>
    <g transform="matrix(1,0,0,1,310,5)">
        <path d="M0,0C0,0 7.437,0.071 11,1C14.833,2 19.228,3.868 23,6C26.833,8.167 30.604,10.996 34,14C38.333,17.833 45,24.667 49,29C52.213,32.481 56.167,37.5 58,40C58.882,41.202 60,44 60,44C60,44 52.305,47.446 49,50C45.333,52.833 38,61 38,61C38,61 35.157,59.94 34,59C31.333,56.833 25.167,51.167 22,48C19.494,45.494 16.996,42.928 15,40C12.5,36.333 9.167,30.833 7,26C4.844,21.191 3.167,15.333 2,11C1.031,7.401 0,0 0,0Z" style="fill:rgb(96,82,73);fill-rule:nonzero;"/>
    </g>
    <g transform="matrix(1,0,0,1,164,825)">
        <path d="M0.51,-0.639L3,4L11,17L23,33L35,47L40,52L-27,52L-24,43L-14,22L-3,4L0.51,-0.639Z" style="fill:rgb(146,28,27);fill-rule:nonzero;"/>
    </g>
    <g transform="matrix(1,0,0,1,736,734)">
        <path d="M0.27,-2.328L8.132,1.057L6.173,4.602L-1,20L-10,35L-20,48L-32,61L-43,71L-59,83L-79,95L-101,106L-125,115L-151,123L-185,130L-209,133L-235.077,134.655L-233.438,131.813L-231.9,129.097L-187,123L-157,117L-132,110L-107,101L-85,91L-68,81L-51,69L-41,60L-33,53L-24,43L-14,29L-5,13L0.27,-2.328Z" style="fill:rgb(146,108,27);fill-rule:nonzero;"/>
    </g>
    <g transform="matrix(1,0,0,1,259,742)">
        <path d="M-0.44,0.829L1,2L-8.839,15.366C-8.839,15.366 -5.825,21.514 -5,23C-3.333,26 0.688,31.9 4,36C7.5,40.333 12.667,45.5 16,49C18.601,51.731 21.146,54.535 24,57C27.667,60.167 33.193,64.519 38,68C42.833,71.5 47.877,74.86 53,78C58.167,81.167 63.555,84.208 69,87C75.5,90.333 84.09,94.893 92,98C101.333,101.667 115.167,106.167 125,109C133.547,111.463 143.526,112.934 151.193,114.434C157.809,115.728 166.339,117.447 171,118C173.554,118.303 177.823,118.173 178.81,117.983L184.665,124.704C184.665,124.704 168.631,123.995 161,123C153.333,122 145.593,120.705 138,119C129.833,117.167 119.667,114.333 112,112C105.243,109.943 98.333,107.5 92,105C85.893,102.589 79.901,99.879 74,97C67.167,93.667 58,89.167 51,85C44.406,81.075 37,75.667 32,72C28.18,69.198 24.565,66.12 21,63C17,59.5 12.087,55.251 8,51C3.833,46.667 -0.413,41.991 -4,37C-7.833,31.667 -15,19 -15,19C-15.941,15.965 -17.441,12.958 -19.003,9.953L-13,7L-0.44,0.829Z" style="fill:rgb(146,108,27);fill-rule:nonzero;"/>
    </g>
    <g transform="matrix(1,0,0,1,560,837)">
        <path d="M0.246,0.285L3.002,-0.224L6.422,1.344L10.04,3.359L28.715,11.476L22.453,13.417L-5,20L-40,25L-55.893,26.111C-55.893,26.111 -51.316,17.185 -49,14C-47.06,11.331 -43.833,8.5 -42,7C-40.846,6.056 -39.473,5.227 -38,5C-31.5,4 -3,1 -3,1L0.246,0.285Z" style="fill:rgb(101,134,170);fill-rule:nonzero;"/>
    </g>
    <g transform="matrix(1,0,0,1,271,737)">
        <path d="M0,0L1,0L3,14L7,24L14,35L14,63L10,61L-5,46L-15,33L-18.96,26.823L-18,21L-10.925,4.85L0,0Z" style="fill:rgb(254,235,214);fill-rule:nonzero;"/>
    </g>
    <g transform="matrix(1,0,0,1,785,760)">
        <path d="M0.038,-0.696C2.184,0.619 4.298,2.097 6.268,3.915C6.268,3.915 3.951,6.478 3,8C0.5,12 -6.167,21.833 -10,27C-13.102,31.182 -16.833,35.167 -20,39C-23.017,42.652 -25.88,46.435 -29,50C-32.5,54 -36.893,58.768 -41,63C-46.5,68.667 -56.667,79 -62,84C-65.456,87.24 -69.245,90.111 -73,93C-77.333,96.333 -83,100.667 -88,104C-92.852,107.234 -99,110.833 -103,113C-105.887,114.564 -108.77,116.413 -112,117C-115.667,117.667 -123.333,117.333 -125,117C-126.179,116.764 -123.075,115.537 -122,115C-118.333,113.167 -109.095,109.459 -103,106C-96.833,102.5 -89.833,97.5 -85,94C-81.163,91.221 -77.628,88.047 -74,85C-69.833,81.5 -64.489,77.199 -60,73C-54.833,68.167 -47,60.167 -43,56C-40.546,53.444 -38.306,50.69 -36,48C-33,44.5 -28.495,39.473 -25,35C-20.833,29.667 -15.167,21.833 -11,16C-7.238,10.733 0.038,-0.696 0.038,-0.696Z" style="fill:rgb(147,28,27);fill-rule:nonzero;"/>
    </g>
    <g transform="matrix(1,0,0,1,206,778)">
        <path d="M-0.046,-0.771L1.844,-1.988C7.116,5.664 11.553,12.369 15.401,17.36C18.739,21.69 21.87,26.187 25.401,30.36C29.068,34.694 33.901,39.527 37.401,43.36C40.425,46.672 43.568,50.527 46.401,53.36C48.907,55.866 51.679,58.092 54.401,60.36C58.401,63.694 65.235,69.527 70.401,73.36C75.227,76.941 80.176,80.392 85.401,83.36C92.735,87.527 114,98 114,98L114,99L100,99C100.188,100.927 82.141,91.776 74.42,85.746C68.22,80.904 62.235,76.194 57.401,72.36C53.888,69.574 50.401,66.027 47.401,63.36C44.753,61.006 41.977,58.793 39.401,56.36C36.401,53.527 32.235,49.36 29.401,46.36C26.968,43.784 24.645,41.103 22.401,38.36C19.401,34.694 14.882,29.167 11.401,24.36C7.901,19.527 1,9 1,9L-2.766,4.406L-4.145,2.914C-3.061,1.866 -2.091,0.936 -2.091,0.936C-2.091,0.936 -1.667,0.596 -0.046,-0.771Z" style="fill:rgb(147,28,27);fill-rule:nonzero;"/>
    </g>
    <g transform="matrix(1,0,0,0.997891,380.17,834.484)">
        <path d="M0,0L7.984,2.708L21.975,6.47C29.398,6.957 41.562,8.759 41.752,9.64C41.752,9.64 41.934,9.795 42.282,9.939L49.146,17.547L55.43,23.884L57.551,25.392L42,25L17,20L-3,15L-18,10L-19,8L-8,3L0,0Z" style="fill:rgb(254,235,214);fill-rule:nonzero;"/>
    </g>
    <g transform="matrix(1,0,0,1,285,773)">
        <path d="M0,0L6,5L13,13L25,24L28,26L32,50L27,48L12,38L1,29L0,28L0,0Z" style="fill:rgb(101,134,170);fill-rule:nonzero;"/>
    </g>
    <g transform="matrix(1,0,0,1,678,783)">
        <path d="M6.872,-5.671L14,6L21.218,8.225L15,14L6,22L-7,31L-12,30L-28,24L-28.383,21.577L-16.071,12.883L-3,3L-1.255,1.508L-0.06,0.091L6.872,-5.671Z" style="fill:rgb(101,134,170);fill-rule:nonzero;"/>
    </g>
    <g transform="matrix(1,0,0,1,762,745)">
        <path d="M0.159,-1.023L2,0L4.089,1.567L5.823,2.782C5.823,2.782 -1.789,15.768 -6,22C-10.304,28.37 -15.333,35.333 -20,41C-24.348,46.28 -29.244,51.085 -34,56C-39,61.167 -45,67.5 -50,72C-54.411,75.97 -59.5,79.5 -64,83C-68.315,86.356 -72.495,89.903 -77,93C-82.333,96.667 -89.535,101.216 -96,105C-102.833,109 -110.667,113.333 -118,117C-125.205,120.602 -134.167,124.5 -140,127C-144.267,128.829 -149.167,131.167 -153,132C-156.257,132.708 -170.593,133.029 -170.593,133.029L-160,130C-160,130 -142.518,123.697 -134,120C-125.167,116.167 -114.833,111.167 -107,107C-100.136,103.349 -93.167,99 -87,95C-81.181,91.225 -75.5,87.167 -70,83C-64.523,78.85 -58.667,74 -54,70C-49.88,66.469 -45.833,62.667 -42,59C-38.253,55.416 -34.333,51.667 -31,48C-27.813,44.494 -24.889,40.755 -22,37C-18.667,32.667 -14.298,27.25 -11,22C-7.62,16.62 -3.581,8.558 -1.722,4.72C-0.843,2.907 0.159,-1.023 0.159,-1.023Z" style="fill:rgb(146,28,27);fill-rule:nonzero;"/>
    </g>
    <g transform="matrix(1,0,0,1,198,432)">
        <path d="M0,0C1.167,-0.5 3.028,0.028 4,1C5.5,2.5 7.833,7 9,9C9.751,10.288 11,13 11,13C11,13 13.696,12.435 15,12C17,11.333 20.172,9.333 23,9C25.833,8.667 30.167,9.5 32,10C32.91,10.248 33.741,11.093 34,12C34.333,13.167 34.925,15.613 34,17C32.667,19 28.928,22.004 26,24C22.333,26.5 12,32 12,32L8,35C8,35 3.667,29.167 2,26C0.333,22.833 -1.167,18.333 -2,16C-2.462,14.706 -2.886,13.37 -3,12C-3.167,10 -3.5,6 -3,4C-2.596,2.383 -1.167,0.5 0,0Z" style="fill:rgb(207,128,121);fill-rule:nonzero;"/>
    </g>
    <g transform="matrix(1,0,0,1,225,763)">
        <path d="M0.34,-0.803L4,4L12,16L21,27L33,40L49,55L63,66L76,76L97,90L116,101L132,109L143.915,114.071L141,114L133,114L116,106L97,95L82,85L68,75L54,64L39,51L17,29L6,15L-2.644,1.489L0.34,-0.803Z" style="fill:rgb(147,28,27);fill-rule:nonzero;"/>
    </g>
    <g transform="matrix(1,0,0,1,648,806)">
        <path d="M2.066,-1.686L11,3L24.446,7.024L17,12L-1,22L-14.463,27.153L-22.289,30.093L-16,19L-12.823,6.575L-3.47,1.733L2.066,-1.686Z" style="fill:rgb(101,134,170);fill-rule:nonzero;"/>
    </g>
    <g transform="matrix(1,0,0,1,841,815)">
        <path d="M-0.235,-0.96C1.178,0.736 2.582,2.693 3.981,4.831C3.981,4.831 3.155,7.627 2.429,8.876C0.766,11.738 -2.758,17.935 -6,22C-9.738,26.687 -15.5,32.333 -20,37C-24.254,41.411 -28.347,46.012 -33,50C-37.667,54 -45.167,59 -48,61C-48.609,61.43 -49.258,61.933 -50,62C-51.833,62.167 -58.333,62.667 -59,62C-59.667,61.333 -55.695,59.297 -54,58C-51.167,55.833 -45.829,52.216 -42,49C-37.833,45.5 -32.667,40.5 -29,37C-25.931,34.071 -22.838,31.154 -20,28C-17,24.667 -13.867,20.772 -11,17C-7.833,12.833 -2.794,5.993 -1,3C-0.309,1.847 -0.235,-0.96 -0.235,-0.96Z" style="fill:rgb(101,134,170);fill-rule:nonzero;"/>
    </g>
    <g transform="matrix(1,0,0,1,313,800)">
        <path d="M-0.703,-1.918L11,7L24,15L33.435,20.058L30.63,21.487L15.098,29.106L9.291,26.335L1.971,22.328L0,4L-0.703,-1.918Z" style="fill:rgb(254,234,213);fill-rule:nonzero;"/>
    </g>
    <g transform="matrix(1,0,0,1,702,761)">
        <path d="M0,0L0.938,-1.189L2,26L-2.936,30.597L-12.585,27.451L-25.356,23.575L-23.827,21.945L-21.21,19.614L-17,16L-9,9L0,0Z" style="fill:rgb(254,233,210);fill-rule:nonzero;"/>
    </g>
    <g transform="matrix(1,0,0,1,255,767)">
        <path d="M-1.126,-0.01L20,1L25.107,1.571L24.729,29.767L18,23L11,16L1,3L-1.126,-0.01Z" style="fill:rgb(102,135,171);fill-rule:nonzero;"/>
    </g>
    <g transform="matrix(1,0,0,1,401,398)">
        <path d="M0,0C2.167,-0.667 5.667,-0.833 8,0C10.333,0.833 12.833,3.833 14,5C14.527,5.527 14.918,6.259 15,7C15.167,8.5 15.833,11.833 15,14C14.167,16.167 11.167,18.833 10,20C9.473,20.527 8.741,20.918 8,21C6.5,21.167 3,21.5 1,21C-0.886,20.529 -2.833,18.833 -4,18C-4.767,17.452 -5.702,16.894 -6,16C-6.5,14.5 -7.167,11 -7,9C-6.851,7.211 -6.102,5.417 -5,4C-3.833,2.5 -2.04,0.628 0,0Z" style="fill:rgb(249,250,251);fill-rule:nonzero;"/>
    </g>
    <g transform="matrix(1,0,0,1,380,835)">
        <path d="M0,0L9,1L16.377,19.396L8,18L-12,12L-19,9L-15,6L0,0Z" style="fill:rgb(101,134,170);fill-rule:nonzero;"/>
    </g>
    <g transform="matrix(1,0,0,1,167,820)">
        <path d="M0.572,-0.122L2,3L12,19L21,31L30,42L45,57L37,57L27,48L18,37L5,19L-2.966,4.861L-1.207,2.057L0.572,-0.122Z" style="fill:rgb(101,134,170);fill-rule:nonzero;"/>
    </g>
    <g transform="matrix(1,0,0,1,271,737)">
        <path d="M0,0L1,0L3,14L7,24L9.24,27.201L-16,26L-7,6L-5.465,2.255L0,0Z" style="fill:rgb(101,133,167);fill-rule:nonzero;"/>
    </g>
    <g transform="matrix(1,0,0,1,285,773)">
        <path d="M-0.054,-1.32L6,5L13,13L22,21L19,23L0,27L-0.054,-1.32Z" style="fill:rgb(101,133,168);fill-rule:nonzero;"/>
    </g>
    <g transform="matrix(1,0,0,1,548,839)">
        <path d="M0,0L6,0L-6,18L-17,11L-27,5L-26,3L0,0Z" style="fill:rgb(101,132,166);fill-rule:nonzero;"/>
    </g>
    <g transform="matrix(1,0,0,1,516,846)">
        <path d="M0,0L5,2L15,9L19.931,13.685L-5.44,16.419L-8.218,15.616L-4.56,5.362L0,0Z" style="fill:rgb(101,134,169);fill-rule:nonzero;"/>
    </g>
    <g transform="matrix(1,0,0,1,672,788)">
        <path d="M0.278,0.091L1,3L-3,26L-22,19L-21.939,16.594L-10,8L0.278,0.091Z" style="fill:rgb(101,132,167);fill-rule:nonzero;"/>
    </g>
    <g transform="matrix(1,0,0,1,422,845)">
        <path d="M0.338,-0.694L8,6L15,14L15.907,15.044L14.047,15.181L11.182,14.737L0.035,14.501L-15.567,11.304L-12.816,9.505L0.002,-0.881L0.338,-0.694Z" style="fill:rgb(101,133,168);fill-rule:nonzero;"/>
    </g>
    <g transform="matrix(1,0,0,1,779,834)">
        <path d="M0,0C0.963,-0.428 2.63,0.013 3,1C3.5,2.333 4.003,5.893 3,8C1.333,11.5 -4.333,18.833 -7,22C-8.677,23.991 -11.333,26.167 -13,27C-14.193,27.596 -16.167,27.833 -17,27C-17.833,26.167 -18.412,23.649 -18,22C-17.5,20 -15.55,17.196 -14,15C-12,12.167 -8.333,7.5 -6,5C-4.224,3.097 -1.5,0.667 0,0Z" style="fill:rgb(221,142,57);fill-rule:nonzero;"/>
    </g>
    <g transform="matrix(1,0,0,1,703,761)">
        <path d="M-0.669,-0.396L18.297,2.982L15.702,7.928L7.369,18.423L2,25L0.761,26.24L0.516,15.054L-0.669,-0.396Z" style="fill:rgb(102,135,171);fill-rule:nonzero;"/>
    </g>
    <g transform="matrix(1,0,0,1,557,838)">
        <path d="M0,0L2.859,-0.616L-6.342,14.009L-10.227,20.36L-14,21L-21.592,21.768L-32,14L-40.745,7.425L-39.076,5.95L-37.124,4.686L-26.618,13.138L-15.701,21L-3.269,0.336L0,0Z" style="fill:rgb(254,234,212);fill-rule:nonzero;"/>
    </g>
    <g transform="matrix(1,0,0,1,353,824)">
        <path d="M0,0L9,3L28,10L27,12L6.977,19.734L1,3L0,0Z" style="fill:rgb(101,133,167);fill-rule:nonzero;"/>
    </g>
    <g transform="matrix(1,0,0,1,635,813)">
        <path d="M1.271,-0.97L1,2L-4,21L-25,13L-24,11L-8,4L1.271,-0.97Z" style="fill:rgb(101,132,166);fill-rule:nonzero;"/>
    </g>
    <g transform="matrix(1,0,0,1,596,829)">
        <path d="M1.735,-0.135L12.06,-3.625L32.209,-12.556L32.09,6.442C20.52,10.774 8.644,15.038 -3.877,18.516L-24,9L-27.382,6.64L-3,1L1.735,-0.135Z" style="fill:rgb(101,132,167);fill-rule:nonzero;"/>
    </g>
    <g transform="matrix(1,0,0,1,220,845)">
        <path d="M0.279,-0.033C0.946,-1.033 4.247,-0.131 5.723,0.712C8.056,2.046 11.377,5.215 14.21,7.715C17.038,10.21 20.71,13.215 22.21,15.715C23.423,17.736 24.32,21.275 23.487,22.275C22.653,23.275 19.024,22.622 17.21,21.715C14.877,20.549 11.642,17.995 9.21,15.715C6.543,13.215 2.71,9.382 1.21,6.715C0.055,4.661 -0.387,0.967 0.279,-0.033Z" style="fill:rgb(221,142,57);fill-rule:nonzero;"/>
    </g>
    <g transform="matrix(1,0,0,1,601,828)">
        <path d="M-0.412,-0.073L2.458,-1.079L-0.728,8.416L-3.952,18.015L-9.952,19.671L-14.674,21.132L-33.315,11.591L-38.249,8.823L-32.329,7.58L-17.124,15.36L-8.973,19.401L-3.605,0.875L-0.412,-0.073Z" style="fill:rgb(254,233,212);fill-rule:nonzero;"/>
    </g>
    <g transform="matrix(1,0,0,1,723.088,727.367)">
        <path d="M0,0L7,2L7,4L0,7L0,0Z" style="fill:rgb(100,119,141);fill-rule:nonzero;"/>
    </g>
    <g transform="matrix(1,0,0,1,318,804)">
        <path d="M-0.474,-1.838L5,2L14.884,8.52L23.336,13.304L20,15L6,21L3.753,22.095L0.968,3.817L-0.474,-1.838Z" style="fill:rgb(101,132,167);fill-rule:nonzero;"/>
    </g>
    <g transform="matrix(1,0,0,1,810,792)">
        <path d="M0,0C1.5,-0.5 4.167,-0.167 5,1C5.833,2.167 5.691,5.123 5,7C3.833,10.167 -0.167,17.333 -2,20C-2.944,21.373 -4.667,22.667 -6,23C-7.333,23.333 -9.167,22.833 -10,22C-10.833,21.167 -11.435,19.304 -11,18C-10,15 -5.833,7 -4,4C-3.017,2.391 -1.5,0.5 0,0Z" style="fill:rgb(221,142,57);fill-rule:nonzero;"/>
    </g>
    <g transform="matrix(1,0,0,1,698,765)">
        <path d="M0,0L1.474,-1.527L2.845,13.232L3.978,23.937L-3.722,21.058L-17.285,15.694L-13,12L-5,5L0,0Z" style="fill:rgb(101,134,169);fill-rule:nonzero;"/>
    </g>
    <g transform="matrix(1,0,0,1,189,810)">
        <path d="M0.905,-0.546C1.905,-0.713 3.923,-1.018 5.267,-0.033C7.767,1.801 13.267,8.134 15.267,10.967C16.483,12.69 17.36,15.489 17.36,16.989C17.36,18.191 16.04,20.008 14.874,20.3C13.54,20.633 10.934,20.122 9.267,18.967C7.1,17.467 3.934,13.134 2.267,10.967C1.082,9.427 -0.233,7.634 -0.733,5.967C-1.212,4.371 -1.24,2.03 -0.938,1.063C-0.737,0.422 0.44,-0.469 0.905,-0.546Z" style="fill:rgb(221,142,57);fill-rule:nonzero;"/>
    </g>
    <g transform="matrix(1,0,0,1,717,741)">
        <path d="M0.675,-1.806L1.507,1.297L7.261,18.744L-14.009,18.81C-12.205,16.454 -8.06,11.399 -6.014,8.659L0.675,-1.806Z" style="fill:rgb(101,133,168);fill-rule:nonzero;"/>
    </g>
    <g transform="matrix(1.19745,0,0,0.886962,718.908,729.555)">
        <path d="M1.727,-1.741L10.906,0.165L15.165,2.752C11.698,13.185 8.395,23.546 4.193,34.297L-1.17,11.166L0.951,5.079L1.727,-1.741Z" style="fill:rgb(253,229,207);fill-rule:nonzero;"/>
    </g>
    <g transform="matrix(1,0,0,1,395,839)">
        <path d="M0,0L7,1L22.534,3.893L18,7L6.413,16.276L4,13L0,2L0,0Z" style="fill:rgb(101,132,166);fill-rule:nonzero;"/>
    </g>
    <g transform="matrix(1,0,0,1,733.862,730.948)">
        <path d="M-2.224,-1.524L3.417,1.089L2.798,2.825L0.369,8.31L-2.893,16.223L-5.653,21.223L-7.718,24.612L-12.086,9.674L-13.848,3.268L-12.845,-5.217L-2.224,-1.524Z" style="fill:rgb(102,135,171);fill-rule:nonzero;"/>
    </g>
    <g transform="matrix(1,0,0,1,281,768)">
        <path d="M0,0L4,4L4,32L0,30L-1,29L-1,3L0,0Z" style="fill:rgb(254,233,212);fill-rule:nonzero;"/>
    </g>
    <g transform="matrix(1,0,0,1,388,376)">
        <path d="M0.989,-0.326C2.656,-0.66 4.777,-0.273 6.277,0.393C7.375,0.881 8.739,2.827 9,4C9.333,5.5 9.5,8.5 9,10C8.553,11.342 7.324,12.503 6,13C4.667,13.5 2.5,13.667 1,13C-0.5,12.333 -2.333,10.667 -3,9C-3.667,7.333 -3.5,4.5 -3,3C-2.553,1.658 -0.397,-0.049 0.989,-0.326Z" style="fill:rgb(244,246,248);fill-rule:nonzero;"/>
    </g>
    <g transform="matrix(1,0,0,1,259,742)">
        <path d="M1.684,-0.513L1,2L-6.528,22.631L-11,15L-13.928,7.356L-11.415,6.298C-5.969,3.197 -2.609,1.824 1.684,-0.513Z" style="fill:rgb(101,134,169);fill-rule:nonzero;"/>
    </g>
    <g transform="matrix(1,0,0,1,677,785)">
        <path d="M-0.141,-0.636L-0.77,4.539L-3.364,27.058L-6,29L-8.135,30.605L-6.363,17.658L-4.666,2.994L-0.141,-0.636Z" style="fill:rgb(254,234,213);fill-rule:nonzero;"/>
    </g>
    <g transform="matrix(1,0,0,1,380,835)">
        <path d="M1.36,-1.126L7.283,0.604L10.755,1.712L-14,11L-20.129,8.66L-14.493,6.397L1.36,-1.126Z" style="fill:rgb(254,234,213);fill-rule:nonzero;"/>
    </g>
    <g transform="matrix(1,0,0,1,609,826)">
        <path d="M-0.407,-0.8L6.713,1.818L21,7L23.137,7.646C21.159,8.703 18.601,9.701 15.965,10.543L-3,3L-6.969,1.395L-0.407,-0.8Z" style="fill:rgb(254,234,213);fill-rule:nonzero;"/>
    </g>
    <g transform="matrix(1,0,0,1,648,806)">
        <path d="M0.836,-0.868L10.713,3.74L22.152,8.575L16.988,12.106L12,10L-5.888,2.915L-2.491,1.08L0.836,-0.868Z" style="fill:rgb(254,234,214);fill-rule:nonzero;"/>
    </g>
    <g transform="matrix(1,0,0,1,641,810)">
        <path d="M0.44,-0.618L-0.763,3.415L-5.523,22.502L-10.017,24.121L-7.272,13.526L-4.797,1.964L0.44,-0.618Z" style="fill:rgb(254,234,213);fill-rule:nonzero;"/>
    </g>
    <g transform="matrix(1,0,0,1,304,795)">
        <path d="M0,0L3.579,-0.572L8.558,3.687L-13.826,10.296L-19.024,6.196L-24.257,1.875L0,0Z" style="fill:rgb(254,234,212);fill-rule:nonzero;"/>
    </g>
    <g transform="matrix(1,0,0,1,348,822)">
        <path d="M-1.08,-1.852L3.373,0.624L5.657,1.609L8.099,9.942L10.866,18.085L12.134,21.696L6.888,19.577L0.466,3.268L-1.08,-1.852Z" style="fill:rgb(254,233,211);fill-rule:nonzero;"/>
    </g>
    <g transform="matrix(1,0,0,1,703.546,756.451)">
        <path d="M1.861,0.493L8.626,1.315L16.044,2.39L20.44,3.142L18.368,7.012L17.652,7.888L11.426,6.565L-1.476,4.413L1.861,0.493Z" style="fill:rgb(254,234,213);fill-rule:nonzero;"/>
    </g>
    <g transform="matrix(1,0,0,1,389,837)">
        <path d="M-0.093,-0.901L6.851,1.156L11,15L11.628,16.587L12.453,18.295L6.75,17.248L3.622,9.399L-0.093,-0.901Z" style="fill:rgb(254,233,211);fill-rule:nonzero;"/>
    </g>
</svg>
