<?xml version="1.0" encoding="UTF-8" standalone="no"?>
<!DOCTYPE svg PUBLIC "-//W3C//DTD SVG 1.1//EN" "http://www.w3.org/Graphics/SVG/1.1/DTD/svg11.dtd">
<svg width="100%" height="100%" viewBox="0 0 940 877" version="1.1" xmlns="http://www.w3.org/2000/svg" xmlns:xlink="http://www.w3.org/1999/xlink" xml:space="preserve" xmlns:serif="http://www.serif.com/" style="fill-rule:evenodd;clip-rule:evenodd;stroke-linejoin:round;stroke-miterlimit:2;">
    <g transform="matrix(1,0,0,1,587,105)">
        <path d="M0,0L4,5L12,18L20,34L24,40L30,48L36,58L42,73L47,95L51,121L51,126L58,127L68,132L78,140L86,151L91,163L92,168L92,181L90,190L96,192L106,200L114,208L122,221L126,233L127,245L124,260L119,272L117,278L124,288L132,304L135,313L137,325L137,334L134,349L129,361L121,372L120,375L128,388L134,402L137,418L136,433L132,447L126,459L123,463L124,468L131,483L135,496L137,510L137,521L135,535L131,548L125,560L116,570L124,590L127,603L127,626L124,638L118,650L113,655L115,659L123,667L126.651,677.207L134.39,676.252L155.364,665.704L168.132,654.974L179.049,645.488L189.734,631.056L197.892,616.666L207.09,599.713L213.872,581.691L220.283,558.324L228.207,529.839L231.457,495.621L232.203,487.836L233.389,481.753L236.933,487.194L245.735,500.354L253.999,511.114L268.049,526.424L287.479,544.848L302.562,556.809L315.473,567.561L327.015,572.692L335.196,574.246L332.281,576.796L328.155,578.681L315.887,588.517L305.184,601.701L296.423,615.764L289.596,631.805L285.763,644.838L284.848,655.632L284.055,668.63L285.757,687.847L291.879,707.901L294.41,718.155L291.311,720.892L287.529,718.722L270.28,712.417L259.326,709.235L245.977,710.295L235.958,711.992L226.23,717.588L218.454,725.493L213.888,736.959L208.7,762.804L207.851,764.795L205.933,763.814L203.483,761.321L199.969,753.447L190.871,741.335L182.925,734.263L166.531,726.241L158.261,723.976L143.384,724.369C140.447,724.021 137.069,725.225 134,727L131,737L128,743L130,748L136,758L140,769L140,772L-325,772L-323,766L-317,757C-317,757 -319.984,753.178 -321,751C-322.167,748.5 -323.333,744.5 -324,742C-324.522,740.041 -324.888,738.024 -325,736C-325.088,734.423 -325.21,732.285 -325.239,730.035C-325.266,728.006 -325.217,725.884 -325,724C-324.5,719.667 -323.5,714.333 -322,710C-320.537,705.774 -317.333,700.5 -316,698C-315.434,696.94 -314,695 -314,695L-321,687L-328,672L-331,659L-331,642L-328,629L-333,624L-339,615L-344,604L-347,592L-347,573L-344,561L-339,553L-337,550L-345,549L-357,544L-368,537L-377,529L-380,525L-388,527L-401,527L-412,524L-422,518L-430,510L-436,500L-441,485L-443,473L-443,451L-439,431L-432,412L-424,396L-413,379L-403,366L-390,351L-382,343L-381,341L-386,339L-394,332L-400,322L-402,316L-402,312L-410,311L-424,304L-434,295L-442,285L-448,272L-451,260L-451,244L-448,231L-442,219L-433,209L-423,202L-416,199L-408,198L-409,196L-409,185L-406,170L-401,157C-400.677,154.71 -401.132,153.158 -402,152C-404.285,148.755 -407.199,146.463 -410,144L-416,132L-419,120L-420,112L-420,90L-417,71L-413,56L-407,41L-399,27L-391,17L-380.275,7.089L-372.706,3.032L-370.809,3.802L-370.85,19.886L-371.809,28.758C-372.502,39.478 -372.746,50.65 -371.412,60.238L-368.851,76.19L-362.932,93.78L-353.649,107.898L-345.569,117.048L-341.451,121.074L-337.698,121.785L-335,112L-328,101L-319.241,93.739L-323,88L-323,63L-320,47L-315,33L-307,22L-299,16L-291,12L-287,11L-275,11L-262,15L-247,24L-234,36L-224,47L-214,60L-214,62L-196,62L-186,65L-177,70L-173,74L-170,75L-168,71L-158,64L-146,59L-134,57L-119,58L-106,62L-95,69L-86,77L-85,79L-75,61L-66,49L-55,37L-43,28L-31,22L-22,20L-5,20L-2,3L0,0Z" style="fill:rgb(158,25,4);fill-rule:nonzero;"/>
    </g>
    <g transform="matrix(1,0,0,1,587,105)">
        <path d="M-0.91,-2.613L4,5L12,18L20,34C20,34 22.603,38.044 24,40C25.667,42.333 28.151,45.226 30,48C32,51 34.318,54.496 36,58C38,62.167 40.465,67.838 42,73C43.833,79.167 45.614,87.608 47,95C48.5,103 51,121 51,121L51,126L58,127C58,127 64.875,129.969 68,132C71.333,134.167 75.064,136.901 78,140C81,143.167 83.833,147.167 86,151C88.132,154.772 90,160.167 91,163C91.566,164.603 91.906,166.303 92,168C92.167,171 92.21,177.348 92,181C91.828,183.996 90.742,189.914 90.742,189.914C90.742,189.914 94.427,190.96 96,192C98.543,193.681 103,197.333 106,200C108.819,202.505 111.714,205 114,208C116.667,211.5 120,216.833 122,221C123.825,224.801 125.167,229 126,233C126.819,236.929 127.297,240.997 127,245C126.667,249.5 125.333,255.5 124,260C122.769,264.155 120.167,269 119,272C118.236,273.965 117,278 117,278C117,278 121.967,284.476 124,288C126.5,292.333 130.167,299.833 132,304C133.274,306.894 134.268,309.924 135,313C135.833,316.5 136.667,321.5 137,325C137.284,327.986 137.372,331.023 137,334C136.5,338 135.333,344.5 134,349C132.769,353.155 131.132,357.228 129,361C126.833,364.833 121,372 121,372L120,375C120,375 125.667,383.5 128,388C130.333,392.5 132.541,397.137 134,402C135.5,407 136.667,412.833 137,418C137.323,423.001 136.833,428.167 136,433C135.175,437.783 133.667,442.667 132,447C130.395,451.174 127.5,456.333 126,459C125.183,460.453 123,463 123,463L124,468C124,468 129.167,478.333 131,483C132.658,487.22 134.016,491.574 135,496C136,500.5 136.667,505.833 137,510C137.292,513.655 137.292,517.345 137,521C136.667,525.167 136,530.5 135,535C134.016,539.426 132.667,543.833 131,548C129.339,552.152 127.5,556.333 125,560C122.5,563.667 116,570 116,570C116,570 122.167,584.5 124,590C125.406,594.219 126.631,598.568 127,603C127.5,609 127.5,620.167 127,626C126.648,630.108 125.448,634.139 124,638C122.5,642 119.833,647.167 118,650C116.72,651.979 113,655 113,655C113,655 114.046,657.855 115,659C116.667,661 121,664.667 123,667C124.564,668.825 127,673 127,673L133,672C133,672 144,666.833 149,664C153.827,661.265 158.833,658.167 163,655C166.945,652.002 170.652,648.653 174,645C177.667,641 181.833,635.5 185,631C187.928,626.839 190.542,622.455 193,618C195.667,613.167 198.578,607.449 201,602C203.667,596 206.635,588.78 209,582C211.5,574.833 213.983,566.756 216,559C218.167,550.667 220.414,541.082 222,532C223.833,521.5 225.833,504.667 227,496C227.717,490.673 229.232,482.327 229.232,482.327C229.232,482.327 230.14,472.529 231.307,472.362C232.473,472.195 236.177,479.35 236.177,479.35C236.177,479.35 243.833,492.333 247,497C249.397,500.532 252.267,503.721 255,507C258.333,511 262.792,516.52 267,521C272.167,526.5 280,534.667 286,540C291.332,544.739 297.833,549.333 303,553C307.524,556.211 312.173,559.265 317,562C322,564.833 329.5,568.167 333,570C334.722,570.902 338,573 338,573C338,573 339.745,575.255 339,576C337.5,577.5 332.061,579.604 329,582C325.167,585 320,589.833 316,594C312.069,598.095 308.299,602.381 305,607C301.667,611.667 298.5,617 296,622C293.592,626.817 291.5,632.333 290,637C288.639,641.234 287.667,646.333 287,650C286.46,652.97 286.144,655.985 286,659C285.833,662.5 285.602,667.02 286,671C286.5,676 287.632,683.073 289,689C290.5,695.5 293.5,704.667 295,710C296.029,713.659 298,721 298,721C298,721 299,724 298,724C296.5,724 289,721 289,721C289,721 274.333,716.333 269,715C265.066,714.016 260.833,713.333 257,713C253.347,712.682 249.5,712.667 246,713C242.616,713.322 239.209,713.877 236,715C232.667,716.167 228.833,717.833 226,720C223.185,722.152 220.775,724.933 219,728C217.167,731.167 215.946,735.215 215,739C213.5,745 211.236,759.542 210,764C209.735,764.957 208.459,765.504 207.587,765.748C206.714,765.993 205.537,766.014 204.765,765.468C203.962,764.9 202.766,762.34 202.766,762.34C202.766,762.34 200.625,756.5 199,754C196.833,750.667 192.833,745.167 190,742C187.637,739.359 185.005,736.878 182,735C178,732.5 170,728.667 166,727C163.463,725.943 160.738,725.238 158,725C154.167,724.667 147,724.667 143,725C139.937,725.255 134,727 134,727C134,727 132,734.333 131,737C130.215,739.094 128,743 128,743C128,743 129.155,746.416 130,748C131.333,750.5 134.333,754.5 136,758C137.667,761.5 140,769 140,769L140,772L128,772C128,772 121.333,759.833 119,756C117.509,753.551 115,751.333 114,749C113.072,746.834 113,742 113,742C113,742 118.5,729 120,725C120.852,722.728 121.814,720.42 122,718C122.333,713.667 122.5,703.833 122,699C121.642,695.538 120.388,692.191 119,689C117.333,685.167 114.73,680.095 112,676C109,671.5 103.5,665.167 101,662C99.677,660.325 97,657 97,657L98,652C98,652 103.833,645.667 106,642C108.167,638.333 110,632.667 111,630C111.483,628.713 111.949,627.373 112,626C112.167,621.5 112.833,609.667 112,603C111.267,597.139 109,591.167 107,586C105.117,581.134 100,572 100,572L101,565C101,565 104.514,561.829 106,560C108.167,557.333 111.833,552.833 114,549C116.132,545.228 117.833,540.5 119,537C119.972,534.085 120.82,531.068 121,528C121.333,522.333 121.667,509.667 121,503C120.485,497.851 118.848,492.833 117,488C114.833,482.333 108,469 108,469C108,469 106.984,462.823 108,460C109.5,455.833 114.833,448.833 117,444C118.855,439.863 120.42,435.497 121,431C121.667,425.833 121.667,418.167 121,413C120.42,408.503 118.667,404.167 117,400C115.339,395.848 113.167,391.833 111,388C108.861,384.216 104,377 104,377L104,370C104,370 106.534,365.905 108,364C109.667,361.833 112.397,359.622 114,357C115.833,354 117.833,349.167 119,346C119.95,343.421 120.781,340.74 121,338C121.333,333.833 121.667,326 121,321C120.401,316.506 118.711,312.199 117,308C115.167,303.5 112.333,298 110,294C107.95,290.485 103,284 103,284L102,281C102,281 101.281,275.568 102,273C103.167,268.833 107.5,260.333 109,256C110.005,253.096 110.667,249.833 111,247C111.312,244.352 111.499,241.62 111,239C110.333,235.5 108.833,230 107,226C105.189,222.049 102.333,218 100,215C97.974,212.395 95.524,210.126 93,208C89.833,205.333 83.5,201 81,199C79.896,198.117 78,196 78,196C78,196 78.5,191.167 79,189C79.474,186.946 80.587,185.067 81,183C81.5,180.5 82.159,177.014 82,174C81.833,170.833 81.162,167.195 80,164C78.667,160.333 76.333,155.5 74,152C71.774,148.66 69.12,145.526 66,143C62.5,140.167 53,135 53,135C53,135 57.833,157.5 59,163C59.353,164.663 59.906,166.303 60,168C60.273,172.909 61.427,189.567 60.64,192.454C59.858,195.323 56.717,187.569 55.277,185.327C53.993,183.328 52.826,181.227 52,179C50.621,175.279 48.355,168.421 47,163C45.167,155.667 41,135 41,135L38,111C38,111 38.847,122.326 39,128C39.167,134.167 39.499,141.352 39,148C38.5,154.667 37.333,161.5 36,168C34.684,174.415 32.833,181.333 31,187C29.342,192.124 27.5,197.333 25,202C22.511,206.646 19.167,211.5 16,215C13.136,218.165 8.667,221.333 6,223C4.212,224.117 0,225 0,225C0,225 3.491,228.189 5,230C6.667,232 8.963,234.951 10,237C10.818,238.616 12.685,242.267 11.222,242.293C9.76,242.319 4.387,238.721 1.223,237.155C-1.748,235.684 -4.568,233.778 -7.764,232.893C-11.467,231.867 -21,231 -21,231C-21,231 -19.637,242.727 -20.352,243.57C-21.068,244.414 -23.793,238.654 -25.295,236.061C-27.57,232.132 -31.382,223.677 -34,220C-35.782,217.496 -38.251,215.374 -41,214C-44.667,212.167 -51.667,210.167 -56,209C-59.599,208.031 -64.667,208.833 -67,207C-69.333,205.167 -69,200.667 -70,198C-70.891,195.623 -71.5,193 -73,191C-74.5,189 -76.81,187.408 -79,186C-81.333,184.5 -85.333,183.5 -87,182C-88.334,180.799 -89,177 -89,177C-89,177 -98.045,171.18 -101,169C-103.053,167.485 -106.56,164.753 -106.727,163.92C-106.894,163.086 -103.571,163.876 -102,164C-99.712,164.18 -95.5,164.167 -93,165C-90.72,165.76 -88.667,167.667 -87,169C-85.528,170.178 -83,173 -83,173C-83,173 -79.502,172.795 -78,172C-75.167,170.5 -69.333,166.333 -66,164C-63.269,162.088 -58,158 -58,158L-62,155L-72,152L-91,150L-94,146L-95,143L-95,122L-92,103L-89,91C-89,91 -93.535,85.1 -96.257,82.832C-99.257,80.332 -103.833,78 -107,76C-109.776,74.247 -112.856,72.943 -116,72C-119.333,71 -123.667,70.333 -127,70C-129.985,69.701 -133.03,69.576 -136,70C-139.5,70.5 -144.139,71.552 -148,73C-152,74.5 -156.833,77.167 -160,79C-162.482,80.437 -167,84 -167,84L-170.59,86.87L-173,89C-173,89 -177.062,86.421 -179,85C-181.5,83.167 -185.167,79.667 -188,78C-190.455,76.556 -193.172,75.339 -196,75C-200.167,74.5 -208.333,74.333 -213,75C-216.862,75.552 -220.833,77.333 -224,79C-226.95,80.552 -229.491,82.805 -232,85C-234.667,87.333 -237.663,90.04 -240,93C-242.5,96.167 -247,104 -247,104C-247,104 -251.168,103.868 -253,103C-256.167,101.5 -262.333,96.833 -266,95C-268.828,93.586 -272,92.667 -275,92C-277.947,91.345 -280.985,90.856 -284,91C-287.5,91.167 -292.168,91.674 -296,93C-300.333,94.5 -306.5,97.667 -310,100C-312.746,101.83 -315.082,104.315 -317,107C-319.5,110.5 -322.64,116.663 -325,121C-327.152,124.955 -331.159,133.022 -331.159,133.022C-331.159,133.022 -333.721,132.952 -335,133C-339.307,133.163 -351.167,133 -357,134C-361.576,134.784 -366.09,136.497 -370,139C-374.167,141.667 -379,146.667 -382,150C-384.412,152.68 -386.332,155.803 -388,159C-390,162.833 -392.394,168.183 -394,173C-395.667,178 -397.167,184.167 -398,189C-398.738,193.283 -399,202 -399,202C-399,202 -398.927,205.141 -400,206C-401.667,207.333 -406.038,208.584 -409,210C-412.833,211.833 -419.333,214.5 -423,217C-426.116,219.124 -428.908,221.862 -431,225C-433.333,228.5 -435.833,235 -437,238C-437.616,239.584 -437.926,241.302 -438,243C-438.167,246.833 -438.667,256 -438,261C-437.443,265.179 -435.667,269.333 -434,273C-432.391,276.539 -430.306,279.871 -428,283C-425.667,286.167 -423.12,289.474 -420,292C-416.5,294.833 -411.167,297.667 -407,300C-403.098,302.185 -395,306 -395,306C-395,306 -392.53,312.107 -390.935,314.818C-389.269,317.651 -386.667,320.667 -385,323C-383.63,324.918 -381.824,326.507 -380,328C-378.167,329.5 -375.667,331.167 -374,332C-372.771,332.615 -371.372,332.928 -370,333C-366.833,333.167 -358.833,333.333 -355,333C-352.262,332.762 -349.305,331.672 -347,331C-345.025,330.424 -341.173,328.969 -341.173,328.969L-340,336C-340,336 -339.062,339.552 -338,341C-336.167,343.5 -331.833,348.5 -329,351C-326.642,353.081 -323.333,354.833 -321,356C-319.114,356.943 -317.094,357.754 -315,358C-312.167,358.333 -307.612,358.628 -304,358C-300.167,357.333 -295.333,355.667 -292,354C-289.019,352.509 -286.432,350.28 -284,348C-281.333,345.5 -278.298,341.949 -276,339C-273.86,336.254 -271.729,333.311 -270.21,330.307C-268.721,327.362 -266.889,320.978 -266.889,320.978C-266.889,320.978 -262.587,323.763 -260.507,325.258C-257.911,327.124 -254.393,330.385 -251.309,332.175C-248.407,333.859 -244.718,335.029 -242,336C-239.715,336.816 -237.424,337.879 -235,338C-231.667,338.167 -227.313,339.218 -223.74,338.781C-220.897,338.433 -216.099,336.708 -213.563,335.377C-211.022,334.043 -208.839,331.108 -206.754,328.995C-204.765,326.981 -202.763,324.957 -201.053,322.702C-199.116,320.147 -196.845,316.5 -195.131,313.665C-193.564,311.074 -190.77,305.696 -190.77,305.696C-190.77,305.696 -188.516,310.749 -187.076,312.925C-185.238,315.704 -181.909,319.859 -179.739,322.373C-177.959,324.436 -175.42,325.748 -173,327C-170.544,328.271 -167.819,329.597 -165,330C-161.5,330.5 -155.833,330.667 -152,330C-148.463,329.385 -145.035,327.917 -142,326C-138.833,324 -135.72,320.952 -133,318C-129.999,314.744 -126.43,309.698 -123.993,306.462C-122.054,303.886 -118.379,298.585 -118.379,298.585C-118.379,298.585 -117.112,304.866 -116.14,307.912C-114.945,311.656 -112.9,317.035 -111.21,321.049C-109.642,324.775 -107.868,329.008 -106,332C-104.372,334.607 -102.342,337.01 -100,339C-96.667,341.833 -89.271,346.553 -86,349C-84.047,350.461 -80.374,353.679 -80.374,353.679C-80.374,353.679 -82.047,357.267 -83,359C-84.771,362.22 -89.333,369.333 -91,373C-92.137,375.502 -92.712,378.266 -93,381C-93.333,384.167 -93.474,388.364 -93,392C-92.5,395.833 -91.576,400.19 -90,404C-88,408.833 -82.87,417.296 -81,421C-80.147,422.689 -78.782,426.224 -78.782,426.224L-75.754,432.396C-75.754,432.396 -80.515,436.225 -83,438C-85.708,439.934 -89.5,442.167 -92,444C-94.099,445.54 -96.358,446.979 -98,449C-100.167,451.667 -103,456.333 -105,460C-106.929,463.536 -108.677,467.196 -110,471C-111.333,474.833 -112.191,478.957 -113,483C-113.833,487.167 -115,496 -115,496L-114.646,501.249C-114.646,501.249 -128.108,505.208 -132,507C-134.365,508.089 -136.487,509.882 -138,512C-139.667,514.333 -141.167,518.667 -142,521C-142.572,522.601 -142.919,524.302 -143,526C-143.167,529.5 -143.167,536.669 -143,542C-142.833,547.333 -142,558 -142,558C-142,558 -147.449,560.626 -149.195,561.896C-151.028,563.229 -152.689,565.767 -154,568C-155.32,570.249 -156.334,572.834 -157.117,575.39C-157.936,578.062 -158.573,579.594 -158.675,582.277C-158.779,585.029 -158.38,591.342 -158.38,591.342L-168.033,588.409C-168.033,588.409 -175.833,585.333 -179,584C-181.237,583.058 -183.59,582.284 -186,582C-188.833,581.667 -192.716,581.429 -196,582C-199.833,582.667 -205.087,584.529 -209,586C-212.599,587.353 -216.561,589.179 -219.478,590.827C-221.99,592.246 -224.453,594.53 -226.5,595.888C-228.194,597.011 -231.76,598.971 -231.76,598.971C-231.76,598.971 -231.802,593.832 -231,592C-229.833,589.333 -224,582 -224,582C-224,582 -228.01,580.696 -230,580C-233.333,578.833 -240,576.167 -244,575C-247.263,574.048 -250.607,573.2 -254,573C-259.667,572.667 -271.333,572.333 -278,573C-283.47,573.547 -288.744,575.388 -294,577C-299.609,578.72 -307.898,581.954 -311.651,583.322C-313.285,583.917 -316.516,585.207 -316.516,585.207C-316.516,585.207 -315.667,580.5 -315,579C-314.333,577.5 -312,575 -312,575C-312,575 -313.12,571.565 -314,570C-315.5,567.333 -319.46,561.496 -321,559C-321.798,557.706 -322.738,556.193 -323.238,555.027C-323.648,554.07 -324,552 -324,552C-324,552 -327.18,551.97 -328.513,551.803C-329.697,551.655 -332,551 -332,551C-332,551 -335.167,563.5 -336,569C-336.751,573.955 -337.333,579 -337,584C-336.667,589 -335.5,594.167 -334,599C-332.5,603.833 -330.453,608.555 -328,613C-325.333,617.833 -320.004,625.105 -318,628C-317.409,628.853 -315.978,630.367 -315.978,630.367C-315.978,630.367 -320.468,630.322 -321,632C-324.517,643.091 -321.667,649.5 -321,656C-320.472,661.148 -318.944,666.204 -317,671C-314.5,677.167 -307.833,688.5 -306,693C-305.371,694.543 -303.878,697.642 -303.878,697.642L-308,698C-308,698 -311,709.667 -312,714C-312.764,717.312 -313.678,720.616 -314,724C-314.333,727.5 -314.566,731.377 -314,735C-313.167,740.333 -309,756 -309,756C-309,756 -310.298,759.009 -310.78,760.296C-311.78,762.963 -315,772 -315,772L-325,772C-325,772 -324.08,767.885 -323.088,766.025C-321.754,763.525 -317,757 -317,757C-317,757 -319.984,753.178 -321,751C-322.167,748.5 -323.333,744.5 -324,742C-324.522,740.041 -324.888,738.024 -325,736C-325.167,733 -325.458,727.974 -325,724C-324.5,719.667 -323.5,714.333 -322,710C-320.537,705.774 -316,698 -316,698L-314,695C-314,695 -319.158,690.027 -321,687C-323.333,683.167 -326.333,676.667 -328,672C-329.496,667.812 -330.557,663.425 -331,659C-331.5,654 -331.5,647 -331,642C-330.557,637.575 -328,629 -328,629C-328,629 -331.415,626.115 -332.871,624.262C-334.705,621.929 -337.262,618.159 -339,615C-340.833,611.667 -342.677,607.804 -344,604C-345.333,600.167 -346.603,596.104 -347,592C-347.5,586.833 -347.5,578.167 -347,573C-346.603,568.896 -345.333,564.333 -344,561C-342.832,558.08 -340.167,554.833 -339,553C-338.355,551.986 -337,550 -337,550C-337,550 -342.426,549.772 -345,549C-348.333,548 -353.167,546 -357,544C-360.833,542 -364.667,539.5 -368,537C-371.211,534.592 -375,531 -377,529C-378.179,527.821 -380,525 -380,525C-380,525 -385.264,526.739 -388,527C-391.5,527.333 -397,527.5 -401,527C-404.771,526.529 -408.507,525.497 -412,524C-415.5,522.5 -419,520.333 -422,518C-424.977,515.685 -427.685,512.977 -430,510C-432.333,507 -434.434,503.558 -436,500C-437.833,495.833 -439.833,489.5 -441,485C-442.018,481.075 -442.762,477.048 -443,473C-443.333,467.333 -443.667,458 -443,451C-442.355,444.232 -440.833,437.5 -439,431C-437.168,424.504 -434.5,417.833 -432,412C-429.651,406.519 -426.975,401.168 -424,396C-420.833,390.5 -416.5,384 -413,379C-409.865,374.521 -406.47,370.225 -403,366C-399.167,361.333 -393.5,354.833 -390,351C-387.457,348.215 -382,343 -382,343L-381,341C-381,341 -384.524,340.022 -386,339C-388.167,337.5 -391.747,334.735 -394,332C-396.333,329.167 -398.667,324.667 -400,322C-400.943,320.114 -401.667,317.667 -402,316C-402.261,314.693 -402,312 -402,312C-402,312 -407.474,311.918 -410,311C-413.667,309.667 -420,306.667 -424,304C-427.731,301.512 -431,298.167 -434,295C-436.936,291.901 -439.78,288.646 -442,285C-444.333,281.167 -446.5,276.167 -448,272C-449.397,268.121 -450.561,264.1 -451,260C-451.5,255.333 -451.5,248.833 -451,244C-450.542,239.576 -449.5,235.167 -448,231C-446.5,226.833 -444.5,222.667 -442,219C-439.5,215.333 -436.167,211.833 -433,209C-429.968,206.287 -425.833,203.667 -423,202C-420.812,200.713 -418.453,199.654 -416,199C-413.5,198.333 -408,198 -408,198C-408,198 -409.334,195.342 -409.554,193.896C-409.887,191.705 -410.443,187.84 -409.999,184.856C-409.407,180.873 -407.5,174.643 -406,170C-404.573,165.582 -401,157 -401,157C-401,157 -401.033,153.397 -402,152C-403.5,149.833 -407.837,147.09 -410,144C-412.333,140.667 -414.5,136 -416,132C-417.448,128.139 -418.333,123.333 -419,120C-419.527,117.365 -419.91,114.686 -420,112C-420.167,107 -420.5,96.833 -420,90C-419.532,83.605 -418.167,76.667 -417,71C-415.957,65.932 -414.636,60.909 -413,56C-411.333,51 -409.333,45.833 -407,41C-404.667,36.167 -401.667,31 -399,27C-396.632,23.448 -393.856,20.173 -391,17C-388,13.667 -384,9.5 -381,7C-378.584,4.987 -373.976,2.455 -373.976,2.455L-369.475,0.582C-369.475,0.582 -370.285,14.83 -370.452,19.163C-370.568,22.179 -370.925,25.982 -371,29C-371.167,35.667 -371.5,52.167 -371,60C-370.654,65.415 -369.428,70.765 -368,76C-366.5,81.5 -364.5,87.833 -362,93C-359.584,97.994 -355.833,103.167 -353,107C-350.614,110.228 -347,113.833 -345,116C-343.721,117.386 -342.167,119.167 -341,120C-340.142,120.613 -338,121 -338,121L-337.767,120.344C-337.767,120.344 -336.273,114.546 -335,112C-333.333,108.667 -330.167,104 -328,101C-326.201,98.509 -322.833,96.167 -322,94C-321.272,92.108 -322.935,90.027 -323,88C-323.167,82.833 -323.5,69.833 -323,63C-322.604,57.588 -321.333,52 -320,47C-318.723,42.212 -317.167,37.167 -315,33C-312.908,28.978 -309.667,24.833 -307,22C-304.715,19.573 -301.667,17.667 -299,16C-296.472,14.42 -293,12.833 -291,12C-289.731,11.471 -288.372,11.086 -287,11C-284.333,10.833 -278.95,10.368 -275,11C-270.833,11.667 -266.112,13.091 -262,15C-257.333,17.167 -251.665,20.501 -247,24C-242.333,27.5 -237.833,32.167 -234,36C-230.496,39.504 -227.172,43.193 -224,47C-220.667,51 -215.667,57.5 -214,60C-213.63,60.555 -214,60 -214,60C-214,60 -200.667,61.5 -196,62C-192.54,62.371 -189.167,63.667 -186,65C-182.837,66.332 -179.167,68.5 -177,70C-175.45,71.073 -173.178,72.639 -173.178,72.639L-171.081,73.795L-168,71C-168,71 -161.572,65.948 -158,64C-154.333,62 -150,60.167 -146,59C-142.107,57.865 -138.052,57.15 -134,57C-129.5,56.833 -123.667,57.167 -119,58C-114.537,58.797 -110,60.167 -106,62C-102.049,63.811 -98.333,66.5 -95,69C-91.789,71.408 -87.667,75.333 -86,77C-85.473,77.527 -86.422,77.614 -86,77C-84.167,74.333 -78.333,65.667 -75,61C-72.094,56.931 -69.201,52.841 -66,49C-62.667,45 -58.833,40.5 -55,37C-51.308,33.629 -47,30.5 -43,28C-39.208,25.63 -34.5,23.333 -31,22C-28.128,20.906 -25.064,20.236 -22,20C-17.667,19.667 -5.024,20.08 -5.024,20.08L-2,3L-0.91,-2.613Z" style="fill:rgb(2,1,1);fill-rule:nonzero;"/>
    </g>
    <g transform="matrix(1,0,0,1,464,426)">
        <path d="M0,0L2,1C3.316,4.1 3.657,4.976 4.485,6.964C5.318,8.964 5.869,11.136 7,13C8.419,15.339 10.833,18.5 13,21C15.161,23.494 17.453,25.902 20,28C22.833,30.333 30,35 30,35C30,35 23.667,46.667 22,51C20.78,54.173 20.333,57.667 20,61C19.668,64.317 19.493,67.705 20,71C20.667,75.333 21.985,81.885 24,87C26.167,92.5 31.167,100.5 33,104C33.692,105.321 35,108 35,108C35,108 24.667,114.833 21,118C17.962,120.624 15.164,123.619 13,127C10.333,131.167 7,138.167 5,143C3.266,147.189 2.03,151.585 1,156C-0.167,161 -2,173 -2,173C-2,173 -11.5,176 -15,178C-18.077,179.758 -20.848,182.185 -23,185C-25.167,187.833 -26.833,191.833 -28,195C-29.062,197.884 -29.764,200.936 -30,204C-30.333,208.333 -30.333,216.333 -30,221C-29.734,224.717 -28,232 -28,232C-28,232 -34.735,235.836 -37.115,238.329C-39.43,240.755 -41.441,243.723 -42.279,246.962C-43.118,250.201 -42.145,257.765 -42.145,257.765C-42.145,257.765 -44.086,257.367 -45,257C-46.976,256.206 -50.856,253.943 -54,253C-57.333,252 -61.833,251.333 -65,251C-67.652,250.721 -70.37,250.562 -73,251C-77,251.667 -85.333,254 -89,255C-91.034,255.555 -95,257 -95,257C-95,257 -99.332,252.525 -102,251C-105.5,249 -111.167,246.5 -116,245C-120.833,243.5 -125.916,242.391 -131,242C-137.5,241.5 -148.5,241.5 -155,242C-160.084,242.391 -165.667,243.833 -170,245C-173.767,246.014 -181,249 -181,249L-187.757,236.451L-192,230C-192,230 -180.333,228.5 -175,227C-169.816,225.542 -164.333,223.167 -160,221C-156.113,219.056 -152.333,216.5 -149,214C-145.789,211.592 -142.5,208.833 -140,206C-137.614,203.296 -134.833,199.167 -134,197C-133.507,195.717 -132.925,191.738 -133.759,190.904C-134.592,190.071 -137.696,191.565 -139,192C-140.5,192.5 -142.215,194.674 -143.724,196.183C-145.557,198.016 -147.649,201.02 -150,203C-153.167,205.667 -158.5,209.5 -163,212C-167.438,214.466 -172.124,216.584 -177,218C-182.167,219.5 -189.667,220.5 -194,221C-196.98,221.344 -200.021,221.357 -203,221C-207.167,220.5 -214.333,219.333 -219,218C-223.167,216.81 -227.5,214.833 -231,213C-234.194,211.327 -237.5,208.833 -240,207C-242.099,205.46 -244.333,204 -246,202C-248.5,199 -252.833,193.167 -255,189C-256.945,185.259 -258.167,181 -259,177C-259.819,173.071 -260,165 -260,165C-260,165 -253.333,160.167 -250,158C-246.741,155.881 -242.5,153.667 -240,152C-238.224,150.816 -236.167,149.333 -235,148C-234.018,146.878 -233.292,145.462 -233,144C-232.667,142.333 -232.172,139.821 -233,138C-233.833,136.167 -235.834,133.928 -238,133C-240.333,132 -243.997,131.7 -247,132C-250.333,132.333 -258,135 -258,135C-258,135 -260.333,129 -262,127C-263.539,125.153 -266,123.5 -268,123C-269.967,122.508 -272.5,123.167 -274,124C-275.457,124.809 -276.726,126.356 -277,128C-277.5,131 -277.667,137.833 -277,142C-276.384,145.853 -274.805,149.541 -273,153C-271,156.833 -265,165 -265,165C-265,165 -265.909,167.629 -266,169C-266.167,171.5 -266.537,176.373 -266,180C-265.333,184.5 -262,196 -262,196C-262,196 -272,196.5 -276,196C-279.453,195.568 -282.855,194.49 -286,193C-289.167,191.5 -292.5,189.167 -295,187C-297.322,184.987 -299.397,182.622 -301,180C-302.833,177 -304.767,172.834 -306,169C-307.5,164.333 -309.406,157.791 -310,152C-310.667,145.5 -310.667,136.667 -310,130C-309.388,123.884 -307.752,117.892 -306,112C-304.167,105.833 -301.667,99 -299,93C-296.396,87.141 -292.833,80.833 -290,76C-287.569,71.853 -284.794,67.912 -282,64C-278.667,59.333 -273.833,52.833 -270,48C-266.473,43.553 -262.333,39.167 -259,35C-255.877,31.096 -250,23 -250,23C-250,23 -238.333,23.333 -234,23C-230.611,22.739 -224,21 -224,21C-224,21 -219.667,28.833 -217,32C-214.415,35.07 -211.167,37.833 -208,40C-204.924,42.104 -200.5,44 -198,45C-196.422,45.631 -194.697,45.911 -193,46C-189.833,46.167 -183.5,46.667 -179,46C-174.515,45.336 -170,43.833 -166,42C-162.049,40.189 -158.311,37.815 -155,35C-151.667,32.167 -148.5,28.5 -146,25C-143.572,21.601 -140.606,11.265 -140.606,11.265C-140.606,11.265 -136.115,15.897 -136,16C-133.935,17.852 -129,21.333 -126,23C-123.51,24.383 -120.831,25.685 -118,26C-113.5,26.5 -103.833,26.5 -99,26C-95.538,25.642 -92.142,24.496 -89,23C-85.5,21.333 -80.974,18.565 -78,16C-75.267,13.643 -73.007,9.987 -71.155,7.61C-69.668,5.703 -66.887,1.742 -66.887,1.742C-62.859,5.901 -62.735,8.747 -60,11C-57.167,13.333 -53,15.667 -50,17C-47.488,18.116 -44.737,18.751 -42,19C-38.333,19.333 -32.167,19.667 -28,19C-24.147,18.384 -20.333,16.667 -17,15C-13.775,13.388 -10.704,11.386 -8,9C-5.167,6.5 0,0 0,0Z" style="fill:rgb(94,92,92);fill-rule:nonzero;"/>
    </g>
    <g transform="matrix(1,0,0,1,824,610)">
        <path d="M0,0L5,5L12,14L24,28L36,40L47,49L62,60L78,69L83,71L79,75L70,82L61,91L52,104L44,120L40,133L38,144L38,170L42,186L50,206L45,204L33,199L18,196L5,196L-9,199L-20,205L-27,213L-32,224L-34,237L-38,232L-47,222L-58,215L-69,210L-81,207L-93,207L-100,208L-102,190L-106,177L-89,172L-74,164L-61,154L-49,142L-38,127L-29,111L-21,94L-11,64L-5,39L-1,15L0,0Z" style="fill:rgb(47,9,3);fill-rule:nonzero;"/>
    </g>
    <g transform="matrix(1,0,0,1,590,129)">
        <path d="M0,0L2,3C2,3 8.333,19 11,27C13.635,34.906 16,43 18,51C19.982,58.928 21.667,67.167 23,75C24.297,82.622 25.537,90.282 26,98C26.5,106.333 26.5,117 26,125C25.559,132.057 24.333,139.5 23,146C21.749,152.1 20,158.667 18,164C16.168,168.885 13.667,174 11,178C8.512,181.731 5.489,185.182 2,188C-2.333,191.5 -15,199 -15,199L-25,201C-25,201 -28.667,192.167 -31,189C-33.102,186.147 -35.895,183.708 -39,182C-42.333,180.167 -46.866,178.827 -51,178C-55.167,177.167 -64,177 -64,177C-64,177 -63.957,170.832 -65,168C-66.167,164.833 -71,158 -71,158L-73,156C-73,156 -60.167,148 -55,144C-50.337,140.39 -45.833,136.167 -42,132C-38.298,127.977 -34.97,123.59 -32,119C-28.333,113.333 -23.333,105 -20,98C-16.779,91.237 -14.234,84.15 -12,77C-9.5,69 -6.667,57.667 -5,50C-3.638,43.735 -2.638,37.38 -2,31C-1.167,22.667 0,0 0,0Z" style="fill:rgb(47,9,3);fill-rule:nonzero;"/>
    </g>
    <g transform="matrix(1,0,0,1,538,153)">
        <path d="M0,0C2.333,-0.833 6.058,-0.588 9,0C12.333,0.667 16.667,2.167 20,4C23.33,5.832 26.167,8.5 29,11C31.828,13.495 35.5,17 37,19C37.825,20.099 38.278,21.654 38,23C37,27.833 33.333,40.833 31,48C29.007,54.121 26.667,60.167 24,66C21.334,71.831 18.442,77.591 15,83C11.5,88.5 3,99 3,99L-1,101L-12,96L-19,94L-37,94C-37,94 -37.331,88.646 -37,86C-36.333,80.667 -34.667,69.333 -33,62C-31.457,55.213 -29.167,48 -27,42C-25.023,36.525 -22.333,30.5 -20,26C-17.999,22.142 -15.5,18.5 -13,15C-10.519,11.526 -7.167,7.5 -5,5C-3.456,3.219 -2.22,0.793 0,0Z" style="fill:rgb(56,55,55);fill-rule:nonzero;"/>
    </g>
    <g transform="matrix(1,0,0,1,398,468)">
        <path d="M0,0C2.671,-0.297 5.45,0.15 8,1C11,2 15.167,3.833 18,6C20.815,8.152 23.167,11 25,14C26.833,17 28.129,20.517 29,24C30,28 30.667,34 31,38C31.277,41.322 31.382,44.689 31,48C30.5,52.333 29.333,59.667 28,64C26.904,67.562 25.288,71.058 23,74C20.667,77 16.833,80.167 14,82C11.609,83.547 8.809,84.532 6,85C3,85.5 -0.766,85.808 -4,85C-7.333,84.167 -11.333,82 -14,80C-16.459,78.156 -18.33,75.58 -20,73C-21.833,70.167 -23.673,66.483 -25,63C-26.333,59.5 -27.634,55.783 -28,52C-28.5,46.833 -28.667,37.5 -28,32C-27.454,27.499 -25.5,22.5 -24,19C-22.761,16.11 -21.071,13.367 -19,11C-16.667,8.333 -13.167,4.833 -10,3C-6.988,1.256 -3,0.333 0,0Z" style="fill-rule:nonzero;"/>
    </g>
    <g transform="matrix(1,0,0,1,203,133)">
        <path d="M0,0L1,2L1,31L4,48L10,66L17,78L26,88L30,93L14,98L5,103L-5,112L-9,117L-13,115L-18,107L-22,93L-23,85L-23,64L-20,45L-14,25L-6,9L0,0Z" style="fill:rgb(47,9,3);fill-rule:nonzero;"/>
    </g>
    <g transform="matrix(1,0,0,1,297,127)">
        <path d="M0,0C1.046,-0.131 2.728,-0.019 3,1C3.667,3.5 3.052,10.418 4,15C5,19.833 7,25.5 9,30C10.881,34.232 13.5,38.333 16,42C18.405,45.527 21.333,49 24,52C26.505,54.819 32,60 32,60L41,66L40,69C40,69 32.833,63.833 29,62C25.196,60.181 20,58.833 17,58C15.046,57.457 13.022,57.144 11,57C8.667,56.833 5.642,56.64 3,57C-0.667,57.5 -6.488,58.444 -11,60C-15.833,61.667 -26,67 -26,67C-26,67 -26.439,56.981 -26,52C-25.5,46.333 -24.333,38.833 -23,33C-21.755,27.553 -19.833,21.167 -18,17C-16.548,13.7 -14.167,10.5 -12,8C-9.987,5.678 -7,3.333 -5,2C-3.506,1.004 -1.333,0.167 0,0Z" style="fill:rgb(56,55,55);fill-rule:nonzero;"/>
    </g>
    <g transform="matrix(1,0,0,1,306,126)">
        <path d="M0,0C1.5,-0.833 6.072,0.268 9,1C12.333,1.833 16.541,3.195 20,5C23.833,7 28.34,9.883 32,13C36.5,16.833 43,23.667 47,28C50.213,31.481 54,36.333 56,39C57.166,40.555 59,44 59,44C59,44 51.399,47.572 48,50C44.5,52.5 39.833,57.167 38,59C37.473,59.527 36.633,61.93 36.633,61.93C36.633,61.93 34.151,59.948 33,59C30.167,56.667 23.667,51 20,47C16.621,43.314 13.62,39.258 11,35C8.333,30.667 5.833,25.833 4,21C2.167,16.167 0.667,9.5 0,6C-0.374,4.035 -1.5,0.833 0,0Z" style="fill:rgb(158,25,4);fill-rule:nonzero;"/>
    </g>
    <g transform="matrix(1,0,0,1,873,683)">
        <path d="M0,0L2,0L1,4L-11,20L-19,36L-22,49L-23,58L-23,88L-27,92L-49,93L-61,97L-71,103L-76,107L-85,121L-90,130L-92,132L-98,132L-107,128L-125,123L-124,119L-122,118L-108,118L-98,121L-95,121L-88,108L-79,98L-72,92L-60,86L-48,83L-31,83L-32,67L-31,51L-28,37L-23,24L-14,11L-5,3L0,0Z" style="fill-rule:nonzero;"/>
    </g>
    <g transform="matrix(1,0,0,1,833,639)">
        <path d="M0,0L2,1L3,6L3,35L-1,53L-8,74L-18,95L-30,113L-38,123L-47,133L-54,140L-68,150L-83,157L-94,160L-103,160L-99,156L-77,145L-64,136L-54,127L-44,117L-34,104L-25,90L-17,74L-10,55L-6,41L-2,10L0,0Z" style="fill-rule:nonzero;"/>
    </g>
    <g transform="matrix(1,0,0,1,193,553)">
        <path d="M0,0C1.333,-0.333 3.84,0.63 5,2C6.833,4.167 11,13 11,13L16.407,10.855C16.407,10.855 21.333,9.333 24,9C26.667,8.667 30.333,9.5 32,10C32.903,10.271 33.883,11.064 34,12C34.167,13.333 34.125,16.313 33,18C31.667,20 28.557,22.295 26,24C22.5,26.333 11.889,32.715 11.889,32.715L8,35C8,35 2.811,27.951 1,24C-0.833,20 -2.333,14.333 -3,11C-3.458,8.712 -3.5,5.833 -3,4C-2.561,2.392 -1.333,0.333 0,0Z" style="fill:rgb(157,25,4);fill-rule:nonzero;"/>
    </g>
    <g transform="matrix(1,0,0,1,396,519)">
        <path d="M0,0C2.167,-0.833 5,-0.5 7,0C8.886,0.471 10.667,1.667 12,3C13.333,4.333 14.704,6.079 15,8C15.333,10.167 14.833,14 14,16C13.275,17.741 11.741,19.275 10,20C8,20.833 4.333,21.333 2,21C-0.214,20.684 -2.5,19.333 -4,18C-5.453,16.709 -6.704,14.921 -7,13C-7.333,10.833 -7.167,7.167 -6,5C-4.833,2.833 -2.167,0.833 0,0Z" style="fill:white;fill-rule:nonzero;"/>
    </g>
    <g transform="matrix(1,0,0,1,564,137)">
        <path d="M0,0C4,-0.667 11.167,-0.167 14,0C15.052,0.062 17,1 17,1L16,17L15,23C15,23 9.723,18.922 7,17C4.167,15 1.255,12.55 -2,11C-5.5,9.333 -12.667,8.167 -14,7C-15.254,5.902 -11.491,4.745 -10,4C-7.667,2.833 -3.541,0.59 0,0Z" style="fill:rgb(158,25,4);fill-rule:nonzero;"/>
    </g>
    <g transform="matrix(1,0,0,1,383,497)">
        <path d="M0,0C1.333,-0.5 3.5,-0.667 5,0C6.5,0.667 8.333,2.333 9,4C9.667,5.667 9.667,8.5 9,10C8.333,11.5 6.5,12.667 5,13C3.5,13.333 1.333,12.667 0,12C-1.265,11.368 -2.553,10.342 -3,9C-3.5,7.5 -3.5,4.5 -3,3C-2.553,1.658 -1.324,0.497 0,0Z" style="fill:white;fill-rule:nonzero;"/>
    </g>
</svg>
