<?xml version="1.0" encoding="UTF-8" standalone="no"?>
<!DOCTYPE svg PUBLIC "-//W3C//DTD SVG 1.1//EN" "http://www.w3.org/Graphics/SVG/1.1/DTD/svg11.dtd">
<svg width="100%" height="100%" viewBox="0 0 940 877" version="1.1" xmlns="http://www.w3.org/2000/svg" xmlns:xlink="http://www.w3.org/1999/xlink" xml:space="preserve" xmlns:serif="http://www.serif.com/" style="fill-rule:evenodd;clip-rule:evenodd;stroke-linejoin:round;stroke-miterlimit:2;">
    <g transform="matrix(1,0,0,1,291.466,0.511194)">
        <path d="M1.186,0.922C8.447,-0.266 30.031,-0.846 38,0C42.153,0.441 45.549,3.647 49,6C52.667,8.5 56.667,12 60,15C63.154,17.838 66.162,20.846 69,24C72,27.333 75.333,31.667 78,35C80.374,37.968 83.833,42.167 85,44C85.358,44.562 84.337,45.926 85,46C88,46.333 98.333,45.5 103,46C106.46,46.371 109.833,47.667 113,49C116.163,50.332 119.833,52.5 122,54C123.55,55.073 124.833,57.167 126,58C126.858,58.613 128.167,59.5 129,59C129.833,58.5 129.901,56.007 131,55C133,53.167 137.428,49.948 141,48C144.667,46 149,44.167 153,43C156.893,41.865 160.948,41.15 165,41C169.5,40.833 175.333,41.167 180,42C184.463,42.797 189,44.167 193,46C196.951,47.811 200.667,50.5 204,53C207.211,55.408 211.333,59.333 213,61C213.527,61.527 213.534,63.581 214,63C216.145,60.325 222.366,49.954 225.869,44.953C228.75,40.842 231.737,36.79 235.021,32.995C238.453,29.03 242.817,24.501 246.459,21.161C249.715,18.174 253.278,15.48 256.869,12.954C260.446,10.436 264.645,7.492 268,6C270.808,4.751 273.941,4.291 277,4C280.5,3.667 285.167,3.5 289,4C292.769,4.492 296.5,5.667 300,7C303.483,8.327 306.947,9.863 310,12C313.333,14.333 317,18 320,21C322.838,23.838 325.667,26.734 328,30C330.5,33.5 332.991,37.828 335,42C337.167,46.5 339.465,51.838 341,57C342.833,63.167 344.614,71.608 346,79C347.5,87 349.333,99.833 350,105C350.213,106.653 348.833,109 350,110C351.167,111 354.777,110.216 357,111C359.833,112 363.366,115.174 367,116C370.667,116.833 375.028,116.472 379,116C383.189,115.502 388.189,115.159 392.133,113.015C396.815,110.469 403.48,103.516 407.093,100.723C409.22,99.079 411.825,97.38 413.81,96.26C415.453,95.332 417.302,94.043 419,94C420.698,93.957 422.667,95 424,96C425.333,97 426.43,98.434 427,100C427.667,101.833 428.292,104.661 428,107C427.667,109.667 426.536,113.236 425,116C423.333,119 420.605,122.232 418,125C415.333,127.833 412.376,130.829 409,133C405.345,135.351 399.401,137.437 396.067,139.104C393.661,140.307 389.845,140.851 389,143C388.155,145.149 390.722,148.939 391,152C391.333,155.667 391.139,161.144 391,165C390.878,168.387 388.543,174.922 390.167,175.134C391.791,175.347 397.109,168.702 400.745,166.276C404.239,163.944 408.885,161.819 411.985,160.577C414.325,159.639 416.87,159.316 419.343,158.825C422.345,158.228 426.557,156.804 430,157C433.443,157.196 437.333,158.833 440,160C442.202,160.963 444.667,162.833 446,164C446.904,164.791 447.88,165.804 448,167C448.167,168.667 448.152,172.25 447,174C445.848,175.75 443.213,176.641 441.091,177.498C436.922,179.18 426.668,182.01 421.986,184.094C418.711,185.551 414.164,188.182 413,190C412.032,191.512 414.155,193.416 415,195C416.333,197.5 419.391,201.461 421,205C422.667,208.667 424.167,213 425,217C425.819,220.929 426.297,224.997 426,229C425.667,233.5 424.333,239.5 423,244C421.769,248.155 419.167,253 418,256C417.236,257.965 415.371,259.988 416,262C416.833,264.667 420.967,268.476 423,272C425.5,276.333 429.167,283.833 431,288C432.274,290.894 433.268,293.924 434,297C434.833,300.5 435.667,305.5 436,309C436.284,311.986 436.372,315.023 436,318C435.5,322 434.333,328.5 433,333C431.769,337.155 430.132,341.228 428,345C425.833,348.833 421.5,353.667 420,356C419.43,356.887 418.577,358.034 419,359C420.167,361.667 424.667,367.5 427,372C429.333,376.5 431.541,381.137 433,386C434.5,391 435.667,396.833 436,402C436.323,407.001 435.833,412.167 435,417C434.175,421.783 432.667,426.667 431,431C429.395,435.174 426.5,440.333 425,443C424.183,444.453 422.333,445.5 422,447C421.667,448.5 422.369,450.422 423,452C424.333,455.333 428.167,462.333 430,467C431.658,471.22 433.016,475.574 434,480C435,484.5 435.667,489.833 436,494C436.292,497.655 436.292,501.345 436,505C435.667,509.167 435,514.5 434,519C433.016,523.426 431.667,527.833 430,532C428.339,536.152 426.5,540.333 424,544C421.5,547.667 415.149,549.518 415,554C414.833,559 421.167,568.5 423,574C424.406,578.219 425.631,582.568 426,587C426.5,593 426.5,604.167 426,610C425.648,614.108 424.448,618.139 423,622C421.5,626 418.833,631.167 417,634C415.72,635.979 412.5,637.5 412,639C411.529,640.414 413.046,641.855 414,643C415.667,645 419.714,648 422,651C424.667,654.5 428,660.167 430,664C431.661,667.183 433,670.833 434,674C434.925,676.931 435.773,679.935 436,683C436.333,687.5 436.667,695.5 436,701C435.377,706.137 433.5,711.667 432,716C430.683,719.806 427.5,724.333 427,727C426.669,728.764 428.155,730.416 429,732C430.333,734.5 433.196,738.557 435,742C436.833,745.5 438.772,749.164 440,753C441.333,757.167 442.5,762.833 443,767C443.437,770.641 443.333,774.667 443,778C442.694,781.058 440.167,785.333 441,787C441.833,788.667 445.805,787.141 448,788C451.833,789.5 459.5,793.333 464,796C467.9,798.311 471.5,801.167 475,804C478.486,806.822 482,810.167 485,813C487.742,815.589 490.627,818.069 493,821C495.833,824.5 499.335,829.453 502,834C504.833,838.833 508,845.333 510,850C511.661,853.875 513.167,859.167 514,862C514.48,863.631 514.887,865.304 515,867C515.167,869.5 518.333,876.942 515,877C413.669,878.771 10.687,880.128 -92.988,877.624C-99.998,877.455 -103.064,866.307 -107.051,861.977C-110.276,858.474 -114.112,855.493 -116.909,851.639C-119.932,847.476 -123.349,841.76 -125.188,836.995C-126.893,832.573 -126.612,827.221 -127.939,823.045C-129.178,819.148 -131.065,815.458 -133.149,811.94C-135.57,807.856 -140.016,803.395 -142.464,798.536C-144.928,793.645 -146.144,787.903 -147.931,782.596C-149.713,777.305 -152.089,771.288 -153.188,766.695C-154.098,762.89 -154.128,758.927 -154.524,755.036C-154.929,751.045 -155.547,746.861 -155.623,742.75C-155.743,736.234 -155.563,722.064 -155.243,715.938C-155.068,712.589 -154.003,708.801 -153.703,705.995C-153.458,703.71 -152.558,701.229 -153.439,699.106C-154.529,696.478 -158.589,693.474 -160.243,690.225C-161.897,686.977 -162.683,682.483 -163.363,679.615C-163.876,677.453 -164.314,675.104 -164.325,673.017C-164.336,671.02 -163.926,668.906 -163.431,667.092C-162.959,665.363 -162.481,663.499 -161.354,662.131C-160.226,660.764 -158.432,659.59 -156.667,658.888C-154.393,657.983 -147.824,659.773 -147.711,656.702C-147.597,653.584 -153.977,645.29 -155.981,640.176C-157.762,635.632 -159.027,630.852 -159.735,626.022C-159.956,624.512 -160.138,622.838 -160.269,621.136C-160.563,617.32 -160.607,613.365 -160.285,610.813C-159.965,608.268 -158.086,605.572 -156.946,603.879C-156.061,602.564 -154.598,601.399 -153.447,600.659C-152.433,600.006 -151.247,599.503 -150.043,599.435C-147.832,599.308 -144.146,599.904 -141.306,600.165C-138.893,600.387 -136.121,602.206 -134.007,603.389C-131.067,605.035 -122.545,609.775 -122.545,609.775C-122.545,609.775 -120.336,601.966 -118.828,598.583C-117.396,595.37 -115.428,591.812 -113.497,589.477C-111.808,587.435 -108.907,585.649 -107.241,584.572C-106.108,583.838 -104.842,583.184 -103.503,583.012C-101.23,582.719 -96.189,582.485 -93.605,582.816C-91.616,583.071 -89.572,583.756 -88,585C-86.066,586.531 -83.422,589.275 -82,592C-80,595.833 -77.499,602.505 -76,608C-74.5,613.5 -73.491,619.267 -73,625C-72.5,630.833 -72.833,639.667 -73,643C-73.037,643.744 -74.685,644.706 -74,645C-72.833,645.5 -68.435,644.864 -66,646C-63.5,647.167 -60.667,649.5 -59,652C-57.333,654.5 -56.3,657.852 -56,661C-55.667,664.5 -57.833,670.833 -57,673C-56.272,674.892 -52.789,673.046 -51,674C-48.5,675.333 -44.525,678.159 -42,681C-39.333,684 -36.765,688.028 -35,692C-33,696.5 -31.046,702.511 -30,708C-28.667,715 -27.5,727.333 -27,734C-26.651,738.654 -26.667,744.333 -27,748C-27.249,750.737 -29.57,754.461 -29,756C-28.43,757.539 -24.946,758.096 -23.579,757.233C-22.211,756.37 -21.922,752.861 -20.798,750.82C-19.363,748.216 -15.165,744.531 -14.972,741.606C-14.78,738.682 -18.505,736.018 -19.642,733.274C-20.716,730.683 -21.364,727.405 -21.797,725.14C-22.14,723.349 -22.15,721.509 -22.244,719.688C-22.387,716.897 -23.02,712.144 -22.656,708.395C-22.248,704.206 -21.015,698.804 -19.798,694.555C-18.653,690.556 -16.545,685.459 -15.352,682.895C-14.704,681.504 -12.201,680.647 -12.638,679.176C-13.348,676.79 -17.537,672.263 -19.611,668.578C-21.915,664.484 -24.814,659.009 -26.461,654.615C-27.955,650.629 -29.11,646.45 -29.493,642.21C-29.935,637.322 -29.672,630.311 -29.11,625.284C-28.609,620.79 -25.691,615.328 -26.127,612.05C-26.502,609.232 -29.948,607.835 -31.724,605.616C-33.671,603.185 -36.149,600.418 -37.809,597.459C-39.514,594.418 -40.915,590.853 -41.957,587.368C-43.069,583.65 -44.072,579.287 -44.482,575.148C-44.989,570.016 -45.329,561.345 -45.005,556.578C-44.772,553.141 -43.689,549.592 -42.539,546.543C-41.436,543.619 -39.36,540.516 -38.104,538.283C-37.122,536.539 -33.851,534.271 -34.999,533.147C-36.147,532.022 -41.789,532.602 -44.989,531.537C-48.529,530.36 -52.568,528.058 -56.238,526.084C-60.074,524.021 -64.584,521.667 -68.005,519.158C-71.217,516.801 -74.849,512.967 -76.764,511.025C-77.808,509.967 -78.023,507.682 -79.498,507.504C-81.645,507.247 -86.205,509.316 -89.647,509.479C-93.313,509.653 -97.776,509.278 -101.492,508.546C-105.092,507.837 -108.59,506.578 -111.941,505.085C-115.291,503.593 -118.889,501.759 -121.596,499.591C-124.197,497.508 -126.164,494.723 -128.184,492.075C-130.299,489.302 -132.808,486.303 -134.285,482.958C-136.076,478.901 -137.815,472.156 -138.933,467.735C-139.872,464.022 -140.771,460.256 -140.995,456.433C-141.318,450.928 -141.516,441.585 -140.868,434.704C-140.246,428.095 -138.931,421.53 -137.106,415.147C-135.275,408.743 -132.398,402.125 -129.882,396.276C-127.507,390.756 -124.966,385.289 -122.011,380.056C-118.872,374.497 -114.47,367.855 -111.049,362.921C-108.065,358.616 -104.859,354.459 -101.488,350.449C-97.765,346.021 -92.145,340.169 -88.712,336.351C-86.087,333.431 -82.393,329.619 -80.892,327.542C-80.142,326.503 -78.927,324.899 -79.709,323.885C-80.527,322.826 -83.992,322.482 -85.796,321.19C-88.087,319.55 -91.313,316.778 -93.454,314.045C-95.594,311.312 -97.503,307.149 -98.639,304.792C-99.384,303.244 -99.852,301.569 -100.265,299.901C-100.683,298.217 -99.686,295.678 -101.143,294.683C-102.895,293.487 -107.722,293.907 -110.779,292.725C-114.635,291.234 -120.579,288.357 -124.278,285.738C-127.629,283.365 -130.358,280.101 -132.972,277.011C-135.566,273.945 -137.858,270.618 -139.963,267.197C-142.183,263.59 -144.772,259.359 -146.289,255.367C-147.762,251.494 -148.759,247.382 -149.068,243.249C-149.404,238.771 -149.066,233.284 -148.3,228.496C-147.538,223.726 -145.987,218.431 -144.476,214.521C-143.174,211.15 -141.234,208.041 -139.235,205.031C-136.907,201.528 -133.426,196.445 -130.512,193.505C-128.005,190.976 -124.513,188.886 -121.75,187.391C-119.31,186.07 -116.42,185.251 -113.935,184.532C-111.614,183.86 -107.963,184.136 -106.835,183.075C-105.707,182.014 -107.165,179.807 -107.167,178.167C-107.169,175.74 -107.243,171.707 -106.849,168.51C-106.359,164.536 -105.429,158.636 -104.227,154.324C-103.104,150.292 -101.393,146.436 -99.639,142.636C-97.792,138.635 -95.708,133.882 -93.147,130.323C-90.68,126.895 -87.038,124.058 -84.272,121.281C-81.721,118.718 -79.587,115.625 -76.553,113.658C-73.084,111.408 -66.692,109.13 -63.462,107.785C-61.411,106.931 -59.385,105.759 -57.17,105.587C-52.792,105.247 -41.102,107.183 -37.197,105.747C-34.246,104.662 -35.136,99.789 -33.74,96.972C-32.083,93.626 -29.515,88.895 -27.252,85.672C-25.2,82.748 -21.099,79.999 -20.164,77.633C-19.388,75.669 -21.569,73.583 -21.642,71.472C-21.82,66.341 -21.78,53.447 -21.229,46.843C-20.805,41.77 -19.603,36.722 -18.337,31.848C-17.079,27.006 -15.761,21.718 -13.632,17.598C-11.61,13.684 -8.035,9.908 -5.565,7.129C-3.534,4.844 -1.831,1.416 1.186,0.922Z" style="fill:rgb(196,173,140);fill-rule:nonzero;"/>
    </g>
    <g transform="matrix(1,0,0,1,293,0)">
        <path d="M0,0C7.667,-1 29.833,-1 38,0C42.146,0.508 45.549,3.647 49,6C52.667,8.5 56.667,12 60,15C63.154,17.838 66.162,20.846 69,24C72,27.333 75.333,31.667 78,35C80.374,37.968 83.833,42.167 85,44C85.358,44.562 84.337,45.926 85,46C88,46.333 98.333,45.5 103,46C106.46,46.371 109.833,47.667 113,49C116.163,50.332 119.833,52.5 122,54C123.55,55.073 124.833,57.167 126,58C126.858,58.613 128.167,59.5 129,59C129.833,58.5 129.901,56.007 131,55C133,53.167 137.428,49.948 141,48C144.667,46 149,44.167 153,43C156.893,41.865 160.948,41.15 165,41C169.5,40.833 175.333,41.167 180,42C184.463,42.797 189,44.167 193,46C196.951,47.811 200.667,50.5 204,53C207.211,55.408 211.333,59.333 213,61C213.527,61.527 213.531,63.579 214,63C215.12,61.617 218.056,55.7 219.722,52.7C221.148,50.133 222.359,47.435 224,45C226.213,41.717 229.799,36.841 233,33C236.333,29 240.167,24.5 244,21C247.692,17.629 252,14.5 256,12C259.792,9.63 264.5,7.333 268,6C270.872,4.906 273.941,4.291 277,4C280.5,3.667 285.167,3.5 289,4C292.769,4.492 296.5,5.667 300,7C303.483,8.327 306.947,9.863 310,12C313.333,14.333 317,18 320,21C322.838,23.838 325.667,26.734 328,30C330.5,33.5 332.991,37.828 335,42C337.167,46.5 339.465,51.838 341,57C342.833,63.167 344.614,71.608 346,79C347.5,87 349.333,99.833 350,105C350.213,106.653 348.833,109 350,110C351.167,111 354.777,110.216 357,111C359.833,112 363.366,115.174 367,116C370.667,116.833 375.084,116.816 379,116C383,115.167 387.373,113.371 391,111C395.333,108.167 401.5,101.667 405,99C407.138,97.371 409.667,95.833 412,95C414.22,94.207 417,93.833 419,94C420.789,94.149 422.667,95 424,96C425.333,97 426.43,98.434 427,100C427.667,101.833 428.292,104.661 428,107C427.667,109.667 426.536,113.236 425,116C423.333,119 420.605,122.232 418,125C415.333,127.833 412.266,130.667 409,133C405.5,135.5 400.333,138.333 397,140C394.453,141.274 390,141 389,143C388,145 390.722,148.939 391,152C391.333,155.667 391.167,161.667 391,165C390.882,167.354 388.667,172 390,172C391.333,172 395.768,167 399,165C402.5,162.833 407.667,160.333 411,159C413.552,157.979 416.266,157.288 419,157C422.167,156.667 426.5,156.5 430,157C433.445,157.492 437.333,158.833 440,160C442.202,160.963 444.667,162.833 446,164C446.904,164.791 447.88,165.804 448,167C448.167,168.667 448,172.167 447,174C446,175.833 443.94,177.111 442,178C438,179.833 427.833,183 423,185C419.556,186.425 414.333,188.333 413,190C411.879,191.402 414.155,193.416 415,195C416.333,197.5 419.391,201.461 421,205C422.667,208.667 424.167,213 425,217C425.819,220.929 426.297,224.997 426,229C425.667,233.5 424.333,239.5 423,244C421.769,248.155 419.167,253 418,256C417.236,257.965 415.371,259.988 416,262C416.833,264.667 420.967,268.476 423,272C425.5,276.333 429.167,283.833 431,288C432.274,290.894 433.268,293.924 434,297C434.833,300.5 435.667,305.5 436,309C436.284,311.986 436.372,315.023 436,318C435.5,322 434.333,328.5 433,333C431.769,337.155 430.132,341.228 428,345C425.833,348.833 421.5,353.667 420,356C419.43,356.887 418.577,358.034 419,359C420.167,361.667 424.667,367.5 427,372C429.333,376.5 431.541,381.137 433,386C434.5,391 435.667,396.833 436,402C436.323,407.001 435.833,412.167 435,417C434.175,421.783 432.667,426.667 431,431C429.395,435.174 426.5,440.333 425,443C424.183,444.453 422.333,445.5 422,447C421.667,448.5 422.369,450.422 423,452C424.333,455.333 428.167,462.333 430,467C431.658,471.22 433.016,475.574 434,480C435,484.5 435.667,489.833 436,494C436.292,497.655 436.292,501.345 436,505C435.667,509.167 435,514.5 434,519C433.016,523.426 431.667,527.833 430,532C428.339,536.152 426.5,540.333 424,544C421.5,547.667 415.149,549.518 415,554C414.833,559 421.167,568.5 423,574C424.406,578.219 425.631,582.568 426,587C426.5,593 426.5,604.167 426,610C425.648,614.108 424.448,618.139 423,622C421.5,626 418.833,631.167 417,634C415.72,635.979 412.5,637.5 412,639C411.529,640.414 413.046,641.855 414,643C415.667,645 419.714,648 422,651C424.667,654.5 428,660.167 430,664C431.661,667.183 433,670.833 434,674C434.925,676.931 435.773,679.935 436,683C436.333,687.5 436.667,695.5 436,701C435.377,706.137 433.5,711.667 432,716C430.683,719.806 427.5,724.333 427,727C426.669,728.764 428.155,730.416 429,732C430.333,734.5 433.196,738.557 435,742C436.833,745.5 438.772,749.164 440,753C441.333,757.167 442.5,762.833 443,767C443.437,770.641 443.333,774.667 443,778C442.694,781.058 440.167,785.333 441,787C441.833,788.667 445.805,787.141 448,788C451.833,789.5 459.5,793.333 464,796C467.9,798.311 471.5,801.167 475,804C478.486,806.822 482,810.167 485,813C487.742,815.589 490.627,818.069 493,821C495.833,824.5 499.335,829.453 502,834C504.833,838.833 508,845.333 510,850C511.661,853.875 513.167,859.167 514,862C514.48,863.631 514.887,865.304 515,867C515.167,869.5 516.667,875.333 515,877C513.333,878.667 507.169,879.531 505,877C502,873.5 499.667,862 497,856C494.699,850.822 491.667,845.333 489,841C486.624,837.139 483.667,833.333 481,830C478.493,826.866 475.914,823.761 473,821C469.833,818 465.772,814.867 462,812C457.833,808.833 452.167,804.667 448,802C444.482,799.749 439.167,796.167 437,796C435.21,795.862 435.996,799.506 435,801C433.667,803 431.4,806.08 429,808C426.5,810 422.333,811.833 420,813C418.394,813.803 416.771,814.705 415,815C413,815.333 409.333,815.5 408,815C407.013,814.63 406.495,812.925 407,812C408,810.167 411.656,806.657 414,804C416.5,801.167 420,797.833 422,795C423.719,792.564 425,789.333 426,787C426.83,785.062 427.832,783.101 428,781C428.333,776.833 428.667,767 428,762C427.484,758.133 425.614,754.552 424,751C422.333,747.333 419.833,743 418,740C416.505,737.553 414,735.333 413,733C412.072,730.834 411.428,728.287 412,726C413,722 417.5,713 419,709C419.852,706.728 420.814,704.42 421,702C421.333,697.667 421.5,687.833 421,683C420.642,679.538 419.388,676.191 418,673C416.333,669.167 413.73,664.095 411,660C408,655.5 402.5,649.167 400,646C398.677,644.325 396.5,642.667 396,641C395.512,639.372 396.126,637.457 397,636C398.5,633.5 402.833,629.667 405,626C407.167,622.333 409,616.667 410,614C410.483,612.713 410.949,611.373 411,610C411.167,605.5 411.833,593.667 411,587C410.267,581.139 408,575.167 406,570C404.117,565.134 400,559.5 399,556C398.352,553.734 399,551 400,549C401,547 403.514,545.829 405,544C407.167,541.333 410.833,536.833 413,533C415.132,529.228 416.833,524.5 418,521C418.972,518.085 419.82,515.068 420,512C420.333,506.333 420.667,493.667 420,487C419.485,481.851 417.848,476.833 416,472C413.833,466.333 408.667,457.167 407,453C406.247,451.117 405.302,448.904 406,447C407.833,442 415.667,428.333 418,423C419.102,420.482 419.789,417.741 420,415C420.333,410.667 420.667,402.167 420,397C419.42,392.503 417.667,388.167 416,384C414.339,379.848 412,375.333 410,372C408.285,369.142 405.167,365.833 404,364C403.434,363.111 403.105,362.049 403,361C402.833,359.333 402.333,356.167 403,354C403.667,351.833 405.534,349.905 407,348C408.667,345.833 411.397,343.622 413,341C414.833,338 416.833,333.167 418,330C418.95,327.421 419.781,324.74 420,322C420.333,317.833 420.667,310 420,305C419.401,300.506 417.711,296.199 416,292C414.167,287.5 411,281.333 409,278C407.661,275.768 404.833,271.167 404,272C403.167,272.833 404.667,280.5 404,283C403.514,284.822 401.772,286.356 400,287C398.167,287.667 395.166,287.867 393,287C390.5,286 387.28,283.432 385,281C382.5,278.333 380.05,274.515 378,271C375.667,267 372.796,261.899 371,257C369.167,252 367.521,246.473 367,241C366.333,234 366.333,221.833 367,215C367.502,209.85 369.132,204.826 371,200C373,194.833 378,187.333 379,184C379.428,182.572 377.135,181.485 377,180C376.833,178.167 377.5,175.167 378,173C378.474,170.946 379.587,169.067 380,167C380.5,164.5 381.137,161.015 381,158C380.833,154.333 380.333,147 379,145C377.875,143.313 375.024,145.874 373,146C370.333,146.167 365.667,146.167 363,146C360.976,145.874 357.667,144 357,145C356.333,146 358.77,149.584 359,152C359.333,155.5 359.5,163.333 359,166C358.779,167.181 357.125,168.422 356,168C354.667,167.5 352.013,165.128 351,163C349.333,159.5 347,150.5 346,147C345.533,145.366 346.315,143.076 345,142C343.167,140.5 338.067,139.867 335,138C331.167,135.667 325.167,130.833 322,128C319.71,125.951 317,119.5 316,121C315,122.5 316.167,133.333 316,137C315.908,139.025 314,141.833 315,143C316,144.167 320,143.167 322,144C323.97,144.821 326,146.5 327,148C327.943,149.414 328,152 328,153C328,153.471 327.471,153.974 327,154C324,154.167 314.833,153.333 310,154C305.823,154.576 301.5,157.833 298,158C294.841,158.15 291.5,156 289,155C286.924,154.17 284.167,151.333 283,152C281.833,152.667 282.71,156.752 282,159C281,162.167 278.5,167.833 277,171C275.85,173.429 274.333,176.167 273,178C271.891,179.525 270.261,180.598 269,182C267.5,183.667 265.667,186.5 264,188C262.555,189.3 260.598,189.894 259,191C256.833,192.5 253.959,195.466 251,197C246.5,199.333 236.667,203.333 232,205C229.106,206.034 226.069,206.838 223,207C219.833,207.167 215.667,206.667 213,206C210.831,205.458 208.789,204.342 207,203C205,201.5 201.833,199.167 201,197C200.167,194.833 201,192 202,190C203,188 205.132,186.437 207,185C209.167,183.333 212.187,181.406 215,180C219,178 226.833,175.333 231,173C234.316,171.143 237.333,168.667 240,166C242.667,163.333 245.333,159.667 247,157C248.345,154.847 249.5,151.667 250,150C250.287,149.042 250.763,147.646 250,147C247.833,145.167 240.833,140.833 237,139C233.86,137.498 230.43,136.591 227,136C222.167,135.167 211.667,135 208,134C206.392,133.561 205.667,131.167 205,130C204.477,129.085 204.044,128.053 204,127C203.833,123 203.5,112.667 204,106C204.48,99.606 206,92.167 207,87C207.783,82.952 210.833,78.167 210,75C209.167,71.833 204.735,70.253 202,68C199.167,65.667 196.167,63 193,61C189.849,59.01 186.5,57.167 183,56C179.5,54.833 175.333,54.333 172,54C169.015,53.701 165.97,53.576 163,54C159.5,54.5 154.861,55.552 151,57C147,58.5 142.167,61.167 139,63C136.518,64.437 133.667,66.333 132,68C130.626,69.374 130.333,72.333 129,73C127.667,73.667 125.457,72.874 124,72C121.5,70.5 117,66 114,64C111.519,62.346 108,60.833 106,60C104.731,59.471 103.373,59.069 102,59C98.667,58.833 90.5,58.333 86,59C82.141,59.572 78.167,61.333 75,63C72.05,64.552 69.509,66.805 67,69C64.333,71.333 61,74.667 59,77C57.436,78.825 56.167,81.167 55,83C53.957,84.64 53.5,87.333 52,88C50.5,88.667 47.832,87.868 46,87C42.833,85.5 36.667,80.833 33,79C30.172,77.586 27.141,76.362 24,76C19.667,75.5 11.667,75.333 7,76C3.138,76.552 -0.667,78.333 -4,80C-7.225,81.612 -10.333,83.667 -13,86C-15.667,88.333 -18.084,91.019 -20,94C-23,98.667 -28.333,110.167 -31,114C-32.11,115.596 -34.077,116.715 -36,117C-40.5,117.667 -52.5,117.167 -58,118C-61.858,118.584 -65.667,120.167 -69,122C-72.33,123.832 -75.333,126.667 -78,129C-80.483,131.173 -83.197,133.236 -85,136C-87.5,139.833 -90.833,146.667 -93,152C-95.103,157.177 -96.833,163.333 -98,168C-98.984,171.934 -99.667,176.5 -100,180C-100.284,182.986 -99.333,187 -100,189C-100.527,190.581 -102.492,191.29 -104,192C-106.833,193.333 -113.333,195.167 -117,197C-120.225,198.612 -123.333,200.667 -126,203C-128.667,205.333 -131.167,208.333 -133,211C-134.689,213.457 -136,216.333 -137,219C-137.965,221.574 -138.789,224.259 -139,227C-139.333,231.333 -139.667,240 -139,245C-138.443,249.179 -136.667,253.333 -135,257C-133.391,260.539 -131.167,264 -129,267C-126.925,269.873 -124.754,272.771 -122,275C-118.5,277.833 -112.333,281.5 -108,284C-104.126,286.235 -98.833,287.667 -96,290C-93.573,291.999 -92.594,295.29 -91,298C-89.333,300.833 -87.667,304.667 -86,307C-84.63,308.918 -82.886,310.586 -81,312C-79,313.5 -75.667,315.167 -74,316C-73.057,316.471 -72.052,316.942 -71,317C-68,317.167 -59.833,317.333 -56,317C-53.262,316.762 -50.333,315.333 -48,315C-46.02,314.717 -43.167,314.167 -42,315C-40.833,315.833 -41.488,318.372 -41,320C-40.5,321.667 -39.941,323.471 -39,325C-37.667,327.167 -35.437,330.726 -33,333C-30.5,335.333 -27,337.5 -24,339C-21.172,340.414 -18.124,341.507 -15,342C-11.833,342.5 -8.28,342.596 -5,342C-1.333,341.333 3.667,339.667 7,338C9.981,336.509 12.568,334.28 15,332C17.667,329.5 20.739,326.316 23,323C25.5,319.333 28.333,312.667 30,310C30.75,308.801 31.658,307.447 33,307C34.5,306.5 37.211,306.106 39,307C41.667,308.333 47,314.5 49,315C50.741,315.435 49.782,311.319 51,310C53,307.833 57.534,304.491 61,302C66.333,298.167 76.667,291.333 83,287C88.342,283.345 93.679,279.684 99,276C105.5,271.5 115.5,264.5 122,260C127.321,256.316 134.333,251.333 138,249C139.886,247.8 141.814,246.469 144,246C146.333,245.5 149.557,244.931 152,246C154.667,247.167 157.5,250.5 160,253C162.5,255.5 165.333,258.833 167,261C168.185,262.541 169.5,264.167 170,266C170.5,267.833 170.5,270.167 170,272C169.5,273.833 168.481,275.741 167,277C163.667,279.833 155.731,285.093 150,289C142.667,294 127.5,303.667 123,307C122.464,307.397 122.467,308.6 123,309C124.333,310 129.167,312.167 131,313C131.96,313.436 132.948,313.934 134,314C136.667,314.167 143.167,314.667 147,314C150.537,313.385 153.965,311.917 157,310C160.167,308 163.474,305.12 166,302C168.833,298.5 171.833,292.167 174,289C175.47,286.851 177.5,283.667 179,283C180.362,282.395 182.469,283.607 183,285C184.333,288.5 185.333,298.833 187,304C188.373,308.256 191.167,313 193,316C194.358,318.221 196.016,320.314 198,322C201.333,324.833 210,330.5 213,333C214.28,334.067 215.521,335.404 216,337C216.5,338.667 216.725,341.136 216,343C214.833,346 210.667,351.333 209,355C207.56,358.168 206.492,361.555 206,365C205.5,368.5 205.505,372.367 206,376C206.5,379.667 207.566,383.48 209,387C210.833,391.5 215,399.333 217,403C218.151,405.11 220.34,406.689 221,409C221.667,411.333 221.833,414.833 221,417C220.167,419.167 217.853,420.544 216,422C213.667,423.833 209.333,426.333 207,428C205.263,429.241 203.389,430.379 202,432C200,434.333 197.002,438.458 195,442C192.833,445.833 190.5,450.833 189,455C187.603,458.879 186.809,462.957 186,467C185.167,471.167 185,476.833 184,480C183.276,482.292 182.018,484.694 180,486C177.167,487.833 170.167,489.333 167,491C164.696,492.213 162.513,493.882 161,496C159.333,498.333 157.833,502.667 157,505C156.428,506.601 156.081,508.302 156,510C155.833,513.5 155.833,520.669 156,526C156.167,531.333 157,539 157,542C157,542.745 156.667,543.667 156,544C154.667,544.667 150.833,544.667 149,546C147.167,547.333 145.893,549.768 145,552C144,554.5 143.5,558 143,561C142.504,563.977 142.833,567.833 142,570C141.323,571.76 139.667,573.333 138,574C136.333,574.667 133.886,574.666 132,574C129.167,573 124.333,569.333 121,568C118.147,566.859 115,566.333 112,566C109.018,565.669 105.952,565.463 103,566C99.333,566.667 94,568.167 90,570C86.049,571.811 82,575 79,577C76.614,578.591 73.833,581.167 72,582C70.786,582.552 68.667,583 68,582C67.333,581 67.368,577.897 68,576C68.667,574 70.833,571.667 72,570C72.956,568.635 75.5,567 75,566C74.5,565 70.99,564.696 69,564C65.667,562.833 59,560.167 55,559C51.737,558.048 48.393,557.2 45,557C39.333,556.667 27.667,556.333 21,557C15.53,557.547 10.166,559.121 5,561C-0.5,563 -8.333,567.833 -12,569C-13.62,569.515 -16.333,569 -17,568C-17.667,567 -16.667,564.5 -16,563C-15.333,561.5 -13.167,560.5 -13,559C-12.833,557.5 -14.12,555.565 -15,554C-16.5,551.333 -20.333,545.5 -22,543C-22.925,541.613 -24.5,537.167 -25,536C-25.394,535.081 -24.106,536.447 -25,536C-26,535.5 -28.22,535.443 -29.553,535.277C-30.293,535.184 -32.752,534.297 -33,535C-34,537.833 -36.167,547.5 -37,553C-37.751,557.955 -38.333,563 -38,568C-37.667,573 -36.5,578.167 -35,583C-33.5,587.833 -31.453,592.555 -29,597C-26.333,601.833 -23.267,607.678 -21.767,610.845C-21.179,612.087 -19.5,615.333 -20,616C-20.4,616.533 -21.942,615.336 -22,616C-22.333,619.833 -22.667,632.5 -22,639C-21.439,644.469 -20.018,649.886 -18,655C-15.5,661.333 -9.483,672.908 -7.65,677.408C-7.021,678.952 -6.178,682.092 -6.512,682.925C-6.759,683.544 -8.766,681.376 -9,682C-10,684.667 -12,693.667 -13,698C-13.764,701.312 -14.678,704.616 -15,708C-15.333,711.5 -15.566,715.377 -15,719C-14.167,724.333 -10.667,735.833 -10,740C-9.783,741.357 -10.525,742.71 -11,744C-12.167,747.167 -15.333,754 -17,759C-18.636,763.909 -20.074,768.909 -21,774C-22,779.5 -22.57,785.978 -23,792C-23.5,799 -23.167,811.833 -24,816C-24.27,817.348 -26.833,816.833 -28,817C-28.99,817.141 -30.293,816.293 -31,817C-32.667,818.667 -35.844,823.55 -38,827C-40.5,831 -43.863,836.068 -46,841C-48.167,846 -49.788,851.545 -51,857C-52.333,863 -45.73,877.102 -51.953,879.695C-59.953,883.028 -89.833,878.5 -99,877C-103.426,876.276 -106,871 -109,868C-111.838,865.162 -114.655,862.257 -117,859C-120,854.833 -124.333,848 -127,843C-129.389,838.52 -131.833,832.833 -133,829C-133.879,826.112 -132.698,822.723 -134,820C-135.833,816.167 -141.167,810.833 -144,806C-146.79,801.24 -149.008,796.146 -151,791C-153,785.833 -154.667,780 -156,775C-157.23,770.389 -158.333,764.5 -159,761C-159.441,758.685 -159.941,756.356 -160,754C-160.167,747.333 -160.5,728.833 -160,721C-159.696,716.237 -157.667,710.167 -157,707C-156.65,705.337 -155.39,703.586 -156,702C-156.833,699.833 -160.394,696.921 -162,694C-163.833,690.667 -166,684.833 -167,682C-167.566,680.397 -167.87,678.695 -168,677C-168.167,674.833 -168.5,671.5 -168,669C-167.502,666.511 -166.5,664 -165,662C-163.5,660 -161.167,658 -159,657C-156.86,656.012 -151.843,658.352 -152,656C-152.167,653.5 -158,646.5 -160,642C-161.841,637.857 -163.438,633.499 -164,629C-164.667,623.667 -164.667,614.5 -164,610C-163.563,607.051 -161.5,604 -160,602C-158.719,600.293 -156.167,598.833 -155,598C-154.393,597.567 -153.743,597.053 -153,597C-150.667,596.833 -144.333,596.333 -141,597C-138.076,597.585 -135.528,599.42 -133,601C-130.333,602.667 -126.833,607.667 -125,607C-123.167,606.333 -123.49,600.145 -122,597C-120.5,593.833 -118,590.333 -116,588C-114.306,586.023 -111.667,584.167 -110,583C-108.779,582.145 -107.479,581.185 -106,581C-103.333,580.667 -97,580.333 -94,581C-91.654,581.521 -89.772,583.376 -88,585C-86,586.833 -83.422,589.275 -82,592C-80,595.833 -77.499,602.505 -76,608C-74.5,613.5 -73.491,619.267 -73,625C-72.5,630.833 -72.833,639.667 -73,643C-73.037,643.744 -74.685,644.706 -74,645C-72.833,645.5 -68.435,644.864 -66,646C-63.5,647.167 -60.667,649.5 -59,652C-57.333,654.5 -56.3,657.852 -56,661C-55.667,664.5 -57.833,670.833 -57,673C-56.272,674.892 -52.789,673.046 -51,674C-48.5,675.333 -44.525,678.159 -42,681C-39.333,684 -36.765,688.028 -35,692C-33,696.5 -31.046,702.511 -30,708C-28.667,715 -27.5,727.333 -27,734C-26.651,738.654 -26.667,744.333 -27,748C-27.249,750.737 -29,756 -29,756L-26,756C-26,756 -24.992,751.86 -24,750C-22.667,747.5 -18.333,743.5 -18,741C-17.682,738.617 -20.984,737.178 -22,735C-23.167,732.5 -24.333,728.5 -25,726C-25.522,724.041 -25.888,722.024 -26,720C-26.167,717 -26.458,711.974 -26,708C-25.5,703.667 -24.5,698.333 -23,694C-21.537,689.774 -18.333,684.5 -17,682C-16.434,680.94 -14.503,680.094 -15,679C-15.833,677.167 -20.158,674.027 -22,671C-24.333,667.167 -27.333,660.667 -29,656C-30.496,651.812 -31.557,647.425 -32,643C-32.5,638 -32.5,631 -32,626C-31.557,621.575 -28.667,616 -29,613C-29.26,610.657 -32.544,609.853 -34,608C-35.833,605.667 -38.262,602.159 -40,599C-41.833,595.667 -43.677,591.804 -45,588C-46.333,584.167 -47.603,580.104 -48,576C-48.5,570.833 -48.5,562.167 -48,557C-47.603,552.896 -46.333,548.333 -45,545C-43.832,542.08 -41.167,538.833 -40,537C-39.355,535.986 -37,534.667 -38,534C-39,533.333 -43.426,533.772 -46,533C-49.333,532 -54.124,529.938 -58,528C-62,526 -66.5,523.667 -70,521C-73.375,518.429 -77.167,514 -79,512C-79.812,511.114 -79.804,509.12 -81,509C-82.667,508.833 -86.264,510.739 -89,511C-92.5,511.333 -98,511.5 -102,511C-105.771,510.529 -109.507,509.497 -113,508C-116.5,506.5 -120,504.333 -123,502C-125.977,499.685 -128.685,496.977 -131,494C-133.333,491 -135.434,487.558 -137,484C-138.833,479.833 -140.833,473.5 -142,469C-143.018,465.075 -143.762,461.048 -144,457C-144.333,451.333 -144.667,442 -144,435C-143.355,428.232 -141.833,421.5 -140,415C-138.168,408.504 -135.5,401.833 -133,396C-130.651,390.519 -127.975,385.168 -125,380C-121.833,374.5 -117.5,368 -114,363C-110.865,358.521 -107.47,354.225 -104,350C-100.167,345.333 -94.5,338.833 -91,335C-88.457,332.215 -84.5,328.667 -83,327C-82.501,326.446 -81.473,325.527 -82,325C-82.667,324.333 -85.524,324.022 -87,323C-89.167,321.5 -92.747,318.735 -95,316C-97.333,313.167 -99.667,308.667 -101,306C-101.943,304.114 -102.667,301.667 -103,300C-103.261,298.693 -101.869,296.707 -103,296C-104.333,295.167 -108.474,295.918 -111,295C-114.667,293.667 -121,290.667 -125,288C-128.731,285.512 -132,282.167 -135,279C-137.936,275.901 -140.78,272.646 -143,269C-145.333,265.167 -147.5,260.167 -149,256C-150.397,252.121 -151.561,248.1 -152,244C-152.5,239.333 -152.5,232.833 -152,228C-151.542,223.576 -150.5,219.167 -149,215C-147.5,210.833 -145.5,206.667 -143,203C-140.5,199.333 -137.167,195.833 -134,193C-130.968,190.287 -126.833,187.667 -124,186C-121.812,184.713 -119.453,183.654 -117,183C-114.5,182.333 -110.167,182.5 -109,182C-108.315,181.706 -109.943,180.743 -110,180C-110.167,177.833 -110.42,172.642 -110,169C-109.5,164.667 -108.333,158.667 -107,154C-105.725,149.536 -103.833,145 -102,141C-100.26,137.203 -98.428,133.399 -96,130C-93.5,126.5 -89.833,122.833 -87,120C-84.494,117.494 -82.013,114.865 -79,113C-75.5,110.833 -69.333,108.333 -66,107C-63.747,106.099 -61.42,105.179 -59,105C-54.5,104.667 -42.833,106.5 -39,105C-36.055,103.848 -37.414,98.828 -36,96C-34.333,92.667 -31.167,88 -29,85C-27.201,82.509 -23.833,80.167 -23,78C-22.272,76.108 -23.935,74.027 -24,72C-24.167,66.833 -24.5,53.833 -24,47C-23.604,41.588 -22.333,36 -21,31C-19.723,26.212 -18.167,21.167 -16,17C-13.908,12.978 -10.667,8.833 -8,6C-5.715,3.573 -3.305,0.431 0,0Z" style="fill:rgb(3,2,2);fill-rule:nonzero;"/>
    </g>
    <g transform="matrix(1,0,0,1,469,305)">
        <path d="M0,0C0.582,-0.466 1.647,0.344 2,1C3.167,3.167 5.167,9.667 7,13C8.606,15.921 10.833,18.5 13,21C15.161,23.494 17.453,25.902 20,28C22.833,30.333 29.667,31.167 30,35C30.333,38.833 23.667,46.833 22,51C20.859,53.853 20.306,56.942 20,60C19.667,63.333 19.463,67.373 20,71C20.667,75.5 21.985,81.885 24,87C26.167,92.5 31.167,100.5 33,104C33.692,105.321 35.97,106.868 35,108C33,110.333 24.667,114.833 21,118C17.962,120.624 15.226,123.66 13,127C10.333,131 7,137.167 5,142C3.144,146.485 2.069,151.266 1,156C-0.167,161.167 0.667,169.333 -2,173C-4.667,176.667 -11.5,176 -15,178C-18.077,179.758 -20.848,182.185 -23,185C-25.167,187.833 -26.833,191.833 -28,195C-29.062,197.884 -29.764,200.936 -30,204C-30.333,208.333 -30.333,216.333 -30,221C-29.734,224.717 -26.833,229.167 -28,232C-29.167,234.833 -34.833,235.667 -37,238C-39.029,240.185 -40.057,243.172 -41,246C-42,249 -42.333,254.167 -43,256C-43.255,256.7 -44.281,257.196 -45,257C-46.833,256.5 -50.856,253.943 -54,253C-57.333,252 -61.833,251.333 -65,251C-67.652,250.721 -70.37,250.562 -73,251C-77,251.667 -85.333,254 -89,255C-91.034,255.555 -92.985,257.62 -95,257C-97.167,256.333 -99.332,252.525 -102,251C-105.5,249 -111.167,246.5 -116,245C-120.833,243.5 -125.916,242.391 -131,242C-137.5,241.5 -148.5,241.5 -155,242C-160.084,242.391 -165.667,243.833 -170,245C-173.767,246.014 -178,250.667 -181,249C-184,247.333 -186.333,238 -188,235C-188.809,233.543 -190.667,231.833 -191,231C-191.175,230.562 -190.464,230.084 -190,230C-186.333,229.333 -175.983,228.111 -169,227C-161.667,225.833 -153.5,223.667 -146,223C-138.695,222.351 -129.667,222.5 -124,223C-119.893,223.362 -115.333,224.833 -112,226C-109.186,226.985 -106.333,229.167 -104,230C-102.091,230.682 -99.167,231.5 -98,231C-96.833,230.5 -96.565,228.304 -97,227C-97.5,225.5 -99.208,223.16 -101,222C-103.833,220.167 -110,217.333 -114,216C-117.536,214.821 -121.281,214.248 -125,214C-130,213.667 -137.685,213.514 -144,214C-150.5,214.5 -157.36,215.838 -164,217C-170.667,218.167 -178,220.333 -184,221C-189.301,221.589 -194.833,221.333 -200,221C-205.034,220.675 -210.5,220 -215,219C-219.116,218.085 -223.167,216.667 -227,215C-230.83,213.335 -234.833,211.167 -238,209C-240.924,206.999 -243.705,204.7 -246,202C-248.833,198.667 -252.833,193.167 -255,189C-256.945,185.259 -258.167,181 -259,177C-259.819,173.071 -261.5,168.167 -260,165C-258.5,161.833 -253.333,160.167 -250,158C-246.741,155.881 -242.5,153.667 -240,152C-238.224,150.816 -236.167,149.333 -235,148C-234.018,146.878 -233.292,145.462 -233,144C-232.667,142.333 -232.172,139.821 -233,138C-233.833,136.167 -235.834,133.928 -238,133C-240.333,132 -243.997,131.7 -247,132C-250.333,132.333 -255.5,135.833 -258,135C-260.5,134.167 -260.333,129 -262,127C-263.539,125.153 -266,123.5 -268,123C-269.967,122.508 -272.5,123.167 -274,124C-275.457,124.809 -276.726,126.356 -277,128C-277.5,131 -277.667,137.833 -277,142C-276.384,145.853 -274.805,149.541 -273,153C-271,156.833 -266.167,162.333 -265,165C-264.449,166.259 -265.909,167.629 -266,169C-266.167,171.5 -266.537,176.373 -266,180C-265.333,184.5 -260.333,193.333 -262,196C-263.667,198.667 -272,196.5 -276,196C-279.453,195.568 -282.855,194.49 -286,193C-289.167,191.5 -292.37,189.466 -295,187C-297.667,184.5 -300.114,181.3 -302,178C-304,174.5 -305.726,170.142 -307,166C-308.333,161.667 -309.592,156.755 -310,152C-310.5,146.167 -310.5,137 -310,131C-309.577,125.919 -308.365,120.913 -307,116C-305.333,110 -302.833,101.667 -300,95C-297.201,88.413 -293,81.167 -290,76C-287.586,71.843 -284.794,67.912 -282,64C-278.667,59.333 -273.833,52.833 -270,48C-266.473,43.553 -262.333,39.167 -259,35C-255.877,31.096 -254.167,25 -250,23C-245.833,21 -244.132,21.975 -238.018,21.81C-233.46,21.687 -226.833,19.5 -224,21C-221.167,22.5 -219.667,28.833 -217,32C-214.415,35.07 -211.167,37.833 -208,40C-204.924,42.104 -200.5,44 -198,45C-196.422,45.631 -194.697,45.911 -193,46C-189.833,46.167 -183.5,46.667 -179,46C-174.515,45.336 -170,43.833 -166,42C-162.049,40.189 -158.311,37.815 -155,35C-151.667,32.167 -148.5,28.5 -146,25C-143.572,21.601 -141.667,15.5 -140,14C-138.892,13.003 -137.254,15.194 -136,16C-133.667,17.5 -128.5,21.333 -126,23C-124.383,24.078 -122.374,24.626 -121,26C-119,28 -115.5,33.333 -114,35C-113.501,35.554 -112.741,35.918 -112,36C-110.5,36.167 -107.189,36.807 -105,36C-101.833,34.833 -96.876,31.534 -93,29C-88.667,26.167 -83.721,22.256 -79,19C-74.167,15.667 -67.167,10.333 -64,9C-62.626,8.422 -61.294,10.26 -60,11C-57.667,12.333 -53,15.667 -50,17C-47.488,18.116 -44.737,18.751 -42,19C-38.333,19.333 -32.167,19.667 -28,19C-24.147,18.384 -20.333,16.667 -17,15C-13.775,13.388 -10.704,11.386 -8,9C-5.167,6.5 -1.667,1.333 0,0Z" style="fill:rgb(234,208,179);fill-rule:nonzero;"/>
    </g>
    <g transform="matrix(1,0,0,1,569,16)">
        <path d="M0,0L14,0L26,5L35,12L42,20L50,34L56,52L61,78C61,78 61.5,84.5 63,87C64.5,89.5 67.42,91.33 70,93C72.833,94.833 77.333,96.833 80,98C81.931,98.845 83.9,99.817 86,100C89.833,100.333 98.492,101.932 103,100C107.546,98.053 111.409,96.843 114.57,94.924C118.779,92.368 125.338,85.729 129,83C131.155,81.394 133.667,79.833 136,79C138.22,78.207 141,77.833 143,78C144.789,78.149 146.667,79 148,80C149.333,81 150.43,82.434 151,84C151.667,85.833 152.292,88.661 152,91C151.667,93.667 150.536,97.236 149,100C147.333,103 144.605,106.232 142,109C139.333,111.833 136.266,114.667 133,117C129.5,119.5 124.333,122.333 121,124C118.453,125.274 112.955,127.464 112.955,127.464L115,136L115,149L114,156L123,149L135,143L143,141L154,141L164,144L170,148L172,151L171,158L166,162L147,169L137,174L139,179L145,189L149,201L150,213L147,228L142,240L140,246L147,256L155,272L158,281L160,293L160,302L157,317L152,329L144,340L143,343L151,356L157,370L160,386L159,401L155,415L149,427L146,431L147,436L154,451L158,464L160,478L160,489L158,503L154,516L148,528L139,538L147,558L150,571L150,594L147,606L141,618L136,623L138,627L146,635L154,648L158,658L160,667L160,685L156,700L151,711L153,716L159,726L164,737L167,751L167,762L165,771L172,772L188,780L199,788L209,797L217,805L226,818L234,834L238,846L239,851L239,861L229,861L221,840L213,825L205,814L197,805L186,796L172,786L161,780L159,785L153,792L144,797L139,799L132,799L131,796L138,788L146,779L150,771L152,765L152,746L148,735L142,724L137,717L136,710L143,693L145,686L145,667L142,657L135,644L124,630L120,625L121,620L129,610L134,598L135,594L135,571L130,554L123,540L124,533L129,528L137,517L142,505L144,496L144,471L140,456L131,437L130,431L142,407L144,399L144,381L140,368L134,356L128,348L127,345L127,338L131,332L137,325L142,314L144,306L144,289L140,276L133,262L128,256L128,267L124,271L117,271L109,265L102,255L95,241L91,225L91,199L95,184L103,168L101,164L102,157L104,151L105,142C105.202,141.86 102.27,129.424 102.27,129.424C102.27,129.424 101.768,129.585 100.071,129.781C97.57,130.07 95.673,129.986 94.692,129.991C92.02,130.004 89.386,130.204 86.14,129.834C81.136,129.263 80.794,128.863 80.794,128.863L83,136L83,150L80,152L75,147L70,131C70,131 70.565,126.664 69,126C66.129,124.781 61.964,123.809 58.383,121.686C54.523,119.398 49.064,114.781 46,112C43.724,109.935 40,105 40,105L40,121L39,127L46,128L51,132L52,137L51,138L34,138L22,142L13,139L7,136L6,143L1,155L-3,162L-7,166L-12,172L-17,175L-25,181L-44,189L-53,191L-63,190L-69,187L-75,181L-74,174L-69,169L-61,164L-45,157L-36,150L-29,141L-25,131L-24,127L-24,120L-29,116L-41,111L-45,110L-64,110L-60,83L-55,64L-49,48L-40,32L-31,21L-26,16L-17,16L-6,20L2,26L7,31L13,38L21,54C21,54 21.676,48.71 22.942,46.821C25.288,43.32 26.373,42.961 26.373,42.961L19,29L9,18L-2,11L-14,7L-10,4L0,0Z" style="fill:rgb(165,19,7);fill-rule:nonzero;"/>
    </g>
    <g transform="matrix(1,0,0,1,217,656)">
        <path d="M0,0L6,0L9,3L14,20L19,23L28,33L33,43L37,59L39,75L40,92L42,104L43.265,108.191L46,112L44,124L44,154L38,157L29,167L21,181L16,196L15,203L14,221L-13,221L-24,209L-34,196L-43,180L-49,165L-53,158L-60,142L-66,127L-71,108L-73,95L-73,53L-75,41L-81,24L-81,14L-78,11L-72,12L-58,20L-55,20L-49,11L-41,4L-33,4L-22,11L-17,13L-12,8L-2,1L0,0Z" style="fill:rgb(196,174,140);fill-rule:nonzero;"/>
    </g>
    <g transform="matrix(1,0,0,1,430,595)">
        <path d="M0,0C1.833,-0.167 4.761,-0.658 7,0C9.833,0.833 14.167,2.667 17,5C19.833,7.333 22,10.768 24,14C26.167,17.5 28.43,21.813 30,26C32,31.333 35,41.167 36,46C36.608,48.938 36,55 36,55C36,55 41.557,53.931 44,55C46.667,56.167 50,59.333 52,62C53.97,64.626 55.167,68.667 56,71C56.572,72.601 56.9,74.303 57,76C57.167,78.833 57.167,85.5 57,88C56.93,89.052 56.333,87.333 57,88C57.667,88.667 59.48,91.24 61,92C63.667,93.333 68.561,96.343 72,99C75.667,101.833 79.833,106.167 83,109C85.641,111.363 88.623,113.372 91,116C94.167,119.5 99,125.667 102,130C104.636,133.807 107.05,137.8 109,142C111.167,146.667 113.667,153.833 115,158C115.937,160.927 116.657,164.319 116.962,167.377C117.296,170.71 115.5,175.833 117,178C118.5,180.167 123.019,180.73 125.873,181.872C130.039,183.538 136.803,185.077 142,188C147.333,191 153.167,194.5 158,198C162.598,201.329 167.667,206 171,209C173.453,211.207 175.863,213.486 178,216C180.833,219.333 186.333,226.5 188,229C188.37,229.555 187.361,229.192 188,229C189.667,228.5 195.833,226.667 198,226C199.007,225.69 202.475,223.733 202.765,224.747C203.098,225.914 200.728,231.108 200,233C199.167,235.167 197.333,238.5 196,240C195.01,241.114 191.833,244.167 191,245C190.255,245.745 191.943,244.529 191,245C190,245.5 187.37,245.949 186,245C183.833,243.5 180.5,239 178,236C175.567,233.08 173.448,229.907 171,227C168.333,223.833 165.312,220.024 162,217C158.167,213.5 152.807,209.481 148,206C143.167,202.5 138.022,199.3 133,196C127.167,192.167 117.333,187.167 113,183C109.776,179.9 108.729,175.124 107,171C104.833,165.833 102.667,157.833 100,152C97.456,146.435 93.833,140.333 91,136C88.664,132.427 85.5,129 83,126C80.732,123.278 78.5,120.5 76,118C73.5,115.5 70.563,113.447 68,111C64.333,107.5 56.333,99.667 54,97C53.561,96.498 52.333,95.333 52,95C51.667,94.667 52.288,95.601 52,95C50,90.833 44.333,74.5 42,70C41.314,68.677 39.425,67.562 38,68C35.833,68.667 31.667,71.833 29,74C26.439,76.081 21.5,84.833 20,86C19.474,86.409 20.248,85.381 20,86C19.667,86.833 20.833,85 20,86C19.167,87 16.578,87.631 15,87C12.5,86 7.333,81.5 5,80C3.746,79.194 2.462,78.292 1,78C-0.667,77.667 -3.184,77.162 -5,78C-7.167,79 -10.08,81.6 -12,84C-14,86.5 -15.684,90.187 -16.684,92.354C-17.26,93.601 -16.708,96.53 -18,97C-19.833,97.667 -24.683,97.332 -28,97C-31.333,96.667 -34.611,95.271 -38,95C-42.167,94.667 -50.5,93.167 -53,95C-55.5,96.833 -53.779,102.417 -53,106C-52.167,109.833 -49.825,114.07 -48,118C-45.833,122.667 -41.959,128.368 -40,134C-37.333,141.667 -34.333,156.333 -32,164C-30.342,169.449 -28.167,175 -26,180C-23.925,184.787 -21.667,189.667 -19,194C-16.38,198.258 -13,202.333 -10,206C-7.16,209.471 -4,213 -1,216C1.838,218.838 5,221.5 8,224C10.92,226.433 15.014,227.76 17,231C20.167,236.167 24.333,249.5 27,255C28.573,258.244 30.618,261.293 33,264C36.667,268.167 46.167,277 49,280C49.512,280.542 50.737,281.887 50,282C47.833,282.333 40,283.333 36,282C32,280.667 28.833,276.667 26,274C23.42,271.571 20.878,269.005 19,266C16.5,262 13.167,254.667 11,250C9.175,246.07 8.671,241.413 6,238C3,234.167 -2.84,230.863 -7,227C-11.667,222.667 -17.833,216.833 -22,212C-25.745,207.656 -29.138,202.97 -32,198C-35.167,192.5 -38.5,185.5 -41,179C-43.499,172.504 -45.833,163.167 -47,159C-47.458,157.363 -47.864,155.694 -48,154C-48.333,149.833 -47.667,138.5 -49,134C-49.937,130.836 -54.082,129.685 -56,127C-58.5,123.5 -62.333,116.5 -64,113C-65.043,110.809 -65.732,108.412 -66,106C-66.333,103 -66.667,98.167 -66,95C-65.386,92.083 -63.5,89 -62,87C-60.719,85.293 -58.333,83.667 -57,83C-56.106,82.553 -54,83 -54,83C-54,83 -58.262,76.477 -60,73C-61.833,69.333 -63.716,65.139 -65,61C-66.5,56.167 -68.5,48.5 -69,44C-69.37,40.671 -68.833,36.667 -68,34C-67.283,31.706 -65.5,29.667 -64,28C-62.572,26.414 -60.333,24.833 -59,24C-58.106,23.441 -57.051,23.075 -56,23C-53.667,22.833 -48.62,22.416 -45,23C-39.833,23.833 -25,28 -25,28C-25,28 -20.667,18 -18,14C-15.512,10.269 -11.333,6.167 -9,4C-7.576,2.677 -5.5,1.667 -4,1C-2.744,0.442 -1.369,0.124 0,0Z" style="fill:rgb(3,2,1);fill-rule:nonzero;"/>
    </g>
    <g transform="matrix(1,0,0,1,703,191)">
        <path d="M-4.133,3.406L2.949,-0.752L11,14L15,26L16,38L13,53L8,65L6,71L13,81L21,97L24,106L26,118L26,127L23,142L18,154L10,165L9,168L17,181L23,195L26,211L25,226L21,240L15,252L12,256L13,261L20,276L24,289L26,303L26,314L24,328L20,341L14,353L5,363L13,383L16,396L16,419L13,431L7,443L2,448L4,452L12,460L20,473L24,483L26,492L26,510L22,525L17,536L19,541L25,551L30,562L33,576L33,587L31,596L38,597L54,605L65,613L75,622L83,630L92,643L100,659L104,671L105,676L105,686L95,686L87,665L79,650L71,639L63,630L52,621L38,611L27,605L25,610L19,617L10,622L5,624L-2,624L-3,621L4,613L12,604L16,596L18,590L18,571L14,560L8,549L3,542L2,535L9,518L11,511L11,492L8,482L1,469L-10,455L-14,450L-13,445L-5,435L0,423L1,419L1,396L-4,379L-11,365L-10,358L-5,353L3,342L8,330L10,321L10,296L6,281L-3,262L-4,256L8,232L10,224L10,206L6,193L0,181L-6,173L-7,170L-7,163L-3,157L3,150L8,139L10,131L10,114L6,101L-5.9,81.183L-8,77L-9,66L-2,49L0,40L0,32L-4,19L-9.228,11.382L-4.133,3.406Z" style="fill:rgb(3,3,2);fill-rule:nonzero;"/>
    </g>
    <g transform="matrix(1,0,0,1,543,32)">
        <path d="M0,0C2.333,-0.833 6.058,-0.588 9,0C12.333,0.667 16.833,2.333 20,4C22.95,5.552 25.833,8.167 28,10C29.799,11.523 31.407,13.263 33,15C34.833,17 37.402,19.375 39,22C41.333,25.833 47,38 47,38L54,69L58,111L49,116L44,114L38,110L35,109L32,91L26,74L15,59L5,51L-2,48L-9,49L-12,52L-12,59L-7,71L-2,81L2,95L1.899,104.246L-1.611,101.134L-12,96L-19,94L-38,94L-34,67L-29,48L-23,32C-23,32 -17,20.5 -14,16C-11.372,12.058 -7.333,7.667 -5,5C-3.448,3.226 -2.22,0.793 0,0Z" style="fill:rgb(223,152,176);fill-rule:nonzero;"/>
    </g>
    <g transform="matrix(1,0,0,1,712,157)">
        <path d="M0,0C3.167,-0.333 7.5,-0.5 11,0C14.445,0.492 18.333,1.833 21,3C23.202,3.963 25.667,5.833 27,7C27.904,7.791 28.88,8.804 29,10C29.167,11.667 29,15.167 28,17C27,18.833 24.94,20.111 23,21C19,22.833 8.833,26 4,28C0.556,29.425 -2.924,30.896 -6,33C-9.167,35.167 -12.783,38.975 -15,41C-16.472,42.344 -19.755,43.208 -19.305,45.15C-18.806,47.302 -12.006,53.913 -12.006,53.913L-8,66L-8,74L-11,86L-17.02,100.288C-17.104,99.94 -16.516,107.747 -16,111C-15.785,112.357 -15.585,112.328 -15.361,113.684C-14.982,115.983 -13.817,123.665 -15,126C-15.852,127.682 -17.228,129.356 -19,130C-20.833,130.667 -23.834,130.867 -26,130C-28.5,129 -31.72,126.432 -34,124C-36.5,121.333 -38.95,117.515 -41,114C-43.333,110 -46.204,104.899 -48,100C-49.833,95 -51.479,89.473 -52,84C-52.667,77 -52.667,64.833 -52,58C-51.498,52.85 -49.868,47.826 -48,43C-46,37.833 -43.333,31.833 -40,27C-36.667,22.167 -31.667,17.333 -28,14C-24.989,11.263 -21.333,9 -18,7C-14.804,5.083 -11,3.167 -8,2C-5.438,1.004 -2.734,0.288 0,0Z" style="fill:rgb(165,19,6);fill-rule:nonzero;"/>
    </g>
    <g transform="matrix(1,0,0,1,537,79)">
        <path d="M0,0C1.667,0 4.812,0.125 7,1C9.5,2 12.502,4.09 15,6C17.833,8.167 21.444,10.905 24,14C27.167,17.833 31.5,24 34,29C36.357,33.714 37.833,39.333 39,44C40.063,48.253 40.849,52.618 41,57C41.167,61.833 41.078,67.766 40,73C38.833,78.667 37.479,83.984 35.645,88.318C34.42,91.214 32.7,94.195 31.2,96.195C30.068,97.704 28.146,101.741 26.884,103.142C25.384,104.809 21.667,107.5 20,109C18.555,110.3 15.744,112.333 14.146,113.439C11.979,114.939 9.959,116.466 7,118C2.5,120.333 -7.333,124.333 -12,126C-14.894,127.034 -17.931,127.838 -21,128C-24.167,128.167 -28.333,127.667 -31,127C-33.169,126.458 -35.211,125.342 -37,124C-39,122.5 -42.167,120.167 -43,118C-43.833,115.833 -43,113 -42,111C-41,109 -38.868,107.437 -37,106C-34.833,104.333 -31.813,102.406 -29,101C-25,99 -17.167,96.333 -13,94C-9.684,92.143 -6.667,89.667 -4,87C-1.333,84.333 1.167,81.167 3,78C4.799,74.893 6.167,70.333 7,68C7.462,66.706 7.902,65.371 8,64C8.167,61.667 8.413,57.308 8,54C7.5,50 6.415,44.558 5,40C3.5,35.167 0.833,29.167 -1,25C-2.501,21.589 -5,17.167 -6,15C-6.442,14.043 -6.895,13.049 -7,12C-7.167,10.333 -7.667,6.833 -7,5C-6.356,3.228 -4.167,1.833 -3,1C-2.142,0.387 -1.054,0 0,0Z" style="fill:rgb(165,19,6);fill-rule:nonzero;"/>
    </g>
    <g transform="matrix(1,0,0,1,574,223)">
        <path d="M0,0C5.003,-0.286 10.5,0.333 15,1C19.079,1.604 23.139,2.552 27,4C31,5.5 35.5,7.833 39,10C42.232,12 45.241,14.386 48,17C51.167,20 55.105,23.979 58,28C61,32.167 64,37.833 66,42C67.688,45.517 69.167,50.333 70,53C70.507,54.622 70.9,56.303 71,58C71.167,60.833 71.833,66.333 71,70C70.174,73.634 67.167,78 66,80C65.525,80.814 64.333,81.667 64,82C63,82.167 59.967,83.492 58,83C56,82.5 53.667,80.5 52,79C50.414,77.572 49.167,75.667 48,74C46.885,72.408 45.766,70.786 45,69C44,66.667 43.246,62.907 42,60C40.5,56.5 38.5,51.667 36,48C33.5,44.333 29.833,40.333 27,38C24.699,36.105 21.667,35 19,34C16.426,33.035 13.742,32.196 11,32C6.333,31.667 -2.366,31.337 -9,32C-15.667,32.667 -23.5,34.667 -29,36C-33.406,37.068 -39.167,39 -42,40C-43.406,40.496 -44.527,41.773 -46,42C-48.167,42.333 -52.833,42.667 -55,42C-56.802,41.445 -58.167,39 -59,38C-59.477,37.427 -59.908,36.74 -60,36C-60.167,34.667 -60.588,31.912 -60,30C-59.333,27.833 -57.749,25.04 -56,23C-54,20.667 -50.984,17.91 -48,16C-43.833,13.333 -35.667,9.167 -31,7C-27.461,5.357 -23.806,3.859 -20,3C-14.833,1.833 -5.833,0.333 0,0Z" style="fill:rgb(165,19,6);fill-rule:nonzero;"/>
    </g>
    <g transform="matrix(1,0,0,1,403,347)">
        <path d="M0,0C2.671,-0.297 5.45,0.15 8,1C11,2 15.167,3.833 18,6C20.815,8.152 23.167,11 25,14C26.833,17 28.129,20.517 29,24C30,28 30.667,34 31,38C31.277,41.322 31.382,44.689 31,48C30.5,52.333 29.333,59.667 28,64C26.904,67.562 25.288,71.058 23,74C20.667,77 16.833,80.167 14,82C11.609,83.547 8.809,84.532 6,85C3,85.5 -0.766,85.808 -4,85C-7.333,84.167 -11.333,82 -14,80C-16.459,78.156 -18.33,75.58 -20,73C-21.833,70.167 -23.673,66.483 -25,63C-26.333,59.5 -27.634,55.783 -28,52C-28.5,46.833 -28.667,37.5 -28,32C-27.454,27.499 -25.5,22.5 -24,19C-22.761,16.11 -21.071,13.367 -19,11C-16.667,8.333 -13.167,4.833 -10,3C-6.988,1.256 -3,0.333 0,0Z" style="fill:rgb(1,0,0);fill-rule:nonzero;"/>
    </g>
    <g transform="matrix(1,0,0,1,190,591)">
        <path d="M0,0L6,0L11,4L16,15L20,28L25,55L16,62L12,67L10,70L4,63L-4,59L-16,59L-24,64L-30,75L-38,69L-40,68L-48,49L-52,34L-52,24L-48,16L-41,16L-31,22L-24,26L-17,26L-12,14L-7,6L0,0Z" style="fill:rgb(43,34,25);fill-rule:nonzero;"/>
    </g>
    <g transform="matrix(1,0,0,1,432,608)">
        <path d="M0,0L5,1L13,10L21,29L26,42L27,46L20,53L16,62L14,62L10,57L3,53L-7,52L-16,56L-22,63L-24,68L-25,74L-34,71L-47,68L-54,49L-58,35L-58,25L-57,23L-48,23L-32,27L-23,27L-21,26L-19,20L-7,6L0,0Z" style="fill:rgb(43,34,25);fill-rule:nonzero;"/>
    </g>
    <g transform="matrix(1,0,0,1,302,6)">
        <path d="M0,0L3,0C3,0 3.02,6.078 3.429,9.08C3.929,12.747 4.738,17.847 6,22C7.26,26.146 9,30.167 11,34C13,37.833 15.321,41.577 18,45C21,48.833 29,57 29,57L41,66L40,69L29,62L17,58L3,57L-11,60L-26,67L-26,52C-26,52 -24.333,38.833 -23,33C-21.755,27.553 -19.833,21.167 -18,17C-16.548,13.7 -14.167,10.5 -12,8C-9.987,5.678 -7,3.333 -5,2C-3.506,1.004 0,0 0,0Z" style="fill:rgb(224,152,177);fill-rule:nonzero;"/>
    </g>
    <g transform="matrix(1,0,0,1,311,5)">
        <path d="M0,0C0,0 6.088,0.206 9,1C12.667,2 18,3.833 22,6C25.987,8.159 29.596,11.005 33,14C37.167,17.667 47,28 47,28L56,39L59,44L48,50L38,59L37,61L33,59C33,59 23.667,51 20,47C16.621,43.314 13.62,39.258 11,35C8.333,30.667 5.879,25.429 4,21C2.271,16.925 0.391,11.928 -0.276,8.428C-0.801,5.667 0,0 0,0Z" style="fill:rgb(196,174,140);fill-rule:nonzero;"/>
    </g>
    <g transform="matrix(1,0,0,1,569,16)">
        <path d="M0,0C4,-0.667 9.667,-0.833 14,0C18.255,0.818 22.5,3 26,5C29.3,6.886 32.333,9.5 35,12C37.585,14.423 40.004,17.072 42,20C44.5,23.667 47.846,29.076 50,34C52.333,39.333 54.466,45.864 56,52C57.833,59.333 60.167,72.667 61,78C61.309,79.976 61.667,83.833 61,84C60.333,84.167 58.075,80.844 57,79C54.667,75 50.167,66 47,60C44.007,54.33 40,46.167 38,43C37.358,41.984 36.185,41.198 35,41C33,40.667 26.279,42.789 26.279,42.789L19,29L9,18L-2,11C-7.023,9.646 -10.558,8.322 -14,7L-10,4C-10,4 -3.541,0.59 0,0Z" style="fill:rgb(196,173,140);fill-rule:nonzero;"/>
    </g>
    <g transform="matrix(1,0,0,1,596,98)">
        <path d="M0.837,-0.093C0.837,-0.093 0.847,2.03 1.107,3.677C1.604,6.816 6.413,12.434 8.128,15.665C9.463,18.179 13.291,23.385 13.291,23.385L13,30L13,39L12,45L19,46L24,50L25,55L24,56L7,56L-5,60L-14,57L-19.077,54.438L-17.938,42.814L-13,44L-6,49L0,47L4,44L0.837,-0.093Z" style="fill:rgb(5,3,2);fill-rule:nonzero;"/>
    </g>
    <g transform="matrix(1,0,0,1,694,202)">
        <path d="M0,0L4,4L9,16L10,21L10,29L7,41L3.041,71.536C3.041,71.536 -3.165,58.542 -5.038,51.95C-5.961,48.704 -6.399,42.393 -7,38C-7.72,32.736 -7.5,24.167 -7,19C-6.603,14.896 -5.167,10.167 -4,7C-3.071,4.478 0,0 0,0Z" style="fill:rgb(196,173,140);fill-rule:nonzero;"/>
    </g>
    <g transform="matrix(1,0,0,1,198,432)">
        <path d="M0,0C1.167,0 3.84,0.63 5,2C6.833,4.167 11,13 11,13C11,13 14.366,12.467 16,12C18.333,11.333 22.167,9.167 25,9C27.744,8.839 31.5,9.833 33,11C34.342,12.043 34.488,14.372 34,16C33.5,17.667 31.737,19.759 30,21C26.5,23.5 13,31 13,31L8,35L1,24C1,24 -2.5,14.667 -3,11C-3.408,8.009 -2.5,3.833 -2,2C-1.752,1.09 -0.943,0 0,0Z" style="fill:rgb(224,152,177);fill-rule:nonzero;"/>
    </g>
    <g transform="matrix(1,0,0,1,401,398)">
        <path d="M0,0C2.333,-0.833 5.667,-0.833 8,0C10.333,0.833 12.833,3.833 14,5C14.527,5.527 14.918,6.259 15,7C15.167,8.5 15.833,11.833 15,14C14.167,16.167 11.167,18.833 10,20C9.473,20.527 8.741,20.918 8,21C6.5,21.167 3,21.5 1,21C-0.886,20.529 -2.667,19.333 -4,18C-5.333,16.667 -6.704,14.921 -7,13C-7.333,10.833 -7.167,7.167 -6,5C-4.833,2.833 -2.333,0.833 0,0Z" style="fill:rgb(251,250,249);fill-rule:nonzero;"/>
    </g>
    <g transform="matrix(1,0,0,1,677,143)">
        <path d="M-0.474,1.529L5.173,0.375L7,9L7,22L6.046,28.981L-5.12,41.106L-7,37L-6,30L-4,24L-3,15L-5,5L-6.119,2.218L-0.474,1.529Z" style="fill:rgb(5,4,3);fill-rule:nonzero;"/>
    </g>
    <g transform="matrix(1,0,0,1,639,142)">
        <path d="M-1.415,-0.113L10.982,2.772L12,5L13,10L13,24L10,26L5,21L0,5L-1.415,-0.113Z" style="fill:rgb(4,3,2);fill-rule:nonzero;"/>
    </g>
    <g transform="matrix(1,0,0,1,388,376)">
        <path d="M0,0C1.667,-0.333 5.5,0.333 7,1C8.098,1.488 8.739,2.827 9,4C9.333,5.5 9.5,8.5 9,10C8.553,11.342 7.324,12.503 6,13C4.667,13.5 2.5,13.667 1,13C-0.5,12.333 -2.333,10.667 -3,9C-3.667,7.333 -3.5,4.5 -3,3C-2.553,1.658 -1.387,0.277 0,0Z" style="fill:rgb(250,248,246);fill-rule:nonzero;"/>
    </g>
</svg>
