<?xml version="1.0" encoding="UTF-8" standalone="no"?>
<!DOCTYPE svg PUBLIC "-//W3C//DTD SVG 1.1//EN" "http://www.w3.org/Graphics/SVG/1.1/DTD/svg11.dtd">
<svg width="100%" height="100%" viewBox="0 0 940 877" version="1.1" xmlns="http://www.w3.org/2000/svg" xmlns:xlink="http://www.w3.org/1999/xlink" xml:space="preserve" xmlns:serif="http://www.serif.com/" style="fill-rule:evenodd;clip-rule:evenodd;stroke-linejoin:round;stroke-miterlimit:2;">
    <g transform="matrix(1,0,0,1,289,0)">
        <path d="M0,0L44,0L55,7L67,18L75,26L84,39L86,43L101,43L115,46L127,52L132,56L142,48L156,41L163,39L181,39L194,43L208,51L219,61L220,63L230,44L237,33L245,23L253,15L264,8L274,4L279,3L290,3L304,7L316,14L325,22L334,35L339,46L344,63L348,90L349,107L356,108L366,113L375,120L382,127L389,138L394,150L395,154L395,172L394,174L400,176L411,183L419,191L426,202L430,213L431,226L428,240L421,254L420,259L428,270L435,285L439,300L439,320L436,332L429,346L420,356L421,360L430,374L435,385L438,397L438,415L434,430L428,442L422,450L423,455L429,465L435,482L437,492L437,517L433,534L428,544L420,553L418,554L420,558L427,568L431,578L433,587L433,606L429,621L424,631L416,641L418,645L428,659L436,675L439,686L439,706L435,718L429,728L438,741L443,752L445,759L445,779L441,793L451,796L465,803L476,811L490,823L501,837L509,853L512,862L513,877L-57,877L-57,863L-52,847L-44,833L-36,823L-29,816L-28,809L-30,798L-30,781L-37,776L-57,777L-77,777L-100,774L-124,768L-138,761L-144,754L-146,748L-149,728L-150,715L-150,686L-148,669L-144,658L-136,647L-125,640L-103,635L-86,633L-70,634L-54,638L-47,641L-35,644L-25,650L-22,654L-24,640L-24,626L-21,613L-20,611L-25,609L-33,601L-39,591L-43,579L-44,573L-44,560L-41,547L-37,539L-34,536L-42,533L-54,528L-65,521L-67,524L-80,566L-85,575L-90,577L-98,576L-103,572L-105,568L-105,559L-93,520L-90,512L-98,512L-108,509L-118,503L-128,493L-136,479L-140,465L-141,459L-141,438L-136,417L-128,397L-120,383L-108,367L-99,356L-87,343L-78,333L-88,325L-94,315L-96,310L-97,304L-97,296L-106,295L-118,290L-127,283L-135,275L-143,261L-147,246L-147,226L-143,211L-136,199L-127,189L-113,180L-104,177L-102,177L-103,171L-102,155L-98,140L-91,127L-84,119L-74,112L-62,107L-52,105L-40,105L-37,106L-36,101L-29,87L-18,74L-20,60L-20,45L-18,31L-14,18L-8,8L-3,2L0,0ZM-89,556L-95,557L-94,559L-89,559L-89,556ZM-16,669L-15,671L-16,669ZM-15,671L-15,677L-11,676L-15,671Z" style="fill:rgb(161,123,96);fill-rule:nonzero;"/>
    </g>
    <g transform="matrix(1,0,0,1,289,0)">
        <path d="M0,0C7.833,-0.333 34.833,-1.167 44,0C48.311,0.549 51.577,4.321 55,7C58.833,10 63.667,14.833 67,18C69.734,20.597 72.627,23.069 75,26C77.833,29.5 82.167,36.167 84,39C84.81,40.252 84.549,42.659 86,43C88.833,43.667 96.167,42.5 101,43C105.747,43.491 110.667,44.5 115,46C119.226,47.463 124.167,50.333 127,52C128.84,53.082 132,56 132,56C132,56 138.38,50.262 142,48C146,45.5 152.5,42.5 156,41C158.23,40.044 160.581,39.194 163,39C167.167,38.667 175.833,38.333 181,39C185.497,39.58 189.857,41.159 194,43C198.5,45 203.833,48 208,51C212.021,53.895 219,61 219,61L220,63L230,44C230,44 234.5,36.5 237,33C239.481,29.526 242.333,26 245,23C247.505,20.181 250.04,17.337 253,15C256.167,12.5 260.5,9.833 264,8C267.18,6.334 271.5,4.833 274,4C275.612,3.463 277.304,3.106 279,3C281.667,2.833 286.379,2.421 290,3C294.167,3.667 299.667,5.167 304,7C308.265,8.804 312.5,11.5 316,14C319.266,16.333 322.388,18.952 325,22C328,25.5 331.667,31 334,35C336.029,38.479 337.645,42.207 339,46C340.667,50.667 342.816,57.213 344,63C345.5,70.333 347.167,82.667 348,90C348.641,95.64 349,107 349,107C349,107 353.777,107.216 356,108C358.833,109 362.849,111.01 366,113C369.167,115 372.333,117.667 375,120C377.483,122.173 379.974,124.395 382,127C384.333,130 387,134.167 389,138C391,141.833 393,147.333 394,150C394.483,151.287 395.239,154.961 395.302,156.334C395.468,160.001 395.167,168.667 395,172C394.963,172.744 394.722,174.369 394.722,174.369C394.722,174.369 398.373,175.137 400,176C402.713,177.438 407.833,180.5 411,183C413.96,185.337 416.663,188.04 419,191C421.5,194.167 424.167,198.333 426,202C427.745,205.49 429.204,209.18 430,213C430.833,217 431.321,221.666 431,226C430.667,230.5 429.605,235.505 428,240C426.333,244.667 422.986,250.604 421.698,253.685C421.114,255.082 420.273,258.483 420.273,258.483C420.273,258.483 425.755,265.959 428,270C430.455,274.419 433.167,280 435,285C436.781,289.858 438.412,294.859 439,300C439.667,305.833 439.5,314.667 439,320C438.615,324.105 437.48,328.152 436,332C434.333,336.333 431.667,342 429,346C426.512,349.731 420.172,356.368 420.172,356.368C420.172,356.368 422.768,360.221 423.904,362.261C425.542,365.199 428.481,369.989 430.396,373.734C432.23,377.32 434.073,380.93 435.396,384.734C436.73,388.568 437.986,392.632 438.396,396.734C438.896,401.734 439.063,409.234 438.396,414.734C437.774,419.871 436.063,425.234 434.396,429.734C432.843,433.928 430.396,438.401 428.396,441.734C426.681,444.593 422.199,450.481 422.199,450.481C422.199,450.481 424.017,454.662 424.984,456.726C426.118,459.146 427.871,462.15 429,465C430.669,469.212 433.667,477.5 435,482C435.966,485.259 436.806,488.606 437,492C437.333,497.833 437.667,510 437,517C436.448,522.795 434.5,529.5 433,534C431.821,537.536 430.104,540.924 428,544C425.833,547.167 422.681,550.901 421.014,552.567C420.227,553.354 418,554 418,554C418,554 419.194,556.746 420,558C421.5,560.333 425.167,564.667 427,568C428.73,571.146 430,574.833 431,578C431.925,580.931 432.781,583.935 433,587C433.333,591.667 433.667,600.333 433,606C432.395,611.139 430.5,616.833 429,621C427.738,624.506 426.031,627.875 424,631C421.833,634.333 416.078,640.841 416.078,640.841C416.078,640.841 417.173,643.76 418,645C420,648 425.049,654.082 428,659C431,664 434.167,670.5 436,675C437.434,678.52 438.634,682.217 439,686C439.5,691.167 439.667,700.667 439,706C438.477,710.184 436.667,714.333 435,718C433.391,721.539 429,728 429,728C429,728 435.667,737 438,741C440.029,744.479 441.833,749 443,752C443.88,754.262 444.821,756.58 445,759C445.333,763.5 445.667,773.333 445,779C444.433,783.82 441,793 441,793C441,793 447.788,794.661 451,796C455,797.667 460.833,800.5 465,803C468.888,805.333 472.46,808.168 476,811C480.167,814.333 485.833,818.667 490,823C494.113,827.278 497.833,832 501,837C504.167,842 507.167,848.833 509,853C510.274,855.894 511.48,858.881 512,862C512.667,866 513,877 513,877L503,877C503,877 500.161,866.153 498,861C495.833,855.833 492.667,850.167 490,846C487.699,842.405 484.871,839.159 482,836C478.667,832.333 474.306,827.668 470,824C465.5,820.167 460.136,816.474 455,813C449.333,809.167 436,801 436,801C436,801 427.833,806.5 425,808C423.137,808.986 420.833,809.833 419,810C417.307,810.154 414,809 414,809C414,809 418.239,805.505 419.852,803.355C421.852,800.688 423.833,796.333 426,793C428.167,789.667 430,784.667 431,782C431.597,780.409 431.911,778.697 432,777C432.167,773.833 432.5,767 432,763C431.568,759.547 430.371,756.199 429,753C427.5,749.5 425.167,745.333 423,742C420.929,738.813 418.01,735.311 416,733C414.465,731.235 410.941,728.135 410.941,728.135C410.941,728.135 421.167,715.667 423,712C424.414,709.172 425.425,706.11 426,703C426.755,698.913 427.997,692.122 427.531,687.481C427.096,683.148 425.855,678.529 424.17,674.514C422.333,670.136 418.846,665.365 416.506,661.212C414.346,657.378 410.847,653.123 409.163,650.238C407.987,648.224 406.423,646.456 404.895,644.693C403.355,642.916 399.924,639.575 399.924,639.575L406.952,633.717C406.952,633.717 411.333,628.333 414,624C416.271,620.309 418,614.667 419,612C419.483,610.713 421.071,604.245 421.128,602.872C421.295,598.872 420.667,593.5 420,588C419.454,583.499 417.598,579.131 416,575C414.431,570.944 410.412,563.212 410.412,563.212C410.412,563.212 407.429,558.061 405.952,556.183C404.693,554.583 401.55,551.949 401.55,551.949C405.599,550.69 408.631,548.875 411.342,546.246C414.084,543.588 415.667,540 418,536C419.809,532.899 421,529.333 422,526C422.977,522.744 423.788,519.393 424,516C424.333,510.667 424.667,500.333 424,494C423.424,488.533 422.018,483.114 420,478C417.5,471.667 411.627,460.897 409,456C407.616,453.42 404.24,448.619 404.24,448.619C404.24,448.619 408.968,445.642 410.746,443.543C413.272,440.563 417.063,435.068 419.396,430.734C421.246,427.299 421.881,424.966 422.714,422.466C423.149,421.162 425.1,416.361 425.177,414.796C425.362,411.055 425.063,402.068 424.396,396.734C423.834,392.235 421.994,387.977 420.396,383.734C418.666,379.137 416.026,372.791 414.012,369.152C412.523,366.461 410.536,363.018 408.733,360.526C406.847,357.92 402.3,353.781 402.3,353.781C402.3,353.781 407.123,351.011 409.186,349.176C411.496,347.122 414.204,344.11 416.161,341.454C418.494,338.287 420.333,333.833 422,330C423.515,326.515 424.595,322.779 425,319C425.5,314.333 425.5,306.833 425,302C424.576,297.899 423.508,293.838 422,290C420.167,285.333 416.569,278.471 414,274C411.821,270.208 408.107,265.409 406.587,263.173C406.005,262.317 405.492,261.414 404.876,260.582C404.012,259.414 401.4,256.162 401.4,256.162C401.4,256.162 404.471,254.015 405.575,252.539C407.342,250.179 410.167,245.667 412,242C413.745,238.51 415.384,234.853 416,231C416.667,226.833 416.5,220.833 416,217C415.591,213.864 414.524,210.771 413,208C411.167,204.667 407.833,200 405,197C402.39,194.237 399.236,191.994 396,190C392.246,187.687 385.551,184.497 382.474,183.122C380.917,182.426 377.543,181.753 377.543,181.753C377.543,181.753 380.667,163.667 380,158C379.507,153.813 377.819,149.804 376,146C374.167,142.167 371.5,138.167 369,135C366.663,132.04 363.885,129.429 361,127C357.833,124.333 350,119 350,119C350,119 353.682,146.201 354.566,154.01C355.01,157.936 355.302,165.85 355.302,165.85C355.302,165.85 351.999,164.4 351,163C349.116,160.358 345.646,154.638 344,150C342.167,144.833 340.949,138.073 340,132C338.333,121.333 335.833,97.667 334,86C332.731,77.927 330.667,68.167 329,62C327.789,57.518 325.833,53 324,49C322.26,45.203 320.333,41.333 318,38C315.698,34.712 313.176,31.454 310,29C306.333,26.167 299.667,22.667 296,21C293.498,19.863 290.5,19.333 288,19C285.687,18.692 283.293,18.57 281,19C278.333,19.5 272,22 272,22C272,22 280.333,24.833 284,27C287.667,29.167 291.167,32 294,35C296.794,37.958 298.998,41.458 301,45C303.167,48.833 305.357,53.519 307,58C308.833,63 310.734,69.231 312,75C313.5,81.833 315.167,93.333 316,99C316.487,102.314 316.912,105.651 317,109C317.167,115.333 316.482,131.932 316.149,137.932C315.997,140.677 315.534,144.912 315.534,144.912C315.534,144.912 319.283,145.506 320.95,146.173C322.479,146.784 323.941,148.095 325,149C325.881,149.753 327.305,151.603 327.305,151.603C327.305,151.603 315.236,150.076 311.382,151.033C307.796,151.923 301.877,156.738 301.877,156.738C301.877,156.738 298.117,154.274 297.13,153.466C295.296,151.966 291.816,148.721 289,147C286,145.167 281.333,143.667 278,143C275.058,142.412 271.874,142.139 269,143C265.766,143.97 258.595,148.817 258.595,148.817C258.595,148.817 255.638,145.766 253.98,144.447C251.715,142.645 248.163,139.741 245,138C241.855,136.269 238.541,134.59 235,134C231,133.333 224.903,133.744 221,134C217.826,134.208 212.263,135.471 212.263,135.471C212.263,135.471 210.175,130.622 209.745,128.533C209.37,126.71 209.079,124.859 209,123C208.876,120.078 208.615,114.981 209,111C209.5,105.833 211,97.5 212,92C212.854,87.304 215,78 215,78C215,78 207.167,69.333 203,66C199.027,62.821 194.333,60 190,58C185.883,56.1 181,54.667 177,54C173.383,53.397 169.612,53.372 166,54C162.167,54.667 157.804,56.181 154,58C150.167,59.833 145.612,63.111 143,65C141.278,66.245 139.788,67.893 138.327,69.336C136.914,70.731 134.694,73.081 133.363,74.356C132.398,75.28 130.341,76.985 130.341,76.985C130.341,76.985 121.667,68 119,66C116.484,64.113 113.5,62.167 111,61C108.801,59.974 106.417,59.22 104,59C100.333,58.667 93.333,58.333 89,59C85.144,59.593 81.333,61.167 78,63C74.67,64.832 70.921,66.256 67.542,69.38C64.806,71.909 63.551,74.014 61.063,78.386C59.874,80.475 58.993,84.045 58,86C57.086,87.8 56.044,91.73 56.044,91.73L49,87C49,87 39.5,80.833 36,79C33.477,77.679 30.798,76.533 28,76C24.5,75.333 19.167,74.667 15,75C10.89,75.329 6.781,76.356 3,78C-0.833,79.667 -4.833,82.5 -8,85C-10.96,87.337 -13.659,90.043 -16,93C-19.167,97 -25,105 -27,109C-28.202,111.404 -32,120 -32,120C-32,120 -46.5,120.167 -52,121C-56.483,121.679 -61.333,123.333 -65,125C-68.282,126.492 -71.333,128.667 -74,131C-76.667,133.333 -79.108,136.004 -81,139C-83,142.167 -84.726,146.179 -86,150C-87.5,154.5 -89.167,162.333 -90,166C-90.449,167.977 -90.829,169.98 -91,172C-91.296,175.49 -91.773,186.939 -91.773,186.939C-91.773,186.939 -93.976,187.517 -95,188C-98.204,189.51 -107,193.667 -111,196C-113.879,197.68 -116.667,199.833 -119,202C-121.252,204.091 -123.33,206.42 -125,209C-126.833,211.833 -128.833,216 -130,219C-130.996,221.562 -131.797,224.259 -132,227C-132.333,231.5 -132.667,240.667 -132,246C-131.438,250.499 -129.833,255 -128,259C-126.189,262.951 -123.333,267 -121,270C-118.974,272.605 -116.64,275.02 -114,277C-110.667,279.5 -105,282.833 -101,285C-97.458,286.918 -95.132,287.99 -92.439,288.9C-90.802,289.453 -84.839,290.458 -84.839,290.458C-84.839,290.458 -86.653,297.977 -86.397,300.7C-86.09,303.957 -84.715,306.715 -83,310C-81.457,312.955 -79.5,316 -77,318C-74.5,320 -71.167,321.333 -68,322C-64.833,322.667 -61.274,322.624 -58,322C-54.5,321.333 -50.167,319.333 -47,318C-44.252,316.843 -40.827,314.789 -39,314C-38.066,313.597 -36.039,313.264 -36.039,313.264C-36.039,313.264 -35.251,319.929 -34,323C-32.66,326.289 -30.167,330.167 -28,333C-25.996,335.621 -23.77,338.207 -21,340C-18.167,341.833 -14.541,343.41 -11,344C-7,344.667 -1,344.667 3,344C6.541,343.41 10,341.667 13,340C15.914,338.381 18.667,336.333 21,334C23.333,331.667 25.394,328.921 27,326C28.833,322.667 32,314 32,314L36,305C36,305 38.211,306.753 39.396,307.515C41.109,308.618 43.9,310.405 46.281,311.617C49.715,313.364 56.547,316.603 60,318C62.25,318.91 64.587,319.746 67,320C70.167,320.333 75.167,320.667 79,320C82.833,319.333 87.235,318.872 90.235,317.206C92.921,315.713 96.173,312.416 98.077,310.004C99.772,307.857 101.052,305.985 102.896,302.789C103.772,301.269 105.414,297.759 106.299,296.474C108.802,292.834 112.47,285.402 112.47,285.402C112.47,285.402 113.528,288.844 114.278,290.474C115.388,292.887 117.177,297.122 119.131,299.876C121.04,302.567 123.396,304.974 126,307C128.811,309.187 133.667,311.833 136,313C137.229,313.615 138.631,313.876 140,314C141.833,314.167 144.722,314.506 147,314C150,313.333 154.833,311.667 158,310C160.95,308.448 163.5,306.167 166,304C168.494,301.839 170.887,299.535 173,297C175.5,294 179.181,288.316 181,286C181.846,284.923 182.861,283.96 183.914,283.105C184.967,282.25 187.32,280.871 187.32,280.871C187.32,280.871 188.635,285.583 189.067,287.987C189.736,291.719 190.184,298.763 191.34,303.266C192.386,307.342 194.223,311.544 196,315C197.649,318.207 200.167,321.667 202,324C203.456,325.853 205.819,328.461 207.764,329.792C210.931,331.958 216.468,336.177 219.148,338.097C220.69,339.201 223.844,341.311 223.844,341.311C223.844,341.311 217.667,350.5 216,354C214.333,357.5 212.552,361.138 212,365C211.333,369.667 211.167,376.667 212,382C212.814,387.207 215.191,392.335 217,397C218.717,401.428 221.532,406.923 222.853,409.988C223.617,411.76 224.926,415.393 224.926,415.393C224.926,415.393 219.83,418.902 218,420C215.5,421.5 210.833,423.167 208,425C205.42,426.67 202.938,428.615 201,431C198.833,433.667 196.667,437.667 195,441C193.394,444.211 191.945,447.536 191,451C190,454.667 189.448,458.97 189,463C188.5,467.5 188.252,474.288 188,478C187.835,480.424 187.488,485.272 187.488,485.272C187.488,485.272 181.467,486.533 178.552,487.487C175.638,488.442 172.833,489.5 170,491C167.284,492.438 164.817,494.522 163,497C161.167,499.5 159.833,503.833 159,506C158.507,507.283 158.076,508.628 158,510C157.833,513 157.52,519.358 158,524C158.5,528.833 160.667,535.5 161,539C161.192,541.018 160.667,543.5 160,545C159.426,546.292 158.144,547.168 157,548C155.167,549.333 149,553 149,553C149,553 147.576,556.3 147,558C146.136,560.548 144.661,565.352 143.994,567.852C143.583,569.392 143,573 143,573C143,573 139.681,571.63 138,571C134,569.5 125,565.167 119,564C113.438,562.918 106.833,563.167 102,564C97.73,564.736 93.293,565.789 89.37,567.631C84.88,569.739 78.527,574.648 75.06,576.647C72.954,577.862 69.202,580.993 69.202,580.993C69.202,580.993 70.2,573.332 71,571C71.541,569.423 74,567 74,567L74,565C74,565 61.724,559.97 57.052,558.437C53.444,557.253 49.746,556.195 45.969,555.801C40.635,555.245 31.688,554.533 25.053,555.097C18.632,555.643 11.836,557.71 6.159,559.185C1.031,560.518 -4.914,562.598 -9.005,563.95C-12.158,564.992 -18.389,567.298 -18.389,567.298C-18.389,567.298 -17.898,562.883 -17,561C-16.102,559.117 -13,556 -13,556L-14.533,547.407L-15.288,536L-11.897,536L-8,540C-8,540 -4.667,545.333 -4,547C-3.629,547.928 -4.992,550.124 -4,550C-1.333,549.667 7.167,546.167 12,545C16.262,543.971 25,543 25,543L45,543C45,543 54.456,544.54 59,546C63.667,547.5 73,552 73,552L80,558L86,556C86,556 93,552.833 95,552C95.973,551.595 98,551 98,551L120,551L132,556C132,556 134.301,558.978 135,558C135.833,556.833 135.442,551.649 137,549C138.667,546.167 143,542.5 145,541C146.099,540.175 149,540 149,540C149,540 146.352,532.108 146,528C145.5,522.167 145.5,510.333 146,505C146.295,501.852 149,496 149,496L157,485L162,481L172,477L176,477C176,477 175.333,464 176,458C176.643,452.214 178,446.167 180,441C181.94,435.988 185,431 188,427C190.828,423.229 198,417 198,417L200,417L200,415L209,411C209,411 207.167,404.833 206,402C204.865,399.243 202.985,396.814 202,394C200.833,390.667 199.439,386.1 199,382C198.5,377.333 198.333,370.833 199,366C199.619,361.509 201.667,356.5 203,353C204.061,350.214 207,345 207,345L209,345L208.457,343.665L204,342L192,331L191,328L189,328L184,319L180,308C180,308 176.313,312.976 174,315C171.333,317.333 164,322 164,322L156,326L153,327L135,327L123,321L115,313L113.041,308.11C113.041,308.11 111.82,310.787 111,312C109.66,313.982 107.285,317.573 105,320C102.333,322.833 95,329 95,329L84,333L64,333L51,328L49,327L49,325L46,325L46,323C46,323 43.62,321.148 43,322C41.667,323.833 40.404,330.394 38,334C35.333,338 29.5,343.667 27,346C25.91,347.017 23.667,347.333 23,348C22.529,348.471 23.555,349.63 23,350C21,351.333 14.333,354.667 11,356C8.448,357.021 3,358 3,358L-10,358C-10,358 -17.667,356.5 -21,355C-24.288,353.52 -27.333,351.167 -30,349C-32.561,346.919 -37,342 -37,342L-37,340L-39,340L-43,332L-43,330L-54,335L-67,336L-74,347L-87,362L-100,378L-110,392L-116,403L-121,416L-126,433L-127,439L-127,459L-123,475L-117,485L-112,491L-104,496L-93,499L-82,500L-86,492L-87,488L-87,466L-93,457L-98,445L-98,433L-93,428L-87,428L-80,434L-77,440L-70,437L-57,437L-52,441L-51,448L-55,454L-65,461L-78,468L-74,486L-71,494L-63,505L-53,513L-43,518L-30,522L-24,523L-6,523L12,519L27,511L37,502L43,494L49,494L51,496L51,504L39,517L32,523L25,527L15,532L1,536L-27,536C-27,536 -27.483,542.026 -28,545C-28.667,548.833 -30.5,554.333 -31,559C-31.497,563.64 -31.667,568.5 -31,573C-30.336,577.485 -28.667,582.167 -27,586C-25.45,589.565 -23.377,592.924 -21,596C-18.167,599.667 -10,608 -10,608C-10,608 -11.167,627.167 -11,634C-10.877,639.043 -10.942,644.971 -9.754,649.873C-8.42,655.373 -6.057,660.61 -4.391,664.944C-3.321,667.726 -1.695,672.332 -0.877,674.951C-0.044,677.617 2,683 2,683C2,683 5.545,683.949 7,685C10,687.167 16.5,693 20,696C22.69,698.306 25.439,700.551 28,703C31.833,706.667 39.333,714 43,718C45.568,720.802 50,727 50,727C50,727 54.833,719.167 57,717C58.581,715.419 60.807,714.439 63,714C65.5,713.5 69.167,713.167 72,714C74.833,714.833 78,717.167 80,719C81.772,720.624 83.167,723 84,725C84.78,726.872 85,731 85,731C85,731 91.102,731.155 94,732C98,733.167 104.333,735.5 109,738C113.646,740.489 117.884,743.708 122,747C126.167,750.333 130.5,754.167 134,758C137.371,761.692 140.471,765.687 143,770C145.833,774.833 149.167,783.167 151,787C151.965,789.017 154,793 154,793C154,793 165,796.833 170,799C174.787,801.075 179.592,803.208 184,806C189,809.167 195.667,814.333 200,818C203.599,821.045 207,824.5 210,828C212.951,831.442 218,839 218,839C218,839 224.333,836.667 227,836C229.287,835.428 231.648,835.147 234,835C236.667,834.833 240.012,834.728 243,835C246.667,835.333 251.756,835.9 256,837C260.5,838.167 266.333,840 270,842C273.111,843.697 276.667,847.167 278,849C278.784,850.078 279.076,853.535 279.076,853.535C279.076,853.535 271.987,851.039 269,850C265.167,848.667 259.167,846.167 255,845C251.411,843.995 247.716,843.286 244,843C239.667,842.667 233.667,842.667 229,843C224.627,843.312 216,845 216,845C216,845 203.5,832 201,829C200.573,828.488 199.965,827.713 199.494,827.242C198.827,826.575 198.193,825.894 197,825C195,823.5 191.883,820.06 189,818C185.5,815.5 180.485,812.403 176,810C171.333,807.5 165.5,805 161,803C157.04,801.24 149,798 149,798C149,798 140.667,780.167 137,774C134.206,769.301 130.783,764.947 127,761C123.167,757 118.5,753.167 114,750C109.604,746.907 104.867,744.281 100,742C94.667,739.5 82,735 82,735C82,735 76.833,727.167 75,725C73.923,723.728 72.608,722.439 71,722C69.167,721.5 66,721.167 64,722C62,722.833 60.156,724.946 59,727C57.5,729.667 55,738 55,738L54.59,740.658C54.59,740.658 47.535,739.489 45.334,738.796C44.315,738.475 41.045,737.479 39.994,737.392C37.994,737.225 34.439,736.47 32.255,737.931C30.072,739.392 28.445,743.486 28.155,746.699C27.801,750.618 29.878,761.516 29.878,761.516C29.878,761.516 27.961,761.85 27,762C24.354,762.414 17.167,763 14,764C11.708,764.724 9.333,766.667 8,768C6.946,769.054 6.227,770.527 6,772C5.667,774.167 5.626,778.116 6,781C6.369,783.843 7.482,786.925 8.244,789.304C8.896,791.337 10.572,795.27 10.572,795.27C10.572,795.27 6.259,796.744 4.331,797.532C2.518,798.273 0.222,798.922 -1,800C-2.118,800.986 -2.865,802.515 -3,804C-3.167,805.833 -2.833,808.833 -2,811C-1.167,813.167 0.3,815.3 2,817C4,819 7.079,821.394 10,823C13.333,824.833 17.923,826.532 22,828C26.167,829.5 32,830.833 35,832C36.811,832.704 40,835 40,835C40,835 47.667,846.667 51,851C53.734,854.555 56.833,858.167 60,861C63.032,863.713 66.485,865.95 70,868C74,870.333 81.167,873.5 84,875C85.062,875.562 88.202,876.983 87,877C63.5,877.333 -57,877 -57,877C-57,877 -57.767,867.603 -57,863C-56.167,858 -54.167,852 -52,847C-49.863,842.068 -46.667,837 -44,833C-41.632,829.448 -38.5,825.833 -36,823C-33.817,820.526 -29,816 -29,816C-29,816 -27.869,811.353 -28,809C-28.167,806 -29.734,801.717 -30,798C-30.333,793.333 -30,781 -30,781L-37,776C-37,776 -50.333,776.833 -57,777C-63.665,777.167 -70.349,777.464 -77,777C-84.167,776.5 -92.406,775.454 -100,774C-107.833,772.5 -117.667,770.167 -124,768C-128.937,766.311 -134.667,763.333 -138,761C-140.518,759.238 -142.667,756.167 -144,754C-145.105,752.205 -145.602,750.07 -146,748C-146.833,743.667 -148.333,733.5 -149,728C-149.523,723.685 -149.897,719.345 -150,715C-150.167,708 -150.333,693.667 -150,686C-149.752,680.3 -149,673.667 -148,669C-147.183,665.185 -145.868,661.425 -144,658C-142,654.333 -139.167,650 -136,647C-132.845,644.011 -129.084,641.485 -125,640C-119.5,638 -109.5,636.167 -103,635C-97.384,633.992 -91.5,633.167 -86,633C-80.659,632.838 -75.28,633.175 -70,634C-64.667,634.833 -57.833,636.833 -54,638C-51.571,638.739 -47,641 -47,641C-47,641 -38.667,642.5 -35,644C-31.402,645.472 -27.167,648.333 -25,650C-23.679,651.016 -22,654 -22,654C-22,654 -23.667,644.667 -24,640C-24.332,635.345 -24.5,630.5 -24,626C-23.509,621.58 -21,613 -21,613L-20,611C-20,611 -23.577,610.094 -25,609C-27.167,607.333 -30.685,603.977 -33,601C-35.333,598 -37.391,594.539 -39,591C-40.667,587.333 -42.167,582 -43,579C-43.543,577.046 -43.893,575.025 -44,573C-44.167,569.833 -44.497,564.305 -44,560C-43.5,555.667 -42.167,550.5 -41,547C-40.057,544.172 -38.167,540.833 -37,539C-36.241,537.807 -34,536 -34,536C-34,536 -39.356,534.058 -42,533C-45.333,531.667 -50.167,530 -54,528C-57.833,526 -58.389,525.352 -65,521L-66.803,523.806C-66.803,523.806 -77,557.5 -80,566C-81.142,569.236 -83.333,573.167 -85,575C-86.207,576.328 -88.21,576.862 -90,577C-92.167,577.167 -95.833,576.833 -98,576C-99.992,575.234 -101.833,573.333 -103,572C-103.982,570.878 -104.773,569.473 -105,568C-105.333,565.833 -105.728,561.91 -105,559C-103,551 -93.094,520.485 -93.094,520.485L-90.109,512.042L-98,512L-108,509L-118,503L-128,493L-136,479L-140,465L-141,459L-141,438L-136,417L-128,397L-120,383L-108,367L-99,356L-87,343L-78,333C-78,333 -85.333,328 -88,325C-90.583,322.095 -92.667,317.5 -94,315C-94.845,313.416 -95.528,311.732 -96,310C-96.5,308.167 -96.856,306.022 -97,304C-97.167,301.667 -97,296 -97,296C-97,296 -103.098,295.829 -106,295C-109.5,294 -114.5,292 -118,290C-121.3,288.114 -124.167,285.5 -127,283C-129.828,280.505 -132.782,278.05 -135,275C-137.667,271.333 -141,265.833 -143,261C-144.979,256.218 -146.412,251.141 -147,246C-147.667,240.167 -147.667,231.833 -147,226C-146.412,220.859 -144.833,215.5 -143,211C-141.253,206.711 -138.667,202.667 -136,199C-133.362,195.373 -130.457,191.856 -127,189C-123.167,185.833 -116.833,182 -113,180C-110.196,178.537 -107.063,177.658 -105.23,177.158C-104.344,176.916 -102,177 -102,177C-102,177 -103,173.028 -103,171C-103,167.333 -102.833,160.167 -102,155C-101.176,149.891 -99.833,144.667 -98,140C-96.2,135.419 -93.333,130.5 -91,127C-89.034,124.052 -86.657,121.344 -84,119C-81.167,116.5 -77.572,113.948 -74,112C-70.333,110 -65.667,108.167 -62,107C-58.761,105.969 -55.385,105.308 -52,105C-48.333,104.667 -42.5,104.833 -40,105C-38.948,105.07 -37,106 -37,106C-37,106 -36.66,102.566 -36,101C-34.667,97.833 -31.894,91.341 -29,87C-26,82.5 -18,74 -18,74C-18,74 -19.676,64.703 -20,60C-20.333,55.167 -20.333,49.833 -20,45C-19.676,40.297 -19,35.5 -18,31C-17.016,26.574 -15.667,21.833 -14,18C-12.45,14.435 -9.833,10.667 -8,8C-6.525,5.855 -4.333,3.333 -3,2C-2.15,1.15 -1.201,0.051 0,0ZM-89,556C-90,555.667 -94.167,556.5 -95,557C-95.639,557.383 -94.707,558.764 -94,559C-93,559.333 -89.833,559.5 -89,559C-88.167,558.5 -88.051,556.316 -89,556ZM-16,669L-15,671L-16,669ZM-15,671L-15,677L-11,676L-15,671Z" style="fill:rgb(3,2,2);fill-rule:nonzero;"/>
    </g>
    <g transform="matrix(1,0,0,1,469,307)">
        <path d="M0,0C0,0 1.366,2.651 2,4C3.166,6.483 5.827,12.564 6.994,14.898C7.545,15.999 8.413,17.095 9,18C9.504,18.777 9.979,19.575 10.517,20.33C11.096,21.142 11.778,22.065 12.478,22.876C13.725,24.321 15.954,27.165 18,29C20.254,31.021 24.151,33.886 26,35C26.904,35.545 29.649,36.371 29.649,36.371L29.026,38.173C29.026,38.173 28.294,39.404 27.89,40.077C27.39,40.911 26.551,41.979 26,43C25.018,44.82 23,48.333 22,51C21.035,53.574 20.228,56.261 20,59C19.667,63 19.333,69.833 20,75C20.662,80.132 22.333,85.5 24,90C25.553,94.194 30,102 30,102L29,105C29,105 24.397,107.203 23,108C22.139,108.491 21.407,109.181 20.62,109.783C19.691,110.493 18.46,111.396 17.427,112.261C15.99,113.464 13.604,115.212 12,117C10.096,119.123 7.715,122.142 6,125C4,128.333 1.463,132.774 0,137C-1.5,141.333 -2.426,146.262 -3,151C-3.667,156.5 -4,170 -4,170C-4,170 -11.333,171.833 -14,173C-16.202,173.963 -18.167,175.5 -20,177C-21.824,178.493 -23.544,180.147 -25,182C-26.833,184.333 -29.667,188.333 -31,191C-32.085,193.171 -32.839,195.579 -33,198C-33.333,203 -33.333,215.833 -33,221C-32.823,223.743 -31.333,227 -31,229C-30.781,230.315 -31,233 -31,233C-31,233 -35.167,235.5 -37,237C-38.824,238.493 -41.072,240.666 -42.241,242.713C-43.574,245.046 -44.463,251.94 -44.463,251.94C-44.463,251.94 -47.616,249.554 -49,249C-51.5,248 -56.127,245.469 -60,245C-65.5,244.333 -76.5,244.333 -82,245C-85.873,245.469 -90.333,247.833 -93,249C-94.781,249.779 -98,252 -98,252C-98,252 -100.73,250.781 -102,250C-104.167,248.667 -107.775,245.612 -111,244C-114.667,242.167 -120,240.167 -124,239C-127.578,237.957 -131.281,237.24 -135,237C-140.167,236.667 -148.833,236.5 -155,237C-160.735,237.465 -167.833,239 -172,240C-174.769,240.665 -180,243 -180,243L-184,243C-184,243 -186.635,236.367 -188,234C-189.112,232.072 -192.187,228.799 -192.187,228.799C-192.187,228.799 -176.365,227.133 -171,226C-167.183,225.194 -163.333,223.5 -160,222C-156.87,220.592 -153.855,218.904 -151,217C-148,215 -144.833,212.5 -142,210C-139.172,207.505 -136,204.167 -134,202C-132.552,200.432 -130.628,199.04 -130,197C-129.333,194.833 -129.833,190.5 -130,189C-130.052,188.531 -129.533,189.067 -130,189C-131.167,188.833 -135.373,186.838 -137,188C-139.333,189.667 -141.982,194.982 -145,198C-148.167,201.167 -152.167,204.5 -156,207C-159.746,209.443 -163.757,211.586 -168,213C-173,214.667 -180,216.333 -186,217C-191.963,217.663 -198.333,217.667 -204,217C-209.46,216.358 -215.667,214.333 -220,213C-223.431,211.944 -226.933,210.867 -230,209C-233.833,206.667 -239.833,201.833 -243,199C-245.29,196.951 -247.259,194.532 -249,192C-250.833,189.333 -252.838,186.229 -254,183C-255.5,178.833 -257.167,170.833 -258,167C-258.501,164.697 -259,160 -259,160C-259,160 -249.167,155.5 -245,153C-241.112,150.667 -236.167,147 -234,145C-232.905,143.989 -232.135,142.485 -232,141C-231.833,139.167 -232.167,135.667 -233,134C-233.745,132.509 -235.359,131.29 -237,131C-239.833,130.5 -246.5,130.5 -250,131C-252.819,131.403 -258,134 -258,134C-258,134 -259.5,129 -261,127C-262.5,125 -265,122.833 -267,122C-268.846,121.231 -271.333,121.333 -273,122C-274.667,122.667 -276.543,124.171 -277,126C-277.667,128.667 -277.97,134.119 -277,138C-275.833,142.667 -271.833,150.5 -270,154C-269.01,155.891 -266,159 -266,159C-266,159 -266.667,175.333 -266,181C-265.507,185.187 -262,193 -262,193C-262,193 -269.367,193.495 -273,193C-276.667,192.5 -280.667,191.5 -284,190C-287.288,188.52 -290.374,186.471 -293,184C-295.833,181.333 -299,177.333 -301,174C-302.847,170.922 -303.911,167.421 -305,164C-306.167,160.333 -307.615,156.105 -308,152C-308.5,146.667 -308.667,138.167 -308,132C-307.374,126.212 -305.167,119.5 -304,115C-303.127,111.631 -302.356,108.205 -301,105C-299.167,100.667 -295.5,93.5 -293,89C-290.889,85.201 -288.512,81.547 -286,78C-283.167,74 -279.468,69.226 -276,65C-270.667,58.5 -258.833,45.167 -254,39C-251.319,35.579 -247,28 -247,28C-247,28 -238.061,28.336 -234.561,27.502C-231.661,26.812 -227.729,23.937 -226,23C-225.157,22.543 -223.626,21.376 -223.626,21.376C-223.626,21.376 -220,28.333 -219,30C-218.382,31.031 -217.333,32.5 -217,33C-215.833,34.333 -212.667,38.667 -210,41C-207.333,43.333 -204.288,45.52 -201,47C-197.667,48.5 -193.771,49.529 -190,50C-186,50.5 -181.283,50.659 -177,50C-172.667,49.333 -166.833,47.167 -164,46C-162.459,45.365 -161.167,43.833 -160,43C-159.022,42.301 -157.5,41.333 -157,41C-155.667,39.833 -151.423,36.585 -149,34C-146.5,31.333 -143.832,28.33 -142,25C-140.167,21.667 -138,14 -138,14C-138,14 -135.175,15.288 -134,16C-132.916,16.657 -131.459,17.895 -130.951,18.274C-130.563,18.554 -129.496,19.561 -128.623,19.954C-126.131,21.075 -120.478,24.307 -116,25C-110.563,25.841 -101.167,25.667 -96,25C-92.131,24.501 -88.268,23.131 -85,21C-81.167,18.5 -75.833,13 -73,10C-71.031,7.915 -67.157,0.952 -67.157,0.952C-67.157,0.952 -65.808,3.053 -65,4C-63.075,6.256 -60.735,9.747 -58,12C-55.167,14.333 -50.167,16.833 -48,18C-47.072,18.5 -46.053,18.95 -45,19C-41.5,19.167 -31.5,19.667 -27,19C-23.752,18.519 -20.87,16.594 -18,15C-15,13.333 -11.667,11 -9,9C-6.541,7.156 -3.5,4.5 -2,3C-1.15,2.15 0,0 0,0Z" style="fill:rgb(248,221,191);fill-rule:nonzero;"/>
    </g>
    <g transform="matrix(1,0,0,1,159,650)">
        <path d="M0,0C0.333,0.5 0.691,2.661 1,4C1.5,6.167 1.371,10.394 3,13C4.667,15.667 8.004,18.108 11,20C14.167,22 18.15,23.816 22,25C26.333,26.333 31.915,27.619 37,28C43.667,28.5 55.167,28.667 62,28C67.471,27.466 73.5,25.667 78,24C81.917,22.549 86.5,20 89,18C90.877,16.498 92.479,14.346 93,12C93.667,9 93,0 93,0C93,0 98.025,2.177 100,4C102.167,6 104.5,9.5 106,12C107.306,14.177 108.384,16.537 109,19C109.667,21.667 110,28 110,28C110,28 104,30.5 102,32C100.293,33.281 98.855,35.045 98,37C96.833,39.667 95.667,44.833 95,48C94.446,50.63 94,56 94,56L93,56C93,56 92,46.333 91,43C90.228,40.426 88.5,37.333 87,36C85.73,34.871 83.578,34.369 82,35C80.333,35.667 78.109,37.92 77,40C75.667,42.5 74.432,46.547 74,50C73.5,54 74,64 74,64C74,64 67,68.5 65,71C63.221,73.224 62.315,76.169 62,79C61.667,82 62.037,85.791 63,89C64,92.333 65.969,95.875 68,99C70.167,102.333 73.144,105.827 76,109C79,112.333 86,119 86,119L85,121C85,121 59,121.667 49,121C40.908,120.461 32.5,118.667 25,117C17.893,115.421 8.833,112.667 4,111C1.181,110.028 -1.833,108.833 -4,107C-6.167,105.167 -7.935,102.662 -9,100C-10.333,96.667 -11.313,91.394 -12,87C-12.833,81.667 -13.755,74.364 -14,68C-14.333,59.333 -14.333,42.833 -14,35C-13.8,30.29 -13,25.167 -12,21C-11.089,17.206 -9.833,13.333 -8,10C-6.168,6.67 -2.333,2.667 -1,1C-0.706,0.632 -0.261,-0.392 0,0Z" style="fill:rgb(45,106,41);fill-rule:nonzero;"/>
    </g>
    <g transform="matrix(1,0,0,1,548,30)">
        <path d="M0,0C2.333,-0.5 6.156,0.836 9,2C12.667,3.5 18.667,6.833 22,9C24.577,10.675 27.046,12.628 29,15C31.333,17.833 34.288,22.005 36,26C38.5,31.833 42.167,43.333 44,50C45.439,55.232 46.208,60.632 47,66C48.5,76.167 51.802,111.704 51.802,111.704L51.862,116.336L43,121C43,121 37.774,116.849 35,115C32,113 27.833,110.333 25,109C22.804,107.967 20.422,107.151 18,107C15.333,106.833 11.833,107.167 9,108C6.167,108.833 1,112 1,112C1,112 -1.76,110.827 -3,110C-5,108.667 -8.086,105.619 -11,104C-14,102.333 -17.499,100.796 -21,100C-24.667,99.167 -29.5,99 -33,99C-36.018,99 -42,100 -42,100C-42,100 -40.555,91.613 -39.517,87.49C-37.577,79.783 -32.358,60.755 -30.358,53.755C-29.906,52.17 -29.556,50.552 -29,49C-27.94,46.041 -25.963,40.207 -24,36C-21.667,31 -18.167,24.167 -15,19C-12.003,14.11 -8.545,7.841 -6.045,4.674C-4.584,2.824 -2.305,0.494 0,0Z" style="fill:rgb(254,169,163);fill-rule:nonzero;"/>
    </g>
    <g transform="matrix(1,0,0,1,271,684)">
        <path d="M0,0C2,0 6.136,0.045 9,1C12.5,2.167 17.299,4.489 21,7C25.667,10.167 32.667,16.333 37,20C40.423,22.897 43.759,25.9 47,29C50.833,32.667 57.5,39.167 60,42C60.986,43.118 62,46 62,46C62,46 54.833,45.5 52,46C49.5,46.441 46.833,47.5 45,49C43.167,50.5 41.717,52.706 41,55C40.167,57.667 40.167,62.333 40,65C39.875,66.996 40,71 40,71C40,71 30.5,72.333 27,74C23.801,75.523 20.667,79.167 19,81C17.997,82.103 17.185,83.521 17,85C16.667,87.667 16.5,93.333 17,97C17.47,100.448 20,107 20,107L17,108C17,108 10.385,103.257 7,101C3,98.333 -2.486,95.225 -7,92C-11.667,88.667 -16.573,84.953 -21,81C-25.667,76.833 -31.5,71.167 -35,67C-37.795,63.672 -40.667,58.333 -42,56C-42.523,55.085 -42.919,54.051 -43,53C-43.167,50.833 -44.167,45.667 -43,43C-41.833,40.333 -38.167,38.333 -36,37C-34.205,35.895 -32.1,35.191 -30,35C-26.333,34.667 -14,35 -14,35L-10.334,35.276C-10.334,35.276 -11.5,20.667 -11,16C-10.629,12.54 -9.333,8.5 -8,6C-6.891,3.92 -4.333,2 -3,1C-2.157,0.368 -1.054,0 0,0Z" style="fill:rgb(90,65,53);fill-rule:nonzero;"/>
    </g>
    <g transform="matrix(1,0,0,1,268,787)">
        <path d="M0,0L6,2L15,7C15,7 12.572,10.142 12,12C11.333,14.167 10.686,17.331 11,20C11.333,22.833 12.833,26.5 14,29C15.016,31.178 16.3,33.3 18,35C20.167,37.167 23.7,40.114 27,42C30.5,44 34.919,45.543 39,47C43.667,48.667 51.333,50 55,52C57.698,53.472 59.113,56.574 61,59C63.333,62 67,67.333 69,70C70.281,71.707 71.4,73.588 73,75C75.833,77.5 82.5,82.667 86,85C88.481,86.654 91.936,88.075 94,89C95.414,89.634 98.383,90.551 98.383,90.551L-27,90C-27,90 -24.667,77.333 -23,72C-21.486,67.154 -19.333,62.333 -17,58C-14.721,53.767 -11.909,49.827 -9,46C-5.833,41.833 -0.167,36.5 2,33C3.447,30.663 4.196,27.742 4,25C3.667,20.333 0,5 0,5L0,0Z" style="fill:rgb(160,122,95);fill-rule:nonzero;"/>
    </g>
    <g transform="matrix(1,0,0,1,395,350)">
        <path d="M3.445,-0.45C6.612,-0.783 11.421,-0.946 15.421,-0.279C18.66,0.26 21.462,2.208 24.129,3.875C26.735,5.504 29.262,7.434 31.129,9.875C33.296,12.708 35.796,17.708 37.129,20.875C38.196,23.408 38.958,26.132 39.129,28.875C39.462,34.208 39.898,45.789 39.398,51.623C39.073,55.409 37.629,60.542 36.129,63.875C34.649,67.163 32.296,70.375 30.129,72.875C28.116,75.197 25.462,77.375 23.129,78.875C20.994,80.248 18.629,81.434 16.129,81.875C13.296,82.375 7.242,82.083 4.026,81.206C0.359,80.206 -2.704,78.042 -5.871,75.875C-8.594,74.012 -11.957,70.532 -13.788,67.787C-16.121,64.287 -18.452,59.368 -19.786,56.368C-20.344,55.112 -21.065,50.474 -21.118,49.101C-21.285,44.768 -21.371,34.208 -20.871,28.875C-20.546,25.41 -19.367,22.017 -17.871,18.875C-16.204,15.375 -13.204,10.708 -10.871,7.875C-8.917,5.503 -5.704,3.208 -3.871,1.875C-2.665,0.998 1.963,-0.294 3.445,-0.45Z" style="fill:rgb(3,2,2);fill-rule:nonzero;"/>
    </g>
    <g transform="matrix(1,0,0,1,195,639)">
        <path d="M0,0C5.167,-0.333 14.167,-0.5 20,0C25.08,0.435 31,1.833 35,3C38.152,3.919 41.5,5.667 44,7C46.121,8.131 48.5,9.667 50,11C51.246,12.107 52.521,13.404 53,15C53.5,16.667 53.769,19.154 53,21C52.167,23 50.145,25.525 48,27C45.333,28.833 40.836,30.772 37,32C32.833,33.333 27.754,34.581 23,35C17.333,35.5 8.833,35.5 3,35C-2.08,34.565 -7.833,33.167 -12,32C-15.457,31.032 -19.167,29.667 -22,28C-24.649,26.442 -27.667,23.333 -29,22C-29.527,21.473 -29.918,20.741 -30,20C-30.167,18.5 -31.158,15.026 -30,13C-28.667,10.667 -25.067,7.775 -22,6C-18.833,4.167 -14.667,3 -11,2C-7.405,1.019 -3.719,0.24 0,0Z" style="fill:rgb(172,129,85);fill-rule:nonzero;"/>
    </g>
    <g transform="matrix(1,0,0,1,310,6)">
        <path d="M0,0C0,0 6.808,-0.016 10,1C13.667,2.167 18.257,4.553 22,7C26.333,9.833 32,14.5 36,18C39.548,21.104 42.907,24.443 46,28C49.333,31.833 56,41 56,41C56,41 54.121,43.138 53,44C50.833,45.667 46.1,48.365 43,51C39.667,53.833 33,61 33,61C33,61 25.406,52.541 22,48C18.5,43.333 14.946,38.238 12,33C9,27.667 6,21.5 4,16C2.121,10.834 0,0 0,0Z" style="fill:rgb(157,120,94);fill-rule:nonzero;"/>
    </g>
    <g transform="matrix(1,0,0,1,301,7)">
        <path d="M0,0L2,0C2,0 3.167,10 4,14C4.71,17.407 5.587,20.82 7,24C9,28.5 12.833,36 16,41C18.925,45.619 23.833,51.167 26,54C27.012,55.324 29,58 29,58C29,58 21.5,55.667 19,55C17.358,54.562 15.698,54.081 14,54C10.5,53.833 3.167,53.167 -2,54C-7.167,54.833 -13.667,57.667 -17,59C-18.805,59.722 -22,62 -22,62C-22,62 -22.167,53.167 -22,49C-21.84,44.989 -21.682,40.956 -21,37C-20.167,32.167 -18.667,24.667 -17,20C-15.595,16.067 -13.167,12 -11,9C-9.068,6.325 -5.833,3.5 -4,2C-2.846,1.056 0,0 0,0Z" style="fill:rgb(249,167,160);fill-rule:nonzero;"/>
    </g>
    <g transform="matrix(1,0,0,1,196,532)">
        <path d="M0,0C0,0 5.657,2.421 8.588,3.259C11.618,4.126 18.179,5.199 18.179,5.199L17,9L9.366,31.087L8,35C8,35 2.511,34.177 -0.039,33.427C-2.872,32.594 -9.002,30.002 -9.002,30.002L-5.911,18.625L0,0ZM4,24L-2,25L5.484,22.173L4,27L4,24Z" style="fill:rgb(252,252,252);fill-rule:nonzero;"/>
    </g>
    <g transform="matrix(1,0,0,1,143,519)">
        <path d="M0.443,-0.737C0.53,-1.305 1.728,-3.292 1.962,-2.668C2.962,-0.001 4.536,11.913 6,16C6.96,18.681 7.629,21.532 7.904,24.366C8.404,29.533 8.333,41.5 9,47C9.432,50.564 11.5,53.833 13,57C14.469,60.102 17,63.833 18,66C18.576,67.248 18.914,68.628 19,70C19.167,72.667 19.148,78.003 19,82C18.833,86.5 17.667,92.833 18,97C18.278,100.469 19.327,104.209 20.16,106.376C20.592,107.497 24.274,109.732 23.774,110.066C23.274,110.399 18.943,109.791 17.741,108.589C16.241,107.089 14.297,103.967 14,101C13.333,94.333 14.833,76 14,69C13.559,65.299 11.269,62.879 9.769,59.712C8.364,56.745 6.367,55.253 5.533,53.087C5.04,51.804 4.053,47.373 4,46C3.833,41.667 4.667,29.5 4,24C3.531,20.127 1.35,16.427 0.708,12.578C0.042,8.578 0.109,1.43 0.443,-0.737Z" style="fill:rgb(9,6,5);fill-rule:nonzero;"/>
    </g>
    <g transform="matrix(1,0,0,1,210,506)">
        <path d="M0,0L10.181,10.812L7.935,19.242L5,28C5,28 -1.656,27.013 -4.489,26.179C-7.141,25.399 -12.924,22.785 -12.924,22.785L-10.661,15.644L-8,5C-8,5 -3.333,2.833 -2,2C-1.2,1.5 0,0 0,0Z" style="fill:rgb(171,128,84);fill-rule:nonzero;"/>
    </g>
    <g transform="matrix(1,0,0,1,198,435)">
        <path d="M0.296,0.165C0.963,-1.001 3.299,1.057 4.296,2.165C5.796,3.832 8.463,8.499 9.296,10.165C9.594,10.762 10.908,12.549 10.908,12.549C10.908,12.549 20.63,9.665 24.296,9.165C26.608,8.85 29.963,8.499 31.296,9.165C32.526,9.78 33.084,12.04 32.296,13.165C31.13,14.832 27.131,17.411 24.296,19.165C20.796,21.332 14.035,23.761 11.286,25.236C9.08,26.419 7.561,27.55 7.561,27.55C7.561,27.55 4.431,20.922 3.296,18.165C2.13,15.332 0.796,12.165 0.296,9.165C-0.197,6.206 -0.37,1.332 0.296,0.165Z" style="fill:rgb(245,164,157);fill-rule:nonzero;"/>
    </g>
    <g transform="matrix(1,0,0,1,403,398)">
        <path d="M0,0C1.667,0 5.167,0.167 7,1C8.717,1.78 10.871,4.914 11.389,6.727C12.056,9.06 11.833,12.667 11,15C10.282,17.01 8.04,18.372 6,19C3.833,19.667 0.167,19.5 -2,19C-3.894,18.563 -5.513,16.943 -6.513,16.109C-7.085,15.632 -7.628,14.409 -7.883,13.685C-8.439,12.105 -8.833,8.167 -8,6C-7.167,3.833 -5.508,2.436 -4.174,1.436C-3.331,0.803 -1.054,0 0,0Z" style="fill:rgb(251,250,249);fill-rule:nonzero;"/>
    </g>
    <g transform="matrix(1,0,0,1,168,509)">
        <path d="M0.171,-0.648C0.301,-1.301 1.721,-0.605 2,0C3,2.167 4.833,9.5 6,13C6.901,15.702 8.5,18.333 9,21C9.491,23.621 9.566,26.394 9,29C8.167,32.833 4.459,41.416 4.126,45.416C3.863,48.567 5.994,51.094 7.408,53.923C8.908,56.923 11.833,59.333 13,62C13.945,64.159 13.714,67.287 13.548,69.621C13.381,71.954 11.342,77.42 10.675,78.587C10.344,79.166 9.99,75.928 9.93,74.883C9.82,72.986 9.833,68 9,65C8.281,62.411 6.333,60.167 5,58C3.74,55.953 1.833,53.5 1,52C0.488,51.079 -0.801,48.193 -0.889,47.142C-1.055,45.142 -0.618,42.936 0,40C0.667,36.833 3.333,33.167 4,30C4.618,27.064 4.588,23.942 4,21C3.333,17.667 0.667,13.5 0,10C-0.624,6.726 -0.163,1.019 0.171,-0.648Z" style="fill:rgb(11,8,6);fill-rule:nonzero;"/>
    </g>
    <g transform="matrix(1,0,0,1,241,690)">
        <path d="M0,0C0.745,-0.745 2.415,0.123 3,1C4,2.5 5.467,6.202 6,9C6.667,12.5 7,22 7,22L-6,23C-6,23 -4,10.833 -3,7C-2.359,4.544 -1,1 0,0Z" style="fill:rgb(45,106,41);fill-rule:nonzero;"/>
    </g>
    <g transform="matrix(1,0,0,1,219,586)">
        <path d="M0,0C0.333,-0.667 3.018,0.878 4,2C5.167,3.333 6.561,5.807 7,8C7.5,10.5 7.757,14.097 7,17C6,20.833 2,26.667 1,31C0.101,34.898 1.5,41 1,43C0.757,43.97 -1.293,43.707 -2,43C-2.833,42.167 -3.705,39.771 -4,38C-4.333,36 -4.641,33.244 -4,31C-3,27.5 1,21.167 2,17C2.856,13.435 2.333,8.833 2,6C1.754,3.906 -0.333,0.667 0,0Z" style="fill:rgb(7,5,4);fill-rule:nonzero;"/>
    </g>
    <g transform="matrix(1,0,0,1,210,654)">
        <path d="M0.984,-0.225C2.925,-1.177 5.194,-1.064 7.051,-0.321C9.551,0.679 13.355,3.891 14.855,5.224C15.353,5.667 16.051,7.679 16.051,7.679C16.051,7.679 13.5,6.894 11.907,5.732C10.456,4.675 8.034,3.046 6.034,2.713C4.034,2.38 2.466,2.574 0.283,3.188C-2.208,3.889 -6.798,7.28 -9.798,7.446C-12.798,7.613 -16.098,5.449 -18.598,5.616C-20.829,5.765 -23.949,8.679 -23.949,8.679C-23.949,8.679 -23.042,5.734 -22.542,4.734C-22.12,3.89 -20.056,2.227 -19.119,2.123C-17.31,1.922 -14.774,3.532 -10.991,3.631C-8.499,3.697 -6.342,3.147 -4.949,2.679C-2.581,1.883 -0.867,0.683 0.984,-0.225Z" style="fill-rule:nonzero;"/>
    </g>
    <g transform="matrix(1,0,0,1,389,377)">
        <path d="M-0.714,-0.285C0.011,-0.527 2.122,-0.657 3.424,-0.065C4.815,0.568 5.905,1.559 6.289,2.32C7.01,3.746 6.95,5.932 6.901,7.467C6.867,8.521 6.339,10.625 5.396,11.096C4.063,11.763 3.179,11.921 1.679,11.921C1.291,11.921 -0.21,11.839 -1.434,11.336C-2.564,10.87 -3.431,9.995 -3.572,9.666C-4.072,8.499 -4.331,5.026 -3.831,3.359C-3.331,1.692 -2.214,0.215 -0.714,-0.285Z" style="fill:rgb(252,251,250);fill-rule:nonzero;"/>
    </g>
    <g transform="matrix(1,0,0,1,187,566)">
        <path d="M-0.751,-1.317C-0.751,-1.317 4.729,0.894 7.466,1.609C10.381,2.37 16.81,3.357 16.81,3.357C16.81,3.357 14.669,6.499 13.204,6.951C11.235,7.558 7.333,8 5,7C2.667,6 0.958,2.386 0,1C-0.462,0.332 -0.751,-1.317 -0.751,-1.317Z" style="fill:rgb(218,122,46);fill-rule:nonzero;"/>
    </g>
</svg>
