<?xml version="1.0" encoding="UTF-8" standalone="no"?>
<!DOCTYPE svg PUBLIC "-//W3C//DTD SVG 1.1//EN" "http://www.w3.org/Graphics/SVG/1.1/DTD/svg11.dtd">
<svg width="100%" height="100%" viewBox="0 0 940 877" version="1.1" xmlns="http://www.w3.org/2000/svg" xmlns:xlink="http://www.w3.org/1999/xlink" xml:space="preserve" xmlns:serif="http://www.serif.com/" style="fill-rule:evenodd;clip-rule:evenodd;stroke-linejoin:round;stroke-miterlimit:2;">
    <g transform="matrix(1,0,0,1,290,0)">
        <path d="M0,0L311,0L318,7L326,23L330,41L332,59L333,110L341,111L364,121L382,131L395,141L406,152L412,162L414,168L414,183L410,193L404,201L395,210L388,215L389,221L389,234L387,243L393,245L403,253L411,261L419,274L423,286L424,298L421,313L416,325L414,331L421,341L429,357L432,366L434,378L434,387L431,402L426,414L418,425L417,428L425,441L431,455L434,471L433,486L429,500L423,512L420,516L421,521L428,536L432,549L434,563L434,574L432,588L428,601L422,613L413,623L421,643L424,656L424,679L420.852,690.959L414.849,702.821L410,708L410.821,710.496L411.828,712.19L420,720L428,733L432,743L434,752L434,770L430,785L423.183,797.741L427,801L433,811L438,822L441,836L441,847L436.739,857.812L446,857L462,865L473,873L477,877L-34,877L-41,869L-46,861L-49,850L-49,822L-45,804L-40,791L-33,779L-28,773L-23,758L-18,750L-18,747L-24,740L-31,725L-34,712L-34,695L-31,682L-36,677L-42,668L-47,657L-50,645L-50,626L-47,614L-42,606L-40,603L-48,602L-60,597L-71,590L-80,582L-83,578L-91,580L-104,580L-115,577L-125,571L-133,563L-139,553L-144,538L-146,526L-146,504L-142,484L-135,465L-127,449L-116,432L-106,419L-93,404L-85,396L-84,394L-89,392L-97,385L-103,375L-105,369L-105,365L-113,364L-127,357L-137,348L-145,338L-151,325L-154,313L-154,297L-151,284L-145,272L-136,262L-126,255L-119,252L-111,251L-112,249L-112,238L-109,223L-104,210L-98,199L-89,189L-81,182L-77,181L-85,167L-87,161L-87,148L-83,137L-77,129L-72,124L-64,117L-50,109L-34,102L-25,99L-22,99L-19,89L-14,80L-14,49L-12,30L-8,14L-2,2L0,0Z" style="fill:rgb(129,75,45);fill-rule:nonzero;"/>
    </g>
    <g transform="matrix(1,0,0,1,290,0)">
        <path d="M0,0L311,0L318,7L326,23L330,41L332,59L333,110C333,110 339.466,110.709 342.317,111.721C347.483,113.554 357.332,117.706 364,121C370.154,124.04 376.833,127.667 382,131C386.594,133.964 391,137.5 395,141C398.902,144.415 403.167,148.5 406,152C408.446,155.021 410.667,159.333 412,162C412.943,163.886 413.8,165.901 414,168C414.333,171.5 414.667,178.833 414,183C413.433,186.545 411.667,190 410,193C408.381,195.914 406.205,198.501 404,201C401.5,203.833 397.667,207.667 395,210C392.842,211.888 388,215 388,215L389,221L389,234L387,243C387,243 392.317,244.429 394.105,245.547C396.771,247.213 400,250.333 403,253C405.819,255.505 408.714,258 411,261C413.667,264.5 417,269.833 419,274C420.825,277.801 422.167,282 423,286C423.819,289.929 424.297,293.997 424,298C423.667,302.5 422.333,308.5 421,313C419.769,317.155 417.167,322 416,325C415.236,326.965 414,331 414,331C414,331 418.967,337.476 421,341C423.5,345.333 427.167,352.833 429,357C430.274,359.894 431.268,362.924 432,366C432.833,369.5 433.667,374.5 434,378C434.284,380.986 434.372,384.023 434,387C433.5,391 432.333,397.5 431,402C429.769,406.155 428.032,410.173 426,414C423.908,417.941 419.932,421.877 418.708,424.16C417.863,425.735 417.091,427.691 417.006,428.082C417.006,428.082 422.667,436.5 425,441C427.333,445.5 429.541,450.137 431,455C432.5,460 433.667,465.833 434,471C434.323,476.001 433.833,481.167 433,486C432.175,490.783 430.667,495.667 429,500C427.395,504.174 424.5,509.333 423,512C422.183,513.453 420,516 420,516C420,516 420.514,518.4 421.258,520.898C422.314,524.447 426.167,531.333 428,536C429.658,540.22 431.016,544.574 432,549C433,553.5 433.667,558.833 434,563C434.292,566.655 434.292,570.345 434,574C433.667,578.167 433,583.5 432,588C431.016,592.426 429.667,596.833 428,601C426.339,605.152 424.5,609.333 422,613C419.5,616.667 413,623 413,623C413,623 419.167,637.5 421,643C422.406,647.219 423.631,651.568 424,656C424.5,662 424.5,673.167 424,679C423.648,683.108 422.448,687.139 421,691C419.5,695 416.833,700.167 415,703C413.72,704.979 410,708 410,708C410,708 411.046,710.855 412,712C413.667,714 417.714,717 420,720C422.667,723.5 426,729.167 428,733C429.661,736.183 431,739.833 432,743C432.925,745.931 433.773,748.935 434,752C434.333,756.5 434.667,764.5 434,770C433.377,775.137 431.5,780.667 430,785C428.683,788.806 425,796 425,796C425,796 426.155,799.416 427,801C428.333,803.5 431.196,807.557 433,811C434.833,814.5 436.772,818.164 438,822C439.333,826.167 440.5,831.833 441,836C441.437,839.641 441.333,843.667 441,847C440.694,850.058 439,856 439,856C439,856 443.805,856.141 446,857C449.833,858.5 457.5,862.333 462,865C465.9,867.311 470.5,871 473,873C474.472,874.178 478.882,876.882 477,877C466.333,877.667 418.637,878.908 408.304,877.741C405.25,877.396 413.062,872.385 415,870C417.167,867.333 420.168,864.33 422,861C423.833,857.667 425.484,853.867 426,850C426.667,845 426.667,836 426,831C425.484,827.133 423.614,823.552 422,820C420.333,816.333 417.299,811.786 415.718,808.645C414.354,805.937 413.138,803.767 412.138,801.434C411.21,799.267 410,795 410,795C410,795 415.5,783 417,779C417.965,776.426 418.804,773.742 419,771C419.333,766.333 419.833,756.667 419,751C418.279,746.097 416.277,741.401 414,737C411.5,732.167 407.167,726.167 404,722C401.286,718.43 396.667,714.667 395,712C393.925,710.281 393.201,707.864 394,706C395,703.667 399.069,700.971 401,698C403.167,694.667 405.667,689.167 407,686C407.942,683.763 408.839,681.421 409,679C409.333,674 409.667,662.167 409,656C408.478,651.175 406.752,646.526 405,642C403,636.833 398.167,629 397,625C396.34,622.737 396.831,620.046 398,618C399.333,615.667 402.974,613.605 405,611C407.333,608 410.056,603.887 412,600C414,596 416,590 417,587C417.537,585.388 417.945,583.699 418,582C418.167,576.833 418.667,562.833 418,556C417.498,550.85 415.848,545.833 414,541C411.833,535.333 405,522 405,522L405,513C405,513 411.833,501.833 414,497C415.855,492.863 417.438,488.499 418,484C418.667,478.667 418.833,470.667 418,465C417.233,459.786 415.303,454.741 413,450C410.167,444.167 405.579,435.494 403.306,431.126C402.079,428.767 398.182,424.246 398.182,424.246C398.182,424.246 405.078,417.723 407,415C409,412.167 411.333,409.167 413,406C414.667,402.833 416.167,398.333 417,396C417.462,394.706 417.938,393.373 418,392C418.167,388.333 418.667,379.333 418,374C417.398,369.184 415.831,364.495 414,360C412.167,355.5 409.333,350.833 407,347C404.884,343.524 401.333,339.167 400,337C399.448,336.102 396.284,331.074 396.284,331.074C396.284,331.074 399.055,326.263 400.188,323.849C402.129,319.711 404.5,314.167 406,310C407.041,307.108 407.678,304.056 408,301C408.333,297.833 408.596,294.28 408,291C407.333,287.333 405.819,282.804 404,279C402.167,275.167 399.333,271 397,268C394.974,265.395 392.524,263.126 390,261C386.833,258.333 380.5,254 378,252C376.896,251.117 375,249 375,249C375,249 375.514,244.306 376,242C376.667,238.833 378.5,233.667 379,230C379.45,226.697 379,220 379,220C379,220 365.857,226.466 359,229C351.333,231.833 341.667,234.667 333,237C324.411,239.312 315.744,241.37 307,243C297.167,244.833 285.047,246.681 274,248C262.833,249.333 249.5,250.333 240,251C232.345,251.537 224.673,251.88 217,252C206.333,252.167 189.167,252.333 176,252C163.32,251.679 150.645,250.998 138,250C125.333,249 112.628,247.662 100,246C87.333,244.333 73.5,242.167 62,240C51.59,238.039 40.333,235.333 31,233C22.605,230.901 14,228.5 6,226C-1.748,223.579 -10.167,220.667 -17,218C-23.117,215.613 -29.167,212.833 -35,210C-40.767,207.199 -46.833,204.167 -52,201C-56.89,198.003 -59.628,195.979 -66,191L-69,190C-69,190 -75.667,194.333 -78,196C-79.737,197.241 -81.611,198.379 -83,200C-85,202.333 -87.998,206.458 -90,210C-92.167,213.833 -94.449,218.487 -96,223C-97.833,228.333 -100,236.667 -101,242C-101.801,246.272 -102.626,249.603 -102.536,252.394C-102.465,254.62 -100.463,258.745 -100.463,258.745C-100.463,258.745 -117,265 -121,267C-123.15,268.075 -125.165,269.447 -127,271C-129.167,272.833 -132.202,275.233 -134,278C-136.167,281.333 -138.833,288 -140,291C-140.616,292.584 -140.926,294.302 -141,296C-141.167,299.833 -141.667,309 -141,314C-140.443,318.179 -138.667,322.333 -137,326C-135.391,329.539 -133.306,332.871 -131,336C-128.667,339.167 -126.12,342.474 -123,345C-119.5,347.833 -114.167,350.667 -110,353C-106.098,355.185 -97.907,357.443 -97.907,357.443C-97.907,357.443 -96.343,365.908 -94.921,368.47C-93.199,371.57 -89.812,375.975 -87.19,378.676C-84.869,381.068 -81.357,383.343 -79.19,384.676C-77.662,385.617 -75.946,386.3 -74.19,386.676C-71.857,387.176 -67.559,388.217 -64.543,388.086C-58.968,387.845 -55.72,387.008 -52.146,385.919C-50.552,385.433 -44,384 -44,384C-44,384 -43.488,387.372 -43,389C-42.5,390.667 -41.971,392.49 -41,394C-39.5,396.333 -36.833,400.5 -34,403C-31.167,405.5 -26.667,407.667 -24,409C-22.114,409.943 -20.094,410.754 -18,411C-15.167,411.333 -10.612,411.628 -7,411C-3.167,410.333 1.667,408.667 5,407C7.981,405.509 10.568,403.28 13,401C15.667,398.5 18.708,395.295 21,392C23.667,388.167 29,378 29,378L30.889,373.446L36.079,377.275C36.079,377.275 41.996,381.139 45,383C48.154,384.954 52.167,387.667 55,389C57.196,390.033 59.576,390.879 62,391C65.333,391.167 71.333,390.833 75,390C78.201,389.272 81.17,387.665 84,386C86.833,384.333 89.805,382.509 92,380C94.333,377.333 96.503,374.814 98.181,372.084C99.806,369.438 100.971,366.367 102.065,363.619C103.109,360.998 104.748,355.592 104.748,355.592L108.783,363.757C111.273,367.273 114.464,371.293 117,374C119.101,376.243 121.5,378.5 124,380C126.442,381.465 129.178,382.615 132,383C135.667,383.5 141.667,384 146,383C150.333,382 154.5,379.667 158,377C161.5,374.333 164.362,370.627 167,367C169.667,363.333 171.984,359.99 173.77,356.849C175.343,354.082 177.718,348.154 177.718,348.154C177.718,348.154 178.64,352.136 179.205,354.1C180.252,357.741 182.367,365.35 184,370C185.435,374.089 187,378.5 189,382C190.886,385.3 193.193,388.437 196,391C199.833,394.5 207.388,400.665 210.388,403.165C211.311,403.935 216.945,407.259 216.945,407.259C216.945,407.259 214.135,410.262 213.107,412.023C211.282,415.146 207.518,422.337 206,426C204.948,428.539 204.274,431.265 204,434C203.667,437.333 203.368,442.05 204,446C204.667,450.167 206.214,454.833 208,459C210,463.667 212.976,470.474 214.81,473.807C215.746,475.51 218.505,479.003 218.505,479.003L222.462,484.902C222.462,484.902 215.987,488.244 212.971,490.273C209.727,492.456 205.829,495.379 203,498C200.401,500.408 198.075,503.127 196,506C193.833,509 191.566,512.442 190,516C188.167,520.167 186.242,525.878 185,531C183.667,536.5 180.997,552.447 180.997,552.447C180.997,552.447 175.854,553.536 173.501,554.654C170.502,556.08 165.584,558.942 163,561C160.964,562.622 159.333,564.833 158,567C156.67,569.162 155.667,572 155,574C154.463,575.612 154.077,577.302 154,579C153.833,582.667 153.833,590.833 154,596C154.151,600.676 155,607.167 155,610C155,611.054 154,613 154,613C154,613 148.833,613.667 147,615C145.167,616.333 143.947,618.791 143,621C142,623.333 141.478,626.293 141,629C140.5,631.833 140.041,635.777 140,638C139.966,639.812 140.507,644.527 140.507,644.527L136,643C136,643 130.239,640.805 127.329,639.786C123.996,638.62 118.722,636.798 116,636C114.369,635.522 112.696,635.113 111,635C108.5,634.833 104.304,634.561 101,635C97.08,635.52 91.309,636.828 87.481,638.121C84.159,639.244 80.93,640.88 78.036,642.758C75.148,644.631 72.381,647.442 70.118,649.387C68.201,651.035 64.455,654.432 64.455,654.432C64.455,654.432 65.743,645.905 67,643C68.034,640.611 72,635 72,635C72,635 61.667,630.5 57,629C52.766,627.639 48.433,626.35 44,626C37.667,625.5 25.833,625.333 19,626C13.529,626.534 7.666,627.234 2.482,629.063C-3.185,631.063 -10.126,634.149 -14.184,635.907C-16.794,637.037 -21.868,639.613 -21.868,639.613C-21.868,639.613 -19.145,633.936 -18,632C-17.152,630.565 -15,628 -15,628L-17,623L-23,613C-23,613 -26.333,606.333 -27,605C-27,605 -29.973,604.507 -31.306,604.341C-32.533,604.187 -35,604 -35,604C-35,604 -39.167,623.333 -40,629C-40.436,631.968 -40.388,635.025 -40,638C-39.5,641.833 -38.333,647.667 -37,652C-35.726,656.142 -34,660.167 -32,664C-30,667.833 -26.833,672.167 -25,675C-23.694,677.018 -19.488,680.948 -19.488,680.948C-19.488,680.948 -21.597,683.749 -22,685C-22.532,686.653 -23.012,689.315 -23.196,691.516C-23.529,695.516 -24.533,703.586 -24,709C-23.493,714.15 -21.944,719.204 -20,724C-17.5,730.167 -9,746 -9,746L-6.709,750.434L-11,751C-11,751 -13.638,755.902 -14.305,758.235C-14.927,760.415 -15,765 -15,765C-15,765 -10.412,763.268 -8,763C-5,762.667 -0.617,762.397 3,763C7,763.667 12,765.333 16,767C19.855,768.606 23.667,770.833 27,773C30.187,775.071 33.168,777.466 36,780C39.167,782.833 43.833,787.667 46,790C47.134,791.221 49,794 49,794C49,794 52.918,792.329 55,792C58.167,791.5 64.167,790.833 68,791C71.396,791.148 75.167,792.167 78,793C80.435,793.716 85,796 85,796C85,796 86.926,792.351 88.041,790.617C89.541,788.284 91.727,784.651 94,782C96.66,778.897 100.304,774.926 104,772C108,768.833 113.667,765.333 118,763C121.815,760.946 126.333,759.167 130,758C133.239,756.969 136.615,756.308 140,756C143.667,755.667 148.031,755.504 152,756C156,756.5 160.167,757.5 164,759C167.833,760.5 172,762.833 175,765C177.675,766.932 180.082,769.315 182,772C184.5,775.5 187.863,781.068 190,786C192.167,791 193.833,797.333 195,802C195.984,805.934 196.621,809.963 197,814C197.5,819.333 198,828.333 198,834C198,838.679 197.667,843.667 197,848C196.373,852.075 195.531,856.172 194,860C192.333,864.167 188.833,870.167 187,873C185.976,874.583 184.885,876.966 183,877C146.167,877.667 3.333,878.333 -34,877C-37.541,876.874 -39,871.667 -41,869C-42.887,866.484 -44.78,863.898 -46,861C-47.333,857.833 -48.709,853.789 -49,850C-49.5,843.5 -49.667,829.667 -49,822C-48.468,815.877 -46.5,809.167 -45,804C-43.706,799.541 -42,795.167 -40,791C-38,786.833 -35,782 -33,779C-31.556,776.834 -28,773 -28,773C-28,773 -24.667,761.833 -23,758C-21.746,755.116 -17.771,748.801 -17.771,748.801L-18.454,747.406C-18.454,747.406 -22.437,742.646 -24,740C-26.167,736.333 -29.333,729.667 -31,725C-32.496,720.812 -33.557,716.425 -34,712C-34.5,707 -34.5,700 -34,695C-33.557,690.575 -31,682 -31,682C-31,682 -34.544,678.853 -36,677C-37.833,674.667 -40.262,671.159 -42,668C-43.833,664.667 -45.677,660.804 -47,657C-48.333,653.167 -49.603,649.104 -50,645C-50.5,639.833 -50.5,631.167 -50,626C-49.603,621.896 -48.333,617.333 -47,614C-45.832,611.08 -42,606 -42,606L-40,603C-40,603 -45.426,602.772 -48,602C-51.333,601 -56.167,599 -60,597C-63.833,595 -67.667,592.5 -71,590C-74.211,587.592 -78,584 -80,582C-81.179,580.821 -83,578 -83,578L-91,580C-91,580 -100,580.5 -104,580C-107.771,579.529 -111.507,578.497 -115,577C-118.5,575.5 -122,573.333 -125,571C-127.977,568.685 -130.685,565.977 -133,563C-135.333,560 -137.434,556.558 -139,553C-140.833,548.833 -142.833,542.5 -144,538C-145.018,534.075 -145.762,530.048 -146,526C-146.333,520.333 -146.667,511 -146,504C-145.355,497.232 -143.833,490.5 -142,484C-140.168,477.504 -137.5,470.833 -135,465C-132.651,459.519 -129.975,454.168 -127,449C-123.833,443.5 -116,432 -116,432L-106,419L-93,404L-85,396L-84,394C-84,394 -87.524,393.022 -89,392C-91.167,390.5 -95.215,387.661 -97.467,384.926C-99.801,382.093 -101.667,377.667 -103,375C-103.943,373.114 -104.332,371.277 -104.666,369.611C-104.927,368.303 -105,365 -105,365C-105,365 -112.57,364.492 -115.096,363.573C-118.762,362.24 -123,359.667 -127,357C-130.731,354.512 -134,351.167 -137,348C-139.936,344.901 -142.78,341.646 -145,338C-147.333,334.167 -149.5,329.167 -151,325C-152.397,321.121 -153.561,317.1 -154,313C-154.5,308.333 -154.5,301.833 -154,297C-153.542,292.576 -152.5,288.167 -151,284C-149.5,279.833 -147.5,275.667 -145,272C-142.5,268.333 -139.167,264.833 -136,262C-132.968,259.287 -128.833,256.667 -126,255C-123.812,253.713 -121.453,252.654 -119,252C-116.5,251.333 -111,251 -111,251L-112,249C-112,249 -112.42,241.642 -112,238C-111.5,233.667 -110.333,227.667 -109,223C-107.725,218.536 -105.833,214 -104,210C-102.26,206.203 -100.428,202.399 -98,199C-95.5,195.5 -91.833,191.833 -89,189C-86.494,186.494 -83,183.333 -81,182C-79.856,181.238 -77,181 -77,181C-77,181 -83.333,170.333 -85,167C-85.943,165.114 -86.779,163.097 -87,161C-87.333,157.833 -87.667,152 -87,148C-86.359,144.152 -84.667,140.167 -83,137C-81.448,134.05 -78.833,131.167 -77,129C-75.477,127.201 -73.732,125.599 -72,124C-69.833,122 -66.928,118.996 -64,117C-60.333,114.5 -54.807,111.404 -50,109C-45,106.5 -38.167,103.667 -34,102C-31.064,100.826 -24.961,98.976 -24.961,98.976L-22,99C-22,99 -20.333,92.167 -19,89C-17.668,85.837 -14,80 -14,80C-14,80 -14.333,57.333 -14,49C-13.745,42.637 -13,35.833 -12,30C-11.071,24.582 -9.667,18.667 -8,14C-6.496,9.788 -3.333,4.333 -2,2C-1.532,1.181 0,0 0,0Z" style="fill:rgb(3,3,3);fill-rule:nonzero;"/>
    </g>
    <g transform="matrix(1,0,0,1,464,374)">
        <path d="M0,0C0,0 1.578,1.157 2,2C3.167,4.333 4.833,10.333 7,14C9.167,17.667 11.905,21.06 15,24C18.333,27.167 24.667,31.333 27,33C27.607,33.433 29,34 29,34C29,34 28.551,36.741 28,38C26.833,40.667 23.333,46.667 22,50C20.979,52.552 20.238,55.262 20,58C19.667,61.833 19.5,68.5 20,73C20.455,77.098 21.492,81.162 23,85C24.833,89.667 29,97.167 31,101C32.243,103.383 35,108 35,108C35,108 26.333,113.333 23,116C20.055,118.356 17.286,121 15,124C12.333,127.5 9.167,132.667 7,137C4.924,141.153 3.156,145.503 2,150C0.5,155.833 -2,172 -2,172C-2,172 -10.667,175.167 -14,177C-16.921,178.606 -19.833,180.667 -22,183C-24.14,185.304 -25.78,188.102 -27,191C-28.333,194.167 -29.645,198.216 -30,202C-30.5,207.333 -30.167,218 -30,223C-29.899,226.017 -29,232 -29,232C-29,232 -34.898,235.413 -37,238C-39.167,240.667 -40.833,244.833 -42,248C-43.062,250.884 -44,257 -44,257C-44,257 -54,253 -57,252C-58.612,251.463 -60.303,251.094 -62,251C-65,250.833 -70.833,250.5 -75,251C-79.094,251.491 -83.833,253 -87,254C-89.421,254.764 -94,257 -94,257C-94,257 -99.333,252.667 -102,251C-104.528,249.42 -107.214,248.061 -110,247C-113.5,245.667 -118.549,243.862 -123,243C-128.167,242 -135.333,241.167 -141,241C-146.341,240.843 -152,241.333 -157,242C-161.731,242.631 -167,243.833 -171,245C-174.447,246.005 -181,249 -181,249C-181,249 -188.667,234.167 -190,231C-190.183,230.566 -189.457,230.114 -189,230C-186.333,229.333 -178.5,228.333 -174,227C-169.845,225.769 -165.833,223.833 -162,222C-158.232,220.198 -154.359,218.483 -151,216C-147.167,213.167 -141.833,208 -139,205C-137.031,202.915 -134.833,200 -134,198C-133.359,196.462 -132.696,193.298 -132.808,192.29C-133.095,189.719 -133.475,189.117 -133.475,189.117C-133.475,189.117 -136.064,191.546 -137.899,192.921C-139.092,193.815 -142.486,197.033 -144.699,199.414C-146.792,201.665 -150.229,203.172 -154,206C-158,209 -163.833,212 -168,214C-171.517,215.688 -175.667,217 -179,218C-181.944,218.883 -184.934,219.796 -188,220C-193,220.333 -203,220.667 -209,220C-214.143,219.429 -219.5,217.667 -224,216C-228.194,214.447 -232.351,212.585 -236,210C-240,207.167 -244.833,202.667 -248,199C-250.841,195.711 -253.189,191.951 -255,188C-256.833,184 -258.167,178.667 -259,175C-259.669,172.057 -261,168.5 -260,166C-259,163.5 -255.539,161.731 -253,160C-249.333,157.5 -241.333,153.5 -238,151C-235.917,149.438 -233.833,147.333 -233,145C-232.167,142.667 -232.167,139 -233,137C-233.821,135.03 -236.5,133.833 -238,133C-239.201,132.333 -240.631,132.124 -242,132C-243.833,131.833 -246.707,131.57 -249,132C-251.667,132.5 -258,135 -258,135C-258,135 -260.5,129 -262,127C-263.281,125.293 -264.913,123.447 -267,123C-269.333,122.5 -274.167,122.5 -276,124C-277.833,125.5 -277.856,129.255 -278,132C-278.167,135.167 -277.816,139.41 -277,143C-276.167,146.667 -274.667,150.833 -273,154C-271.448,156.95 -268.511,161.196 -267.344,163.362C-266.539,164.859 -266.085,165.302 -266,167C-265.833,170.333 -266.667,177.333 -266,182C-265.359,186.488 -262,195 -262,195C-262,195 -269.5,196.167 -273,196C-276.395,195.838 -280,195 -283,194C-285.828,193.057 -288.667,191.5 -291,190C-293.19,188.592 -295.374,187.033 -297,185C-299,182.5 -301.333,178.333 -303,175C-304.606,171.789 -306.067,168.467 -307,165C-308.167,160.667 -309.5,154.333 -310,149C-310.498,143.69 -310.589,138.301 -310,133C-309.333,127 -307.833,119.5 -306,113C-304.168,106.504 -301.756,100.161 -299,94C-296.167,87.667 -292.5,80.833 -289,75C-285.67,69.45 -281.667,64 -278,59C-274.49,54.214 -270.707,49.634 -267,45C-263,40 -256.833,32.5 -254,29C-252.657,27.341 -250,24 -250,24C-250,24 -236.333,23.5 -232,23C-229.269,22.685 -224,21 -224,21C-224,21 -219.667,28.5 -218,31C-216.816,32.776 -215.629,34.621 -214,36C-211.833,37.833 -208.167,40.333 -205,42C-201.833,43.667 -198.554,45.492 -195,46C-190.333,46.667 -182,46.667 -177,46C-172.821,45.443 -168.667,43.833 -165,42C-161.361,40.18 -157.833,37.333 -155,35C-152.453,32.902 -149.98,30.64 -148,28C-145.5,24.667 -140,15 -140,15C-140,15 -137.202,16.202 -135.735,17.236C-133.191,19.028 -128.667,21.5 -126,23C-123.787,24.245 -121.167,25.333 -119,26C-117.062,26.596 -115.023,26.865 -113,27C-110.5,27.167 -106.985,27.299 -104,27C-100.667,26.667 -96.5,26.167 -93,25C-89.5,23.833 -86.076,22.104 -83,20C-79.833,17.833 -76.5,14.667 -74,12C-71.72,9.568 -68,4 -68,4C-68,4 -63,8.333 -61,10C-59.36,11.366 -57.818,12.881 -56,14C-53.833,15.333 -50,17.167 -48,18C-46.731,18.529 -45.373,18.935 -44,19C-40.5,19.167 -31.667,19.667 -27,19C-23.138,18.448 -19.167,16.667 -16,15C-13.05,13.448 -10.5,11.167 -8,9C-5.506,6.839 -2.333,3.5 -1,2C-0.505,1.443 0,0 0,0Z" style="fill:rgb(222,195,166);fill-rule:nonzero;"/>
    </g>
    <g transform="matrix(1,0,0,1,300,0)">
        <path d="M0,0C49.167,-1.667 239.5,-1 289,0C292.333,0.067 294.643,3.643 297,6C299.5,8.5 302.114,11.7 304,15C306,18.5 307.827,22.829 309,27C310.5,32.333 312.101,40.261 313,47C314,54.5 314.801,63.642 315,72C315.333,86 315.333,117.333 315,131C314.812,138.693 314,148 313,154C312.255,158.472 310.833,163.333 309,167C307.3,170.399 304.833,173.5 302,176C299.167,178.5 295.645,180.65 292,182C287.5,183.667 280.725,184.945 275,186C268.667,187.167 261.039,188.323 254,189C245.333,189.833 233.35,190.7 223,191C211.5,191.333 197.5,191.333 185,191C172.653,190.671 160.312,189.985 148,189C135.5,188 122.333,186.667 110,185C97.944,183.371 84.5,181 74,179C64.943,177.275 55.5,175.167 47,173C38.925,170.942 30.333,168.5 23,166C16.204,163.683 7.833,160.167 3,158C-0.132,156.596 -4,154.833 -6,153C-7.648,151.489 -8.734,149.22 -9,147C-10,138.667 -11.167,115.333 -12,103C-12.676,93.001 -13.667,82.5 -14,73C-14.316,64.006 -14.5,54 -14,46C-13.559,38.943 -12.333,31 -11,25C-9.857,19.855 -7.833,14.167 -6,10C-4.434,6.442 -3.885,0.132 0,0Z" style="fill:rgb(38,38,38);fill-rule:nonzero;"/>
    </g>
    <g transform="matrix(1,0,0,1,278,105)">
        <path d="M0,0L1,0C1,0 3.833,23.5 5,31C5.734,35.716 6.5,41.167 8,45C9.314,48.358 11.209,51.717 14,54C17.667,57 24.435,60.456 30,63C35.833,65.667 42.568,67.954 49,70C56.333,72.333 65.565,75.064 74,77C84.167,79.333 98,82 110,84C121.95,85.992 134.333,87.667 146,89C157.304,90.292 171.333,91.333 180,92C185.992,92.461 191.991,92.919 198,93C210.333,93.167 240.333,93.333 254,93C262.69,92.788 271.375,92.078 280,91C289.333,89.833 303,87.5 310,86C314.123,85.117 318.5,83.833 322,82C325.367,80.237 328.5,77.5 331,75C333.357,72.643 335.562,70.007 337,67C338.833,63.167 340.937,57.162 342,52C343.167,46.333 343.5,39 344,33C344.471,27.343 345,16 345,16C345,16 351.127,16.91 354,18C358.833,19.833 368.5,24.333 374,27C378.429,29.147 383,31.5 387,34C390.845,36.403 394.5,39.167 398,42C401.486,44.822 405.333,48 408,51C410.395,53.695 412.667,57.333 414,60C415.085,62.171 415.699,64.592 416,67C416.333,69.667 416.763,73.099 416,76C415.167,79.167 413.236,83.019 411,86C408.5,89.333 404.753,93.148 401,96C396.833,99.167 391.167,102.333 386,105C380.833,107.667 375.445,109.94 370,112C363.833,114.333 356.115,117.047 349,119C340.5,121.333 329.087,124.079 319,126C308.5,128 297,129.667 286,131C275.035,132.329 262.167,133.333 253,134C245.678,134.532 238.34,134.885 231,135C220.333,135.167 202.167,135.333 189,135C176.653,134.687 164.312,133.985 152,133C139.5,132 126.5,130.667 114,129C101.615,127.349 87.667,125 77,123C67.938,121.301 58.833,119.167 50,117C41.283,114.862 32.167,112.5 24,110C16.238,107.624 7.833,104.667 1,102C-5.117,99.613 -11.167,96.833 -17,94C-22.767,91.199 -29.333,87.833 -34,85C-37.875,82.647 -41.5,79.833 -45,77C-48.486,74.178 -52.333,71 -55,68C-57.395,65.305 -59.667,61.667 -61,59C-62.085,56.829 -62.667,54.333 -63,52C-63.33,49.69 -63.566,47.264 -63,45C-62.333,42.333 -60.783,38.756 -59,36C-57.167,33.167 -54.58,30.429 -52,28C-49.167,25.333 -45.627,22.251 -42,20C-37.167,17 -29.465,13.071 -23,10C-16.333,6.833 -2,1 -2,1L0,0Z" style="fill:rgb(89,89,89);fill-rule:nonzero;"/>
    </g>
    <g transform="matrix(1,0,0,1,430,765)">
        <path d="M0,0C3.953,-0.608 8.333,-0.5 12,0C15.448,0.47 18.826,1.572 22,3C25.333,4.5 29.174,6.331 32,9C35,11.833 37.833,16.167 40,20C42.132,23.772 43.63,27.889 45,32C46.5,36.5 48.167,43.333 49,47C49.522,49.298 49.935,51.644 50,54C50.167,60 50.667,76 50,83C49.57,87.513 47.667,92.167 46,96C44.45,99.565 42.167,103.333 40,106C38.062,108.385 36.054,111.654 33,112C24.167,113 -2.5,113.333 -13,112C-19.213,111.211 -24.833,107 -30,104C-34.959,101.12 -40.5,96.833 -44,94C-46.565,91.924 -51,87 -51,87C-51,87 -49.877,84.206 -49,83C-47.667,81.167 -44.558,78.649 -43,76C-41.333,73.167 -39.615,69.537 -39,66C-38.333,62.167 -38.333,56.667 -39,53C-39.587,49.77 -41.5,46.667 -43,44C-44.406,41.501 -46.833,38.333 -48,37C-48.491,36.439 -50,36 -50,36L-48,32C-48,32 -39.667,23.5 -36,20C-32.756,16.904 -29.627,13.638 -26,11C-22.333,8.333 -18.265,5.804 -14,4C-9.667,2.167 -4.333,0.667 0,0Z" style="fill:rgb(38,38,38);fill-rule:nonzero;"/>
    </g>
    <g transform="matrix(1,0,0,1,283,772)">
        <path d="M0,0C3.269,-0.654 6.743,-0.708 10,0C13.833,0.833 18.833,3 23,5C27.167,7 31.193,9.364 35,12C39.333,15 46.333,20.667 49,23C49.904,23.791 51,26 51,26C51,26 45.167,29.667 43,32C40.86,34.304 39.167,37.667 38,40C37.057,41.886 36.221,43.903 36,46C35.667,49.167 35.5,55.333 36,59C36.427,62.133 37.351,65.302 39,68C40.833,71 47,77 47,77C47,77 43.304,81.967 41,84C38.167,86.5 33.963,89.798 30,92C25.5,94.5 18.167,97.5 14,99C11.108,100.041 8.064,100.764 5,101C0.667,101.333 -7.5,101.667 -12,101C-15.551,100.474 -19.09,99.102 -22,97C-25,94.833 -28.167,91 -30,88C-31.649,85.302 -32.333,81.833 -33,79C-33.616,76.384 -33.872,73.684 -34,71C-34.167,67.5 -34.417,62.313 -34,58C-33.5,52.833 -32.167,45 -31,40C-30.042,35.894 -28.712,31.853 -27,28C-25,23.5 -21.833,17 -19,13C-16.548,9.538 -13.167,6.167 -10,4C-7.037,1.973 -3.333,0.667 0,0Z" style="fill:rgb(38,38,38);fill-rule:nonzero;"/>
    </g>
    <g transform="matrix(1,0,0,1,396,416)">
        <path d="M0,0C2.621,-0.491 5.446,-0.766 8,0C11.333,1 16.833,3.667 20,6C22.853,8.102 25.167,11.167 27,14C28.783,16.756 30.057,19.856 31,23C32,26.333 32.734,30.283 33,34C33.333,38.667 33.5,45.833 33,51C32.54,55.75 31.333,61.167 30,65C28.873,68.241 27,71.333 25,74C23.02,76.64 20.667,79.167 18,81C15.333,82.833 11.667,84.167 9,85C6.75,85.703 4.341,86.275 2,86C-0.833,85.667 -4.988,84.744 -8,83C-11.167,81.167 -14.639,78.246 -17,75C-19.667,71.333 -22.5,64.667 -24,61C-25.041,58.456 -25.817,55.743 -26,53C-26.333,48 -26.667,36.833 -26,31C-25.485,26.495 -23.667,21.667 -22,18C-20.508,14.718 -18.333,11.5 -16,9C-13.726,6.563 -10.667,4.5 -8,3C-5.518,1.604 -2.667,0.5 0,0Z" style="fill:rgb(2,2,2);fill-rule:nonzero;"/>
    </g>
    <g transform="matrix(1,0,0,1,348,801)">
        <path d="M0,0C4,-0.667 10,-0.667 14,0C17.541,0.59 21.167,2.333 24,4C26.649,5.558 29.167,7.667 31,10C32.833,12.333 34.442,15.071 35,18C35.667,21.5 35.833,27.5 35,31C34.272,34.059 32,36.667 30,39C28,41.333 25.686,43.508 23,45C20,46.667 15.5,48.333 12,49C8.726,49.624 5.167,49.5 2,49C-1.124,48.507 -4.5,47.167 -7,46C-9.178,44.984 -11.228,43.624 -13,42C-15,40.167 -17.667,36.833 -19,35C-19.877,33.794 -20.826,32.481 -21,31C-21.333,28.167 -21.667,21.5 -21,18C-20.442,15.071 -18.833,12.333 -17,10C-15.167,7.667 -12.649,5.558 -10,4C-7.167,2.333 -3.541,0.59 0,0Z" style="fill:rgb(89,89,89);fill-rule:nonzero;"/>
    </g>
    <g transform="matrix(1,0,0,1,333,853)">
        <path d="M0,0C0,0 6.833,2.333 9,3C10.314,3.404 11.627,3.938 13,4C16.667,4.167 26.167,4.5 31,4C34.78,3.609 42,1 42,1C42,1 46.313,7.313 49,10C51.833,12.833 55.833,15.833 59,18C61.832,19.938 66.5,22 68,23C68.277,23.185 68.333,23.997 68,24C51.667,24.167 -14.167,24.333 -30,24C-31.202,23.975 -28.048,22.589 -27,22C-24.333,20.5 -17.833,17.5 -14,15C-10.424,12.668 -6.333,9.5 -4,7C-2.166,5.035 0,0 0,0Z" style="fill:rgb(129,75,45);fill-rule:nonzero;"/>
    </g>
    <g transform="matrix(1,0,0,1,192,502)">
        <path d="M0,0C1,-0.167 3.658,-0.043 5,1C6.5,2.167 8,5.167 9,7C9.86,8.576 12.101,13.333 12.101,13.333L16.289,10.831C16.289,10.831 19.807,9.439 22,9C24.5,8.5 28.833,8.5 31,9C32.624,9.375 34.5,10.833 35,12C35.5,13.167 34.762,14.856 34,16C33,17.5 30.947,19.672 29,21C25.333,23.5 12.232,30.84 9,33C7.964,33.693 8.159,33.447 7.965,33.031C7.819,32.719 4.612,27.225 3,24C1.333,20.667 -0.333,16.667 -1,13C-1.656,9.392 -1.167,4.167 -1,2C-0.943,1.257 -0.735,0.123 0,0Z" style="fill:rgb(229,121,155);fill-rule:nonzero;"/>
    </g>
    <g transform="matrix(1,0,0,1,396,467)">
        <path d="M0,0C2,-0.5 5.667,-0.833 8,0C10.333,0.833 12.836,2.671 14,5C15.167,7.333 15.667,11.5 15,14C14.333,16.5 11.167,18.833 10,20C9.473,20.527 8.745,21 8,21C6.167,21 1.333,20.833 -1,20C-3.01,19.282 -5.045,17.909 -6,16C-7,14 -7.333,10.167 -7,8C-6.704,6.079 -5.167,4.333 -4,3C-2.902,1.746 -1.617,0.404 0,0Z" style="fill:rgb(253,253,252);fill-rule:nonzero;"/>
    </g>
    <g transform="matrix(1,0,0,1,725,865)">
        <path d="M0,0C0,0 4.153,0.984 6,2C9.333,3.833 20,11 20,11L20,12L-9,12C-9,12 -4.5,7 -3,5C-1.834,3.445 0,0 0,0Z" style="fill:rgb(129,75,45);fill-rule:nonzero;"/>
    </g>
    <g transform="matrix(1,0,0,1,383,445)">
        <path d="M0,0C1.333,-0.5 3.5,-0.667 5,0C6.5,0.667 8.333,2.333 9,4C9.667,5.667 9.5,8.5 9,10C8.553,11.342 7.324,12.503 6,13C4.667,13.5 2.5,13.667 1,13C-0.5,12.333 -2.333,10.667 -3,9C-3.667,7.333 -3.5,4.5 -3,3C-2.553,1.658 -1.324,0.497 0,0Z" style="fill:rgb(253,252,250);fill-rule:nonzero;"/>
    </g>
</svg>
