<?xml version="1.0" encoding="UTF-8" standalone="no"?>
<!DOCTYPE svg PUBLIC "-//W3C//DTD SVG 1.1//EN" "http://www.w3.org/Graphics/SVG/1.1/DTD/svg11.dtd">
<svg width="100%" height="100%" viewBox="0 0 940 877" version="1.1" xmlns="http://www.w3.org/2000/svg" xmlns:xlink="http://www.w3.org/1999/xlink" xml:space="preserve" xmlns:serif="http://www.serif.com/" style="fill-rule:evenodd;clip-rule:evenodd;stroke-linejoin:round;stroke-miterlimit:2;">
    <g transform="matrix(1,0,0,1,302,40)">
        <path d="M0,0C5,-0.667 13,-0.833 18,0C22.274,0.712 26.333,2.833 30,5C33.667,7.167 36.779,10.199 40,13C43.833,16.333 49.167,21.167 53,25C56.504,28.504 59.828,32.193 63,36C66.333,40 71.333,48.5 73,51C73.37,51.555 72.337,50.926 73,51C76,51.333 86.333,50.5 91,51C94.46,51.371 97.833,52.667 101,54C104.163,55.332 110,59 110,59L114,63C114,63 117.901,61.007 119,60C121,58.167 125.428,54.948 129,53C132.667,51 137,49.167 141,48C144.893,46.865 148.948,46.15 153,46C157.5,45.833 163.333,46.167 168,47C172.463,47.797 177,49.167 181,51C184.951,52.811 188.667,55.5 192,58C195.211,60.408 201,66 201,66L202,68L212,50L221,38C221,38 228.167,29.5 232,26C235.692,22.629 240,19.5 244,17C247.792,14.63 252.5,12.333 256,11C258.872,9.906 261.941,9.291 265,9C268.5,8.667 273.167,8.5 277,9C280.769,9.492 284.5,10.667 288,12C291.483,13.327 294.947,14.863 298,17C301.333,19.333 305,23 308,26C310.838,28.838 313.667,31.734 316,35C318.5,38.5 320.991,42.828 323,47C325.167,51.5 327.465,56.838 329,62C330.833,68.167 334,84 334,84L338,110L338,115C338,115 342.777,115.216 345,116C347.833,117 351.875,118.969 355,121C358.333,123.167 362.064,125.901 365,129C368,132.167 370.833,136.167 373,140C375.132,143.772 377,149.167 378,152C378.566,153.603 378.906,155.303 379,157C379.167,160 379.333,166.333 379,170C378.722,173.061 377,179 377,179C377,179 381.212,179.883 383,181C385.667,182.667 390,186.333 393,189C395.819,191.505 398.714,194 401,197C403.667,200.5 407,205.833 409,210C410.825,213.801 412.167,218 413,222C413.819,225.929 414.297,229.997 414,234C413.667,238.5 412.333,244.5 411,249C409.769,253.155 407.167,258 406,261C405.236,262.965 404,267 404,267C404,267 408.967,273.476 411,277C413.5,281.333 417.167,288.833 419,293C420.274,295.894 421.268,298.924 422,302C422.833,305.5 423.667,310.5 424,314C424.284,316.986 424.372,320.023 424,323C423.5,327 422.333,333.5 421,338C419.769,342.155 418.132,346.228 416,350C413.833,353.833 408,361 408,361C408,361 406.577,363.034 407,364C408.167,366.667 412.667,372.5 415,377C417.333,381.5 419.541,386.137 421,391C422.5,396 423.5,401.833 424,407C424.482,411.977 422.728,417.165 424,422C425.667,428.333 431.667,439 434,445C435.643,449.226 437,454.333 438,458C438.809,460.965 440,467 440,467C440,467 446.89,470.668 450,473C454,476 460.167,481.333 464,485C467.241,488.1 470.236,491.468 473,495C476,498.833 479.288,503.481 482,508C485,513 488.667,519.667 491,525C493.113,529.829 494.667,535.167 496,540C497.269,544.601 498.525,549.251 499,554C499.5,559 499,570 499,570C499,570 504.062,576.422 506,580C508.167,584 510.441,589.168 512,594C513.667,599.167 515.485,605.201 516,611C516.667,618.5 516.5,631.667 516,639C515.631,644.414 514.416,649.762 513,655C511.333,661.167 508.333,670.333 506,676C504.126,680.551 500.833,686 499,689C497.887,690.821 496.333,692.5 495,694C493.747,695.409 491,698 491,698L495,713L497,730L497,756L495,774L490,795L482,815L478,821L480,825L488,836L488,837L-130,837C-130,837 -129.169,832.754 -128,831C-126.333,828.5 -123.15,824.487 -120,822C-116.833,819.5 -112.167,817.5 -109,816C-106.426,814.781 -103.5,813.5 -101,813C-98.712,812.542 -94,813 -94,813C-94,813 -93.492,806.686 -92,804C-90.333,801 -87,797.5 -84,795C-81.014,792.511 -77.5,790.5 -74,789C-70.507,787.503 -66.5,786.5 -63,786C-59.7,785.529 -56,785.5 -53,786C-50.191,786.468 -45,789 -45,789C-45,789 -44.146,778.912 -43,774C-41.833,769 -39.833,763.167 -38,759C-36.434,755.442 -33.333,751.167 -32,749C-31.37,747.976 -30,746 -30,746C-30,746 -32.984,742.178 -34,740C-35.167,737.5 -36.333,733.5 -37,731C-37.522,729.041 -37.888,727.024 -38,725C-38.167,722 -38.458,716.974 -38,713C-37.5,708.667 -36.5,703.333 -35,699C-33.537,694.774 -29,687 -29,687L-27,684C-27,684 -32.158,679.027 -34,676C-36.333,672.167 -39.333,665.667 -41,661C-42.496,656.812 -43.557,652.425 -44,648C-44.5,643 -44.5,636 -44,631C-43.557,626.575 -41,618 -41,618C-41,618 -44.544,614.853 -46,613C-47.833,610.667 -50.262,607.159 -52,604C-53.833,600.667 -55.677,596.804 -57,593C-58.333,589.167 -59.603,585.104 -60,581C-60.5,575.833 -60.5,567.167 -60,562C-59.603,557.896 -58.333,553.333 -57,550C-55.832,547.08 -52,542 -52,542L-50,539C-50,539 -55.426,538.772 -58,538C-61.333,537 -66.167,535 -70,533C-73.833,531 -77.667,528.5 -81,526C-84.211,523.592 -88,520 -90,518C-91.179,516.821 -93,514 -93,514C-93,514 -98.264,515.739 -101,516C-104.5,516.333 -110,516.5 -114,516C-117.771,515.529 -121.507,514.497 -125,513C-128.5,511.5 -132,509.333 -135,507C-137.977,504.685 -140.685,501.977 -143,499C-145.333,496 -147.434,492.558 -149,489C-150.833,484.833 -152.833,478.5 -154,474C-155.018,470.075 -155.762,466.048 -156,462C-156.333,456.333 -156.667,447 -156,440C-155.355,433.232 -153.833,426.5 -152,420C-150.168,413.504 -145,401 -145,401L-137,385L-126,368L-116,355L-103,340L-95,332L-94,330C-94,330 -97.524,329.022 -99,328C-101.167,326.5 -104.747,323.735 -107,321C-109.333,318.167 -111.667,313.667 -113,311C-113.943,309.114 -114.667,306.667 -115,305C-115.261,303.693 -115,301 -115,301C-115,301 -120.474,300.918 -123,300C-126.667,298.667 -133,295.667 -137,293C-140.731,290.512 -144,287.167 -147,284C-149.936,280.901 -152.78,277.646 -155,274C-157.333,270.167 -159.5,265.167 -161,261C-162.397,257.121 -163.561,253.1 -164,249C-164.5,244.333 -164.5,237.833 -164,233C-163.542,228.576 -162.5,224.167 -161,220C-159.5,215.833 -157.5,211.667 -155,208C-152.5,204.333 -149.167,200.833 -146,198C-142.968,195.287 -138.833,192.667 -136,191C-133.812,189.713 -131.453,188.654 -129,188C-126.5,187.333 -122.333,187.167 -121,187C-121.167,184.833 -122.31,178.335 -122,174C-121.667,169.333 -120.333,163.667 -119,159C-117.725,154.536 -115.833,150 -114,146C-112.26,142.203 -110.428,138.399 -108,135C-105.5,131.5 -101.833,127.833 -99,125C-96.494,122.494 -94.013,119.865 -91,118C-87.5,115.833 -78,112 -78,112L-71,110L-51,110L-48,101L-41,90L-35,83C-35,83 -35.935,79.027 -36,77C-36.167,71.833 -36.5,58.833 -36,52C-35.604,46.588 -34.333,41 -33,36C-31.723,31.212 -30.281,26.399 -28,22C-25.667,17.5 -21.667,12 -19,9C-17.095,6.857 -14.591,5.228 -12,4C-8.833,2.5 -4.179,0.557 0,0Z" style="fill:rgb(4,4,3);fill-rule:nonzero;"/>
    </g>
    <g transform="matrix(1,0,0,1,647,387)">
        <path d="M0,0C2.167,-0.333 7,-0.667 10,0C12.91,0.647 15.667,2.5 18,4C20.19,5.408 22.402,6.945 24,9C26.333,12 29.725,17.449 32,22C34.333,26.667 35.833,33.333 38,37C39.679,39.841 42.898,41.456 45,44C48.167,47.833 53.5,54.833 57,60C60.27,64.828 63.196,69.887 66,75C68.833,80.167 71.493,85.59 74,91C77.167,97.833 82.667,111 85,116C85.822,117.761 87.131,119.262 88,121C89,123 91,128 91,128C91,128 102,139.833 106,144C108.938,147.061 112.334,149.699 115,153C118.5,157.333 123.667,164.333 127,170C130.175,175.398 132.784,181.143 135,187C137.333,193.167 139.333,201.5 141,207C142.315,211.339 143.833,216.5 145,220C145.901,222.702 148,228 148,228C148,228 155.333,251.167 157,257C157.557,258.95 157.944,260.973 158,263C158.167,269 158.833,284.5 158,293C157.298,300.161 154.833,308 153,314C151.426,319.15 149.277,324.12 147,329C144.667,334 140.5,341 139,344C138.529,344.943 138,347 138,347C138,347 137.726,356.341 138,361C138.333,366.667 139.737,374.305 140,381C140.333,389.5 140.5,403.333 140,412C139.593,419.059 138.167,427 137,433C136.012,438.08 134.636,443.091 133,448C131.333,453 129.103,458.043 127,463C124.667,468.5 119,481 119,481L118,486L122,485L126,490L-398,490L-396,485L-387,473L-382,474C-382,474 -380.833,447.333 -380,439C-379.493,433.926 -378.314,428.927 -377,424C-375.667,419 -373.5,412.833 -372,409C-370.914,406.224 -368,401 -368,401C-368,401 -368.452,395.631 -369,393C-369.833,389 -372.333,381.333 -373,377C-373.507,373.705 -373.397,370.31 -373,367C-372.5,362.833 -371.167,356.5 -370,352C-368.942,347.919 -366,340 -366,340L-362.643,340.839C-362.643,340.839 -365.726,333.894 -367,331C-368.833,326.833 -373,319.667 -375,315C-376.661,311.125 -378.167,306 -379,303C-379.543,301.046 -379.912,299.026 -380,297C-380.167,293.167 -380.167,283.833 -380,280C-379.912,277.974 -379,274 -379,274L-375.616,273.391L-379.286,268.061C-379.286,268.061 -385.5,257.5 -388,253C-390.104,249.212 -391.81,245.167 -393,241C-394.333,236.333 -395.667,230 -396,225C-396.311,220.332 -395.769,215.615 -395,211C-394.167,206 -390,196 -389,193C-388.702,192.106 -389,193 -389,193L-382,194L-379,200L-372,210L-369,215L-371,220L-372.085,223.048L-373,226L-366.641,223.397C-366.641,223.397 -356.274,219.4 -352,218C-348.388,216.817 -343.833,215.667 -341,215C-339.026,214.536 -337.026,214.07 -335,214C-330.167,213.833 -318.5,213.333 -312,214C-306.531,214.561 -300.667,216.5 -296,218C-291.875,219.326 -286.333,222 -284,223C-283.315,223.294 -282,224 -282,224L-283.172,227.342C-283.172,227.342 -286.474,231.739 -287.307,233.739C-288.087,235.611 -289,240 -289,240C-289,240 -284.177,238.306 -282,237C-278.667,235 -272.833,230.167 -269,228C-265.875,226.233 -261.5,224.833 -259,224C-257.388,223.463 -255.695,223.121 -254,223C-251.667,222.833 -247.952,222.463 -245,223C-241.333,223.667 -235.333,225.667 -232,227C-229.505,227.998 -227.167,230.333 -225,231C-223.088,231.588 -218.209,235.064 -218.209,235.064C-218.209,235.064 -216.355,229.016 -216,228C-215.025,225.212 -215,217.833 -214,214C-213.171,210.823 -211.333,207 -210,205C-209.075,203.613 -207.5,202.5 -206,202C-204.5,201.5 -201,202 -201,202C-201,202 -200.834,195.995 -201,193C-201.167,190 -201.879,187.016 -202,184C-202.167,179.833 -202.5,172.333 -202,168C-201.601,164.543 -200.167,160.667 -199,158C-198.037,155.798 -196.7,153.7 -195,152C-193.167,150.167 -190.565,148.282 -188,147C-185,145.5 -179.333,144.5 -177,143C-175.365,141.949 -174.491,139.881 -174,138C-173,134.167 -172.333,125.333 -171,120C-169.798,115.193 -167.833,110.167 -166,106C-164.318,102.177 -162.167,98.167 -160,95C-157.999,92.076 -155.742,89.244 -153,87C-149.333,84 -138,77 -138,77L-137,75C-137,75 -136.051,69.492 -137,67C-138.333,63.5 -142.833,58.167 -145,54C-146.999,50.155 -148.833,45.333 -150,42C-150.908,39.406 -151.696,36.732 -152,34C-152.333,31 -152.471,27.3 -152,24C-151.5,20.5 -149.665,15.259 -149,13C-148.742,12.123 -148.01,10.443 -148.01,10.443C-148.01,10.443 -143.691,19.033 -141,23C-137.998,27.426 -133.962,32.581 -130,37C-125.667,41.833 -119.167,48.333 -115,52C-111.945,54.688 -105,59 -105,59C-105,59 -105.596,61.686 -106,63C-106.667,65.167 -108.623,68.86 -109,72C-109.5,76.167 -109.833,82.833 -109,88C-108.167,93.167 -106,98.333 -104,103C-102.061,107.524 -99.693,111.881 -97,116C-94.167,120.333 -90.5,125 -87,129C-83.585,132.902 -79.167,137.167 -76,140C-73.516,142.223 -68,146 -68,146C-68,146 -67.14,154.766 -66,159C-64.833,163.333 -62.963,167.793 -61,172C-58.667,177 -55,184.167 -52,189C-49.363,193.248 -46.201,197.159 -43,201C-39.667,205 -35.333,209.667 -32,213C-29.162,215.838 -26.228,218.614 -23,221C-19.167,223.833 -9,230 -9,230L-5,232C-5,232 -7.5,240.5 -8,244C-8.424,246.97 -8.456,250.035 -8,253C-7.333,257.333 -5.833,264.833 -4,270C-2.255,274.917 1.167,280.833 3,284C4.069,285.847 7,289 7,289L5,293C5,293 0.736,296.06 -1,298C-3.833,301.167 -8.833,307.5 -12,312C-14.928,316.161 -17.505,320.565 -20,325C-23,330.333 -27.167,337.667 -30,344C-32.756,350.161 -35.061,356.535 -37,363C-39,369.667 -40.684,376.926 -42,384C-43.333,391.167 -44.333,399.167 -45,406C-45.616,412.312 -46,425 -46,425C-46,425 -54.351,428.415 -58,431C-62,433.833 -66.833,438.5 -70,442C-72.73,445.017 -75.333,449 -77,452C-78.383,454.49 -79.667,457.667 -80,460C-80.287,462.007 -79.814,467.058 -79.814,467.058C-79.814,467.058 -74.551,466.306 -73,465C-69.833,462.333 -64,454 -60,450C-56.65,446.65 -52.667,443.667 -49,441C-45.485,438.444 -40.167,435.667 -38,434C-37.047,433.267 -36,431 -36,431C-36,431 -32.667,402.333 -31,392C-29.751,384.254 -27.833,375.833 -26,369C-24.361,362.891 -22.454,356.829 -20,351C-17.333,344.667 -13.333,336.833 -10,331C-7.019,325.783 -3.167,320.333 0,316C2.795,312.175 6.333,308.5 9,305C11.466,301.764 16,295 16,295L17,288C17,288 12,278 10,273C8.043,268.106 6,261.5 5,258C4.443,256.05 4.209,254.017 4,252C3.5,247.167 2,229 2,229L-4,224C-4,224 -24.833,203.833 -31,197C-34.842,192.742 -37.932,187.845 -41,183C-44.167,178 -47.21,172.446 -50,167C-53.5,160.167 -62,142 -62,142C-62,142 -67.35,135.347 -70,132C-73.167,128 -77.667,122.667 -81,118C-84.225,113.486 -87.5,108.5 -90,104C-92.318,99.828 -94.833,93.833 -96,91C-96.523,89.729 -96.924,88.372 -97,87C-97.167,84 -97.5,76.333 -97,73C-96.668,70.789 -95.731,68.416 -94,67C-92.167,65.5 -88.821,64.389 -86,64C-81.167,63.333 -65,63 -65,63C-65,63 -64.167,52.5 -63,48C-61.912,43.805 -60,39 -58,36C-56.295,33.443 -52.833,31.333 -51,30C-49.794,29.123 -48.481,28.174 -47,28C-44.167,27.667 -37.833,27.167 -34,28C-30.358,28.792 -26.667,31.5 -24,33C-21.905,34.178 -20.264,36.192 -18,37C-15.667,37.833 -10,38 -10,38C-10,38 -10.431,29.312 -10,25C-9.5,20 -8.167,11.833 -7,8C-6.3,5.7 -4.167,3.333 -3,2C-2.209,1.096 -1.188,0.183 0,0Z" style="fill:rgb(167,103,78);fill-rule:nonzero;"/>
    </g>
    <g transform="matrix(1,0,0,1,566,61)">
        <path d="M0,0C3.833,-0.667 9,-0.667 13,0C16.848,0.641 20.667,2.333 24,4C27.225,5.612 30.296,7.614 33,10C35.833,12.5 38.639,15.754 41,19C43.667,22.667 46.788,27.418 49,32C51.333,36.833 53.49,42.508 55,48C56.833,54.667 58.526,63.962 60,72C61.833,82 66,108 66,108L73,139L77,149L81,151L82,150L82,136L76,106L76,103L81,105L91,112L98,120L104,132L105,136L105,151L102,159L102,164L110,171L119,178L127,187L133,199L135,207L135,215L131,230L126,241L126,249L130,257L137,267L143,281L145,289L145,306L141,319L135,329L129,336L128,338L128,346L137,360L139,366L134,362L127,354C127,354 122.333,343.333 120,339C117.939,335.173 115.5,331 113,328C110.732,325.278 107.948,322.966 105,321C102,319 97.5,317 95,316C93.422,315.369 91.695,315.121 90,315C87.667,314.833 83.959,314.507 81,315C78,315.5 72,318 72,318C72,318 66,306.167 63,301C60.214,296.202 56.833,291.167 54,287C51.451,283.251 48.833,279.5 46,276C43.178,272.514 39.833,268.667 37,266C34.573,263.715 31.167,261.333 29,260C27.471,259.059 25.783,258.21 24,258C21.167,257.667 15.333,257.333 12,258C9.076,258.585 6.404,260.237 4,262C1.5,263.833 -1.137,266.277 -3,269C-5.167,272.167 -7.667,277.833 -9,281C-9.942,283.237 -10.657,285.598 -11,288C-11.5,291.5 -12,302 -12,302C-12,302 -25,300.167 -31,300C-36.674,299.842 -43.167,300.167 -48,301C-52.155,301.716 -56.833,303.333 -60,305C-62.72,306.431 -65.667,309.667 -67,311C-67.527,311.527 -68,313 -68,313L-73,311C-73,311 -79.493,306.134 -82,303C-84.667,299.667 -87.333,294.833 -89,291C-90.515,287.515 -91.167,283.667 -92,280C-92.826,276.366 -93,270.833 -94,269C-94.638,267.829 -97.114,268.003 -98,269C-100.667,272 -106.5,282.667 -110,287C-112.522,290.123 -115.833,293 -119,295C-122.035,296.917 -125.463,298.385 -129,299C-132.833,299.667 -138.333,299.667 -142,299C-145.23,298.413 -148.244,296.783 -151,295C-153.833,293.167 -156.747,290.735 -159,288C-161.333,285.167 -163.5,280 -165,278C-165.721,277.039 -166.833,276.167 -168,276C-169.167,275.833 -171.095,275.966 -172,277C-173.167,278.333 -173.926,281.7 -175,284C-176.167,286.5 -177.189,289.632 -179,292C-181.167,294.833 -185.167,298.833 -188,301C-190.368,302.811 -193.172,304.057 -196,305C-199,306 -202.667,306.833 -206,307C-209.333,307.167 -212.808,307.016 -216,306C-219.667,304.833 -224.833,302.167 -228,300C-230.723,298.137 -233.5,294.333 -235,293C-235.557,292.505 -236.26,292.092 -237,292C-238.333,291.833 -241.333,291.167 -243,292C-244.667,292.833 -245.902,295.17 -247,297C-248.5,299.5 -249.863,303.947 -252,307C-254.333,310.333 -258.667,314.667 -261,317C-262.509,318.509 -264.14,319.954 -266,321C-268.667,322.5 -274.5,325 -277,326C-278.276,326.51 -279.629,326.902 -281,327C-283.333,327.167 -287.726,327.624 -291,327C-294.5,326.333 -298.683,325.054 -302,323C-305.5,320.833 -309.333,316.833 -312,314C-314.285,311.573 -317,308.333 -318,306C-318.788,304.162 -316.333,300.833 -318,300C-319.667,299.167 -329.667,301.667 -332,302C-333.361,302.194 -330.628,301.928 -332,302C-335.167,302.167 -343,302.667 -347,302C-350.238,301.46 -353.667,299.333 -356,298C-357.853,296.941 -359.681,295.678 -361,294C-362.833,291.667 -365.167,287.167 -367,284C-368.719,281.03 -369.309,277.13 -372,275C-376,271.833 -386.167,268 -391,265C-394.627,262.749 -398.06,260.095 -401,257C-404.167,253.667 -407.667,249 -410,245C-412.183,241.257 -414,235.833 -415,233C-415.566,231.397 -415.923,229.698 -416,228C-416.167,224.333 -416.667,215.833 -416,211C-415.424,206.823 -413.667,202.5 -412,199C-410.45,195.745 -408.386,192.704 -406,190C-403.5,187.167 -400.333,184.167 -397,182C-393.667,179.833 -389.333,178.5 -386,177C-383.006,175.653 -378.324,174.735 -376.824,172.568C-375.324,170.401 -377.263,162.367 -377.218,159.368C-377.129,153.48 -375.887,149.652 -374.387,144.152C-373.083,139.371 -370,135.333 -368,131C-366.059,126.795 -363.832,122.664 -361,119C-358.167,115.333 -354.167,111.5 -351,109C-348.306,106.873 -345,105.333 -342,104C-339.11,102.716 -336.135,101.418 -333,101C-328,100.333 -316.333,100.667 -312,100C-310.079,99.704 -308.095,98.606 -307,97C-304.5,93.333 -300.167,82.833 -297,78C-294.542,74.249 -291.167,70.667 -288,68C-285.027,65.496 -281.167,63.5 -278,62C-275.142,60.646 -272.141,59.362 -269,59C-264.667,58.5 -257,58.167 -252,59C-247.42,59.763 -243,62 -239,64C-235.113,65.944 -230.667,70 -228,71C-226.409,71.597 -224.202,71.202 -223,70C-221.333,68.333 -220.159,63.667 -218,61C-215.167,57.5 -209.667,51.833 -206,49C-203.051,46.721 -198.667,45.167 -196,44C-194.069,43.155 -192.1,42.191 -190,42C-186.333,41.667 -178.167,41.5 -174,42C-170.86,42.377 -167.737,43.416 -165,45C-161.833,46.833 -157.5,51.167 -155,53C-153.433,54.149 -151.5,55.667 -150,56C-148.658,56.298 -147.124,55.791 -146,55C-144.463,53.919 -142.786,51.047 -140.781,49.513C-137.947,47.347 -132.797,43.919 -129,42C-125.518,40.24 -120.833,38.833 -118,38C-116.055,37.428 -114.022,37.144 -112,37C-109.667,36.833 -106.65,36.706 -104,37C-101,37.333 -97.167,38 -94,39C-90.869,39.989 -87.815,41.311 -85,43C-81.667,45 -74,51 -74,51L-65,59L-70,81L-71,90L-71,111L-68,117L-49,119L-37,123L-23,132L-1,132L10,136L20,141L24,140L34,137L51,137L50,132L44,128L39,127L39,110C39,110 37.167,85.833 36,77C35.11,70.26 33.667,63 32,57C30.475,51.512 28.167,45.667 26,41C24.05,36.8 21.753,32.724 19,29C16.167,25.167 12.5,21 9,18C5.7,15.172 1.833,12.833 -2,11C-5.804,9.181 -8.402,8.295 -14,7L-10,4C-10,4 -3.537,0.615 0,0Z" style="fill:rgb(167,103,78);fill-rule:nonzero;"/>
    </g>
    <g transform="matrix(1,0,0,1,466,351)">
        <path d="M0,0C0,0 2.183,2.547 3,4C4.5,6.667 6.833,12.667 9,16C10.931,18.971 13.3,21.705 16,24C19.333,26.833 29,33 29,33C29,33 28.551,35.741 28,37C26.833,39.667 23.333,45.667 22,49C20.979,51.552 20.228,54.261 20,57C19.667,61 19.333,68 20,73C20.641,77.811 22.144,82.515 24,87C26,91.833 32,102 32,102L35,107C35,107 27.333,111.333 24,114C20.687,116.65 17.65,119.687 15,123C12.333,126.333 10,130.167 8,134C6,137.833 4.333,142 3,146C1.696,149.912 0.809,153.957 0,158C-0.833,162.167 -2,171 -2,171C-2,171 -10.833,174.333 -14,176C-16.537,177.336 -19.049,178.899 -21,181C-23.167,183.333 -25.5,186.833 -27,190C-28.49,193.145 -29.685,196.534 -30,200C-30.5,205.5 -30.904,211.12 -30,223L-29,231L-35,235L-39,240L-42,247L-44,256C-44,256 -53.167,252 -56,251C-57.603,250.434 -59.302,250.085 -61,250C-64.333,249.833 -71.667,249.5 -76,250C-79.776,250.436 -84.333,252.167 -87,253C-88.713,253.535 -92,255 -92,255L-96,254C-96,254 -102.493,249.677 -106,248C-109.833,246.167 -115.333,244.167 -119,243C-121.929,242.068 -124.931,241.157 -128,241C-134.5,240.667 -150.333,240.333 -158,241C-163.477,241.476 -170.167,244 -174,245C-176.348,245.613 -181,247 -181,247L-187,235L-190,230L-174,226C-174,226 -165.833,222.833 -162,221C-158.232,219.198 -154.359,217.483 -151,215C-147.167,212.167 -141.833,207 -139,204C-137.031,201.915 -134,197 -134,197L-131.218,187.931C-131.218,187.931 -138.658,190.011 -140,191C-143.167,193.333 -149.333,201.333 -154,205C-158.226,208.321 -163.833,211 -168,213C-171.517,214.688 -175.667,216 -179,217C-181.944,217.883 -184.934,218.796 -188,219C-193,219.333 -203,219.667 -209,219C-214.143,218.429 -219.5,216.667 -224,215C-228.194,213.447 -232.333,211.5 -236,209C-239.667,206.5 -243.167,203 -246,200C-248.61,197.237 -251.18,194.337 -253,191C-255,187.333 -256.833,182.333 -258,178C-259.14,173.766 -260,165 -260,165L-253,159C-253,159 -241.333,152.5 -238,150C-235.917,148.438 -233.833,146.333 -233,144C-232.167,141.667 -232.167,138 -233,136C-233.821,134.03 -236.667,132.833 -238,132C-238.894,131.441 -239.95,131.095 -241,131C-242.833,130.833 -246.374,130.537 -249,131C-251.833,131.5 -258,134 -258,134C-258,134 -260.833,127.833 -262,126C-262.759,124.807 -263.671,123.483 -265,123C-266.833,122.333 -269.461,121.164 -271.295,121.164C-272.349,121.164 -275.783,123.115 -276.342,124.009C-277.175,125.342 -277.872,127.577 -278,130C-278.167,133.167 -277.974,138.106 -277,142C-276,146 -272,154 -272,154L-268,160L-266,162L-266,181L-262,194L-265,195L-273,195C-273,195 -282.333,193.5 -286,192C-289.337,190.635 -292.5,188.333 -295,186C-297.437,183.726 -299.33,180.885 -301,178C-302.833,174.833 -304.677,170.804 -306,167C-307.333,163.167 -308.333,158.333 -309,155C-309.527,152.365 -309.878,149.685 -310,147C-310.167,143.333 -310.45,137.645 -310,133C-309.5,127.833 -308.464,121.565 -307,116C-305.333,109.667 -302.907,101.782 -300,95C-297,88 -292.167,79.5 -289,74C-286.601,69.834 -281,62 -281,62L-271,49L-262,38L-251,24L-250,23L-232,22L-224,20C-224,20 -219.667,27.5 -218,30C-216.816,31.776 -215.621,33.611 -214,35C-211.667,37 -207.167,40.333 -204,42C-201.202,43.473 -198.144,44.663 -195,45C-190.333,45.5 -181.167,45.833 -176,45C-171.722,44.31 -167.5,41.833 -164,40C-160.806,38.327 -157.667,36.167 -155,34C-152.439,31.919 -150,29.625 -148,27C-145.333,23.5 -139,13 -139,13C-135.207,16.378 -133.858,17.285 -131,19C-127.667,21 -121.833,23.833 -119,25C-117.428,25.647 -115.697,25.9 -114,26C-111.167,26.167 -105.833,26.5 -102,26C-98.231,25.508 -94.518,24.439 -91,23C-87.333,21.5 -83.261,19.609 -80,17C-76.667,14.333 -73.167,9.333 -71,7C-69.717,5.618 -67,3 -67,3C-61.664,9.07 -61.167,9.667 -58,12C-55,14.211 -50.333,16 -48,17C-46.737,17.541 -45.373,17.938 -44,18C-40.333,18.167 -30.667,18.667 -26,18C-22.446,17.492 -19,15.667 -16,14C-13.086,12.381 -10.509,10.195 -8,8C-5.333,5.667 0,0 0,0Z" style="fill:rgb(198,182,163);fill-rule:nonzero;"/>
    </g>
    <g transform="matrix(1,0,0,1,539,77)">
        <path d="M0,0C2.833,-1.167 7.443,-0.889 11,0C15,1 21.5,4.833 24,6C24.675,6.315 25.667,6.833 26,7C26.833,7.667 29.491,9.491 31,11C33,13 36.004,16.072 38,19C40.5,22.667 43.846,28.076 46,33C48.333,38.333 50.567,44.84 52,51C53.667,58.167 56,76 56,76L59,112L51,116L46,115C46,115 40.5,111.333 38,110C35.76,108.805 33.528,107.237 31,107C25.667,106.5 6,107 6,107C6,107 1.038,101.823 -2,100C-5.333,98 -11.167,96 -14,95C-15.603,94.434 -17.302,94.074 -19,94C-22.833,93.833 -37,94 -37,94C-37,94 -34.5,73.833 -33,66C-31.768,59.568 -29.833,52.667 -28,47C-26.342,41.876 -24.167,36.667 -22,32C-19.927,27.536 -17.932,23.222 -15.279,19.077C-12.613,14.91 -9.84,9.203 -7.34,6.036C-5.436,3.624 -2.833,1.167 0,0Z" style="fill:rgb(240,146,172);fill-rule:nonzero;"/>
    </g>
    <g transform="matrix(1,0,0,1,582,329)">
        <path d="M0,0C2.167,-0.333 4.864,0.003 7,1C9.5,2.167 12.5,4.833 15,7C17.494,9.161 19.952,11.413 22,14C25.167,18 34,31 34,31L43,46L49,57L48,65L46,76C46,76 40.238,72.54 37,72C33,71.333 26.5,71.5 22,72C17.902,72.455 13.667,73.333 10,75C6.333,76.667 2.667,79.333 0,82C-2.55,84.55 -4.5,87.833 -6,91C-7.49,94.145 -8.333,97.833 -9,101C-9.622,103.954 -10,110 -10,110L-27,111L-34,113L-46,100L-55,91L-65,78C-65,78 -71.333,67.167 -73,64C-73.836,62.412 -74.705,60.771 -75,59C-75.333,57 -75.833,54.167 -75,52C-74.167,49.833 -72.301,47.218 -70,46C-67.167,44.5 -62.096,43.473 -58,43C-53.667,42.5 -44,43 -44,43L-36,44L-25,44L-21,43L-19,38C-19,38 -17.167,24.5 -16,20C-15.176,16.822 -13.665,13.83 -12,11C-10.333,8.167 -8,4.833 -6,3C-4.352,1.489 -2.167,0.333 0,0Z" style="fill:rgb(60,54,48);fill-rule:nonzero;"/>
    </g>
    <g transform="matrix(1,0,0,1,397,392)">
        <path d="M0,0C2.5,-0.333 6.115,-0.824 9,0C12.5,1 17.833,3.667 21,6C23.853,8.102 26.167,11.167 28,14C29.783,16.756 31.011,19.869 32,23C33,26.167 33.774,29.608 34,33C34.333,38 34.5,47.667 34,53C33.615,57.105 32.333,61.5 31,65C29.778,68.207 28,71.333 26,74C24.02,76.64 21.5,79.167 19,81C16.596,82.763 13.929,84.442 11,85C7.5,85.667 1.5,85.667 -2,85C-4.929,84.442 -7.686,82.88 -10,81C-12.667,78.833 -15.833,75.333 -18,72C-20.167,68.667 -21.833,64 -23,61C-23.88,58.738 -25.031,52.907 -25.187,50.485C-25.52,45.319 -25.667,36 -25,30C-24.534,25.809 -22.833,21.667 -21,18C-19.18,14.361 -16.5,10.667 -14,8C-11.72,5.568 -8.333,3.333 -6,2C-4.17,0.954 -2.09,0.279 0,0Z" style="fill:rgb(2,2,1);fill-rule:nonzero;"/>
    </g>
    <g transform="matrix(1,0,0,1,298,51)">
        <path d="M0,0C0.833,-0.167 3,0 3,0C3,0 3.696,10.786 5,16C6.333,21.333 8.5,27 11,32C13.481,36.962 16.667,41.667 20,46C23.308,50.301 27.333,54.667 31,58C34.355,61.05 36.499,62.268 42,66L42,69C42,69 28.167,61.833 24,60C21.779,59.023 19.42,58.186 17,58C12.667,57.667 2.667,57.667 -2,58C-5.065,58.219 -8.138,58.88 -11,60C-14.833,61.5 -25,67 -25,67L-25,51C-25,51 -23.333,37.667 -22,32C-20.793,26.87 -18.833,21.167 -17,17C-15.434,13.442 -13.5,9.667 -11,7C-8.534,4.37 -3.833,2.167 -2,1C-1.371,0.6 -0.731,0.146 0,0Z" style="fill:rgb(238,145,169);fill-rule:nonzero;"/>
    </g>
    <g transform="matrix(1,0,0,1,308,50)">
        <path d="M0,0C0,0 8.833,0.667 13,2C17.167,3.333 21.333,5.667 25,8C28.601,10.292 31.841,13.129 35,16C38.667,19.333 43.5,24.167 47,28C50.194,31.499 54,36.333 56,39C57.166,40.555 59,44 59,44L48,50L38,59L34,60C34,60 23,50.5 19,46C15.498,42.061 12.5,37.333 10,33C7.615,28.866 5.605,24.495 4,20C2.333,15.333 0.667,8.333 0,5C-0.327,3.366 0,0 0,0Z" style="fill:rgb(167,103,78);fill-rule:nonzero;"/>
    </g>
    <g transform="matrix(1,0,0,1,249,837)">
        <path d="M0,0C2.333,-0.167 8,0 8,0L9,18L3,21L-6,31L-12,40L-62,40C-62,40 -60.834,35.655 -59.021,34.149C-56.391,31.966 -53.429,28.462 -49.639,26.983C-44.081,24.813 -37,21 -37,21L-34,20C-32.679,17.963 -30.313,15.024 -28,13C-25.333,10.667 -21.572,7.948 -18,6C-14.333,4 -9,2 -6,1C-4.076,0.359 -2.022,0.144 0,0Z" style="fill:rgb(167,103,78);fill-rule:nonzero;"/>
    </g>
    <g transform="matrix(1,0,0,1,195,477)">
        <path d="M0,0C1.333,-0.333 3.84,0.63 5,2C6.833,4.167 11,13 11,13C11,13 14.375,12.5 16,12C18.167,11.333 21.333,9.333 24,9C26.667,8.667 30.333,9.5 32,10C32.903,10.271 33.741,11.093 34,12C34.333,13.167 34.925,15.613 34,17C32.667,19 28.928,22.004 26,24C22.333,26.5 12,32 12,32L8,35C8,35 2.811,27.951 1,24C-0.833,20 -2.333,14.333 -3,11C-3.458,8.712 -3.5,5.833 -3,4C-2.561,2.392 -1.333,0.333 0,0Z" style="fill:rgb(237,144,168);fill-rule:nonzero;"/>
    </g>
    <g transform="matrix(1,0,0,1,398,443)">
        <path d="M0,0C2,-0.5 5.667,-0.833 8,0C10.333,0.833 12.77,2.412 13.58,3.85C14.358,5.232 15.322,7.241 15.404,7.982C15.571,9.482 15.833,11.833 15,14C14.167,16.167 12.482,18.279 11.315,19.445C10.788,19.972 4.252,21.939 7.49,20.953C9.403,20.37 1.944,21.515 -0.39,20.682C-2.165,20.048 -5.275,17.741 -6,16C-6.833,14 -7.494,11.645 -7.161,9.478C-6.865,7.557 -5.167,4.333 -4,3C-2.902,1.746 -1.617,0.404 0,0Z" style="fill:rgb(251,250,250);fill-rule:nonzero;"/>
    </g>
    <g transform="matrix(1,0,0,1,385,421)">
        <path d="M0.994,-0.143C2.661,-0.476 4.781,0.084 6.281,0.75C7.38,1.238 8.739,2.827 9,4C9.333,5.5 9.311,8.463 8.811,9.963C8.364,11.304 7.324,12.503 6,13C4.667,13.5 1.942,13.692 0.442,13.025C-1.058,12.358 -2.333,10.667 -3,9C-3.667,7.333 -3.5,4.5 -3,3C-2.553,1.658 -0.392,0.134 0.994,-0.143Z" style="fill:rgb(249,248,246);fill-rule:nonzero;"/>
    </g>
</svg>
