<?xml version="1.0" encoding="UTF-8" standalone="no"?>
<!DOCTYPE svg PUBLIC "-//W3C//DTD SVG 1.1//EN" "http://www.w3.org/Graphics/SVG/1.1/DTD/svg11.dtd">
<svg width="100%" height="100%" viewBox="0 0 940 877" version="1.1" xmlns="http://www.w3.org/2000/svg" xmlns:xlink="http://www.w3.org/1999/xlink" xml:space="preserve" xmlns:serif="http://www.serif.com/" style="fill-rule:evenodd;clip-rule:evenodd;stroke-linejoin:round;stroke-miterlimit:2;">
    <g transform="matrix(1,0,0,1,293,0)">
        <path d="M0,0L38,0L49,6L60,15L69,24L78,35L85,44L85,46L103,46L113,49L122,54L126,58L129,59L131,55L141,48L153,43L165,41L180,42L193,46L204,53L213,61L214,63L224,45L233,33L244,21L256,12L268,6L277,4L289,4L300,7L310,12L320,21L328,30L335,42L341,57L346,79L350,105L350,110L357,111L367,116L377,124L385,135L390,147L391,152L391,165L389,174L395,176L405,184L413,192L421,205L425,217L426,229L423,244L418,256L416,262L423,272L431,288L434,297L436,309L436,318L433,333L428,345L420,356L419,359L427,372L433,386L436,402L435,417L431,431L425,443L422,447L423,452L430,467L434,480L436,494L436,505L434,519L430,532L424,544L415,554L423,574L426,587L426,610L423,622L417,634L412,639L414,643L422,651L430,664L434,674L436,683L436,701L432,716L427,727L429,732L435,742L440,753L443,767L443,778L441,787L448,788L464,796L475,804L485,813L493,821L502,834L510,850L514,862L515,867L515,877L78,877L62,875L56,874L53,877L-213,877L-220,867L-225,855L-227,847L-227,826L-223,814L-219,806L-221,801L-236,772L-245,748L-250,727L-252,709L-252,696L-250,677L-246,660L-240,645L-232,631L-220,618L-209,609L-193,600L-182,595L-169,591L-163,590L-133,590L-114,594L-95,601L-79,610L-66,621L-58,632L-56,634L-50,624L-43,616L-35,610L-36,606L-44,591L-48,576L-48,557L-45,545L-40,537L-38,534L-46,533L-58,528L-69,521L-78,513L-81,509L-89,511L-102,511L-113,508L-123,502L-131,494L-137,484L-142,469L-144,457L-144,435L-140,415L-133,396L-125,380L-114,363L-104,350L-91,335L-83,327L-82,325L-87,323L-95,316L-101,306L-103,300L-103,296L-111,295L-125,288L-135,279L-143,269L-149,256L-152,244L-152,228L-149,215L-143,203L-134,193L-124,186L-117,183L-109,182L-110,180L-110,169L-107,154L-102,141L-96,130L-87,120L-79,113L-66,107L-59,105L-39,105L-36,96L-29,85L-23,78L-24,72L-24,47L-21,31L-16,17L-8,6L0,0Z" style="fill:rgb(220,225,225);fill-rule:nonzero;"/>
    </g>
    <g transform="matrix(1,0,0,1,293,0)">
        <path d="M0,0C7.667,-1 29.833,-1 38,0C42.146,0.508 45.549,3.647 49,6C52.667,8.5 56.667,12 60,15C63.154,17.838 66.162,20.846 69,24C72,27.333 75.333,31.667 78,35C80.374,37.968 83.833,44.167 85,46C85.358,46.562 84.337,45.926 85,46C88,46.333 98.333,45.5 103,46C106.46,46.371 109.833,47.667 113,49C116.163,50.332 119.833,52.5 122,54C123.55,55.073 124.833,57.167 126,58C126.858,58.613 128.227,60.328 128.227,60.328C128.227,60.328 129.901,56.007 131,55C133,53.167 137.428,49.948 141,48C144.667,46 149,44.167 153,43C156.893,41.865 160.948,41.15 165,41C169.5,40.833 175.333,41.167 180,42C184.463,42.797 189,44.167 193,46C196.951,47.811 200.667,50.5 204,53C207.211,55.408 211.333,59.333 213,61C213.527,61.527 213.578,63.614 214,63C215.833,60.333 220.833,50 224,45C226.675,40.776 229.799,36.841 233,33C236.333,29 240.167,24.5 244,21C247.692,17.629 252,14.5 256,12C259.792,9.63 264.5,7.333 268,6C270.872,4.906 273.941,4.291 277,4C280.5,3.667 285.167,3.5 289,4C292.769,4.492 296.5,5.667 300,7C303.483,8.327 306.947,9.863 310,12C313.333,14.333 317,18 320,21C322.838,23.838 325.667,26.734 328,30C330.5,33.5 332.991,37.828 335,42C337.167,46.5 339.465,51.838 341,57C342.833,63.167 344.614,71.608 346,79C347.5,87 349.988,103.138 350.655,108.305C350.868,109.958 349.488,107.305 350.655,108.305C351.822,109.305 354.777,110.216 357,111C359.833,112 363.875,113.969 367,116C370.333,118.167 374.064,120.901 377,124C380,127.167 382.833,131.167 385,135C387.132,138.772 389,144.167 390,147C390.566,148.603 390.906,150.303 391,152C391.167,155 391.333,161.333 391,165C390.722,168.061 389,174 389,174C389,174 393.212,174.883 395,176C397.667,177.667 402,181.333 405,184C407.819,186.505 410.714,189 413,192C415.667,195.5 419,200.833 421,205C422.825,208.801 424.167,213 425,217C425.819,220.929 426.297,224.997 426,229C425.667,233.5 424.333,239.5 423,244C421.769,248.155 419.167,253 418,256C417.236,257.965 416,262 416,262C416,262 420.967,268.476 423,272C425.5,276.333 429.167,283.833 431,288C432.274,290.894 433.268,293.924 434,297C434.833,300.5 435.667,305.5 436,309C436.284,311.986 436.372,315.023 436,318C435.5,322 434.333,328.5 433,333C431.769,337.155 430.132,341.228 428,345C425.833,348.833 421.5,353.667 420,356C419.43,356.887 419,359 419,359C419,359 424.667,367.5 427,372C429.333,376.5 431.541,381.137 433,386C434.5,391 435.667,396.833 436,402C436.323,407.001 435.833,412.167 435,417C434.175,421.783 432.667,426.667 431,431C429.395,435.174 426.5,440.333 425,443C424.183,444.453 422,447 422,447C422,447 422.369,450.422 423,452C424.333,455.333 428.167,462.333 430,467C431.658,471.22 433.016,475.574 434,480C435,484.5 435.667,489.833 436,494C436.292,497.655 436.292,501.345 436,505C435.667,509.167 435,514.5 434,519C433.016,523.426 431.667,527.833 430,532C428.339,536.152 426.5,540.333 424,544C421.5,547.667 415,554 415,554C415,554 421.167,568.5 423,574C424.406,578.219 425.631,582.568 426,587C426.5,593 426.5,604.167 426,610C425.648,614.108 424.448,618.139 423,622C421.5,626 418.833,631.167 417,634C415.72,635.979 412,639 412,639C412,639 413.046,641.855 414,643C415.667,645 419.714,648 422,651C424.667,654.5 428,660.167 430,664C431.661,667.183 433,670.833 434,674C434.925,676.931 435.773,679.935 436,683C436.333,687.5 436.667,695.5 436,701C435.377,706.137 433.5,711.667 432,716C430.683,719.806 427,727 427,727C427,727 428.155,730.416 429,732C430.333,734.5 433.196,738.557 435,742C436.833,745.5 438.772,749.164 440,753C441.333,757.167 442.5,762.833 443,767C443.437,770.641 443.333,774.667 443,778C442.694,781.058 441,787 441,787C441,787 445.805,787.141 448,788C451.833,789.5 459.5,793.333 464,796C467.9,798.311 471.5,801.167 475,804C478.486,806.822 482,810.167 485,813C487.742,815.589 490.627,818.069 493,821C495.833,824.5 499.335,829.453 502,834C504.833,838.833 508,845.333 510,850C511.661,853.875 513.167,859.167 514,862C514.48,863.631 514.887,865.304 515,867C515.167,869.5 516.667,875.333 515,877C513.333,878.667 507.169,879.531 505,877C502,873.5 499.667,862 497,856C494.699,850.822 491.833,845.5 489,841C486.336,836.769 482.667,832.333 480,829C477.786,826.233 475.576,823.433 473,821C470,818.167 465.79,814.843 462,812C458,809 453.167,805.667 449,803C445.1,800.504 437,796 437,796C437,796 435.996,799.506 435,801C433.667,803 431.4,806.08 429,808C426.5,810 422.333,811.833 420,813C418.394,813.803 416.771,814.705 415,815C413,815.333 409.333,815.5 408,815C407.013,814.63 406.495,812.925 407,812C408,810.167 411.656,806.657 414,804C416.5,801.167 420,797.833 422,795C423.719,792.564 425,789.333 426,787C426.83,785.062 427.832,783.101 428,781C428.333,776.833 428.667,767 428,762C427.484,758.133 425.614,754.552 424,751C422.333,747.333 419.833,743 418,740C416.505,737.553 414,735.333 413,733C412.072,730.834 411.428,728.287 412,726C413,722 417.5,713 419,709C419.852,706.728 420.814,704.42 421,702C421.333,697.667 421.5,687.833 421,683C420.642,679.538 419.388,676.191 418,673C416.333,669.167 413.5,663.833 411,660C408.668,656.424 405.5,653.167 403,650C400.645,647.017 397,643.333 396,641C395.33,639.438 396.126,637.457 397,636C398.5,633.5 402.833,629.667 405,626C407.167,622.333 409,616.667 410,614C410.483,612.713 412.084,603.523 412.137,602.15C412.303,597.816 411.667,594.167 411,588C410.444,582.855 408.817,577.845 407,573C405,567.667 400.167,560 399,556C398.34,553.737 399.167,551 400,549C400.821,547.03 402.572,545.586 404,544C405.5,542.333 407.606,540.901 409,539C410.833,536.5 413.391,532.539 415,529C416.667,525.333 418.167,519.833 419,517C419.48,515.369 419.943,513.699 420,512C420.167,507 420.667,493.667 420,487C419.485,481.851 417.848,476.833 416,472C413.833,466.333 408.667,457.167 407,453C406.247,451.117 405.302,448.904 406,447C407.833,442 415.667,428.333 418,423C419.102,420.482 419.789,417.741 420,415C420.333,410.667 420.667,402.167 420,397C419.42,392.503 417.667,388.167 416,384C414.339,379.848 412.167,375.667 410,372C407.93,368.497 404.167,365 403,362C402.033,359.515 402.333,356.333 403,354C403.66,351.689 405.579,349.938 407,348C408.833,345.5 412.114,342.3 414,339C416,335.5 418,329.833 419,327C419.566,325.397 419.923,323.698 420,322C420.167,318.333 420.667,310 420,305C419.401,300.506 417.711,296.199 416,292C414.167,287.5 411.333,282 409,278C406.95,274.485 403.333,270.167 402,268C401.448,267.102 401.095,266.05 401,265C400.833,263.167 400.281,259.568 401,257C402.167,252.833 406.5,244.333 408,240C409.005,237.096 409.667,233.833 410,231C410.312,228.352 410.499,225.62 410,223C409.333,219.5 407.833,214 406,210C404.189,206.049 401.333,202 399,199C396.974,196.395 394.524,194.126 392,192C388.833,189.333 382.5,185 380,183C378.896,182.117 377.277,181.387 377,180C376.667,178.333 377.5,175.167 378,173C378.474,170.946 379.809,169.1 380,167C380.333,163.333 380.833,155.667 380,151C379.238,146.734 377,142.5 375,139C373.114,135.7 370.667,132.667 368,130C365.333,127.333 361.667,124.833 359,123C356.785,121.477 352.112,116.315 352,119C351.833,123 356.833,141.5 358,147C358.353,148.663 358.911,150.303 359,152C359.167,155.167 359.5,163.333 359,166C358.779,167.181 357.125,168.422 356,168C354.667,167.5 352.013,165.128 351,163C349.333,159.5 347.285,152.438 346,147C343.833,137.833 340.333,120.5 338,108C335.768,96.041 333.833,80.833 332,72C330.8,66.217 329.165,60.496 327,55C324.833,49.5 321.833,43.5 319,39C316.476,34.991 312.833,30.833 310,28C307.643,25.643 304.833,23.667 302,22C299.17,20.335 295.167,18.833 293,18C291.717,17.507 290.372,17.081 289,17C286.167,16.833 280.167,16.167 276,17C271.833,17.833 263.667,20.167 264,22C264.333,23.833 274,25.667 278,28C281.687,30.151 285,33.167 288,36C290.918,38.756 293.708,41.705 296,45C298.667,48.833 301.846,54.076 304,59C306.333,64.333 308.5,71.333 310,77C311.389,82.246 312.353,87.612 313,93C314,101.333 315.5,119.5 316,127C316.244,130.659 316.167,135.333 316,138C315.894,139.696 315.818,141.764 315.818,141.764C315.818,141.764 320,143.167 322,144C323.97,144.821 326,146.5 327,148C327.943,149.414 328,152 328,153C328,153.471 327.471,153.974 327,154C324,154.167 314.833,153.333 310,154C305.823,154.576 301.5,157.833 298,158C294.841,158.15 291.914,156.227 289,155C285.833,153.667 281.333,151 279,150C277.737,149.459 273.682,148.099 272.308,148.046C267.975,147.879 258.5,150.167 253,149C248.748,148.098 245.167,143.833 242,142C239.42,140.506 236.5,139 234,138C231.747,137.099 229.398,136.369 227,136C222.667,135.333 211.667,135 208,134C206.392,133.561 205.667,131.167 205,130C204.477,129.085 204.044,128.053 204,127C203.833,123 203.5,112.667 204,106C204.48,99.606 206,92.167 207,87C207.783,82.952 210,75 210,75C210,75 204.767,70.214 202,68C198.667,65.333 193.833,61.167 190,59C186.603,57.08 182,55.833 179,55C176.729,54.369 174.352,54.157 172,54C169.5,53.833 166.64,53.623 164,54C160.5,54.5 155.167,55.5 151,57C146.833,58.5 142.167,61.167 139,63C136.518,64.437 134.666,65.998 132.999,67.664C131.625,69.039 129,73 129,73C129,73 125.45,72.886 124,72C121,70.167 114.667,64.167 111,62C108.278,60.391 105.14,59.377 102,59C97.833,58.5 90.833,58.167 86,59C81.425,59.789 76.833,61.667 73,64C69.169,66.332 65.667,70.333 63,73C60.827,75.173 58.817,77.522 57,80C55.167,82.5 53.833,86.833 52,88C50.289,89.089 47.835,87.863 46,87C43.167,85.667 38.667,81.833 35,80C31.51,78.255 27.862,76.552 24,76C19.333,75.333 11.667,75.333 7,76C3.138,76.552 -0.667,78.333 -4,80C-7.225,81.612 -10.333,83.667 -13,86C-15.667,88.333 -18.112,91.001 -20,94C-22.833,98.5 -27.333,109.167 -30,113C-31.373,114.973 -33.636,116.562 -36,117C-40.5,117.833 -51.5,117.167 -57,118C-61.169,118.632 -65.5,120.167 -69,122C-72.367,123.763 -75.232,126.395 -78,129C-80.833,131.667 -83.836,134.619 -86,138C-88.667,142.167 -91.924,148.41 -94,154C-96.167,159.833 -98,167.667 -99,173C-99.801,177.272 -99.667,183.167 -100,186C-100.161,187.365 -99.927,189.141 -101,190C-102.667,191.333 -107.038,192.584 -110,194C-113.833,195.833 -120.5,198.667 -124,201C-126.746,202.83 -129.068,205.325 -131,208C-133.167,211 -135.667,215.833 -137,219C-138.067,221.533 -138.781,224.26 -139,227C-139.333,231.167 -139.667,239 -139,244C-138.401,248.494 -136.833,253 -135,257C-133.189,260.951 -130.167,265 -128,268C-126.201,270.491 -124.4,273.08 -122,275C-118.667,277.667 -112.333,281.5 -108,284C-104.126,286.235 -98.833,287.667 -96,290C-93.573,291.999 -92.594,295.29 -91,298C-89.333,300.833 -87.667,304.667 -86,307C-84.63,308.918 -82.886,310.586 -81,312C-79,313.5 -75.667,315.167 -74,316C-73.057,316.471 -72.052,316.942 -71,317C-68,317.167 -59.833,317.333 -56,317C-53.262,316.762 -50.333,315.333 -48,315C-46.02,314.717 -43.143,312.478 -41.976,313.311C-40.809,314.145 -41.488,318.372 -41,320C-40.5,321.667 -40.062,323.552 -39,325C-37.167,327.5 -32.833,332.5 -30,335C-27.642,337.081 -24.5,338.833 -22,340C-19.801,341.026 -17.41,341.716 -15,342C-12.167,342.333 -8.28,342.596 -5,342C-1.333,341.333 3.667,339.667 7,338C9.981,336.509 12.568,334.28 15,332C17.667,329.5 20.739,326.316 23,323C25.5,319.333 28.333,312.667 30,310C30.75,308.801 31.658,307.447 33,307C34.5,306.5 37.211,306.106 39,307C41.333,308.167 44.127,311.925 47,314C50,316.167 54,318.667 57,320C59.512,321.116 62.255,321.863 65,322C68.333,322.167 73.5,321.833 77,321C80.194,320.24 83.333,318.5 86,317C88.499,315.594 91.049,314.101 93,312C95.167,309.667 97.5,306 99,303C100.414,300.172 101,296 102,294C102.632,292.735 103.667,291.333 105,291C106.333,290.667 108.586,291.057 110,292C111.5,293 112.759,295.263 114,297C115.667,299.333 117.667,303.5 120,306C122.274,308.437 125.667,310.667 128,312C129.83,313.046 131.903,313.779 134,314C137.167,314.333 143.167,314.667 147,314C150.537,313.385 153.965,311.917 157,310C160.167,308 163.474,305.12 166,302C168.833,298.5 171.833,292.167 174,289C175.47,286.851 177.5,283.667 179,283C180.362,282.395 182.469,283.607 183,285C184.333,288.5 185.333,298.833 187,304C188.373,308.256 191.167,313 193,316C194.358,318.221 196.016,320.314 198,322C201.333,324.833 210,330.5 213,333C214.28,334.067 215.521,335.404 216,337C216.5,338.667 216.725,341.136 216,343C214.833,346 210.667,351.333 209,355C207.56,358.168 206.492,361.555 206,365C205.5,368.5 205.505,372.367 206,376C206.5,379.667 207.566,383.48 209,387C210.833,391.5 215,399.333 217,403C218.151,405.11 220.34,406.689 221,409C221.667,411.333 221.833,414.833 221,417C220.167,419.167 217.853,420.544 216,422C213.667,423.833 209.333,426.333 207,428C205.263,429.241 203.389,430.379 202,432C200,434.333 197.002,438.458 195,442C192.833,445.833 190.5,450.833 189,455C187.603,458.879 186.809,462.957 186,467C185.167,471.167 185,476.833 184,480C183.276,482.292 182.018,484.694 180,486C177.167,487.833 170.167,489.333 167,491C164.696,492.213 162.513,493.882 161,496C159.333,498.333 157.833,502.667 157,505C156.428,506.601 156.081,508.302 156,510C155.833,513.5 155.833,520.669 156,526C156.167,531.333 157,539 157,542C157,542.745 156.667,543.667 156,544C154.667,544.667 150.833,544.667 149,546C147.167,547.333 145.893,549.768 145,552C144,554.5 143.5,558 143,561C142.504,563.977 142.833,567.833 142,570C141.323,571.76 139.667,573.333 138,574C136.333,574.667 133.897,574.632 132,574C129,573 123.333,569.333 120,568C117.448,566.979 114.73,566.321 112,566C109.167,565.667 105.952,565.463 103,566C99.333,566.667 94,568.167 90,570C86.049,571.811 82,575 79,577C76.614,578.591 73.833,581.167 72,582C70.786,582.552 68.667,583 68,582C67.333,581 67.368,577.897 68,576C68.667,574 70.833,571.667 72,570C72.956,568.635 75,566 75,566C75,566 70.99,564.696 69,564C65.667,562.833 59,560.167 55,559C51.737,558.048 48.393,557.206 45,557C39.5,556.667 28.167,556.5 22,557C17.243,557.386 12.528,558.491 8,560C3,561.667 -4.581,565.079 -7.914,566.579C-9.273,567.19 -10.804,568.023 -12.286,568.188C-13.786,568.354 -17,568 -17,568C-17,568 -16.056,564.508 -15.39,563.008C-14.723,561.508 -13.167,560.5 -13,559C-12.833,557.5 -14.12,555.565 -15,554C-16.5,551.333 -20.333,545.5 -22,543C-22.925,541.613 -24.5,537.167 -25,536C-25.394,535.081 -24.081,536.394 -25,536C-26.167,535.5 -30.333,534.667 -32,536C-33.667,537.333 -34.196,541.268 -35,544C-35.833,546.833 -36.603,549.953 -37,553C-37.5,556.833 -38.311,562.332 -38,567C-37.667,572 -36.5,578 -35,583C-33.541,587.863 -30.5,594 -29,597C-28.255,598.491 -26.5,602 -26,603C-25.702,603.596 -26.636,603.201 -26,603C-22.833,602 -12.833,597.167 -7,595C-1.762,593.054 4.333,591.167 9,590C12.934,589.016 16.964,588.391 21,588C26.167,587.5 34,586.833 40,587C45.704,587.158 51.5,587.833 57,589C62.466,590.159 67.823,591.897 73,594C78.333,596.167 84.333,599.333 89,602C93.174,604.385 97.333,607.167 101,610C104.549,612.742 107.833,615.833 111,619C114.167,622.167 117.408,625.341 120,629C122.833,633 125.833,638.667 128,643C129.938,646.876 131.67,650.876 133,655C134.667,660.167 136.833,667.833 138,674C139.122,679.932 139.667,686.167 140,692C140.323,697.657 140.435,703.35 140,709C139.5,715.5 138.5,723.833 137,731C135.509,738.126 132.833,746.333 131,752C129.571,756.417 126.833,762.333 126,765C125.702,765.954 125.226,767.367 126,768C127.833,769.5 134,772 137,774C139.557,775.705 142,777.833 144,780C145.945,782.107 148.167,785.5 149,787C149.324,787.583 148.333,789 149,789C150.5,789 154.937,787.255 158,787C162,786.667 168.025,786.502 173,787C178,787.5 183.5,788.667 188,790C192.155,791.231 196.167,793 200,795C203.833,797 207.622,799.265 211,802C214.5,804.833 218.5,809 221,812C223.013,814.416 224.667,817.5 226,820C227.195,822.24 227.667,826.167 229,827C230.333,827.833 232.209,825.124 234,825C238.833,824.667 250.833,824.5 258,825C264.396,825.446 271.5,826.667 277,828C281.816,829.167 286.445,831.048 291,833C295.667,835 301,837.5 305,840C308.62,842.262 312.167,845.333 315,848C317.58,850.429 319.977,853.091 322,856C324.667,859.833 329.167,867.5 331,871C331.978,872.867 335.108,876.95 333,877C290.833,878 123.167,877.333 78,877C72.625,876.96 65.667,875.5 62,875C59.991,874.726 57.5,873.667 56,874C54.619,874.307 54.414,876.984 53,877C8.167,877.5 -167.5,878.667 -213,877C-217.066,876.851 -218.052,870.572 -220,867C-222,863.333 -223.833,858.333 -225,855C-225.908,852.406 -226.811,849.742 -227,847C-227.333,842.167 -227.667,831.5 -227,826C-226.493,821.814 -224.333,817.333 -223,814C-221.893,811.232 -219.333,808.167 -219,806C-218.727,804.226 -220.197,802.606 -221,801C-223.833,795.333 -232,780.833 -236,772C-239.524,764.217 -242.667,755.5 -245,748C-247.138,741.129 -248.833,733.5 -250,727C-251.067,721.058 -251.667,714.167 -252,709C-252.279,704.676 -252.27,700.325 -252,696C-251.667,690.667 -251,683 -250,677C-249.043,671.258 -247.667,665.333 -246,660C-244.394,654.86 -242.333,649.833 -240,645C-237.667,640.167 -235.199,635.319 -232,631C-228.667,626.5 -223.833,621.667 -220,618C-216.576,614.725 -212.942,611.628 -209,609C-204.5,606 -197.5,602.333 -193,600C-189.424,598.146 -185.771,596.414 -182,595C-178,593.5 -172.167,591.833 -169,591C-167.039,590.484 -165.027,590.056 -163,590C-157,589.833 -141.167,589.333 -133,590C-126.549,590.527 -120.217,592.2 -114,594C-107.667,595.833 -100.833,598.333 -95,601C-89.435,603.544 -83.833,606.667 -79,610C-74.327,613.223 -69.5,617.333 -66,621C-62.87,624.28 -59.667,629.833 -58,632C-57.425,632.747 -56,634 -56,634C-56,634 -52.167,627 -50,624C-47.925,621.127 -45.5,618.333 -43,616C-40.563,613.726 -36.167,611.667 -35,610C-34.212,608.874 -35.412,607.242 -36,606C-37.5,602.833 -42,596 -44,591C-45.922,586.195 -47.395,581.139 -48,576C-48.667,570.333 -48.5,562.167 -48,557C-47.603,552.896 -46.333,548.333 -45,545C-43.832,542.08 -41.167,538.833 -40,537C-39.355,535.986 -38,534 -38,534C-38,534 -43.426,533.772 -46,533C-49.333,532 -54.167,530 -58,528C-61.833,526 -65.667,523.5 -69,521C-72.211,518.592 -76,515 -78,513C-79.179,511.821 -81,509 -81,509C-81,509 -86.264,510.739 -89,511C-92.5,511.333 -98,511.5 -102,511C-105.771,510.529 -109.507,509.497 -113,508C-116.5,506.5 -120,504.333 -123,502C-125.977,499.685 -128.685,496.977 -131,494C-133.333,491 -135.434,487.558 -137,484C-138.833,479.833 -140.833,473.5 -142,469C-143.018,465.075 -143.762,461.048 -144,457C-144.333,451.333 -144.667,442 -144,435C-143.355,428.232 -141.833,421.5 -140,415C-138.168,408.504 -135.5,401.833 -133,396C-130.651,390.519 -127.975,385.168 -125,380C-121.833,374.5 -117.5,368 -114,363C-110.865,358.521 -107.47,354.225 -104,350C-100.167,345.333 -94.5,338.833 -91,335C-88.457,332.215 -84.5,328.667 -83,327C-82.501,326.446 -81.473,325.527 -82,325C-82.667,324.333 -85.524,324.022 -87,323C-89.167,321.5 -92.747,318.735 -95,316C-97.333,313.167 -99.667,308.667 -101,306C-101.943,304.114 -102.667,297.667 -103,296C-103.261,294.693 -103,296 -103,296C-103,296 -108.474,295.918 -111,295C-114.667,293.667 -121,290.667 -125,288C-128.731,285.512 -132,282.167 -135,279C-137.936,275.901 -140.78,272.646 -143,269C-145.333,265.167 -147.5,260.167 -149,256C-150.397,252.121 -151.561,248.1 -152,244C-152.5,239.333 -152.5,232.833 -152,228C-151.542,223.576 -150.5,219.167 -149,215C-147.5,210.833 -145.5,206.667 -143,203C-140.5,199.333 -137.167,195.833 -134,193C-130.968,190.287 -126.833,187.667 -124,186C-121.812,184.713 -119.453,183.654 -117,183C-114.5,182.333 -110.167,182.5 -109,182C-108.315,181.706 -109,182 -109,182C-109,182 -110.42,172.642 -110,169C-109.5,164.667 -108.333,158.667 -107,154C-105.725,149.536 -103.833,145 -102,141C-100.26,137.203 -98.428,133.399 -96,130C-93.5,126.5 -89.833,122.833 -87,120C-84.494,117.494 -82.013,114.865 -79,113C-75.5,110.833 -69.333,108.333 -66,107C-63.747,106.099 -61.42,105.179 -59,105C-54.5,104.667 -39,105 -39,105C-39,105 -37.414,98.828 -36,96C-34.333,92.667 -31.167,88 -29,85C-27.201,82.509 -23.833,80.167 -23,78C-22.272,76.108 -23.935,74.027 -24,72C-24.167,66.833 -24.5,53.833 -24,47C-23.604,41.588 -22.333,36 -21,31C-19.723,26.212 -18.167,21.167 -16,17C-13.908,12.978 -10.667,8.833 -8,6C-5.715,3.573 -3.305,0.431 0,0Z" style="fill:rgb(4,4,4);fill-rule:nonzero;"/>
    </g>
    <g transform="matrix(1,0,0,1,317,598)">
        <path d="M0,0C7,-0.667 15.833,-0.5 22,0C27.082,0.412 32.147,1.435 37,3C42.167,4.667 48.5,7.833 53,10C56.763,11.812 60.502,13.718 64,16C67.833,18.5 72.5,22 76,25C79.221,27.761 82.385,30.659 85,34C88,37.833 91.5,43.167 94,48C96.474,52.783 98.394,57.86 100,63C101.667,68.333 103.167,76 104,80C104.481,82.307 104.936,84.644 105,87C105.167,93.167 105.667,108.667 105,117C104.458,123.777 102.789,130.441 101,137C99,144.333 93,161 93,161L90,167L78,167L67,169L57,160C57,160 47.333,153.5 43,151C39.126,148.765 35.174,146.605 31,145C26.667,143.333 21.667,141.667 17,141C12.38,140.34 6.667,140.167 3,141C-0.066,141.697 -3.167,144.167 -5,146C-6.581,147.581 -7.333,150.167 -8,152C-8.581,153.597 -8.923,155.302 -9,157C-9.167,160.667 -9,174 -9,174C-9,174 -15.036,176.589 -18,178C-21.5,179.667 -27.333,182.167 -30,184C-31.759,185.209 -33,187.333 -34,189C-34.924,190.539 -35.862,192.21 -36,194C-36.167,196.167 -36.043,199.523 -35,202C-33.667,205.167 -30.807,209.682 -28,213C-24.333,217.333 -17.667,224 -13,228C-8.998,231.43 0,237 0,237L12,243L10,249L10,258L13,264L21,271L17,278L16,279L-138,279L-136,269L-125,263C-125,263 -112.667,254.5 -108,251C-104.21,248.157 -100,245 -97,242C-94.313,239.313 -91.667,235.667 -90,233C-88.655,230.847 -87.498,228.489 -87,226C-86.5,223.5 -86.5,220.333 -87,218C-87.469,215.814 -88.556,213.707 -90,212C-91.833,209.833 -95.167,206.833 -98,205C-100.756,203.217 -103.915,202.122 -107,201C-110.667,199.667 -120,197 -120,197C-120,197 -119.333,180.833 -120,176C-120.407,173.047 -122.167,170 -124,168C-125.816,166.019 -129.333,164.833 -131,164C-131.943,163.529 -132.949,163.075 -134,163C-136.333,162.833 -141.383,162.397 -145,163C-149,163.667 -153.801,165.289 -158,167C-162.5,168.833 -167.667,171.333 -172,174C-176.258,176.62 -184,183 -184,183L-190,188C-190,188 -193.066,184.903 -195,184C-197.5,182.833 -201.833,181.333 -205,181C-208.002,180.684 -211.092,181.192 -214,182C-217,182.833 -220.199,184.288 -223,186C-226,187.833 -230.167,191.333 -232,193C-232.889,193.808 -234,196 -234,196L-237,195L-250,170C-250,170 -255.833,155.5 -258,149C-259.969,143.092 -261.833,136 -263,131C-263.921,127.051 -264.807,123.051 -265,119C-265.333,112 -265.5,96.833 -265,89C-264.633,83.257 -263.333,77.333 -262,72C-260.722,66.887 -259,61.833 -257,57C-255.005,52.179 -252.5,47 -250,43C-247.738,39.38 -244.667,36 -242,33C-239.495,30.181 -236.97,27.324 -234,25C-230.167,22 -224.246,17.931 -219,15C-213.333,11.833 -205,8 -200,6C-196.471,4.588 -192,3.667 -189,3C-186.699,2.489 -184.356,2.081 -182,2C-177.167,1.833 -167,1.333 -160,2C-153.232,2.645 -146,4.333 -140,6C-134.512,7.525 -128.667,10 -124,12C-119.889,13.762 -115.792,15.63 -112,18C-108,20.5 -103.333,24.167 -100,27C-97.127,29.442 -94.324,32.03 -92,35C-89,38.833 -78.866,52.568 -78.866,52.568C-78.866,52.568 -71.6,39.022 -68.767,35.356C-66.025,31.807 -64.167,29 -61,26C-57.901,23.064 -54.333,20.333 -51,18C-47.815,15.771 -44.543,13.6 -41,12C-35.833,9.667 -26.833,6 -20,4C-13.475,2.09 -6.768,0.645 0,0Z" style="fill:rgb(226,18,0);fill-rule:nonzero;"/>
    </g>
    <g transform="matrix(1,0,0,1,469,305)">
        <path d="M0,0C0,0 1.578,1.157 2,2C3.167,4.333 4.833,10.333 7,14C9.167,17.667 11.905,21.06 15,24C18.333,27.167 24.667,31.333 27,33C27.607,33.433 28.854,33.269 29,34C29.167,34.833 28.551,36.741 28,38C26.833,40.667 23.333,46.5 22,50C20.906,52.872 20.266,55.938 20,59C19.667,62.833 19.5,68.667 20,73C20.473,77.096 21.492,81.162 23,85C24.833,89.667 29,97.167 31,101C32.243,103.383 36.318,105.658 35,108C33.5,110.667 25.333,114.333 22,117C19.423,119.061 16.98,121.36 15,124C12.5,127.333 9.167,132.5 7,137C4.85,141.465 3.277,146.212 2,151C0.667,156 -0.167,163.333 -1,167C-1.467,169.056 -1.329,171.715 -3,173C-5.167,174.667 -11,175.5 -14,177C-16.565,178.282 -19.122,179.833 -21,182C-23.167,184.5 -25.5,188.667 -27,192C-28.428,195.174 -29.665,198.536 -30,202C-30.5,207.167 -30.167,218 -30,223C-29.899,226.017 -29,232 -29,232C-29,232 -35,235.833 -37,238C-38.823,239.975 -40.071,242.478 -41,245C-42.167,248.167 -44,257 -44,257C-44,257 -53.833,253 -57,252C-58.933,251.389 -60.976,251.112 -63,251C-66,250.833 -71.031,250.504 -75,251C-79,251.5 -83.833,253 -87,254C-89.421,254.764 -94,257 -94,257C-94,257 -99.115,252.67 -102,251C-105.167,249.167 -109.179,247.274 -113,246C-117.5,244.5 -123.525,242.498 -129,242C-136.333,241.333 -149.5,241.333 -157,242C-162.799,242.515 -170,244.833 -174,246C-176.437,246.711 -181,249 -181,249C-181,249 -186.333,238 -188,235C-188.809,233.543 -189.667,230.833 -190,230C-190.175,229.562 -190.459,230.108 -190,230C-187.167,229.333 -179.179,228.619 -174,227C-168.667,225.333 -162.833,222.667 -158,220C-153.385,217.454 -148.333,213.667 -145,211C-142.423,208.939 -139.833,206.167 -138,204C-136.447,202.165 -134.667,199.833 -134,198C-133.43,196.434 -133.333,191.885 -134.312,191.047C-134.669,190.74 -133.268,191.089 -134.312,191.047C-135.324,191.006 -138.658,191.011 -140,192C-143.167,194.333 -149.833,202.5 -154,206C-157.328,208.795 -161.113,211.056 -165,213C-169,215 -174.333,216.833 -178,218C-180.929,218.932 -183.933,219.808 -187,220C-192.333,220.333 -203.833,220.667 -210,220C-214.825,219.478 -219.667,217.667 -224,216C-228.174,214.395 -232.333,212.5 -236,210C-239.667,207.5 -243.167,204 -246,201C-248.61,198.237 -251.114,195.3 -253,192C-255,188.5 -256.833,183.667 -258,180C-259.031,176.761 -259.833,172.5 -260,170C-260.113,168.304 -259,165 -259,165L-253,160C-253,160 -241.333,153.5 -238,151C-235.917,149.438 -233.833,147.333 -233,145C-232.167,142.667 -232.167,139 -233,137C-233.821,135.03 -235.975,133.675 -238,133C-240.5,132.167 -244.667,131.667 -248,132C-251.333,132.333 -258,135 -258,135C-258,135 -260.833,128.833 -262,127C-262.759,125.807 -264.012,124.046 -265.318,123.409C-266.931,122.621 -268.906,121.893 -270.74,121.893C-272.114,121.893 -274.926,122.292 -275.689,123.435C-276.689,124.935 -277.856,129.255 -278,132C-278.167,135.167 -277.929,139.437 -277,143C-276,146.833 -272,155 -272,155L-268,161L-266,163C-266,163 -266.667,175.667 -266,181C-265.398,185.816 -262.5,192.5 -262,195C-261.908,195.462 -262.53,195.961 -263,196C-265,196.167 -270.364,196.474 -274,196C-277.833,195.5 -282.5,194.5 -286,193C-289.314,191.58 -292.5,189.333 -295,187C-297.437,184.726 -299.333,181.667 -301,179C-302.58,176.472 -304.021,173.816 -305,171C-306.333,167.167 -308.167,159.5 -309,156C-309.47,154.028 -309.912,152.026 -310,150C-310.167,146.167 -310.609,138.634 -310,133C-309.333,126.833 -307.667,119.167 -306,113C-304.432,107.199 -302.333,101.5 -300,96C-297.671,90.511 -294.975,85.168 -292,80C-288.833,74.5 -284.5,68 -281,63C-277.865,58.521 -274.167,54 -271,50C-268.059,46.286 -264.941,42.714 -262,39C-258.833,35 -253.833,28.5 -252,26C-251.559,25.399 -251.736,24.116 -251,24C-247.833,23.5 -237.5,23.5 -233,23C-229.946,22.661 -224,21 -224,21C-224,21 -219.833,28.5 -218,31C-216.606,32.901 -214.799,34.477 -213,36C-210.833,37.833 -207.914,40.381 -205,42C-202,43.667 -198.554,45.492 -195,46C-190.333,46.667 -181.833,46.667 -177,46C-173.135,45.467 -169.5,43.667 -166,42C-162.5,40.333 -159,38.333 -156,36C-153.023,33.685 -150.306,30.984 -148,28C-145.167,24.333 -139,14 -139,14C-139,14 -133.858,18.285 -131,20C-127.667,22 -123.318,24.837 -119,26C-114.667,27.167 -109.167,27.167 -105,27C-101.276,26.851 -97.506,26.262 -94,25C-89.833,23.5 -83.833,20.833 -80,18C-76.394,15.334 -73.167,10.333 -71,8C-69.717,6.618 -67,4 -67,4C-67,4 -62.09,9.837 -59,12C-55.667,14.333 -49.5,16.833 -47,18C-46.045,18.446 -45.053,18.947 -44,19C-40.667,19.167 -31.667,19.667 -27,19C-23.138,18.448 -19.333,16.833 -16,15C-12.67,13.168 -9.667,10.5 -7,8C-4.415,5.577 0,0 0,0Z" style="fill:rgb(235,209,180);fill-rule:nonzero;"/>
    </g>
    <g transform="matrix(1,0,0,1,396,774)">
        <path d="M0,0L12,1L24,6L30,10L37,17L41,22L44,23L70,24L86,28L98,34L108,43L119,55L122,59L125,60L125,58L145,60L169,64L184,69L199,77L209,86L220,102L220,103L8,103L3,97L-1,95L-32,92L-49,88L-56,84L-60,79L-59,73L-55,69L-50,67L-42,65L-41,59L-43,50L-42,42L-37,36L-31,33L-20,32L-16,29L-15,13L-11,5L-7,2L0,0Z" style="fill:rgb(220,226,226);fill-rule:nonzero;"/>
    </g>
    <g transform="matrix(1,0,0,1,543,32)">
        <path d="M0,0C2.333,-0.833 6.058,-0.588 9,0C12.333,0.667 16.575,2.132 20,4C23.667,6 27.833,9 31,12C34.099,14.936 36.763,18.364 39,22C41.667,26.333 44.87,32.43 47,38C49.167,43.667 50.852,49.879 52,56C53.5,64 55,76.833 56,86C56.907,94.311 58,111 58,111C58,111 52.167,115.333 50,116C48.375,116.5 46.52,115.76 45,115C43,114 40.565,111.282 38,110C35.333,108.667 29.43,105.944 26.281,105.649C20.948,105.149 6,107 6,107C6,107 -1.5,101 -5,99C-8.117,97.219 -11.768,95.464 -14.133,94.725C-16.868,93.869 -21.359,93.215 -22.732,93.156C-26.565,92.989 -38,94 -38,94C-38,94 -36.392,79.269 -35,72C-33.5,64.167 -31,53.667 -29,47C-27.453,41.842 -25.346,36.848 -23,32C-20.5,26.833 -17,20.5 -14,16C-11.372,12.058 -7.333,7.667 -5,5C-3.448,3.226 -2.22,0.793 0,0Z" style="fill:rgb(234,125,115);fill-rule:nonzero;"/>
    </g>
    <g transform="matrix(1,0,0,1,106,788)">
        <path d="M0,0C2,-0.167 6.5,-0.667 9,0C11.323,0.619 13.5,2.333 15,4C16.496,5.662 17.617,7.797 18,10C18.667,13.833 19,27 19,27C19,27 30.833,25.667 35,26C38.152,26.252 41.667,27.5 44,29C46.19,30.408 48,33.5 49,35C49.585,35.877 49.925,36.949 50,38C50.167,40.333 50.167,45.833 50,49C49.859,51.684 49,57 49,57C54.204,60.695 57.333,63.5 60,66C61.899,67.781 63.833,70 65,72C66.062,73.821 66.86,75.896 67,78C67.167,80.5 66.333,85.167 66,87C65.867,87.733 65.745,88.982 65,89C51.5,89.333 -0.5,90.667 -15,89C-19.042,88.535 -19.998,82.542 -22,79C-24.167,75.167 -26.667,69.333 -28,66C-28.901,63.747 -29.686,61.406 -30,59C-30.5,55.167 -31.167,47.667 -31,43C-30.855,38.947 -30.326,34.832 -29,31C-27.5,26.667 -24.97,21.29 -22,17C-19,12.667 -14.167,7.667 -11,5C-8.719,3.08 -4.833,1.833 -3,1C-2.04,0.564 -1.05,0.088 0,0Z" style="fill:rgb(220,225,225);fill-rule:nonzero;"/>
    </g>
    <g transform="matrix(1,0,0,1,322,747)">
        <path d="M0,0C2.5,-0.333 8.067,-0.728 12,0C16.5,0.833 22.333,3 27,5C31.524,6.939 35.818,9.405 40,12C44.833,15 56,23 56,23L55,27C55,27 51.707,31.407 51,34C50,37.667 49,49 49,49C49,49 40.5,50.5 37,52C33.686,53.42 30.167,56 28,58C26.234,59.63 24.833,62.5 24,64C23.488,64.921 23.05,65.947 23,67C22.833,70.5 23,85 23,85L13,89L7,87C7,87 -1.167,81.833 -5,79C-8.81,76.184 -12.501,73.194 -16,70C-19.833,66.5 -25.333,61 -28,58C-29.597,56.203 -31.167,54 -32,52C-32.78,50.128 -33.641,47.924 -33,46C-32.333,44 -30.26,41.292 -28,40C-24.5,38 -15.5,35.667 -12,34C-10.073,33.082 -7,30 -7,30C-7,30 -6.5,14.333 -6,10C-5.674,7.171 -4,3.667 -3,2C-2.382,0.969 -1.191,0.159 0,0Z" style="fill:rgb(77,73,72);fill-rule:nonzero;"/>
    </g>
    <g transform="matrix(1,0,0,1,174,768)">
        <path d="M0,0C2.62,-0.499 5.833,-0.5 8,0C9.894,0.437 11.709,1.547 13,3C14.333,4.5 15.561,6.807 16,9C16.5,11.5 16.143,15.003 16,18C15.833,21.5 15.652,29.159 15.652,29.159L15.514,33.242C22.049,34.575 31.667,37.333 36,39C39.203,40.232 43,42.5 45,44C46.333,45 47.333,46.667 48,48C48.615,49.229 49.124,50.631 49,52C48.833,53.833 48.23,56.908 47,59C45.333,61.833 39,69 39,69L25,80L9,91L6,92C6,92 2.5,84.833 0,82C-2.5,79.167 -7.167,76.333 -9,75C-9.603,74.562 -11,74 -11,74C-11,74 -10.131,69.353 -10,67C-9.833,64 -9.167,59.5 -10,56C-10.833,52.5 -13.167,48.5 -15,46C-16.54,43.901 -18.671,42.164 -21,41C-23.667,39.667 -27.667,38.667 -31,38C-34.285,37.343 -41,37 -41,37L-43,23C-43,23 -33,15.167 -28,12C-23.213,8.968 -17.667,6 -13,4C-8.833,2.214 -3.5,0.667 0,0Z" style="fill:rgb(77,73,72);fill-rule:nonzero;"/>
    </g>
    <g transform="matrix(1,0,0,1,401,347)">
        <path d="M0,0C2.333,-0.333 5.446,-0.766 8,0C11.333,1 16.833,3.667 20,6C22.853,8.102 25.167,11.167 27,14C28.783,16.756 30.098,19.843 31,23C32,26.5 32.7,30.956 33,35C33.333,39.5 33.498,45.025 33,50C32.5,55 31.333,61 30,65C28.915,68.256 27,71.333 25,74C23.02,76.64 20.667,79.167 18,81C15.333,82.833 12.225,84.386 9,85C5.5,85.667 0.333,85.667 -3,85C-5.924,84.415 -8.686,82.88 -11,81C-13.667,78.833 -16.833,75.333 -19,72C-21.167,68.667 -22.833,64.167 -24,61C-24.95,58.421 -25.817,55.743 -26,53C-26.333,48 -26.667,36.833 -26,31C-25.485,26.495 -23.833,21.833 -22,18C-20.244,14.329 -17.667,10.667 -15,8C-12.45,5.45 -8.5,3.333 -6,2C-4.14,1.008 -2.087,0.298 0,0Z" style="fill:rgb(2,2,2);fill-rule:nonzero;"/>
    </g>
    <g transform="matrix(1,0,0,1,302,6)">
        <path d="M0,0L3,0C3,0 2.64,5.358 3,8C3.5,11.667 4.667,17.667 6,22C7.274,26.142 9,30.167 11,34C13,37.833 15.321,41.577 18,45C21,48.833 25.167,53.5 29,57C32.692,60.371 41,66 41,66L40,69C40,69 32.833,63.833 29,62C25.196,60.181 21.134,58.827 17,58C12.833,57.167 8.167,56.833 4,57C-0.052,57.162 -4.107,57.865 -8,59C-12,60.167 -17,62.667 -20,64C-22.043,64.908 -26,67 -26,67C-26,67 -26.427,56.982 -26,52C-25.5,46.167 -24.333,37.833 -23,32C-21.826,26.862 -19.833,21 -18,17C-16.498,13.722 -14.167,10.5 -12,8C-9.987,5.678 -7,3.333 -5,2C-3.506,1.004 0,0 0,0Z" style="fill:rgb(234,124,113);fill-rule:nonzero;"/>
    </g>
    <g transform="matrix(1,0,0,1,311,5)">
        <path d="M0,0C0,0 6.088,0.206 9,1C12.667,2 17.949,3.732 22,6C26.167,8.333 30.246,11.697 34,15C38.167,18.667 43.333,24 47,28C50.201,31.492 54,36.333 56,39C57.166,40.555 59,44 59,44C59,44 51.399,47.572 48,50C44.5,52.5 38,59 38,59L34,60C34,60 23,50.5 19,46C15.498,42.061 12.333,36.833 10,33C8.062,29.817 6.358,26.471 5,23C3.5,19.167 1.833,13.833 1,10C0.288,6.726 0,0 0,0Z" style="fill:rgb(220,225,225);fill-rule:nonzero;"/>
    </g>
    <g transform="matrix(1,0,0,1,198,432)">
        <path d="M0,0C1.167,0 3.84,0.63 5,2C6.833,4.167 11,13 11,13C11,13 14.375,12.5 16,12C18.167,11.333 21.167,9.167 24,9C26.833,8.833 31.333,9.833 33,11C34.392,11.975 34.488,14.372 34,16C33.5,17.667 31.737,19.759 30,21C26.5,23.5 13,31 13,31L8,35C8,35 2.811,27.951 1,24C-0.833,20 -2.5,14.667 -3,11C-3.408,8.009 -2.5,3.833 -2,2C-1.752,1.09 -0.943,0 0,0Z" style="fill:rgb(234,123,113);fill-rule:nonzero;"/>
    </g>
    <g transform="matrix(1,0,0,1,401,398)">
        <path d="M0,0C2,-0.5 5.828,-0.8 8.161,0.033C10.494,0.866 12.289,3.097 13.456,4.264C13.983,4.791 14.918,6.259 15,7C15.167,8.5 15.833,11.833 15,14C14.167,16.167 12.611,18.966 11.1,19.627C9.564,20.299 7.808,21.015 7.062,21.015C5.062,21.015 1.174,21.177 -1.159,20.344C-2.935,19.709 -5.275,17.741 -6,16C-6.833,14 -7.011,10.47 -6.678,8.303C-6.382,6.382 -5.167,4.333 -4,3C-2.902,1.746 -1.617,0.404 0,0Z" style="fill:rgb(252,252,252);fill-rule:nonzero;"/>
    </g>
    <g transform="matrix(1,0,0,1,388,376)">
        <path d="M2.236,-0.581C3.903,-0.915 5.219,0.059 6.719,0.726C7.817,1.214 8.739,2.827 9,4C9.333,5.5 9.5,8.5 9,10C8.553,11.342 7.324,12.503 6,13C4.667,13.5 2.5,13.667 1,13C-0.5,12.333 -2.333,10.667 -3,9C-3.667,7.333 -3.5,4.5 -3,3C-2.553,1.658 0.849,-0.304 2.236,-0.581Z" style="fill:rgb(251,251,251);fill-rule:nonzero;"/>
    </g>
</svg>
