<?xml version="1.0" encoding="UTF-8" standalone="no"?>
<!DOCTYPE svg PUBLIC "-//W3C//DTD SVG 1.1//EN" "http://www.w3.org/Graphics/SVG/1.1/DTD/svg11.dtd">
<svg width="100%" height="100%" viewBox="0 0 940 877" version="1.1" xmlns="http://www.w3.org/2000/svg" xmlns:xlink="http://www.w3.org/1999/xlink" xml:space="preserve" xmlns:serif="http://www.serif.com/" style="fill-rule:evenodd;clip-rule:evenodd;stroke-linejoin:round;stroke-miterlimit:2;">
    <path d="M302,6C302.94,5.658 304.649,5.064 305,6C305.5,7.333 304.721,11.348 305,14C305.333,17.167 305.904,21.438 307,25C308.333,29.333 310.466,35.248 313,40C315.667,45 320,51.167 323,55C325.324,57.97 328.115,60.571 331,63C334.167,65.667 342,71 342,71L341.314,72.849L340,74C340,74 336.124,71.125 334,70C331.167,68.5 326.867,66.128 323,65C319,63.833 314.167,63.167 310,63C305.989,62.84 301.167,63.5 298,64C295.603,64.378 293.246,65.081 291,66C287.333,67.5 278.5,74.5 276,73C273.5,71.5 275.833,61 276,57C276.112,54.315 276.492,51.639 277,49C277.833,44.667 279.5,36 281,31C282.245,26.849 283.833,22.5 286,19C288.113,15.587 291.333,12.167 294,10C296.314,8.12 300.167,6.667 302,6Z" style="fill:rgb(250,155,158);"/>
    <path d="M542,32C544.834,30.245 548.726,31.376 552,32C555.5,32.667 559.544,34.19 563,36C566.5,37.833 570.046,40.202 573,43C576.167,46 579.5,50.333 582,54C584.353,57.451 586.403,61.141 588,65C590,69.833 592.567,76.84 594,83C595.667,90.167 597.038,99.616 598,108C599.167,118.167 601.667,137.5 601,144C600.741,146.525 595.833,146.333 594,147C592.708,147.47 591.304,148.435 590,148C588,147.333 584.813,144.406 582,143C579,141.5 575.564,139.432 572,139C566.5,138.333 553.167,139.333 549,139C548.06,138.925 547.775,137.537 547,137C544.833,135.5 539.951,131.811 536,130C532,128.167 527.497,126.58 523,126C517.833,125.333 508,126.333 505,126C504.337,125.926 504.897,124.659 505,124C505.833,118.667 508.333,102 510,94C511.27,87.904 513,81.667 515,76C516.937,70.51 519.333,65.167 522,60C524.667,54.833 527.667,49.667 531,45C534.299,40.381 538.5,34.167 542,32Z" style="fill:rgb(250,155,158);"/>
    <path d="M196.99,430.258L203.744,432.857L208.743,442.63L211.312,443.921L216.588,441.566L223.977,440.306L231.676,441.629L233.541,447.148L231.402,452.207L216.8,460.784L206.433,468.641L200.637,462.446L195.596,450.364L193.683,438.843L196.99,430.258Z" style="fill:rgb(250,155,158);"/>
    <path d="M468.312,304.547L469.816,303.432L472,310L477,320L482,326L487,331L499,340L493,351L489,364L489,377L492,390L498,402L504,413L492,421L482,432L476,443L471,456L468,473L466,478L454,483L447,489L442,497L439,508L439,527L441,537L435,540L430,546L426.1,564.99L418,559L406,556L395,556L385,558L375.6,566.175L370,558L356,551L339,547L312.62,550.862L303.172,551.772L286.68,559.051L285,547L276.585,538.559L276.383,534.432L289.75,530.649L305,528L319,520L329,511L335,502L334,497L329,497L325.917,505.499L317.323,513.883L306.93,520.166L290.697,525.269L274.108,528.804L260.352,527.785L244.08,524.461L230.131,516.676L219.785,506.945L213.116,495.76L209.173,483.259L207.534,471.331L212.094,465.458L231,456L236,450L236,442L231,438L221,437L211,440L209,435L204,429L197,428L193,431L191,438L194.232,450.159L199.086,460.18L204.496,467.251L204.957,472.753L204.852,485.362L205.821,489.966L208.667,499.834C211.779,500.914 203.465,503.586 197.189,505.077L184.807,501.25L174.717,495.903L166.099,488.603L161.584,474.396L156.743,456.942L154.948,440.561L157.439,423.914L164.138,404.043L172.272,388.652L184.304,369.911L195.668,353.283L208.823,339.151L218,329L236,328L245,326L248,332L256,341L264,347L275,351L291,351L299,349L313,341L323,330L328.328,316.358L331.029,317.37L338,325L348,330L359,332L375,330L384,326L392,320L397.492,310.483L401.988,305.212L408.253,313.139L415,320L426,324L442,324L451,321L460,315L468.312,304.547Z" style="fill:rgb(250,216,155);"/>
    <path d="M310,5L321,6L331,10L342,17L355,30L368,45L370,49L366,51L355,58L348,66L346,66L340,61L329,50L320,37L314,23L310,5Z" style="fill:rgb(249,248,248);"/>
    <g transform="matrix(1.01068,0,0,1.00066,-8.52157,-0.578729)">
        <path d="M798,877L280.328,878.226C271.742,883.26 253.062,881.762 239.148,876.014L242,857L245,846L253,830L262,817L265,817L269,816L270,790L271,780L274,765L281,746L283,740L278,720L278,707L281,694L284,682L286,682L286,677L283,672L275,655L271,640L271,616L273,616L274,612L270,606L263,595L258,583L255,569L255,560L256,552L262.577,536.07L265.406,531.213L273.634,532.59L278.978,535.759L284.376,543.762L287.123,551.689L290.19,557.297L287.732,561.873L287.256,566.53L298,561L312.732,552.893L336.04,552.687L352.421,554.997L372.296,562.803L373.906,569.666L369.181,574.195L368.282,579.91L374.783,574.892L381.798,569.82L388.191,565.119L395.894,563.017L402.403,561.855L409.905,562.006L425.19,566.967L431,574L433,573L435,569L436,560L438,552L442,546L449,544L450,541L449,527L449,509L452,499L458,492L473,486L477,480L480,462L485,447L491,437L498,429L509,422L514,417L514,410L511,405L503,390L499,377L499,365L501,357L509,343L509,337L508,335L503,331L491,322L484,313L479,301L478.489,292.206L477.103,285.962L473.299,292.297L467.536,303.585L458.47,311.804L445.084,318.759L426.91,317.366L421,312L413,306L407.536,298.673L403.478,295.85L400.042,302.738L396.263,309.561L391.462,315.295L384.024,322.169L375.773,324.437L357.969,325.853L347,319L340,314L334.486,311.132L329.223,317.602L325.022,324.058L318.341,332.869L307.512,342.219L291.863,348.373L276.344,345.796L271,340L261,334L252,322L245.334,322.281L234.659,324.244L221.515,321.358L215.255,317.422L208,309L202,298L197,290L185,284L172,276L164,267L158,257L154,245L154,226L158,214L164,205L170,200L180,195L188.928,190.385L194.011,183.696L194,173L199,154L205,141L212,131L219,125L231,119L238.819,114.213L252.136,113.412L262,114L268,102L274,92L280.741,83.967L291.791,75.35L301.104,72.246C308.526,71.281 312.96,65.356 320.08,70.424L328.041,73.693L340.088,80.39L348.167,86.362L345.578,79.638L352.482,70.466L359.6,66.009L365.598,61.187L377.786,55.8L394.154,53.226L403.225,56.2L413.995,60.741L419.75,66.529L423.209,70.749L428.465,64.757L432.623,60.797L441.782,54.739L457.144,48.23L467.885,50.19L478.833,51.305L488.835,55.574L498.613,64.723L509.813,73.02L506.822,91.601L502.447,110.337L503.353,124.863L504.064,128.876L505.938,133.865L524,133.452L535.296,137.545L549.146,146.755L569.445,145.748L576.251,146.952L587.118,153.343L593.199,155.459L602.843,151.253L616.318,150.789L621,153L620,148L612.819,146.022L607.191,144.186L609,135L608,114L605,88L601,70L596,57L589,45L581,36L569,27L558,23L558,21L565.145,15.034L580.216,11.406L588.147,13.277L599.712,18.062L609.048,25.645L618.809,38.16L626.719,55.195L631.58,72.607L637.069,109.959L643.707,147.554L647.355,160.886L652,165L652,153L650,143L643.833,116.27L657.022,119.788L666.233,126.661L674.78,137.81L676.983,147.284L678.767,159.948L678.816,172.905L675.105,178.304L678.615,181.517L686.649,186.512L696.861,196.371L704.689,209.455L707.149,222.097L708.395,230.988L706.342,244.072L699.528,258.79L700.769,265.018L702.405,267.931L706.722,275.797L713.072,288.563L717.948,304.236L718.514,324.874L716.311,330.724L714.278,340.925L708.904,348.529L702.178,357.588L701.546,364.776L712.808,378.824L719.009,395.549L717.567,420.514L713.963,434.18L706.794,446.97L708.088,454.408L712.326,465.816L717.633,483.464L720.999,500.03L718.703,518.773L713.71,533.189L707.331,544.049L700.011,551.338L697.739,557.092L706.468,575.469L708.853,586.059L710.86,608.143L710.448,614.335L705.711,626.49L698.173,636.112L695.397,640.301L699.169,643.593L706.363,652.777L714.049,664.135L718.588,679.136L720.005,700.482L718.403,711.096L715.648,722.898L711.884,730.268L715.138,736.594L720.443,746.193L724.469,756.364L726.48,768.876L724.96,782.732L719.703,794.506L711.865,804.673L705.308,810.42L704.072,814.042L709.422,813.262L715.341,809.638L723,807L728,801L730,796L734.37,793.474L751.752,801.891L765.002,813.842L773.909,824.623L783.385,832.641L792.832,853.854L798,877Z" style="fill:rgb(249,248,248);"/>
    </g>
    <g transform="matrix(1,0,0,1,293,0)">
        <path d="M0,0C7.667,-1 29.833,-1 38,0C42.146,0.508 45.549,3.647 49,6C52.667,8.5 56.667,12 60,15C63.154,17.838 66.162,20.846 69,24C72,27.333 75.333,31.667 78,35C80.374,37.968 83.833,42.167 85,44C85.358,44.562 87.323,45.67 87.985,45.744C90.985,46.077 98.333,45.5 103,46C106.46,46.371 109.833,47.667 113,49C116.163,50.332 119.833,52.5 122,54C123.55,55.073 124.833,57.167 126,58C126.858,58.613 125.167,58.5 126,58C126.833,57.5 129.732,55.128 130.83,54.121C132.83,52.287 137.428,49.948 141,48C144.667,46 149,44.167 153,43C156.893,41.865 160.948,41.15 165,41C169.5,40.833 175.333,41.167 180,42C184.463,42.797 189,44.167 193,46C196.951,47.811 200.667,50.5 204,53C207.211,55.408 211.333,59.333 213,61C213.527,61.527 213,61 213,61C213,61 220.833,50 224,45C226.675,40.776 229.799,36.841 233,33C236.333,29 240.167,24.5 244,21C247.692,17.629 252,14.5 256,12C259.792,9.63 264.5,7.333 268,6C270.872,4.906 273.941,4.291 277,4C280.5,3.667 285.167,3.5 289,4C292.769,4.492 296.5,5.667 300,7C303.483,8.327 306.947,9.863 310,12C313.333,14.333 317,18 320,21C322.838,23.838 325.667,26.734 328,30C330.5,33.5 332.991,37.828 335,42C337.167,46.5 339.465,51.838 341,57C342.833,63.167 344.614,71.608 346,79C347.5,87 349.333,99.833 350,105C350.213,106.653 350,110 350,110C350,110 354.777,110.216 357,111C359.833,112 363.875,113.969 367,116C370.333,118.167 374.064,120.901 377,124C380,127.167 382.833,131.167 385,135C387.132,138.772 389,144.167 390,147C390.566,148.603 390.906,150.303 391,152C391.167,155 391.333,161.333 391,165C390.722,168.061 389,174 389,174C389,174 393.212,174.883 395,176C397.667,177.667 402,181.333 405,184C407.819,186.505 410.714,189 413,192C415.667,195.5 419,200.833 421,205C422.825,208.801 424.167,213 425,217C425.819,220.929 426.297,224.997 426,229C425.667,233.5 424.333,239.5 423,244C421.769,248.155 419.167,253 418,256C417.236,257.965 415.371,259.988 416,262C416.833,264.667 420.967,268.476 423,272C425.5,276.333 429.167,283.833 431,288C432.274,290.894 433.268,293.924 434,297C434.833,300.5 435.667,305.5 436,309C436.284,311.986 436.372,315.023 436,318C435.5,322 434.333,328.5 433,333C431.769,337.155 430.132,341.228 428,345C425.833,348.833 421.5,353.667 420,356C419.43,356.887 418.577,358.034 419,359C420.167,361.667 424.667,367.5 427,372C429.333,376.5 431.541,381.137 433,386C434.5,391 435.667,396.833 436,402C436.323,407.001 435.833,412.167 435,417C434.175,421.783 432.667,426.667 431,431C429.395,435.174 426.5,440.333 425,443C424.183,444.453 422.333,445.5 422,447C421.667,448.5 422.369,450.422 423,452C424.333,455.333 428.167,462.333 430,467C431.658,471.22 433.016,475.574 434,480C435,484.5 435.667,489.833 436,494C436.292,497.655 436.292,501.345 436,505C435.667,509.167 435,514.5 434,519C433.016,523.426 431.667,527.833 430,532C428.339,536.152 426.5,540.333 424,544C421.5,547.667 415.149,549.518 415,554C414.833,559 421.167,568.5 423,574C424.406,578.219 425.631,582.568 426,587C426.5,593 426.5,604.167 426,610C425.648,614.108 424.448,618.139 423,622C421.5,626 418.833,631.167 417,634C415.72,635.979 412.5,637.5 412,639C411.529,640.414 413.046,641.855 414,643C415.667,645 419.714,648 422,651C424.667,654.5 428,660.167 430,664C431.661,667.183 433,670.833 434,674C434.925,676.931 435.773,679.935 436,683C436.333,687.5 436.667,695.5 436,701C435.377,706.137 433.5,711.667 432,716C430.683,719.806 427.5,724.333 427,727C426.669,728.764 428.155,730.416 429,732C430.333,734.5 433.196,738.557 435,742C436.833,745.5 438.772,749.164 440,753C441.333,757.167 442.5,762.833 443,767C443.437,770.641 443.333,774.667 443,778C442.694,781.058 440.167,785.333 441,787C441.833,788.667 445.805,787.141 448,788C451.833,789.5 459.5,793.333 464,796C467.9,798.311 471.5,801.167 475,804C478.486,806.822 482,810.167 485,813C487.742,815.589 490.627,818.069 493,821C495.833,824.5 499.335,829.453 502,834C504.833,838.833 508,845.333 510,850C511.661,853.875 513.167,859.167 514,862C514.48,863.631 514.887,865.304 515,867C515.167,869.5 516.667,875.333 515,877C513.333,878.667 507.169,879.531 505,877C502,873.5 499.833,862.333 497,856C494.382,850.147 490.833,843.5 488,839C485.726,835.388 482.765,832.253 480,829C477.167,825.667 474.312,822.024 471,819C467.167,815.5 461.891,811.362 457,808C451.667,804.333 442.333,799 439,797C438.361,796.617 437.527,795.473 437,796C436.333,796.667 435.964,799.486 435,801C433.833,802.833 432.033,805.374 430,807C427.5,809 422.667,811.667 420,813C418.114,813.943 416,814.667 414,815C412.027,815.329 409.167,815.5 408,815C407.031,814.585 406.495,812.925 407,812C408,810.167 411.656,806.657 414,804C416.5,801.167 419.833,798.167 422,795C424.104,791.924 425.995,788.589 427,785C428.167,780.833 429,774.5 429,770C429,765.945 428,761.667 427,758C426.055,754.536 424.719,751.152 423,748C421,744.333 416.833,739.167 415,736C413.728,733.803 412.333,731.167 412,729C411.692,726.996 412.299,724.903 413,723C414.167,719.833 417.667,713.5 419,710C419.979,707.431 420.804,704.742 421,702C421.333,697.333 421.833,687.667 421,682C420.279,677.097 418,672.167 416,668C414.119,664.082 411.608,660.477 409,657C406,653 400.167,646.667 398,644C397.242,643.067 396.149,642.193 396,641C395.833,639.667 396.126,637.457 397,636C398.5,633.5 402.833,629.667 405,626C407.167,622.333 409,616.667 410,614C410.483,612.713 410.949,611.373 411,610C411.167,605.5 411.5,592.833 411,587C410.648,582.892 409.448,578.861 408,575C406,569.667 400.333,559.333 399,555C398.404,553.062 398.937,550.727 400,549C401.333,546.833 404.974,544.605 407,542C409.333,539 412.056,534.887 414,531C416,527 417.911,522.513 419,518C420.167,513.167 420.833,507.333 421,502C421.167,496.667 420.956,491.258 420,486C419,480.5 417.165,474.496 415,469C412.833,463.5 408.333,457.167 407,453C406.086,450.143 405.975,446.819 407,444C408.333,440.333 412.857,435.615 415,431C417.167,426.333 419.255,421.217 420,416C420.833,410.167 420.833,401.833 420,396C419.255,390.783 417.303,385.741 415,381C412.167,375.167 405,365.5 403,361C402.052,358.868 402.133,356.166 403,354C404,351.5 407.078,348.723 409,346C411,343.167 413.333,340.167 415,337C416.667,333.833 418.167,329.333 419,327C419.462,325.706 419.94,324.373 420,323C420.167,319.167 420.833,309.667 420,304C419.233,298.786 416.833,293.333 415,289C413.373,285.153 411.167,281.5 409,278C406.858,274.54 403.333,270.167 402,268C401.448,267.102 401.095,266.05 401,265C400.833,263.167 400.253,259.56 401,257C402.167,253 406.5,245.167 408,241C409.041,238.108 409.678,235.056 410,232C410.333,228.833 410.494,225.296 410,222C409.5,218.667 408.44,215.168 407,212C405.333,208.333 402.667,203.5 400,200C397.429,196.625 394.233,193.748 391,191C387.667,188.167 382.333,184.833 380,183C378.888,182.126 377.277,181.387 377,180C376.667,178.333 377.514,175.306 378,173C378.667,169.833 380.667,164.667 381,161C381.303,157.664 380.812,154.25 380,151C379.167,147.667 377.667,144.167 376,141C374.333,137.833 372.386,134.704 370,132C367.5,129.167 364,126.167 361,124C358.218,121.991 352,119 352,119C352,119 355.833,137.333 357,143C357.685,146.33 358.692,149.615 359,153C359.333,156.667 359.5,162.5 359,165C358.723,166.387 357.333,168.333 356,168C354.667,167.667 352.103,165.083 351,163C349.5,160.167 347.984,155.1 347,151C345,142.667 341.333,125.5 339,113C336.707,100.718 334.833,85.333 333,76C331.738,69.574 330.167,62.833 328,57C325.924,51.41 322.667,45.5 320,41C317.689,37.1 314.667,33 312,30C309.646,27.352 306.948,24.966 304,23C301,21 296.333,19 294,18C292.737,17.459 291.372,17.072 290,17C286.833,16.833 279.167,16.333 275,17C271.455,17.567 266.667,20 265,21C264.428,21.343 264.415,22.681 265,23C266.833,24 272.603,25.08 276,27C279.833,29.167 284.667,33 288,36C290.983,38.685 293.667,41.734 296,45C298.5,48.5 301,52.833 303,57C305,61.167 306.706,65.541 308,70C309.5,75.167 311.034,81.93 312,88C313.167,95.333 314.333,106.167 315,114C315.594,120.983 315.531,130.519 315.531,135.353C315.531,138.04 315,143 315,143C315,143 320,143.167 322,144C323.97,144.821 326,146.5 327,148C327.943,149.414 328,152 328,153C328,153.471 327.471,153.974 327,154C324,154.167 314.833,153.333 310,154C305.823,154.576 301.167,157.667 298,158C295.587,158.254 293.237,156.942 291,156C287.833,154.667 281.5,151.167 279,150C278.045,149.554 277.053,149.041 276,149C271.667,148.833 259.5,150.667 253,149C246.908,147.438 241.167,141.167 237,139C234.194,137.541 231.116,136.537 228,136C223.167,135.167 211.833,135 208,134C206.387,133.579 205.667,131.333 205,130C204.385,128.771 204.06,127.373 204,126C203.833,122.167 203.514,113.315 204,107C204.5,100.5 206,92.333 207,87C207.76,82.948 210,75 210,75C210,75 204.722,70.268 202,68C199,65.5 195.167,62 192,60C189.224,58.247 186.131,56.989 183,56C179.833,55 176.384,54.322 173,54C169.5,53.667 165.621,53.421 162,54C157.833,54.667 152.333,56.167 148,58C143.735,59.804 138.667,63.333 136,65C134.587,65.883 133,66.833 132,68C131.03,69.132 125.918,73.747 125.918,73.747C125.918,73.747 124.65,72.667 123.314,71.539C121.659,70.141 120.723,68.922 118,67C115.167,65 111.5,62.333 109,61C107.14,60.008 105.1,59.183 103,59C99.167,58.667 90.667,58.333 86,59C82.138,59.552 78.167,61.333 75,63C72.05,64.552 69.167,67.167 67,69C65.201,70.523 62.907,72.804 61.315,74.542C59.481,76.542 58.705,77.388 57.62,80.042C56.292,83.292 53.939,89.19 52.273,90.19C50.606,91.19 47.835,87.863 46,87C43.167,85.667 38.5,81.833 35,80C31.82,78.334 28.501,76.796 25,76C21.333,75.167 16.667,74.833 13,75C9.604,75.154 6.183,75.806 3,77C-1,78.5 -7.333,81.5 -11,84C-14.116,86.124 -16.685,89.023 -19,92C-21.333,95 -23.139,98.587 -25,102C-27,105.667 -28.459,113.177 -30.459,115.677C-31.856,117.423 -34.791,116.651 -37,117C-40.167,117.5 -45.833,116.667 -50,117C-54.042,117.323 -58.153,117.718 -62,119C-66,120.333 -70.833,123 -74,125C-76.598,126.641 -78.976,128.687 -81,131C-83.333,133.667 -85.998,137.458 -88,141C-90.167,144.833 -92.449,149.487 -94,154C-95.833,159.333 -98,167.667 -99,173C-99.801,177.272 -99.774,180.725 -99.811,184.033C-99.826,185.407 -99.063,188.802 -100.193,189.584C-102.359,191.084 -109.333,193.333 -113,195C-116.393,196.542 -120.333,198.333 -123,200C-125.208,201.38 -127.306,203.023 -129,205C-131,207.333 -133.45,210.745 -135,214C-136.667,217.5 -138.46,221.818 -139,226C-139.667,231.167 -139.667,239.833 -139,245C-138.46,249.182 -136.667,253.333 -135,257C-133.391,260.539 -131.306,263.871 -129,267C-126.667,270.167 -124.12,273.474 -121,276C-117.5,278.833 -112.167,281.667 -108,284C-104.098,286.185 -98.833,287.667 -96,290C-93.573,291.999 -92.576,295.279 -91,298C-89.167,301.167 -87.333,306.167 -85,309C-82.881,311.573 -79.167,313.667 -77,315C-75.471,315.941 -73.76,316.648 -72,317C-69.5,317.5 -65.339,318.267 -62,318C-57.833,317.667 -52.396,316.897 -48.693,315.344C-46.823,314.56 -43.02,313.234 -42.425,314.651C-41.719,316.334 -40.577,322.91 -39.683,324.699C-38.183,327.699 -35.167,331 -32,334C-29.178,336.673 -24.667,338.667 -22,340C-20.114,340.943 -18.095,341.767 -16,342C-13,342.333 -7.833,342.667 -4,342C-0.167,341.333 3.544,339.81 7,338C10.5,336.167 14.333,333.5 17,331C19.432,328.72 21.21,325.812 23,323C25.333,319.333 29.333,311.667 31,309C31.5,308.2 33.537,305.502 34.451,305.273C35.785,304.94 37.566,306.186 39.149,307.409C41.406,309.153 44.5,312 47,314C49.239,315.791 51.405,317.779 54,319C56.833,320.333 60.533,321.699 64,322C67.833,322.333 73.167,321.833 77,321C80.508,320.237 84.167,318.667 87,317C89.649,315.442 92.062,313.385 94,311C96.167,308.333 98.5,304 100,301C101.274,298.453 102.563,296.477 103.896,294.81C105.018,293.409 106.287,289.18 107.731,289.473C109.174,289.767 111.087,294.73 112.559,296.571C114.559,299.071 117.5,303.333 120,306C122.28,308.432 125.667,310.667 128,312C129.83,313.046 131.902,313.79 134,314C137.333,314.333 143.667,315 148,314C152.333,313 156.833,310.167 160,308C162.723,306.137 165.039,303.654 167,301C169.833,297.167 174.667,288 177,285C177.915,283.823 179.674,282.072 180.674,282.072C181.617,282.072 182.748,284.092 183,285C183.833,288 184.667,296.333 186,301C187.19,305.167 189,309.5 191,313C192.886,316.3 195.241,319.386 198,322C201.167,325 207.167,328.833 210,331C211.695,332.297 214,334 215,335C215.527,335.527 216.812,337.051 216.904,337.79C217.071,339.124 216.743,341.143 216,343C214.667,346.333 209.667,353.333 208,357C206.863,359.502 206.274,362.265 206,365C205.667,368.333 205.368,373.05 206,377C206.667,381.167 208.214,385.833 210,390C212,394.667 216.167,401.667 218,405C218.937,406.703 220.529,408.114 221,410C221.5,412 221.833,415 221,417C220.167,419 217.886,420.586 216,422C213.333,424 208,426.5 205,429C202.278,431.268 200.075,434.127 198,437C195.833,440 193.566,443.442 192,447C190.167,451.167 188.242,456.878 187,462C185.667,467.5 185.167,476 184,480C183.327,482.308 182.032,484.716 180,486C176.833,488 168.5,489.833 165,492C162.387,493.618 160.438,496.284 159,499C157.5,501.833 156.371,505.54 156,509C155.5,513.667 155.833,521.667 156,527C156.146,531.676 157,538.167 157,541C157,542.054 156.894,543.441 156,544C154.667,544.833 150.833,544.667 149,546C147.167,547.333 145.947,549.791 145,552C144,554.333 143.478,557.293 143,560C142.5,562.833 142.5,566.833 142,569C141.665,570.453 138.667,573.167 138,574C137.534,574.582 138.74,573.908 138,574C136.667,574.167 133.888,574.661 132,574C128.667,572.833 121.167,568.333 118,567C116.434,566.34 114.696,566.106 113,566C110.333,565.833 105.5,565.5 102,566C98.555,566.492 95.199,567.629 92,569C88.5,570.5 84.333,572.833 81,575C77.813,577.071 74.106,579.69 72.1,581.115C70.665,582.134 67.853,585.418 67.384,584.17C66.884,582.836 68,576.333 69,574C70,571.667 74,568 74,568C74,568 74.588,566.314 74,566C71.5,564.667 63.667,561.5 59,560C54.766,558.639 50.433,557.35 46,557C39.667,556.5 27.833,556.333 21,557C15.529,557.534 10.184,559.17 5,561C-0.667,563 -9.333,567.833 -13,569C-14.31,569.417 -17.824,570.948 -18.324,569.948C-18.824,568.948 -16.094,564.714 -15.427,563.214C-14.76,561.714 -13.167,560.5 -13,559C-12.833,557.5 -14.155,555.584 -15,554C-16.333,551.5 -18.279,546.736 -19.946,544.236C-21.13,542.46 -23.493,538.517 -23.493,538.517L-25,536L-33,535C-33,535 -36.167,547.833 -37,552C-37.527,554.635 -37.842,557.317 -38,560C-38.167,562.833 -38.388,566.025 -38,569C-37.5,572.833 -36.333,578.667 -35,583C-33.726,587.142 -32,591.167 -30,595C-28,598.833 -25.573,603.476 -23.739,606.309C-22.433,608.327 -20.434,610.697 -19.262,612.558C-18.529,613.721 -16.795,615.602 -17.295,616.268C-17.695,616.802 -22.222,614.643 -22.277,615.308C-22.611,619.308 -22.667,633.5 -22,640C-21.472,645.148 -19.817,650.155 -18,655C-16,660.333 -12.885,668.26 -11.052,671.927C-10.182,673.665 -8.251,675.667 -7.227,677.123C-6.268,678.486 -4.183,680.668 -4.516,681.501C-4.764,682.12 -8.744,681.385 -9,682C-9.833,684 -11.038,689.991 -12,694C-13,698.167 -14.5,702.667 -15,707C-15.497,711.305 -15.649,715.716 -15,720C-14.167,725.5 -10.069,737.101 -8.916,741.116C-8.334,743.142 -11.286,744.016 -12,746C-13.5,750.167 -17.333,759.333 -19,765C-20.439,769.892 -21.644,775.133 -22.31,779.299C-22.84,782.607 -22.928,787.156 -23.114,790.5C-23.447,796.5 -23.564,812.94 -22.286,817.421C-21.909,818.743 -26.833,816.833 -28,817C-28.99,817.141 -30.322,816.265 -31,817C-33,819.167 -37.335,825.453 -40,830C-42.833,834.833 -46.167,841.5 -48,846C-49.434,849.52 -50.278,853.269 -51,857C-52,862.167 -53.857,877.607 -53.857,877.607C-53.857,877.607 506.333,877.167 505,877C503.667,876.833 -62.519,877.905 -62.519,877.905C-62.519,877.905 -62.52,865.719 -62.187,861.052C-61.898,857.008 -61.152,851.888 -60,848C-58.667,843.5 -56.167,837.333 -54,833C-52.056,829.113 -49.634,825.457 -47,822C-44.333,818.5 -41.24,815.218 -39.24,813.218C-38.39,812.368 -36.005,810.446 -35,810C-34.086,809.594 -32,810 -32,810C-32,810 -32.941,806.699 -33,805C-33.167,800.167 -33.5,787.667 -33,781C-32.594,775.589 -31.333,769.833 -30,765C-28.765,760.524 -26.833,755.667 -25,752C-23.388,748.775 -19,743 -19,743C-19,743 -18.641,740.933 -19,740C-19.833,737.833 -22.833,733.333 -24,730C-25.123,726.791 -25.692,723.385 -26,720C-26.333,716.333 -26.458,711.974 -26,708C-25.5,703.667 -24.5,698.333 -23,694C-21.537,689.774 -18.333,684.5 -17,682C-16.434,680.94 -15,679 -15,679C-15,679 -20.158,674.027 -22,671C-24.333,667.167 -27.333,660.667 -29,656C-30.496,651.812 -31.557,647.425 -32,643C-32.5,638 -32.5,631 -32,626C-31.557,621.575 -29,613 -29,613C-29,613 -32.544,609.853 -34,608C-35.833,605.667 -38.262,602.159 -40,599C-41.833,595.667 -43.677,591.804 -45,588C-46.333,584.167 -47.603,580.104 -48,576C-48.5,570.833 -48.5,562.167 -48,557C-47.603,552.896 -46.333,548.333 -45,545C-43.832,542.08 -41.167,538.833 -40,537C-39.355,535.986 -38,534 -38,534C-38,534 -43.426,533.772 -46,533C-49.333,532 -54.167,530 -58,528C-61.833,526 -65.667,523.5 -69,521C-72.211,518.592 -75.151,515.677 -77.151,513.677C-78.329,512.498 -81,509 -81,509C-81,509 -86.264,510.739 -89,511C-92.5,511.333 -98,511.5 -102,511C-105.771,510.529 -109.507,509.497 -113,508C-116.5,506.5 -120,504.333 -123,502C-125.977,499.685 -128.685,496.977 -131,494C-133.333,491 -135.434,487.558 -137,484C-138.833,479.833 -140.833,473.5 -142,469C-143.018,465.075 -143.762,461.048 -144,457C-144.333,451.333 -144.667,442 -144,435C-143.355,428.232 -141.833,421.5 -140,415C-138.168,408.504 -135.5,401.833 -133,396C-130.651,390.519 -127.975,385.168 -125,380C-121.833,374.5 -117.5,368 -114,363C-110.865,358.521 -107.47,354.225 -104,350C-100.167,345.333 -94.5,338.833 -91,335C-88.457,332.215 -84.5,328.667 -83,327C-82.501,326.446 -81.473,325.527 -82,325C-82.667,324.333 -85.524,324.022 -87,323C-89.167,321.5 -92.747,318.735 -95,316C-97.333,313.167 -99.667,308.667 -101,306C-101.943,304.114 -102.425,301.589 -103,300C-103.433,298.802 -104.449,296.464 -104.449,296.464C-104.449,296.464 -108.931,295.852 -111,295C-114.425,293.589 -121,290.667 -125,288C-128.731,285.512 -132,282.167 -135,279C-137.936,275.901 -140.78,272.646 -143,269C-145.333,265.167 -147.5,260.167 -149,256C-150.397,252.121 -151.561,248.1 -152,244C-152.5,239.333 -152.5,232.833 -152,228C-151.542,223.576 -150.5,219.167 -149,215C-147.5,210.833 -145.5,206.667 -143,203C-140.5,199.333 -137.167,195.833 -134,193C-130.968,190.287 -126.833,187.667 -124,186C-121.812,184.713 -119.453,183.654 -117,183C-114.5,182.333 -111.322,182.287 -110.155,181.787C-109.47,181.493 -110.274,179.397 -110.331,178.654C-110.498,176.487 -110.42,172.642 -110,169C-109.5,164.667 -108.333,158.667 -107,154C-105.725,149.536 -103.833,145 -102,141C-100.26,137.203 -98.428,133.399 -96,130C-93.5,126.5 -89.833,122.833 -87,120C-84.494,117.494 -82.013,114.865 -79,113C-75.5,110.833 -69.333,108.333 -66,107C-63.747,106.099 -61.42,105.179 -59,105C-54.5,104.667 -44.94,105.88 -41.107,104.38C-38.162,103.228 -37.414,98.828 -36,96C-34.333,92.667 -31.167,88 -29,85C-27.201,82.509 -23.833,80.167 -23,78C-22.272,76.108 -23.935,74.027 -24,72C-24.167,66.833 -24.5,53.833 -24,47C-23.604,41.588 -22.333,36 -21,31C-19.723,26.212 -18.167,21.167 -16,17C-13.908,12.978 -10.667,8.833 -8,6C-5.715,3.573 -3.305,0.431 0,0ZM17,5C17,5 19.333,17.667 21,23C22.514,27.846 24.534,32.562 27,37C29.5,41.5 32.667,46 36,50C39.32,53.984 44.167,58.333 47,61C48.896,62.784 53,66 53,66L55,66C55,66 59.278,60.268 62,58C65,55.5 70.5,52.5 73,51C74.278,50.233 77,49 77,49C77,49 75.924,46.17 75,45C72.5,41.833 66.333,34.667 62,30C57.83,25.509 53,20.333 49,17C45.661,14.218 41.5,11.833 38,10C34.82,8.334 31.492,6.832 28,6C24.5,5.167 17,5 17,5ZM9,6C7.167,6.667 3.314,8.12 1,10C-1.667,12.167 -4.887,15.587 -7,19C-9.167,22.5 -10.755,26.849 -12,31C-13.5,36 -15.167,44.667 -16,49C-16.508,51.639 -16.888,54.315 -17,57C-17.167,61 -17,73 -17,73C-17,73 -5.667,67.5 -2,66C0.246,65.081 2.603,64.378 5,64C8.167,63.5 12.989,62.84 17,63C21.167,63.167 26,63.833 30,65C33.867,66.128 38.167,68.5 41,70C43.124,71.125 47,74 47,74L49,71C49,71 41.167,65.667 38,63C35.115,60.571 32.324,57.97 30,55C27,51.167 22.667,45 20,40C17.466,35.248 15.333,29.333 14,25C12.904,21.438 12.333,17.167 12,14C11.721,11.348 12,6 12,6C12,6 9.94,5.658 9,6ZM249,32C245.5,34.167 241.299,40.381 238,45C234.667,49.667 231.667,54.833 229,60C226.333,65.167 223.937,70.51 222,76C220,81.667 218.27,87.904 217,94C215.333,102 212.833,118.667 212,124C211.897,124.659 212,126 212,126C212,126 224.833,125.333 230,126C234.497,126.58 239,128.167 243,130C246.951,131.811 251.833,135.5 254,137C254.775,137.537 256,139 256,139C256,139 273.5,138.333 279,139C282.564,139.432 286,141.5 289,143C291.813,144.406 297,148 297,148C297,148 299.708,147.47 301,147C302.833,146.333 308,144 308,144C308,144 306.167,118.167 305,108C304.038,99.616 302.667,90.167 301,83C299.567,76.84 297,69.833 295,65C293.403,61.141 291.353,57.451 289,54C286.5,50.333 283.167,46 280,43C277.046,40.202 273.5,37.833 270,36C266.544,34.19 262.5,32.667 259,32C255.726,31.376 251.834,30.245 249,32ZM176,305C174.333,306.667 170,312.333 167,315C164.305,317.395 161,319.5 158,321C155.172,322.414 152.14,323.623 149,324C144.833,324.5 137.5,324.667 133,324C129.141,323.428 125.167,321.667 122,320C119.05,318.448 116.167,316 114,314C112.087,312.234 109,308 109,308C109,308 106.905,309.914 106,311C104.333,313 101.5,317.5 99,320C96.643,322.357 93.833,324.333 91,326C88.17,327.665 85.192,329.234 82,330C77.833,331 70.5,332 66,332C62.273,332 58.5,331.167 55,330C51.5,328.833 47.833,326.833 45,325C42.42,323.33 39.5,320 38,319C37.445,318.63 36.392,318.461 36,319C34.667,320.833 32.457,326.622 30,330C27.333,333.667 23.885,337.924 20,341C16,344.167 9.667,347.333 6,349C3.498,350.137 0.739,350.772 -2,351C-6,351.333 -13.5,351.667 -18,351C-21.859,350.428 -25.833,348.667 -29,347C-31.95,345.448 -34.568,343.28 -37,341C-39.667,338.5 -43.167,334.5 -45,332C-46.322,330.197 -48,326 -48,326C-48,326 -53.946,327.661 -57,328C-61.5,328.5 -75,329 -75,329C-75,329 -80.186,336.445 -83,340C-86.167,344 -90.473,348.553 -94,353C-97.833,357.833 -102.265,363.478 -106,369C-109.833,374.667 -113.833,381.333 -117,387C-119.909,392.205 -122.73,397.486 -125,403C-127.333,408.667 -129.5,415.333 -131,421C-132.389,426.246 -133.523,431.595 -134,437C-134.5,442.667 -134.5,449.5 -134,455C-133.538,460.078 -132.333,465.333 -131,470C-129.725,474.464 -128,479.333 -126,483C-124.18,486.337 -121.667,489.5 -119,492C-116.37,494.466 -113.288,496.52 -110,498C-106.667,499.5 -102.771,500.529 -99,501C-95,501.5 -86,501 -86,501C-86,501 -88.333,493.5 -89,491C-89.438,489.358 -89.906,487.697 -90,486C-90.167,483 -90.167,475.833 -90,473C-89.919,471.628 -89,469 -89,469C-89,469 -93.397,464.622 -95,462C-96.833,459 -98.872,454.867 -100,451C-101.167,447 -102,441.333 -102,438C-102,435.573 -101,432.667 -100,431C-99.143,429.571 -97.64,428.298 -96,428C-94.167,427.667 -91,427.833 -89,429C-87,430.167 -85.167,433.167 -84,435C-83.036,436.514 -82,440 -82,440C-82,440 -75.333,437.333 -72,437C-68.667,436.667 -64.5,437.167 -62,438C-59.975,438.675 -57.821,440.03 -57,442C-56.167,444 -56.167,447.667 -57,450C-57.833,452.333 -59.895,454.469 -62,456C-65.667,458.667 -75.333,463.5 -79,466C-80.947,467.328 -83.393,468.723 -84,471C-84.667,473.5 -83.742,477.733 -83,481C-82.167,484.667 -80.667,489.333 -79,493C-77.391,496.539 -75.428,499.965 -73,503C-70.333,506.333 -66.771,510.172 -63,513C-59,516 -53.833,519 -49,521C-44.218,522.979 -38.667,524.167 -34,525C-29.722,525.764 -25.343,526.155 -21,526C-16.333,525.833 -10.912,525.146 -6,524C-1,522.833 4.833,520.833 9,519C12.558,517.434 15.815,515.229 19,513C22.333,510.667 26.167,507.667 29,505C31.58,502.571 34,498.333 36,497C37.387,496.075 40,496.167 41,497C42,497.833 42.572,500.399 42,502C41.167,504.333 38.395,508.305 36,511C33.333,514 29.659,517.408 26,520C22,522.833 16.667,525.833 12,528C7.505,530.087 2.333,531.833 -2,533C-5.916,534.054 -14,535 -14,535L-14,538L-8,547L-5,554C-5,554 8.833,549.167 13,548C15.27,547.364 17.644,547.071 20,547C25.5,546.833 38.833,546.333 46,547C51.796,547.539 57.833,549.167 63,551C67.917,552.745 73.667,556.167 77,558C79.106,559.158 80.596,562 83,562C85.5,562 88.869,558.989 92,558C95.167,557 98.616,556.322 102,556C105.5,555.667 109.364,555.526 113,556C116.833,556.5 121.686,558.074 124.853,559.074C127.274,559.838 132,562 132,562C132,562 135.333,549.667 137,546C138.077,543.63 140.167,541.5 142,540C143.731,538.584 148,537 148,537C148,537 146.234,530.391 146,527C145.667,522.167 145.5,513 146,508C146.378,504.218 147.667,500.167 149,497C150.22,494.102 152,491.333 154,489C156,486.667 158.34,484.54 161,483C164.167,481.167 173,478 173,478C173,478 174.602,474.75 175,473C175.833,469.333 176.667,461 178,456C179.196,451.514 181.167,447 183,443C184.74,439.203 186.543,435.378 189,432C191.667,428.333 195.333,424.167 199,421C202.638,417.858 211,413 211,413C211,413 206.932,405.703 205,402C203,398.167 200.5,394.167 199,390C197.5,385.833 196.5,381.333 196,377C195.503,372.695 195.341,368.283 196,364C196.667,359.667 198.333,355 200,351C201.606,347.145 206,340 206,340C206,340 196.833,333.333 194,331C192.181,329.502 190.586,327.744 189,326C187.333,324.167 185.38,322.208 184,320C182.333,317.333 180.167,312.5 179,310C178.241,308.373 177.5,305.833 177,305C176.829,304.714 176.236,304.764 176,305ZM-95,432C-96.333,432.5 -97.759,435.071 -98,437C-98.333,439.667 -97.929,444.437 -97,448C-96,451.833 -93.667,456.833 -92,460C-90.664,462.537 -87,467 -87,467C-87,467 -81.02,462.97 -78,461C-74.167,458.5 -66.833,454.167 -64,452C-62.676,450.988 -61.333,449.5 -61,448C-60.667,446.5 -61,444.167 -62,443C-63,441.833 -65.21,441.138 -67,441C-69.167,440.833 -72.667,441.333 -75,442C-77.15,442.614 -79.333,444.667 -81,445C-82.348,445.27 -84.13,445.064 -85,444C-86.5,442.167 -88.333,436 -90,434C-91.149,432.621 -93.667,431.5 -95,432Z" style="fill:rgb(3,3,3);fill-rule:nonzero;"/>
    </g>
    <g transform="matrix(1,0,0,1,402,347)">
        <path d="M0,0C2.5,0 6.833,0 10,1C13.167,2 16.336,3.836 19,6C21.667,8.167 24.167,11 26,14C27.833,17 29.055,20.536 30,24C31,27.667 31.677,31.958 32,36C32.333,40.167 32.333,44.833 32,49C31.677,53.042 31,57.333 30,61C29.055,64.464 27.957,67.99 26,71C23.833,74.333 20,78.667 17,81C14.409,83.016 11.219,84.356 8,85C4.667,85.667 0.5,85.833 -3,85C-6.5,84.167 -10.167,82.167 -13,80C-15.815,77.848 -18.108,74.996 -20,72C-22,68.833 -23.833,64.167 -25,61C-25.95,58.421 -26.817,55.743 -27,53C-27.333,48 -27.667,36.833 -27,31C-26.485,26.495 -25,22 -23,18C-21,14 -18,9.833 -15,7C-12.174,4.331 -7.5,2.167 -5,1C-3.46,0.281 -1.7,0 0,0Z" style="fill:rgb(2,2,2);fill-rule:nonzero;"/>
    </g>
    <g transform="matrix(1,0,0,1,401,398)">
        <path d="M0.218,-0.354C3.784,-1.609 6.425,-1.06 8.672,-0.274C10.823,0.479 13.044,2.837 13.7,4.363C14.583,6.421 14.996,7.098 15.081,8.572C15.195,10.545 15.402,12.176 13.772,15.506C12.875,17.339 10.962,19.084 10,20C9.46,20.514 8.741,20.918 8,21C6.5,21.167 2.95,21.346 1,21C-0.687,20.701 -2.491,20.138 -3.702,18.926C-5.036,17.593 -6.632,15.231 -7,13C-7.383,10.679 -7.203,7.226 -6,5C-4.797,2.774 -2.119,0.468 0.218,-0.354Z" style="fill:rgb(254,254,254);fill-rule:nonzero;"/>
    </g>
    <g transform="matrix(1,0,0,1,388,376)">
        <path d="M0,0C1.548,-0.488 4.783,-0.584 6.288,0.072C8.22,0.915 8.581,2.465 9,4C9.452,5.655 9.5,8.5 9,10C8.553,11.342 7.324,12.503 6,13C4.667,13.5 2.5,13.667 1,13C-0.5,12.333 -2.333,10.667 -3,9C-3.667,7.333 -3.5,4.5 -3,3C-2.553,1.658 -1.349,0.425 0,0Z" style="fill:rgb(254,254,254);fill-rule:nonzero;"/>
    </g>
</svg>
