<?xml version="1.0" encoding="UTF-8" standalone="no"?>
<!DOCTYPE svg PUBLIC "-//W3C//DTD SVG 1.1//EN" "http://www.w3.org/Graphics/SVG/1.1/DTD/svg11.dtd">
<svg width="100%" height="100%" viewBox="0 0 940 877" version="1.1" xmlns="http://www.w3.org/2000/svg" xmlns:xlink="http://www.w3.org/1999/xlink" xml:space="preserve" xmlns:serif="http://www.serif.com/" style="fill-rule:evenodd;clip-rule:evenodd;stroke-linejoin:round;stroke-miterlimit:2;">
    <g transform="matrix(1,0,0,1,425,4)">
        <path d="M0,0L43,0L69,2L98,6L125,12L151,20L169,28L183,36L193,44L201,52L208,64L210,72L210,82L207,92L200,103L193,110L183,117L168,125L166,125L166,127L171,129L179,136L188,146L195,158L201,173L206,195L210,221L210,226L217,227L227,232L237,240L245,251L250,263L251,268L251,281L249,290L255,292L265,300L273,308L281,321L285,333L286,345L283,360L278,372L276,378L283,388L291,404L294,413L296,425L296,434L293,449L288,461L280,472L279,475L287,488L293,502L296,518L295,533L291,547L285,559L282,563L283,568L290,583L294,596L296,610L296,621L294,635L290,648L284,660L275,670L283,690L286,703L286,726L283,738L277,750L272,755L274,759L282,766L283,755L291,728L301,700L312,675L321,658L331,644L340,634L348,626L362,616L377,608L396,601L410,598L419,597L433,597L448,600L462,606L473,614L480,621L488,635L493,651L494,658L494,669L491,684L485,699L480,710L484,720L490,734L494,750L494,765L490,781L482,796L475,804L465,811L454,816L439,820L429,821L429,834L426,846L420,857L412,865L400,872L397,873L348,873L327,866L317,866L308,872L307,873L-167,873L-161,861L-158,857L-162,851L-165,842L-166,836L-166,824L-163,810L-157,798L-155,795L-162,787L-169,772L-172,759L-172,742L-169,729L-174,724L-180,715L-185,704L-188,692L-188,673L-185,661L-180,653L-178,650L-186,649L-198,644L-209,637L-218,629L-221,625L-229,627L-242,627L-253,624L-263,618L-271,610L-277,600L-282,585L-284,573L-284,551L-280,531L-273,512L-265,496L-254,479L-244,466L-231,451L-223,443L-222,441L-227,439L-235,432L-241,422L-243,416L-243,412L-251,411L-265,404L-275,395L-283,385L-289,372L-292,360L-292,344L-289,331L-283,319L-274,309L-264,302L-257,299L-249,298L-250,296L-250,285L-247,270L-242,257L-236,246L-227,236L-219,229L-206,223L-199,221L-179,221L-176,212L-169,201L-163,194L-164,188L-164,163L-161,147L-156,133L-148,122L-139,115L-131,111L-141,102L-149,93L-154,83L-155,79L-155,64L-151,53L-144,44L-137,37L-122,27L-107,20L-83,12L-56,6L-27,2L0,0ZM4,43L-25,46L-56,52L-80,60L-93,67L-99,72L-101,76L-100,81L-91,89L-76,96L-55,102L-34,106L-7,109L10,110L51,110L69,109L104,103L126,97L142,91L154,84L160,77L159,70L152,64L138,57L114,50L84,45L63,43L4,43ZM-76,135L-70,143L-61,153L-55,162L-37,163L-27,166L-18,171L-14,175L-11,175L-6,170L3,164L17,159L32,158L48,161L60,167L71,176L75,180L85,161L94,149L97,144L82,145L60,147L1,147L-29,144L-58,139L-76,135ZM379,701L379,708L380,708L380,701L379,701Z" style="fill:rgb(228,239,247);fill-rule:nonzero;"/>
    </g>
    <g transform="matrix(1,0,0,1,425,4)">
        <path d="M0,0L43,0L69,2L98,6L125,12L151,20L169,28L183,36L193,44L201,52L208,64L210,72L210,82L207,92L200,103L193,110L183,117L168,125L166,125L166,127L171,129L179,136L188,146L195,158L201,173L206,195L210,221L210,226L217,227L227,232L237,240L245,251L250,263L251,268L251,281L249,290L255,292L265,300L273,308L281,321L285,333L286,345L283,360L278,372L276,378L283,388L291,404L294,413L296,425L296,434L293,449L288,461L280,472L279,475L287,488L293,502L296,518L295,533L291,547L285,559L282,563L283,568L290,583L294,596L296,610L296,621L294,635L290,648L284,660L275,670L283,690L286,703L286,726L283,738L277,750L272,755L274,759L282,766L283,755L291,728L301,700L312,675L321,658L331,644L340,634L348,626L362,616L377,608L396,601L410,598L419,597L433,597L448,600L462,606L473,614L480,621L488,635L493,651L494,658L494,669L491,684L485,699L480,710L484,720L490,734L494,750L494,765L490,781L482,796L475,804L465,811L454,816L439,820L429,821L429,834L426,846L420,857L412,865L400,872L397,873L348,873L327,866L317,866L308,872L307,873L287,873L280,859L273,849L272,842L279,826L281,818L281,798L276,784L266,769L257,759L256,753L263,745L269,733L271,726L271,703L267,689L259,672L260,665L265,660L273,649L278,637L280,629L280,603L276,588L267,569L267,560L275,547L279,536L280,531L280,512L275,497L263,477L263,470L269,462L275,453L279,443L280,439L280,421L276,407L269,394L262,384L261,381L261,373L268,357L270,348L270,338L266,326L259,315L252,308L240,299L237,296L238,289L241,277L240,267L235,255L228,246L219,239L212,235L217,258L219,269L219,282L216,284L211,279L206,263L199,229L193,192L188,173L180,157L172,146L164,139L154,134L150,133L143,133L126,138L125,139L136,143L147,151L156,161L164,175L170,193L173,210L175,229L176,252L175,259L182,260L187,264L188,269L187,270L170,270L158,274L149,271L139,266L136,265L113,265L97,255L87,252L68,250L65,246L64,243L64,223L67,203L70,191L62,184L52,176L43,172L33,170L23,170L11,173L-1,179L-8,184L-10,188L-14,189L-20,185L-29,178L-37,175L-54,175L-65,179L-73,185L-81,193L-88,204L-94,203L-105,196L-116,192L-127,191L-137,193L-151,200L-158,207L-165,218L-171,230L-176,233L-198,234L-211,239L-221,247L-228,257L-234,270L-239,289L-240,302L-241,306L-259,314L-265,318L-272,325L-278,338L-279,343L-279,361L-275,373L-269,383L-261,392L-248,400L-236,406L-231,414L-226,423L-222,428L-212,433L-203,434L-187,431L-182,431L-181,436L-179,441L-172,450L-162,456L-156,458L-145,458L-133,454L-125,448L-117,439L-109,425L-107,423L-101,423L-93,430L-85,435L-76,438L-63,437L-54,433L-46,427L-40,417L-37,409L-32,407L-27,412L-20,422L-12,428L-6,430L8,430L20,424L29,414L36,402L39,399L43,401L46,417L51,429L58,438L74,450L76,453L76,459L68,473L66,481L66,493L70,506L78,521L81,526L81,533L76,538L65,545L58,553L52,563L47,578L44,596L40,602L25,608L20,614L17,621L16,626L16,643L17,657L16,660L9,662L5,668L3,676L2,685L0,689L-2,690L-8,690L-19,684L-27,682L-37,682L-50,686L-60,692L-68,698L-72,698L-71,690L-66,684L-66,682L-81,676L-94,673L-119,673L-135,677L-153,685L-157,684L-156,679L-153,675L-155,670L-161,660L-165,655L-165,652L-171,652L-173,651L-178,676L-177,692L-172,707L-164,721L-159,728L-160,732L-162,732L-162,756L-158,771L-147,793L-147,798L-149,798L-152,810L-155,824L-155,836L-150,856L-151,860L-157,873L-167,873L-161,861L-158,857L-162,851L-165,842L-166,836L-166,824L-163,810L-157,798L-155,795L-162,787L-169,772L-172,759L-172,742L-169,729L-174,724L-180,715L-185,704L-188,692L-188,673L-185,661L-180,653L-178,650L-186,649L-198,644L-209,637L-218,629L-221,625L-229,627L-242,627L-253,624L-263,618L-271,610L-277,600L-282,585L-284,573L-284,551L-280,531L-273,512L-265,496L-254,479L-244,466L-231,451L-223,443L-222,441L-227,439L-235,432L-241,422L-243,416L-243,412L-251,411L-265,404L-275,395L-283,385L-289,372L-292,360L-292,344L-289,331L-283,319L-274,309L-264,302L-257,299L-249,298L-250,296L-250,285L-247,270L-242,257L-236,246L-227,236L-219,229L-206,223L-199,221L-179,221L-176,212L-169,201L-163,194L-164,188L-164,163L-161,147L-156,133L-148,122L-139,115L-131,111L-141,102L-149,93L-154,83L-155,79L-155,64L-151,53L-144,44L-137,37L-122,27L-107,20L-83,12L-56,6L-27,2L0,0ZM4,43L-25,46L-56,52L-80,60L-93,67L-99,72L-101,76L-100,81L-91,89L-76,96L-55,102L-34,106L-7,109L10,110L51,110L69,109L104,103L126,97L142,91L154,84L160,77L159,70L152,64L138,57L114,50L84,45L63,43L4,43ZM-76,135L-70,143L-61,153L-55,162L-37,163L-27,166L-18,171L-14,175L-11,175L-6,170L3,164L17,159L32,158L48,161L60,167L71,176L75,180L85,161L94,149L97,144L82,145L60,147L1,147L-29,144L-58,139L-76,135ZM379,701L379,708L380,708L380,701L379,701Z" style="fill:rgb(3,2,0);fill-rule:nonzero;"/>
    </g>
    <g transform="matrix(1,0,0,1,461,425)">
        <path d="M0,0L2,2L7,14L15,24L27,33L29,34L28,38L22,50L20,58L20,73L23,85L31,101L35,108L23,116L15,124L7,137L2,150L-2,172L-14,177L-21,182L-26,189L-30,202L-30,223L-29,232L-37,238L-41,245L-44,257L-57,252L-62,251L-75,251L-87,254L-94,257L-102,251L-110,247L-123,243L-129,242L-157,242L-174,246L-181,249L-190,231L-189,230L-174,227L-162,222L-151,216L-139,205L-134,198L-134,193L-135,192L-140,192L-154,206L-168,214L-178,218L-187,220L-210,220L-224,216L-236,210L-246,201L-253,192L-258,180L-260,166L-253,160C-253,160 -241.333,153.5 -238,151C-235.917,149.438 -233.833,147.333 -233,145C-232.167,142.667 -232.167,139 -233,137C-233.821,135.03 -236.5,133.833 -238,133C-239.201,132.333 -240.631,132.124 -242,132C-243.833,131.833 -246.707,131.57 -249,132C-251.667,132.5 -258,135 -258,135L-262,127C-262,127 -263.687,124.525 -265,124C-266.667,123.333 -270.167,123 -272,123C-273.374,123 -275.238,122.856 -276,124C-277,125.5 -277.856,129.255 -278,132C-278.167,135.167 -277,143 -277,143L-272,155L-268,161L-266,163L-266,182L-262,195L-266,196L-280,195L-290,191L-297,185L-303,175L-307,165L-310,149L-310,133L-306,113L-300,96L-289,75L-278,59L-267,45L-254,29L-250,24L-233,23L-224,21L-218,31L-214,36L-203,43L-195,46L-177,46L-166,42L-156,36L-148,28L-139,14L-131,20L-119,26L-113,27L-104,27L-93,25L-83,20L-74,12L-68,4L-61,10L-56,14L-48,18L-44,19L-27,19L-16,15L-8,9L-1,2L0,0Z" style="fill:rgb(238,228,212);fill-rule:nonzero;"/>
    </g>
    <g transform="matrix(1,0,0,1,842,619)">
        <path d="M0,0L14,0L30,4L42,11L50,19L57,33L59,40L59,60L55,73L47,89L46,99L51,113L57,126L59,134L59,153L55,164L49,173L42,180L29,186L5,191L-1,196L-4,206L-6,222L-11,232L-19,239L-28,243L-32,244L-55,244L-71,240L-88,234L-99,233L-109,236L-117,243L-120,247L-131,230L-129,224L-124,211L-122,202L-122,184L-126,169L-130,161L-128,156L-124,148L-107,102L-96,76L-84,53L-75,40L-64,28L-54,20L-39,11L-24,5L-8,1L0,0ZM-38,86L-38,93L-37,93L-37,86L-38,86Z" style="fill:rgb(228,228,228);fill-rule:nonzero;"/>
    </g>
    <g transform="matrix(1,0,0,1,413,13)">
        <path d="M0,0L59,0L90,3L106,6L119,8L137,13L151,17L167,23L178.092,28.748L186.811,33.894L189.404,36.22L192,38L193.913,39.73L195.963,41.945L201,48L205,55L208,66L206,78L199,89L191,96L188,99L175,107L164,112L151,116L141,119L129,122L113,125L104,127L76,130L10,130L-7,128L-19,127L-29,125L-52,121L-69,116L-82,112L-101,104L-116,95L-117.849,93.04L-120,91L-125,86L-131,79L-135,69L-135,56L-130.231,44.821L-125.518,38.654L-121.804,35.012L-119.486,33.534L-113.93,29.875L-111.325,28.018L-108,26L-93,19L-86,16L-64,10L-58,8L-44,5L-24,2L0,0ZM16,34L-13,37L-44,43L-68,51L-81,58L-87,63L-89,67L-88,72L-79,80L-64,87L-43,93L-22,97L5,100L22,101L63,101L81,100L116,94L138,88L154,82L166,75L172,68L171,61L164,55L150,48L126,41L96,36L75,34L16,34Z" style="fill:rgb(251,192,44);fill-rule:nonzero;"/>
    </g>
    <g transform="matrix(1,0,0,1,534,152)">
        <path d="M0,0L11,0L23,5L33,13L41,23L48,38L52,51L55,67L59,109L59,112L51,116L47,116L42,112L33,108L29,107L12,107L7,108L-2,100L-14,95L-19,94L-37,94L-33,66L-28,47L-22,32L-15,19L-6,7L0,0Z" style="fill:rgb(250,178,164);fill-rule:nonzero;"/>
    </g>
    <g transform="matrix(1,0,0,1,855,643)">
        <path d="M0,0L3,2L3,23L-3,38L0,46L0,60L-3,72L-9,82L-13,86L-13,109L-18,125C-18,125 -19.473,127.233 -20.24,128.329C-21.025,129.449 -21.756,130.699 -22.708,131.724C-24.668,133.836 -28.618,138.621 -32,141C-35.294,143.317 -39.15,144.816 -43,146C-47.333,147.333 -58,149 -58,149C-58,149 -59.545,153.302 -61,155C-63,157.333 -67.35,161.397 -69.297,163.143C-70.204,163.956 -71.852,164.809 -72.685,165.475C-73.407,166.052 -74.168,166.599 -75,167C-76.219,167.587 -78.236,168.669 -80,169C-82.667,169.5 -88.5,170 -91,170C-92.374,170 -95,169 -95,169L-103,173L-106,174L-117,174L-122.593,173.603C-122.593,173.603 -119.38,171.57 -117.858,170.694C-116.655,170.002 -114.722,168.81 -113.458,168.348C-111.869,167.767 -109.444,166.505 -108.022,165.575C-106.062,164.293 -102,160 -102,160L-95,154L-90,140L-89,135L-88,115L-86,108L-78,105L-71,104L-66.256,102.263L-63,98L-58,92L-54,82C-54,82 -51.94,73.274 -51.456,70.118C-51.202,68.464 -50.954,60.077 -50.954,60.077L-50,48L-41,45L-30,41L-20,35L-11,26L-7,18L-4,6L0,0Z" style="fill:rgb(4,2,0);fill-rule:nonzero;"/>
    </g>
    <g transform="matrix(1,0,0,1,418,36)">
        <path d="M0,0L50,0L81,3L93,5L113,9L133,15L142,19L152,23L152,25L157,26L165,32L165,34L168,35L171,40L171,49L165,57L161,58L161,60L150,66L126,74L110,78L93,81L62,84L13,84L-18,81L-28,79L-44,76L-62,72L-72,68L-80,65L-97,57L-97,55L-101,54C-101,54 -99.749,54.563 -100.082,54.229C-100.416,53.896 -103,52 -103,52L-109,43L-109,37L-106,31L-101,26L-91,20L-77,14L-57,8L-42,5L-21,2L0,0ZM11,11L-18,14L-49,20L-73,28L-86,35L-92,40L-94,44L-93,49L-84,57L-69,64L-48,70L-27,74L0,77L17,78L58,78L76,77L111,71L133,65L149,59C149,59 156.684,54.813 159.566,52.559C161.771,50.834 165.576,47.739 166.291,45.477C166.973,43.317 166.888,41.178 165.291,38.422C164.015,36.221 160.728,33.59 158.229,31.937C154.847,29.7 149.471,27.058 144.803,25.33C138.587,23.03 121,18 121,18L91,13L70,11L11,11Z" style="fill:rgb(3,2,0);fill-rule:nonzero;"/>
    </g>
    <g transform="matrix(1,0,0,1,411,25)">
        <path d="M0,0L56,0L89,3L119,8L142,14L157,20L170,27C170,27 177.333,32.667 180,36C182.609,39.261 184.833,44.5 186,47C186.581,48.245 186.895,49.63 187,51C187.167,53.167 187.651,57.071 187,60C186.333,63 184.97,66.374 183,69C181,71.667 177.167,74.5 175,76C173.524,77.022 171.781,77.777 170,78C167.333,78.333 161.544,78.217 159,78C157.519,77.874 156.371,77.187 156.371,77.187C156.371,77.187 163.818,72.965 165.651,72.131C166.258,71.856 167.667,71.333 168,71C168.333,70.667 169.432,69.903 169.432,69.903C169.432,69.903 171,68.833 172,68C173,67.167 174.721,65.963 175.404,64.87C176.238,63.537 176.625,61.624 177,60C177.5,57.833 177.5,53.333 177,51C176.593,49.099 174,46 174,46L164,38L159,36L159,34L149,31L137,26L115,20L100,17L80,14L57,12L7,12L-14,14L-40,18L-61,23L-73,27L-88.126,33.719L-94,37L-94,39L-99,43L-101,48L-101,54L-97,60L-96,63L-94,63L-94,65L-90,66L-90,68L-86,69L-84,71C-84,71 -91.833,71.833 -95,71C-98.041,70.2 -101,67.833 -103,66C-104.772,64.376 -106,62.167 -107,60C-108,57.833 -108.667,55.333 -109,53C-109.33,50.69 -109.405,48.298 -109,46C-108.5,43.167 -107.5,39 -106,36C-104.509,33.019 -103.026,30.675 -100.859,28.175C-98.698,25.681 -94.642,22.868 -91.878,21.065C-88.044,18.565 -82.252,15.059 -77,13C-71.02,10.656 -56,7 -56,7L-33,3L0,0Z" style="fill:rgb(172,119,28);fill-rule:nonzero;"/>
    </g>
    <g transform="matrix(1,0,0,1,393,467)">
        <path d="M-1.07,-0.67C1.551,-1.161 5.446,-0.766 8,0C11.333,1 16.833,3.667 20,6C22.853,8.102 25.167,11.167 27,14C28.783,16.756 30.098,19.843 31,23C32,26.5 32.711,30.955 33,35C33.333,39.667 33.5,46 33,51C32.525,55.749 31.333,61.167 30,65C28.873,68.241 27,71.333 25,74C23.02,76.64 20.667,79.167 18,81C15.333,82.833 12.225,84.386 9,85C5.5,85.667 0.333,85.667 -3,85C-5.924,84.415 -8.686,82.88 -11,81C-13.667,78.833 -16.833,75.333 -19,72C-21.167,68.667 -22.833,64.167 -24,61C-24.95,58.421 -25.817,55.743 -26,53C-26.333,48 -26.667,36.833 -26,31C-25.485,26.495 -23.667,21.667 -22,18C-20.508,14.718 -18.365,11.722 -16,9C-13.613,6.253 -10.345,3.018 -7.679,1.518C-5.405,0.239 -3.736,-0.17 -1.07,-0.67Z" style="fill:rgb(2,1,0);fill-rule:nonzero;"/>
    </g>
    <g transform="matrix(1,0,0,1,293,126)">
        <path d="M0,0L4,0L5,14L9,27L15,39L25,52L36,62L42,66L41,69L27,61L17,58L-2,58L-15,62L-25,67L-25,50L-22,32L-18,19L-13,10L-9,5L0,0Z" style="fill:rgb(247,176,161);fill-rule:nonzero;"/>
    </g>
    <g transform="matrix(1,0,0,1,302,125)">
        <path d="M0,0L10,1L23,6L34,14L49,29L58,40L60,44L49,50L39,59L38,61L34,59L22,48L15,40L7,26L2,10L0,0Z" style="fill:rgb(228,239,247);fill-rule:nonzero;"/>
    </g>
    <g transform="matrix(1,0,0,1,832,735)">
        <path d="M0,0L2,0L1,14L-4,29L-10,37L-15,41L-19,45L-27,49L-32,50L-31,40L-31,30L-34,15L-30.665,12.06L-27.887,8.478L-23,3L-9,3L0,0Z" style="fill:rgb(228,228,228);fill-rule:nonzero;"/>
    </g>
    <g transform="matrix(1,0,0,1,844,687)">
        <path d="M0,0L1,0C1,0 1.793,9.401 1,14C0.167,18.833 -0.765,25.167 -2.641,28.304C-4.328,31.125 -6.132,33.403 -7.862,34.652C-10.862,36.819 -17.497,40.623 -20.231,42.118C-20.989,42.532 -22.339,42.388 -23.3,42.701C-23.902,42.898 -26,44 -26,44L-33,46L-32,37L-31,23L-33,10L-18,8L-3,2L0,0Z" style="fill:rgb(228,228,228);fill-rule:nonzero;"/>
    </g>
    <g transform="matrix(1,0,0,1,792,754)">
        <path d="M0,0L2,2L2,21L-1,32L-3,36L-5.369,39.533L-9,43L-18,49L-26,51L-21,41L-19.938,37.272L-16,20L-17,4L-2,1L0,0Z" style="fill:rgb(228,228,228);fill-rule:nonzero;"/>
    </g>
    <g transform="matrix(1,0,0,1,190,552)">
        <path d="M0,0C1.333,-0.333 3.84,0.63 5,2C6.833,4.167 11,13 11,13L16,12C16,12 21.333,9.333 24,9C26.667,8.667 30.333,9.5 32,10C32.903,10.271 33.741,11.093 34,12C34.333,13.167 34.925,15.613 34,17C32.667,19 28.928,22.004 26,24C22.333,26.5 12,32 12,32L8,35C8,35 2.833,27.833 1,24C-0.819,20.196 -2.333,15.333 -3,12C-3.523,9.385 -3.5,6 -3,4C-2.596,2.383 -1.333,0.333 0,0Z" style="fill:rgb(247,176,160);fill-rule:nonzero;"/>
    </g>
    <g transform="matrix(1,0,0,1,393,518)">
        <path d="M0.592,-0.254C2.592,-0.754 5.667,-0.833 8,0C10.333,0.833 12.836,2.671 14,5C15.167,7.333 15.667,11.5 15,14C14.333,16.5 12.762,18.444 11.501,19.508C10.898,20.018 6.192,21.385 5.447,21.385C3.447,21.385 1.053,21.166 -1.281,20.333C-3.056,19.699 -5.197,17.394 -5.922,15.654C-6.755,13.654 -7.333,10.167 -7,8C-6.704,6.079 -5.387,3.931 -4.22,2.598C-3.122,1.344 -1.025,0.15 0.592,-0.254Z" style="fill:rgb(253,253,253);fill-rule:nonzero;"/>
    </g>
    <g transform="matrix(1,0,0,1,380,496)">
        <path d="M0.364,-0.149C2.031,-0.483 4.597,-0.412 6.097,0.254C7.195,0.742 8.739,2.827 9,4C9.333,5.5 9.5,8.5 9,10C8.553,11.342 7.324,12.503 6,13C4.667,13.5 2.5,13.667 1,13C-0.5,12.333 -2.333,10.667 -3,9C-3.667,7.333 -3.5,4.5 -3,3C-2.553,1.658 -1.022,0.128 0.364,-0.149Z" style="fill:rgb(251,251,251);fill-rule:nonzero;"/>
    </g>
    <g id="Layer1">
        <path d="M317.335,61.826C317.801,61.585 318.375,61.767 318.616,62.233C318.857,62.699 318.675,63.274 318.209,63.515C310.098,67.715 308.947,77.248 313.398,82.974C319.988,91.454 321.537,91.244 328.802,94.604C329.279,94.825 329.487,95.39 329.266,95.867C329.046,96.343 328.48,96.551 328.004,96.33C320.401,92.813 318.793,93.015 311.896,84.141C306.797,77.58 308.041,66.639 317.335,61.826Z"/>
    </g>
    <g id="Layer2">
        <path d="M545.158,54.456C544.165,54.134 543.62,53.067 543.942,52.075C544.263,51.082 545.33,50.537 546.323,50.858C554.538,53.518 566.292,56.497 575.25,61.443C581.634,64.968 586.598,69.518 588.307,75.465C589.7,80.311 589.345,84.184 587.871,87.387C586.417,90.546 583.835,93.074 580.565,95.205C576.539,97.829 571.444,99.865 566.373,101.937C565.407,102.331 564.302,101.868 563.908,100.901C563.513,99.935 563.977,98.831 564.943,98.436C569.783,96.459 574.658,94.541 578.5,92.037C581.13,90.323 583.266,88.346 584.436,85.806C585.585,83.309 585.758,80.287 584.673,76.509C583.221,71.459 578.844,67.747 573.422,64.754C564.674,59.923 553.18,57.053 545.158,54.456Z"/>
    </g>
</svg>
